<?xml version="1.0" encoding="utf-8" standalone="no"?>
<!DOCTYPE svg PUBLIC "-//W3C//DTD SVG 1.1//EN" "http://www.w3.org/Graphics/SVG/1.1/DTD/svg11.dtd">
<svg version="1.1" width="595.2pt" height="841.68pt" viewBox="0 0 595.2 841.68" overflow="visible" xmlns="http://www.w3.org/2000/svg">
  <g id="Default">
    <path d="M414.7016,574.3638 L402.26773,529.04913" stroke="#000000" stroke-width="1.4173229" stroke-linecap="round" stroke-linejoin="round" fill="none" />
    <path d="M414.7016,321.64288 L347.37967,412.09256" stroke="#000000" stroke-width="1.4173229" stroke-linecap="round" stroke-linejoin="round" fill="none" />
    <path d="M394.99393,514.5242 C395.50143,513.2485 388.90387,512.0361 382.56006,512.04663 C376.21625,512.0571 370.1262,513.2907 370.1262,514.5242 C370.1262,515.7577 376.21625,516.9912 382.56006,517.0018 C388.90387,517.01227 395.50143,515.79987 394.99393,514.5242 z" stroke="#000000" stroke-width="1.4173229" stroke-linecap="round" stroke-linejoin="round" fill="none" />
    <path d="M200.89072,192.55368 L244.33669,220.94005" stroke="#000000" stroke-width="1.4173229" stroke-linecap="round" stroke-linejoin="round" fill="none" />
    <path d="M360.83707,379.0006 L399.2691,404.11102" stroke="#000000" stroke-width="1.4173229" stroke-linecap="round" stroke-linejoin="round" fill="none" />
    <path d="M360.83707,188.13261 L399.2691,213.24301" stroke="#000000" stroke-width="1.4173229" stroke-linecap="round" stroke-linejoin="round" fill="none" />
    <path d="M200.89072,383.4217 L244.33669,411.80807" stroke="#000000" stroke-width="1.4173229" stroke-linecap="round" stroke-linejoin="round" fill="none" />
    <path d="M277.74374,222.79317 L180.4984,353.44614" stroke="#000000" stroke-width="1.4173229" stroke-linecap="round" stroke-linejoin="round" fill="none" />
    <path d="M414.7016,23.621956 L402.26773,68.936615" stroke="#000000" stroke-width="1.4173229" stroke-linecap="round" stroke-linejoin="round" fill="none" />
    <path d="M256.77057,51.555424 C257.27808,52.831093 250.6805,54.043537 244.33669,54.033005 C237.99289,54.022465 231.90283,52.788944 231.90283,51.555424 C231.90283,50.321907 237.99289,49.088387 244.33669,49.07785 C250.6805,49.067314 257.27808,50.279762 256.77057,51.555424 z" stroke="#000000" stroke-width="1.4173229" stroke-linecap="round" stroke-linejoin="round" fill="none" />
    <path d="M394.99393,83.461555 C395.50143,84.73722 388.90387,85.94966 382.56006,85.939125 C376.21625,85.92859 370.1262,84.69507 370.1262,83.461555 C370.1262,82.22803 376.21625,80.994514 382.56006,80.98398 C388.90387,80.97344 395.50143,82.18588 394.99393,83.461555 z" stroke="#000000" stroke-width="1.4173229" stroke-linecap="round" stroke-linejoin="round" fill="none" />
    <path d="M382.56006,38.146893 L394.99393,83.461555" stroke="#000000" stroke-width="1.4173229" stroke-linecap="round" stroke-linejoin="round" fill="none" />
    <path d="M382.56006,38.146893 L370.1262,83.461555" stroke="#000000" stroke-width="1.4173229" stroke-linecap="round" stroke-linejoin="round" fill="none" />
    <path d="M375.06726,52.706123 C375.57477,53.981785 368.9772,55.194233 362.63342,55.183697 C356.2896,55.17316 350.19955,53.93964 350.19955,52.706123 C350.19955,51.472603 356.2896,50.23908 362.63342,50.228542 C368.9772,50.218006 375.57477,51.430454 375.06726,52.706123 z" stroke="#000000" stroke-width="1.4173229" stroke-linecap="round" stroke-linejoin="round" fill="none" />
    <path d="M362.63342,7.3914623 L375.06726,52.706123" stroke="#000000" stroke-width="1.4173229" stroke-linecap="round" stroke-linejoin="round" fill="none" />
    <path d="M312.66064,375.07202 L366.4469,410.21445" stroke="#000000" stroke-width="1.4173229" stroke-linecap="round" stroke-linejoin="round" fill="none" />
    <path d="M414.7016,206.71448 L261.18063,412.97592" stroke="#000000" stroke-width="1.4173229" stroke-linecap="round" stroke-linejoin="round" fill="none" />
    <path d="M306.90482,4.1667323 L319.33865,49.481388" stroke="#000000" stroke-width="1.4173229" stroke-linecap="round" stroke-linejoin="round" fill="none" />
    <path d="M264.1642,375.7224 L322.00687,413.51517" stroke="#000000" stroke-width="1.4173229" stroke-linecap="round" stroke-linejoin="round" fill="none" />
    <path d="M337.19897,221.92604 L200.65747,405.37488" stroke="#000000" stroke-width="1.4173229" stroke-linecap="round" stroke-linejoin="round" fill="none" />
    <path d="M227.94832,378.73767 L281.55017,413.7596" stroke="#000000" stroke-width="1.4173229" stroke-linecap="round" stroke-linejoin="round" fill="none" />
    <path d="M326.64578,42.528988 L314.2119,87.84365" stroke="#000000" stroke-width="1.4173229" stroke-linecap="round" stroke-linejoin="round" fill="none" />
    <path d="M427.13547,68.936615 C427.64297,70.21227 421.0454,71.42473 414.7016,71.414185 C408.3578,71.403656 402.26773,70.170135 402.26773,68.936615 C402.26773,67.703094 408.3578,66.469574 414.7016,66.45904 C421.0454,66.44851 427.64297,67.66095 427.13547,68.936615 z" stroke="#000000" stroke-width="1.4173229" stroke-linecap="round" stroke-linejoin="round" fill="none" />
    <path d="M264.1642,184.8544 L322.00687,222.64717" stroke="#000000" stroke-width="1.4173229" stroke-linecap="round" stroke-linejoin="round" fill="none" />
    <path d="M375.06726,545.2796 C375.57477,544.00397 368.9772,542.7915 362.63342,542.802 C356.2896,542.81256 350.19955,544.0461 350.19955,545.2796 C350.19955,546.5131 356.2896,547.74664 362.63342,547.75714 C368.9772,547.7677 375.57477,546.5553 375.06726,545.2796 z" stroke="#000000" stroke-width="1.4173229" stroke-linecap="round" stroke-linejoin="round" fill="none" />
    <path d="M382.56006,559.83887 L370.1262,514.5242" stroke="#000000" stroke-width="1.4173229" stroke-linecap="round" stroke-linejoin="round" fill="none" />
    <path d="M244.33669,6.240768 L256.77057,51.555424" stroke="#000000" stroke-width="1.4173229" stroke-linecap="round" stroke-linejoin="round" fill="none" />
    <path d="M244.33669,6.240768 L231.90283,51.555424" stroke="#000000" stroke-width="1.4173229" stroke-linecap="round" stroke-linejoin="round" fill="none" />
    <path d="M231.81795,83.461555 C232.32547,84.73722 225.72789,85.94966 219.3841,85.939125 C213.04028,85.92859 206.95024,84.69507 206.95024,83.461555 C206.95024,82.22803 213.04028,80.994514 219.3841,80.98398 C225.72789,80.97344 232.32547,82.18588 231.81795,83.461555 z" stroke="#000000" stroke-width="1.4173229" stroke-linecap="round" stroke-linejoin="round" fill="none" />
    <path d="M219.3841,38.146893 L231.81795,83.461555" stroke="#000000" stroke-width="1.4173229" stroke-linecap="round" stroke-linejoin="round" fill="none" />
    <path d="M219.3841,38.146893 L206.95024,83.461555" stroke="#000000" stroke-width="1.4173229" stroke-linecap="round" stroke-linejoin="round" fill="none" />
    <path d="M192.93225,68.936615 C193.43976,70.21227 186.8422,71.42473 180.4984,71.414185 C174.15459,71.403656 168.06454,70.170135 168.06454,68.936615 C168.06454,67.703094 174.15459,66.469574 180.4984,66.45904 C186.8422,66.44851 193.43976,67.66095 192.93225,68.936615 z" stroke="#000000" stroke-width="1.4173229" stroke-linecap="round" stroke-linejoin="round" fill="none" />
    <path d="M180.4984,23.621956 L192.93225,68.936615" stroke="#000000" stroke-width="1.4173229" stroke-linecap="round" stroke-linejoin="round" fill="none" />
    <path d="M180.4984,23.621956 L168.06454,68.936615" stroke="#000000" stroke-width="1.4173229" stroke-linecap="round" stroke-linejoin="round" fill="none" />
    <path d="M362.63342,7.3914623 L362.63342,187.32837" stroke="#000000" stroke-width="1.4173229" stroke-linecap="round" stroke-linejoin="round" fill="none" />
    <path d="M306.90482,4.1667323 L306.90482,184.10364" stroke="#000000" stroke-width="1.4173229" stroke-linecap="round" stroke-linejoin="round" fill="none" />
    <path d="M244.33669,6.240768 L244.33669,186.17767" stroke="#000000" stroke-width="1.4173229" stroke-linecap="round" stroke-linejoin="round" fill="none" />
    <path d="M382.56006,38.146893 L382.56006,218.0838" stroke="#000000" stroke-width="1.4173229" stroke-linecap="round" stroke-linejoin="round" fill="none" />
    <path d="M326.64578,42.528988 L326.64578,222.4659" stroke="#000000" stroke-width="1.4173229" stroke-linecap="round" stroke-linejoin="round" fill="none" />
    <path d="M270.74652,42.618793 L270.74652,222.55571" stroke="#000000" stroke-width="1.4173229" stroke-linecap="round" stroke-linejoin="round" fill="none" />
    <path d="M362.63342,7.3914623 L350.19955,52.706123" stroke="#000000" stroke-width="1.4173229" stroke-linecap="round" stroke-linejoin="round" fill="none" />
    <path d="M319.33865,49.481388 C319.84616,50.757057 313.2486,51.9695 306.90482,51.95897 C300.561,51.94843 294.47095,50.71491 294.47095,49.481388 C294.47095,48.24787 300.561,47.01435 306.90482,47.003815 C313.2486,46.99328 319.84616,48.205727 319.33865,49.481388 z" stroke="#000000" stroke-width="1.4173229" stroke-linecap="round" stroke-linejoin="round" fill="none" />
    <path d="M180.4984,203.55887 L180.4984,23.621956" stroke="#000000" stroke-width="1.4173229" stroke-linecap="round" stroke-linejoin="round" fill="none" />
    <path d="M414.7016,203.55887 L414.7016,394.42688" stroke="#000000" stroke-width="1.4173229" stroke-linecap="round" stroke-linejoin="round" fill="none" />
    <path d="M414.7016,203.55887 C414.65543,205.85837 412.3334,208.33328 406.4797,210.74294 C400.62598,213.1526 391.24054,215.49701 380.0287,217.38715 C357.60492,221.16742 327.87543,223.13051 297.6,223.07579 C267.3246,223.02109 236.5032,220.94855 214.79666,217.35942 C193.09012,213.7703 180.4984,208.66458 180.4984,203.55887 C180.4984,198.45316 193.09012,193.34744 214.79666,189.7583 C236.5032,186.16917 267.3246,184.09663 297.6,184.04193 C327.87543,183.98721 357.60492,185.95032 380.0287,189.73058 C391.24054,191.62071 400.62598,193.96512 406.4797,196.37479 C412.3334,198.78444 414.65543,201.25934 414.7016,203.55887 z" stroke="#000000" stroke-width="1.4173229" stroke-linecap="round" stroke-linejoin="round" fill="none" />
    <path d="M180.4984,394.42688 L180.4984,203.55887" stroke="#000000" stroke-width="1.4173229" stroke-linecap="round" stroke-linejoin="round" fill="none" />
    <path d="M312.66064,184.20401 L366.4469,219.34642" stroke="#000000" stroke-width="1.4173229" stroke-linecap="round" stroke-linejoin="round" fill="none" />
    <path d="M339.07962,87.84365 C339.58713,89.11931 332.98956,90.33176 326.64578,90.32122 C320.30194,90.310684 314.2119,89.07716 314.2119,87.84365 C314.2119,86.61012 320.30194,85.37661 326.64578,85.366066 C332.98956,85.35554 339.58713,86.56798 339.07962,87.84365 z" stroke="#000000" stroke-width="1.4173229" stroke-linecap="round" stroke-linejoin="round" fill="none" />
    <path d="M269.3551,763.2624 C269.09433,760.99744 272.3412,758.2538 277.62784,756.3828 C282.9145,754.5117 290.24094,753.5132 297.6,753.53314 C304.95905,753.55304 312.35068,754.5915 317.57214,756.3828 C322.7936,758.1741 325.84488,760.7182 325.84488,763.2624 C325.84488,765.8065 322.7936,768.3507 317.57214,770.142 C312.35068,771.9333 304.95905,772.9717 297.6,772.9916 C290.24094,773.0116 282.9145,772.013 277.62784,770.142 C272.3412,768.27094 269.09433,765.5273 269.3551,763.2624 z" stroke="#000000" stroke-width="1.4173229" stroke-linecap="round" stroke-linejoin="round" fill="none" />
    <path d="M326.64578,42.528988 L339.07962,87.84365" stroke="#000000" stroke-width="1.4173229" stroke-linecap="round" stroke-linejoin="round" fill="none" />
    <path d="M297.6,574.3638 L297.6,837.5133" stroke="#000000" stroke-width="1.4173229" stroke-linecap="round" stroke-linejoin="round" fill="none" />
    <path d="M427.13547,529.04913 C427.64297,527.7735 421.0454,526.561 414.7016,526.57153 C408.3578,526.5821 402.26773,527.8156 402.26773,529.04913 C402.26773,530.28265 408.3578,531.5162 414.7016,531.5267 C421.0454,531.53723 427.64297,530.32477 427.13547,529.04913 z" stroke="#000000" stroke-width="1.4173229" stroke-linecap="round" stroke-linejoin="round" fill="none" />
    <path d="M414.7016,574.3638 L427.13547,529.04913" stroke="#000000" stroke-width="1.4173229" stroke-linecap="round" stroke-linejoin="round" fill="none" />
    <path d="M283.18036,87.93345 C283.68787,89.209114 277.0903,90.42157 270.74652,90.411026 C264.4027,90.40049 258.31265,89.16697 258.31265,87.93345 C258.31265,86.699936 264.4027,85.46641 270.74652,85.45588 C277.0903,85.44534 283.68787,86.65779 283.18036,87.93345 z" stroke="#000000" stroke-width="1.4173229" stroke-linecap="round" stroke-linejoin="round" fill="none" />
    <path d="M270.74652,42.618793 L283.18036,87.93345" stroke="#000000" stroke-width="1.4173229" stroke-linecap="round" stroke-linejoin="round" fill="none" />
    <path d="M382.56006,559.83887 L394.99393,514.5242" stroke="#000000" stroke-width="1.4173229" stroke-linecap="round" stroke-linejoin="round" fill="none" />
    <path d="M270.74652,42.618793 L258.31265,87.93345" stroke="#000000" stroke-width="1.4173229" stroke-linecap="round" stroke-linejoin="round" fill="none" />
    <path d="M414.7016,23.621956 L427.13547,68.936615" stroke="#000000" stroke-width="1.4173229" stroke-linecap="round" stroke-linejoin="round" fill="none" />
    <path d="M362.63342,590.59424 L375.06726,545.2796" stroke="#000000" stroke-width="1.4173229" stroke-linecap="round" stroke-linejoin="round" fill="none" />
    <path d="M362.63342,590.59424 L350.19955,545.2796" stroke="#000000" stroke-width="1.4173229" stroke-linecap="round" stroke-linejoin="round" fill="none" />
    <path d="M319.33865,548.50433 C319.84616,547.22864 313.2486,546.01624 306.90482,546.0268 C300.561,546.03735 294.47095,547.2708 294.47095,548.50433 C294.47095,549.73785 300.561,550.9714 306.90482,550.98193 C313.2486,550.99243 319.84616,549.78 319.33865,548.50433 z" stroke="#000000" stroke-width="1.4173229" stroke-linecap="round" stroke-linejoin="round" fill="none" />
    <path d="M306.90482,593.81903 L319.33865,548.50433" stroke="#000000" stroke-width="1.4173229" stroke-linecap="round" stroke-linejoin="round" fill="none" />
    <path d="M306.90482,593.81903 L294.47095,548.50433" stroke="#000000" stroke-width="1.4173229" stroke-linecap="round" stroke-linejoin="round" fill="none" />
    <path d="M339.07962,510.1421 C339.58713,508.86646 332.98956,507.65396 326.64578,507.66452 C320.30194,507.67505 314.2119,508.90857 314.2119,510.1421 C314.2119,511.3756 320.30194,512.60913 326.64578,512.6197 C332.98956,512.6302 339.58713,511.41772 339.07962,510.1421 z" stroke="#000000" stroke-width="1.4173229" stroke-linecap="round" stroke-linejoin="round" fill="none" />
    <path d="M326.64578,555.4567 L339.07962,510.1421" stroke="#000000" stroke-width="1.4173229" stroke-linecap="round" stroke-linejoin="round" fill="none" />
    <path d="M326.64578,555.4567 L314.2119,510.1421" stroke="#000000" stroke-width="1.4173229" stroke-linecap="round" stroke-linejoin="round" fill="none" />
    <path d="M283.18036,510.05228 C283.68787,508.7766 277.0903,507.56415 270.74652,507.57468 C264.4027,507.58524 258.31265,508.81876 258.31265,510.05228 C258.31265,511.28577 264.4027,512.5193 270.74652,512.52985 C277.0903,512.5404 283.68787,511.32797 283.18036,510.05228 z" stroke="#000000" stroke-width="1.4173229" stroke-linecap="round" stroke-linejoin="round" fill="none" />
    <path d="M270.74652,555.36694 L283.18036,510.05228" stroke="#000000" stroke-width="1.4173229" stroke-linecap="round" stroke-linejoin="round" fill="none" />
    <path d="M270.74652,555.36694 L258.31265,510.05228" stroke="#000000" stroke-width="1.4173229" stroke-linecap="round" stroke-linejoin="round" fill="none" />
    <path d="M256.77057,546.4303 C257.27808,545.1546 250.6805,543.9422 244.33669,543.95276 C237.99289,543.96326 231.90283,545.1968 231.90283,546.4303 C231.90283,547.6638 237.99289,548.89734 244.33669,548.9079 C250.6805,548.91846 257.27808,547.70593 256.77057,546.4303 z" stroke="#000000" stroke-width="1.4173229" stroke-linecap="round" stroke-linejoin="round" fill="none" />
    <path d="M244.33669,591.74493 L256.77057,546.4303" stroke="#000000" stroke-width="1.4173229" stroke-linecap="round" stroke-linejoin="round" fill="none" />
    <path d="M244.33669,591.74493 L231.90283,546.4303" stroke="#000000" stroke-width="1.4173229" stroke-linecap="round" stroke-linejoin="round" fill="none" />
    <path d="M231.81795,514.5242 C232.32547,513.2485 225.72789,512.0361 219.3841,512.04663 C213.04028,512.0571 206.95024,513.2907 206.95024,514.5242 C206.95024,515.7577 213.04028,516.9912 219.3841,517.0018 C225.72789,517.01227 232.32547,515.79987 231.81795,514.5242 z" stroke="#000000" stroke-width="1.4173229" stroke-linecap="round" stroke-linejoin="round" fill="none" />
    <path d="M219.3841,559.83887 L231.81795,514.5242" stroke="#000000" stroke-width="1.4173229" stroke-linecap="round" stroke-linejoin="round" fill="none" />
    <path d="M219.3841,559.83887 L206.95024,514.5242" stroke="#000000" stroke-width="1.4173229" stroke-linecap="round" stroke-linejoin="round" fill="none" />
    <path d="M192.93225,529.04913 C193.43976,527.7735 186.8422,526.561 180.4984,526.57153 C174.15459,526.5821 168.06454,527.8156 168.06454,529.04913 C168.06454,530.28265 174.15459,531.5162 180.4984,531.5267 C186.8422,531.53723 193.43976,530.32477 192.93225,529.04913 z" stroke="#000000" stroke-width="1.4173229" stroke-linecap="round" stroke-linejoin="round" fill="none" />
    <path d="M180.4984,574.3638 L192.93225,529.04913" stroke="#000000" stroke-width="1.4173229" stroke-linecap="round" stroke-linejoin="round" fill="none" />
    <path d="M180.4984,574.3638 L168.06454,529.04913" stroke="#000000" stroke-width="1.4173229" stroke-linecap="round" stroke-linejoin="round" fill="none" />
    <path d="M362.63342,590.59424 L362.63342,410.65738" stroke="#000000" stroke-width="1.4173229" stroke-linecap="round" stroke-linejoin="round" fill="none" />
    <path d="M306.90482,593.81903 L306.90482,413.88208" stroke="#000000" stroke-width="1.4173229" stroke-linecap="round" stroke-linejoin="round" fill="none" />
    <path d="M244.33669,591.74493 L244.33669,411.80807" stroke="#000000" stroke-width="1.4173229" stroke-linecap="round" stroke-linejoin="round" fill="none" />
    <path d="M382.56006,559.83887 L382.56006,379.90192" stroke="#000000" stroke-width="1.4173229" stroke-linecap="round" stroke-linejoin="round" fill="none" />
    <path d="M326.64578,555.4567 L326.64578,375.51984" stroke="#000000" stroke-width="1.4173229" stroke-linecap="round" stroke-linejoin="round" fill="none" />
    <path d="M270.74652,555.36694 L270.74652,375.43002" stroke="#000000" stroke-width="1.4173229" stroke-linecap="round" stroke-linejoin="round" fill="none" />
    <path d="M219.3841,559.83887 L219.3841,379.90192" stroke="#000000" stroke-width="1.4173229" stroke-linecap="round" stroke-linejoin="round" fill="none" />
    <path d="M414.7016,394.42688 L414.7016,574.3638" stroke="#000000" stroke-width="1.4173229" stroke-linecap="round" stroke-linejoin="round" fill="none" />
    <path d="M414.7016,574.3638 C414.65543,576.66327 412.3334,579.1382 406.4797,581.54785 C400.62598,583.9575 391.24054,586.30194 380.0287,588.1921 C357.60492,591.9723 327.87543,593.9354 297.6,593.8807 C267.3246,593.826 236.5032,591.7535 214.79666,588.16437 C193.09012,584.5752 180.4984,579.4695 180.4984,574.3638 C180.4984,569.25806 193.09012,564.15234 214.79666,560.56323 C236.5032,556.97406 267.3246,554.90155 297.6,554.84686 C327.87543,554.7921 357.60492,556.75525 380.0287,560.53546 C391.24054,562.4256 400.62598,564.77 406.4797,567.1797 C412.3334,569.58936 414.65543,572.0643 414.7016,574.3638 z" stroke="#000000" stroke-width="1.4173229" stroke-linecap="round" stroke-linejoin="round" fill="none" />
    <path d="M180.4984,394.42688 L180.4984,574.3638" stroke="#000000" stroke-width="1.4173229" stroke-linecap="round" stroke-linejoin="round" fill="none" />
    <path d="M414.7016,394.42688 C414.65543,396.72638 412.3334,399.2013 406.4797,401.61093 C400.62598,404.0206 391.24054,406.36502 380.0287,408.25516 C357.60492,412.0354 327.87543,413.9985 297.6,413.94382 C267.3246,413.88907 236.5032,411.81656 214.79666,408.22742 C193.09012,404.6383 180.4984,399.5326 180.4984,394.42688 C180.4984,389.32117 193.09012,384.21545 214.79666,380.6263 C236.5032,377.0372 267.3246,374.96463 297.6,374.90994 C327.87543,374.85522 357.60492,376.8183 380.0287,380.59857 C391.24054,382.4887 400.62598,384.83313 406.4797,387.2428 C412.3334,389.65247 414.65543,392.12732 414.7016,394.42688 z" stroke="#000000" stroke-width="1.4173229" stroke-linecap="round" stroke-linejoin="round" fill="none" />
    <path d="M219.3841,38.146893 L219.3841,218.0838" stroke="#000000" stroke-width="1.4173229" stroke-linecap="round" stroke-linejoin="round" fill="none" />
    <path d="M414.7016,203.55887 L414.7016,23.621956" stroke="#000000" stroke-width="1.4173229" stroke-linecap="round" stroke-linejoin="round" fill="none" />
    <path d="M306.90482,4.1667323 L294.47095,49.481388" stroke="#000000" stroke-width="1.4173229" stroke-linecap="round" stroke-linejoin="round" fill="none" />
    <path d="M297.6,837.5133 L325.84488,763.2624" stroke="#000000" stroke-width="1.4173229" stroke-linecap="round" stroke-linejoin="round" fill="none" />
    <path d="M297.6,837.5133 L269.3551,763.2624" stroke="#000000" stroke-width="1.4173229" stroke-linecap="round" stroke-linejoin="round" fill="none" />
    <path d="M227.94832,187.86967 L281.55017,222.8916" stroke="#000000" stroke-width="1.4173229" stroke-linecap="round" stroke-linejoin="round" fill="none" />
    <path d="M219.3841,218.0838 L180.4984,270.32828" stroke="#000000" stroke-width="1.4173229" stroke-linecap="round" stroke-linejoin="round" fill="none" />
  </g>
  <text x="368.6982690223865" y="784.5678490763158" font-family="Bradley Hand ITC" text-anchor="middle" fill="#000000" font-size="54.03472900390625">P</text>
</svg>