<?xml version="1.0" standalone="no"?>
<!DOCTYPE svg PUBLIC "-//W3C//DTD SVG 20010904//EN"
 "http://www.w3.org/TR/2001/REC-SVG-20010904/DTD/svg10.dtd">
<svg version="1.0" xmlns="http://www.w3.org/2000/svg"
 width="2560.000000pt" height="989.000000pt" viewBox="0 0 2560.000000 989.000000"
 preserveAspectRatio="xMidYMid meet">

<g transform="translate(0.000000,989.000000) scale(0.100000,-0.100000)"
fill="#000000" stroke="none">
<path d="M6745 8689 c-49 -4 -191 -7 -315 -8 -126 -1 -232 -6 -240 -11 -12 -8
-9 -10 14 -10 25 0 28 -3 24 -25 -3 -13 -2 -22 2 -20 4 2 5 -112 2 -253 -3
-212 -2 -255 9 -245 10 10 13 72 13 272 1 143 3 262 6 264 3 3 124 8 270 12
146 3 273 8 284 11 12 4 16 2 12 -5 -4 -6 -1 -11 7 -11 17 0 87 28 87 35 0 6
-55 4 -175 -6z"/>
<path d="M6712 8613 c-25 -47 -51 -296 -28 -273 5 5 10 41 12 80 2 38 11 100
19 137 16 67 14 90 -3 56z"/>
<path d="M3348 8591 c-100 -32 -173 -127 -226 -291 -31 -95 -42 -171 -42 -280
0 -176 43 -251 172 -303 193 -77 335 -53 456 78 78 84 94 127 100 258 l5 107
133 0 c78 0 135 4 139 10 4 6 -43 10 -134 10 -160 0 -144 -10 -156 98 -9 80
-43 162 -85 205 -36 35 -41 37 -104 37 -69 0 -178 -30 -206 -57 -10 -10 2 -8
40 6 87 33 173 44 213 27 62 -26 108 -113 125 -239 7 -55 6 -67 -6 -72 -13 -5
-12 -8 3 -19 16 -11 17 -25 13 -123 -6 -131 -19 -163 -98 -245 -69 -73 -132
-98 -249 -98 -141 0 -270 61 -312 147 -22 44 -24 60 -24 193 1 120 5 159 23
225 64 221 162 329 287 312 25 -4 58 -13 73 -21 41 -21 72 -28 72 -18 0 14
-94 52 -142 57 -24 2 -55 0 -70 -4z"/>
<path d="M6531 8527 c-15 -19 -31 -108 -31 -178 l0 -58 -37 -6 c-77 -13 -193
-48 -193 -57 0 -6 8 -7 18 -3 28 11 175 45 195 45 15 0 17 -13 17 -135 0 -115
-2 -134 -15 -129 -19 8 -19 -10 0 -26 29 -24 35 0 35 151 0 120 3 149 14 149
16 0 41 28 33 36 -3 4 -13 -1 -22 -10 -9 -9 -19 -16 -22 -16 -10 0 6 199 17
221 14 25 8 35 -9 16z"/>
<path d="M6853 8439 c-18 -5 -51 -27 -73 -48 -39 -36 -41 -42 -38 -87 3 -42 7
-51 36 -71 40 -26 118 -41 135 -24 8 8 3 11 -20 11 -37 0 -92 18 -115 38 -25
21 -23 83 2 115 24 31 96 60 136 55 25 -2 29 -8 32 -36 4 -39 22 -33 22 8 0
46 -43 60 -117 39z"/>
<path d="M6134 8393 c19 -135 39 -224 50 -220 12 5 12 3 -8 102 -7 39 -17 91
-21 118 -3 26 -11 47 -17 47 -7 0 -8 -17 -4 -47z"/>
<path d="M5093 8362 c-30 -23 -44 -76 -37 -137 9 -67 36 -110 92 -143 39 -22
59 -27 117 -27 58 0 76 4 104 24 40 29 61 75 61 136 0 56 -12 80 -48 99 -35
18 -152 33 -152 19 0 -6 25 -13 56 -17 63 -7 109 -27 118 -51 11 -30 6 -106
-9 -135 -34 -66 -135 -80 -226 -32 -70 37 -90 71 -92 163 -2 83 10 99 79 99
24 0 46 5 49 10 11 18 -88 11 -112 -8z"/>
<path d="M5601 8357 c-19 -7 -48 -29 -65 -50 -28 -35 -31 -46 -31 -107 0 -62
3 -72 29 -99 38 -39 85 -55 143 -46 35 5 55 17 94 54 44 42 49 52 49 90 0 36
-6 49 -34 77 -19 19 -41 34 -49 34 -9 0 -22 12 -29 28 -15 31 -53 38 -107 19z
m86 -23 c3 -8 -15 -11 -56 -10 -34 0 -61 2 -61 4 0 1 10 7 23 12 29 12 89 8
94 -6z m0 -41 c2 -5 15 -8 28 -5 18 3 33 -4 55 -26 92 -93 -44 -233 -174 -178
-71 30 -96 109 -61 192 l15 36 67 -4 c37 -2 68 -9 70 -15z"/>
<path d="M4259 8355 c-9 -18 2 -365 12 -359 5 3 8 74 8 157 -1 146 -9 223 -20
202z"/>
<path d="M4466 8345 c-71 -11 -83 -15 -108 -46 -26 -31 -38 -78 -20 -80 4 0
72 -1 150 -2 l144 -2 24 -28 c19 -23 24 -39 24 -87 l0 -59 -36 -7 c-20 -4 -62
-1 -93 6 -46 10 -64 21 -103 61 -27 28 -48 42 -48 34 0 -25 69 -93 108 -106
49 -16 141 -16 171 0 21 12 23 18 19 81 -3 56 -8 74 -28 95 -23 25 -26 25
-172 25 -138 0 -148 1 -148 19 0 40 33 63 111 77 40 7 95 13 122 13 26 1 47 6
47 11 0 13 -63 11 -164 -5z"/>
<path d="M4808 8330 c-61 -32 -81 -66 -76 -128 6 -64 29 -99 88 -129 60 -31
95 -30 131 6 27 27 29 35 29 99 0 61 -3 75 -25 101 -15 16 -42 36 -60 43 -19
6 -35 16 -35 20 0 12 -11 9 -52 -12z m78 -29 c59 -27 74 -53 74 -130 0 -100
-36 -123 -127 -82 -50 23 -74 57 -81 116 -5 50 14 90 51 105 31 12 37 12 83
-9z"/>
<path d="M3375 8334 c-109 -24 -155 -38 -155 -46 0 -5 8 -7 18 -4 84 26 167
37 273 35 66 -1 119 3 119 7 0 9 -219 15 -255 8z"/>
<path d="M3384 8276 c-48 -21 -112 -84 -145 -141 -30 -52 -38 -119 -19 -154
17 -34 88 -54 205 -59 102 -4 112 -3 135 17 22 20 22 21 3 12 -33 -16 -192
-13 -251 4 -67 20 -82 37 -81 88 1 76 -4 74 168 73 90 0 156 4 158 9 4 13
-187 18 -254 7 -29 -5 -53 -7 -53 -4 0 3 15 24 33 48 42 56 111 94 170 94 25
0 49 5 52 10 9 15 -85 12 -121 -4z"/>
<path d="M3845 8080 c4 -6 55 -10 120 -10 65 0 116 4 120 10 4 6 -38 10 -120
10 -82 0 -124 -4 -120 -10z"/>
<path d="M4779 7983 c-1 -5 0 -20 1 -36 1 -15 -8 -54 -19 -88 -12 -33 -18 -65
-15 -71 9 -14 54 128 54 170 0 17 -4 32 -10 32 -5 0 -10 -3 -11 -7z"/>
<path d="M6590 7930 c-17 -18 -30 -36 -30 -41 0 -5 -72 -9 -160 -9 -100 0
-160 -4 -160 -10 0 -6 57 -10 150 -10 83 0 150 -1 150 -2 0 -2 -9 -31 -20 -66
-30 -95 -37 -211 -16 -266 32 -84 143 -162 273 -192 75 -17 294 -17 312 1 7 7
-33 9 -118 7 -188 -6 -300 28 -392 118 -65 63 -76 104 -61 226 7 51 19 111 28
134 15 36 20 40 51 40 33 0 34 -1 19 -22 -9 -12 -16 -34 -16 -48 1 -21 4 -18
23 20 l22 45 92 5 c50 3 95 8 99 13 8 7 -112 12 -203 8 -57 -3 -62 2 -37 37
15 22 17 22 40 8 13 -9 28 -16 34 -16 19 0 10 16 -20 34 l-31 17 -29 -31z"/>
<path d="M10713 7940 c-31 -18 -46 -60 -23 -60 6 0 10 9 10 20 0 23 28 40 64
40 22 0 26 -4 26 -30 0 -68 -74 -150 -136 -150 -43 0 -74 -15 -74 -36 0 -13 6
-15 33 -9 17 4 84 7 147 6 64 -1 122 3 130 8 11 8 -7 11 -65 11 -44 0 -90 3
-101 6 -20 5 -18 9 22 46 45 42 69 94 62 138 -4 33 -51 38 -95 10z m-83 -204
c0 -2 -7 -6 -15 -10 -8 -3 -15 -1 -15 4 0 6 7 10 15 10 8 0 15 -2 15 -4z"/>
<path d="M5105 7780 c-4 -6 -4 -14 -1 -17 19 -19 510 -31 521 -13 4 7 -51 10
-159 10 -145 0 -286 11 -338 26 -9 3 -19 0 -23 -6z"/>
<path d="M9732 7763 c-34 -66 -116 -356 -99 -350 6 2 19 34 28 73 10 38 34
118 53 178 33 101 41 144 18 99z"/>
<path d="M9314 7759 c-5 -8 -13 -57 -19 -109 l-10 -95 -70 -8 c-38 -5 -74 -13
-80 -19 -9 -9 73 -5 133 8 21 4 22 2 22 -76 0 -103 18 -105 22 -2 l3 77 70 8
c112 14 123 28 16 21 l-94 -6 6 73 c3 41 11 75 17 77 12 4 13 32 1 51 -7 11
-10 11 -17 0z"/>
<path d="M8587 7693 c-4 -3 -7 -59 -7 -123 0 -110 -9 -190 -26 -234 -5 -14 -4
-17 4 -12 8 5 12 -2 12 -19 0 -62 62 -122 171 -166 39 -15 77 -22 136 -22 73
-1 86 2 130 29 27 16 62 51 81 78 30 45 32 54 32 132 0 98 -20 164 -44 145 -8
-7 -17 -22 -20 -35 -7 -28 -44 -46 -94 -46 -45 0 -62 14 -62 51 0 22 6 29 30
34 16 4 39 4 50 0 11 -3 25 -3 32 2 20 12 -63 22 -92 11 -30 -11 -40 -25 -40
-57 0 -16 -4 -21 -14 -18 -8 3 -50 13 -95 23 l-80 17 97 66 c112 76 172 123
172 133 0 5 -35 -18 -79 -51 -43 -32 -113 -80 -155 -106 -42 -27 -76 -52 -76
-57 0 -4 15 -8 33 -8 34 -1 103 -16 201 -45 79 -23 129 -16 172 26 19 18 34
31 34 28 0 -2 4 -30 10 -62 17 -108 -17 -201 -93 -247 -96 -59 -287 -19 -386
81 -38 38 -40 71 -6 135 l26 48 -27 -25 -27 -24 6 163 c3 89 5 162 3 162 -1 0
-6 -3 -9 -7z"/>
<path d="M8052 7620 c-62 -45 -95 -101 -100 -169 -4 -53 -2 -61 27 -94 40 -45
86 -60 168 -55 62 4 68 6 105 47 l40 42 -4 74 c-3 69 -6 77 -38 111 -37 39
-101 73 -136 74 -12 0 -40 -13 -62 -30z m91 -6 c-1 -7 12 -14 28 -18 17 -3 46
-21 65 -40 31 -31 34 -39 34 -95 0 -108 -33 -141 -140 -141 -102 0 -160 46
-160 127 0 59 23 106 74 149 30 26 48 34 71 32 16 -2 29 -8 28 -14z"/>
<path d="M7876 7580 l-46 -43 0 27 c0 16 -4 25 -10 21 -5 -3 -10 -21 -10 -40
0 -27 -10 -42 -61 -89 -60 -55 -72 -79 -30 -57 11 7 20 15 18 19 -1 5 15 23
36 41 l37 33 0 -29 c0 -17 7 -52 15 -79 8 -27 15 -60 15 -73 0 -20 2 -21 15
-11 19 16 19 29 -1 69 -9 18 -18 58 -21 89 l-5 57 51 49 c29 26 50 50 47 53
-2 3 -25 -14 -50 -37z"/>
<path d="M10318 7606 c-47 -17 -113 -69 -148 -117 l-27 -38 -11 61 c-6 34 -15
65 -20 70 -11 11 -50 -18 -73 -56 l-19 -31 0 53 c0 33 -4 51 -10 47 -12 -7
-12 -141 0 -170 9 -23 15 -13 24 45 4 20 19 51 35 70 l28 34 12 -52 c6 -29 11
-76 11 -104 0 -44 2 -49 15 -38 8 7 15 22 15 35 0 67 154 198 211 180 26 -9
28 -24 31 -235 3 -176 4 -187 28 -230 16 -27 36 -48 53 -54 25 -9 32 -6 65 27
20 20 31 37 24 37 -6 0 -12 -4 -12 -10 0 -5 -11 -17 -25 -26 -37 -24 -63 -10
-91 49 -22 49 -24 63 -24 240 0 174 -1 188 -20 207 -23 23 -23 23 -72 6z"/>
<path d="M9831 7585 c-36 -31 -57 -86 -42 -113 19 -35 124 -56 161 -32 11 7 0
10 -37 10 -88 0 -124 29 -104 81 20 55 66 74 115 49 41 -20 58 -10 24 14 -34
24 -82 20 -117 -9z"/>
<path d="M7433 7570 c-61 -14 -75 -38 -47 -78 21 -31 38 -17 17 14 -12 18 -13
28 -5 36 11 11 206 28 230 20 37 -13 -4 -52 -143 -137 -94 -58 -125 -86 -125
-115 0 -12 5 -18 10 -15 6 3 10 14 10 24 0 21 31 46 142 114 94 58 138 98 138
126 0 20 -5 21 -97 20 -54 -1 -113 -5 -130 -9z"/>
<path d="M7728 7304 c-5 -4 -8 -18 -8 -31 l0 -24 -212 1 c-247 1 -251 1 -218
-10 14 -4 119 -8 233 -9 170 -1 209 2 213 13 8 20 1 70 -8 60z"/>
<path d="M13490 6318 c0 -130 -5 -190 -26 -285 -8 -38 10 -46 22 -10 12 36 15
73 21 260 4 126 2 177 -6 177 -8 0 -11 -45 -11 -142z"/>
<path d="M13707 6420 c-9 -32 -47 -288 -54 -359 -4 -42 -2 -52 9 -49 7 3 15
26 18 56 3 28 10 56 16 62 6 6 46 14 87 17 95 7 127 -8 127 -61 0 -29 -5 -36
-31 -45 -18 -6 -60 -11 -95 -11 -35 0 -66 -5 -70 -11 -5 -8 17 -10 74 -8 114
6 156 41 138 114 -10 40 -99 57 -191 35 -22 -5 -41 -7 -43 -6 -1 2 4 60 13
129 16 121 17 195 2 137z"/>
<path d="M17880 6320 l0 -120 -1232 0 c-826 0 -1235 -3 -1242 -10 -7 -7 11
-10 57 -10 l67 0 0 -295 0 -295 -94 0 c-53 0 -98 -4 -101 -10 -4 -7 395 -10
1189 -10 786 0 1197 3 1201 10 4 7 -361 10 -1087 10 l-1093 0 3 295 3 295
1162 -2 1162 -3 3 -268 c1 -172 6 -266 12 -262 14 8 14 795 0 795 -6 0 -10
-47 -10 -120z"/>
<path d="M13100 6381 c-32 -17 -72 -81 -51 -81 5 0 14 13 20 29 15 36 48 51
110 51 87 0 96 -55 13 -75 -45 -11 -65 -25 -36 -25 30 0 120 -46 128 -65 11
-30 -3 -35 -95 -35 -53 0 -89 -4 -89 -10 0 -6 36 -10 88 -10 76 0 91 3 107 20
25 27 8 63 -40 87 l-36 19 26 24 c30 28 31 44 5 70 -26 26 -102 27 -150 1z"/>
<path d="M12245 6213 c-11 -2 -59 -13 -107 -24 l-88 -21 -41 -75 c-23 -41 -39
-76 -37 -79 3 -2 31 5 62 16 66 22 172 36 210 26 30 -7 48 -57 34 -97 -14 -41
-56 -59 -142 -59 -63 0 -80 4 -96 20 -11 11 -20 25 -20 31 0 5 -4 7 -10 4 -16
-10 -12 -24 15 -50 21 -22 33 -25 100 -25 81 0 104 7 148 48 21 20 27 35 27
67 0 68 -16 80 -107 79 -47 0 -99 -7 -131 -18 -29 -10 -56 -15 -59 -12 -3 3
10 30 29 59 l36 53 95 22 c53 12 112 22 131 22 19 0 38 5 41 10 6 10 -49 12
-90 3z"/>
<path d="M4225 6152 c-116 -54 -170 -193 -132 -339 17 -66 47 -109 106 -153
106 -81 218 -108 298 -75 41 17 40 31 -1 15 -37 -14 -118 -13 -153 2 l-28 12
30 4 c95 11 239 47 297 74 l67 30 142 -11 c82 -6 147 -7 152 -2 8 8 -15 11
-205 27 -43 3 -78 8 -78 11 0 2 5 13 10 24 10 17 22 19 115 19 58 0 107 4 110
10 4 6 -33 10 -104 10 l-111 0 0 33 c0 41 -40 127 -90 193 -53 71 -112 99
-187 90 -49 -6 -59 -4 -79 15 -33 31 -107 35 -159 11z m133 -18 c18 -13 21
-19 11 -30 -9 -11 -7 -14 10 -14 11 0 21 -5 21 -12 0 -6 9 -2 20 10 26 28 79
29 136 3 66 -30 164 -183 164 -256 0 -21 -5 -25 -29 -25 -17 0 -33 -4 -36 -10
-4 -6 8 -10 29 -10 41 0 44 -7 16 -42 -52 -67 -352 -133 -444 -98 -38 14 -105
79 -129 124 -17 33 -21 59 -21 137 -1 89 1 99 29 144 50 81 163 121 223 79z"/>
<path d="M4280 6023 c-67 -25 -66 -75 2 -142 29 -28 56 -51 61 -51 4 0 -8 -15
-27 -34 -20 -18 -36 -41 -36 -49 0 -31 43 -48 112 -45 56 3 63 5 66 25 2 12
-9 35 -27 56 l-31 35 23 15 c21 15 21 16 -12 7 -39 -11 -42 -9 -113 59 -52 49
-61 83 -29 101 11 5 57 10 102 10 l83 0 -34 -30 c-19 -16 -30 -29 -25 -29 19
-1 78 56 71 67 -7 12 -156 16 -186 5z m150 -273 c15 -29 14 -30 -43 -30 -89 0
-115 42 -47 77 20 10 28 8 52 -8 15 -11 33 -29 38 -39z"/>
<path d="M11887 6118 c-20 -30 -47 -136 -47 -183 0 -30 3 -35 14 -26 7 6 11
21 9 34 -5 27 23 155 39 174 6 7 8 16 5 19 -3 3 -12 -5 -20 -18z"/>
<path d="M12758 6124 c-5 -4 -8 -47 -8 -96 0 -64 3 -88 13 -88 9 0 12 20 9 78
-4 103 -6 115 -14 106z"/>
<path d="M12906 6091 c-22 -31 -27 -48 -24 -87 3 -42 7 -51 37 -71 46 -31 130
-32 156 -3 22 24 24 70 5 105 -15 28 -109 95 -133 95 -8 0 -26 -18 -41 -39z
m142 -54 c26 -27 32 -81 13 -100 -20 -20 -95 -13 -130 12 -26 19 -31 29 -31
63 0 23 9 55 20 74 l21 33 42 -29 c23 -15 52 -39 65 -53z"/>
<path d="M17433 6101 c-60 -31 -103 -74 -117 -118 -6 -19 -15 -23 -51 -23 -24
0 -47 -4 -50 -10 -4 -6 13 -10 44 -10 45 0 51 -2 51 -21 0 -12 15 -36 33 -54
47 -47 117 -65 252 -65 99 0 114 2 130 20 10 11 13 20 7 20 -6 0 -14 -4 -17
-10 -4 -6 -55 -10 -120 -10 -130 0 -209 22 -245 67 -39 50 -35 51 165 55 104
2 188 7 194 13 7 7 -55 9 -184 7 -216 -4 -215 -4 -172 59 46 71 162 105 270
80 20 -5 39 -5 42 -1 8 13 -25 21 -100 27 -64 4 -75 2 -132 -26z"/>
<path d="M15772 6079 c-122 -60 -191 -201 -148 -302 44 -104 232 -162 399
-123 167 39 267 127 267 234 0 43 -17 22 -24 -30 -4 -28 -16 -63 -26 -78 -24
-34 -119 -85 -195 -105 -182 -47 -389 22 -410 138 -8 39 1 107 13 107 17 0
135 -109 171 -157 29 -39 42 -49 49 -40 14 17 31 89 40 167 l7 65 197 0 c146
1 201 4 210 13 11 11 -28 13 -196 11 -196 -1 -210 0 -217 17 -7 18 -8 18 -14
-2 -7 -23 -18 -25 -167 -40 -39 -4 -68 -3 -68 2 0 22 64 84 112 108 71 35 157
35 253 0 99 -36 105 -38 105 -26 0 6 -38 24 -86 41 -116 42 -188 42 -272 0z
m118 -171 c0 -39 -13 -112 -25 -147 -4 -8 -19 4 -45 36 -22 28 -60 67 -85 88
-25 20 -44 40 -41 43 6 5 107 18 164 21 31 1 32 0 32 -41z"/>
<path d="M10762 6065 c-11 -14 -22 -30 -24 -35 -2 -5 -54 -12 -115 -16 -64 -4
-117 -12 -122 -18 -7 -8 21 -30 94 -74 58 -35 108 -63 112 -62 5 0 15 29 24
64 9 35 19 68 22 73 4 6 41 13 84 17 107 9 202 26 209 37 7 11 15 12 -102 -6
-54 -8 -119 -15 -143 -15 l-43 0 17 26 c22 35 13 42 -13 9z m-36 -91 c-4 -15
-10 -39 -13 -55 -3 -16 -10 -29 -15 -29 -6 0 -45 21 -87 48 l-76 47 45 6 c25
3 69 7 99 7 53 2 53 2 47 -24z"/>
<path d="M16820 6083 c-112 -10 -140 -15 -140 -25 0 -5 12 -7 28 -4 15 2 61 8
102 11 l75 6 1 -28 c0 -15 6 -66 12 -113 7 -46 12 -106 12 -132 l0 -48 -39 0
c-76 0 -50 -18 36 -26 140 -12 386 -11 390 2 5 16 -28 27 -41 14 -11 -11 -155
-13 -258 -3 l-68 6 0 67 0 68 165 7 c91 4 168 11 171 16 3 5 -67 8 -167 7
l-173 -3 -12 65 c-21 110 -36 100 145 100 96 0 162 4 166 10 6 9 -316 12 -405
3z"/>
<path d="M5340 6070 c-76 -13 -210 -52 -217 -63 -4 -7 2 -8 18 -3 100 29 180
47 235 52 54 6 65 4 70 -10 11 -29 -16 -72 -87 -135 -50 -46 -69 -69 -69 -87
0 -14 4 -22 10 -19 6 3 10 16 10 29 0 16 19 38 64 74 107 87 128 174 42 171
-17 -1 -51 -5 -76 -9z"/>
<path d="M6816 6028 c-22 -31 -20 -105 4 -151 11 -20 20 -41 20 -46 0 -4 -19
-29 -41 -55 -23 -26 -39 -49 -36 -52 2 -3 25 19 51 48 l45 52 23 -21 c13 -11
33 -26 45 -32 27 -14 93 -14 93 0 0 5 -5 7 -11 4 -15 -10 -92 22 -118 48 -20
22 -20 25 -5 69 8 26 14 69 12 99 -3 52 -4 54 -35 57 -23 2 -35 -3 -47 -20z
m64 -57 c-1 -31 -7 -69 -14 -86 l-13 -30 -16 32 c-23 43 -23 129 0 141 32 18
43 3 43 -57z"/>
<path d="M12400 6023 c0 -5 21 -27 47 -50 39 -33 46 -44 36 -54 -21 -21 -15
-34 7 -14 16 14 23 15 34 6 8 -7 20 -10 26 -6 8 5 4 12 -9 22 l-21 14 27 37
27 37 -35 -32 -34 -31 -45 39 c-44 38 -60 47 -60 32z"/>
<path d="M7624 5986 c-35 -16 -107 -76 -100 -84 3 -3 23 11 45 31 42 38 112
59 169 50 36 -6 41 -25 17 -60 -18 -26 -179 -133 -200 -133 -8 0 -15 -4 -15
-9 0 -9 270 -20 298 -12 37 10 -1 17 -110 20 -68 1 -124 4 -125 5 -2 1 31 24
72 50 86 54 117 89 113 125 -3 25 -6 26 -68 28 -38 2 -78 -3 -96 -11z"/>
<path d="M8605 5971 c-22 -10 -57 -35 -77 -55 -20 -20 -39 -36 -41 -36 -2 0
-2 14 1 30 2 17 0 30 -5 30 -5 0 -14 -33 -21 -72 -8 -40 -16 -86 -19 -102 -10
-52 20 -24 32 31 15 64 46 108 103 144 88 55 97 40 80 -136 -13 -133 -8 -169
24 -186 25 -13 97 -14 110 -1 5 5 -9 9 -35 8 -87 -2 -98 30 -76 217 11 96 3
147 -23 147 -7 0 -31 -9 -53 -19z"/>
<path d="M7880 5970 c0 -5 7 -10 15 -10 18 0 18 1 -1 -45 -8 -20 -13 -40 -10
-43 3 -2 31 0 62 7 32 6 88 11 126 11 76 0 108 -19 108 -64 0 -41 -34 -56
-125 -56 -93 0 -148 21 -153 58 -4 25 -22 31 -22 6 0 -54 57 -84 160 -84 114
0 169 35 155 100 -11 50 -45 63 -149 57 -50 -4 -103 -9 -119 -13 l-27 -6 14
33 14 34 141 3 c106 2 141 0 141 -10 0 -9 3 -9 11 -1 27 27 -4 33 -172 33
-106 0 -169 -4 -169 -10z"/>
<path d="M11195 5970 c-4 -6 43 -10 134 -10 82 0 142 4 146 10 4 6 -43 10
-134 10 -82 0 -142 -4 -146 -10z"/>
<path d="M13216 5921 c-8 -12 912 -21 929 -8 5 4 0 7 -11 7 -11 0 -220 3 -465
6 -321 5 -448 3 -453 -5z"/>
<path d="M8356 5889 c-9 -47 -7 -115 3 -103 12 12 23 134 12 134 -5 0 -11 -14
-15 -31z"/>
<path d="M11194 5879 c-6 -10 80 -18 209 -20 106 -1 139 3 126 15 -7 7 -330
12 -335 5z"/>
<path d="M16330 5850 c0 -6 60 -10 159 -10 96 0 162 4 166 10 4 7 -52 10 -159
10 -104 0 -166 -4 -166 -10z"/>
<path d="M7120 5830 c-10 -7 28 -10 118 -10 81 0 132 4 132 10 0 13 -230 13
-250 0z"/>
<path d="M2395 5814 c-94 -49 -137 -128 -137 -253 0 -106 14 -143 82 -215 78
-82 156 -109 193 -68 25 28 20 39 -6 14 -20 -19 -28 -20 -59 -12 -45 13 -131
88 -162 144 -29 51 -38 122 -26 205 16 116 96 190 188 176 59 -9 66 -13 51
-31 -16 -19 -5 -18 42 7 22 11 62 23 89 26 44 5 51 3 74 -21 44 -48 57 -158
31 -260 -30 -116 -95 -176 -190 -176 -52 0 -98 21 -77 34 8 5 12 50 12 136 l0
129 31 36 c17 19 26 35 20 35 -6 0 -18 -11 -27 -24 -9 -15 -21 -22 -30 -19 -9
3 -14 -1 -14 -12 0 -9 -29 -50 -65 -91 -36 -41 -65 -80 -65 -87 1 -7 15 6 33
28 18 22 47 56 65 75 l34 35 -6 -119 c-3 -65 -8 -121 -11 -124 -3 -3 -16 5
-30 18 -19 18 -25 20 -25 8 0 -35 83 -78 152 -78 85 0 154 54 200 158 30 65
32 209 4 270 -30 67 -81 85 -158 58 -30 -11 -47 -11 -100 0 -79 17 -77 17
-113 -2z"/>
<path d="M13941 5776 c-34 -12 -71 -49 -71 -70 1 -6 11 1 23 16 28 34 65 48
127 48 56 0 67 -10 50 -49 -18 -45 -94 -81 -169 -81 -34 0 -61 -4 -61 -10 0
-5 11 -10 25 -10 14 0 25 -4 25 -10 0 -6 10 -6 28 1 17 7 77 8 168 3 101 -5
143 -3 148 5 5 8 -17 11 -76 12 -46 0 -101 4 -123 8 -34 6 -37 8 -18 15 29 9
83 72 83 96 0 11 -9 24 -19 30 -26 13 -97 12 -140 -4z"/>
<path d="M7149 5759 c-9 -5 34 -9 115 -9 71 0 127 2 125 4 -10 8 -227 14 -240
5z"/>
<path d="M16345 5760 c-4 -6 36 -10 114 -10 69 0 122 4 126 10 4 6 -36 10
-114 10 -69 0 -122 -4 -126 -10z"/>
<path d="M13586 5639 c-21 -17 -26 -18 -26 -5 0 36 -18 13 -24 -30 -9 -68 -7
-154 3 -154 14 0 21 28 21 89 0 72 26 103 89 105 66 1 69 -6 90 -227 11 -107
33 -181 67 -219 20 -21 65 -32 105 -23 32 7 99 67 99 88 0 7 -15 -5 -33 -26
-26 -32 -41 -40 -77 -44 -36 -4 -51 -1 -72 17 -38 30 -66 126 -74 258 -4 69
-13 122 -25 150 -18 41 -19 42 -67 42 -35 0 -57 -6 -76 -21z"/>
<path d="M13437 5643 c-3 -5 -8 -37 -12 -73 -3 -36 -9 -73 -11 -82 -7 -25 19
-23 42 4 18 21 18 21 0 15 -17 -7 -18 -3 -11 68 6 68 4 88 -8 68z"/>
<path d="M5288 5604 c-5 -4 -8 -16 -8 -28 0 -14 3 -17 11 -9 6 6 9 19 7 28 -1
9 -6 13 -10 9z"/>
<path d="M18574 5386 c-66 -62 -163 -145 -215 -185 l-94 -72 -12 38 c-6 21
-12 50 -12 66 -1 25 -14 36 -25 19 -6 -11 26 -142 35 -142 18 0 211 154 309
246 91 85 149 145 138 143 -2 0 -57 -51 -124 -113z"/>
<path d="M17360 5281 c-36 -4 -78 -15 -95 -23 -42 -23 -91 -76 -109 -120 -19
-45 -21 -174 -4 -231 56 -188 443 -250 610 -99 69 62 84 123 53 212 -19 54
-20 50 14 50 17 0 33 5 37 12 5 8 -5 9 -35 5 -33 -4 -43 -2 -51 13 -5 9 -7 20
-4 23 3 3 0 23 -6 45 -12 47 -47 72 -130 95 -68 19 -194 27 -280 18z m196 -22
c97 -13 147 -33 179 -71 31 -37 31 -55 0 -92 -20 -25 -34 -31 -87 -37 -34 -4
-65 -5 -67 -3 -3 2 8 18 24 34 16 17 24 30 18 30 -6 0 -25 -16 -42 -36 -30
-34 -36 -36 -126 -46 -118 -13 -132 -22 -116 -69 11 -35 88 -117 147 -157 43
-29 49 -19 64 99 7 53 15 102 19 108 12 18 204 43 213 28 13 -21 28 -81 28
-115 0 -172 -306 -251 -529 -137 -87 43 -124 115 -123 232 1 93 34 170 88 204
58 36 178 47 310 28z m204 -174 c0 -8 -7 -15 -16 -15 -14 0 -14 3 -4 15 7 8
14 15 16 15 2 0 4 -7 4 -15z m-214 -81 c-6 -22 -25 -154 -26 -177 -1 -26 -132
88 -157 136 -8 17 -11 33 -6 38 8 8 111 25 172 28 20 1 22 -2 17 -25z"/>
<path d="M15964 4986 c-27 -13 -66 -42 -86 -65 -30 -36 -40 -41 -76 -41 -22 0
-44 -4 -47 -10 -4 -6 13 -10 44 -10 l51 0 0 -34 c0 -66 86 -104 255 -113 79
-4 108 -2 139 11 43 18 45 33 2 16 -66 -25 -263 -5 -332 33 -31 18 -40 29 -42
55 l-3 32 210 0 c126 0 212 4 216 10 4 6 -72 11 -211 12 l-217 3 29 34 c58 70
143 86 256 51 70 -22 88 -24 88 -11 0 12 -147 51 -191 51 -19 0 -57 -11 -85
-24z"/>
<path d="M16614 4908 c-2 -3 29 -9 68 -12 186 -15 341 -10 286 9 -22 7 -350
10 -354 3z"/>
<path d="M13197 4890 c-90 -23 -175 -89 -212 -165 -13 -28 -21 -67 -23 -127
l-4 -88 -111 0 c-62 0 -119 -5 -127 -10 -10 -7 28 -10 116 -10 111 0 133 -3
138 -16 14 -36 8 -37 -119 -31 -68 3 -127 2 -130 -3 -6 -10 173 -24 225 -17
36 5 43 1 77 -33 47 -47 103 -60 251 -60 171 0 330 47 393 117 34 37 73 102
65 110 -3 3 -13 -9 -23 -27 -68 -127 -196 -179 -434 -180 -146 0 -206 16 -249
68 -24 28 -30 44 -26 65 4 20 2 27 -10 27 -14 0 -16 13 -12 93 3 79 8 100 32
140 54 93 164 145 283 134 72 -7 163 -43 163 -64 0 -11 -6 -12 -22 -6 -29 10
-144 10 -180 0 -23 -6 -28 -13 -28 -39 0 -24 11 -42 53 -83 28 -28 65 -61 81
-73 l28 -22 -31 -35 c-37 -42 -39 -68 -8 -99 30 -30 116 -43 155 -23 39 19 31
52 -25 109 l-46 47 58 26 c77 34 65 42 -14 10 l-63 -26 -36 28 c-114 86 -159
150 -116 167 31 12 140 6 160 -8 19 -14 19 -15 -3 -38 -32 -34 -29 -47 4 -17
23 21 25 22 19 4 -6 -18 -5 -18 7 -5 8 8 18 36 21 62 l7 46 -53 26 c-60 29
-169 41 -231 26z m268 -362 c24 -24 45 -52 47 -63 3 -18 -2 -20 -60 -18 -67 2
-102 20 -102 53 0 23 38 70 56 70 8 0 35 -19 59 -42z"/>
<path d="M16696 4832 c-3 -5 17 -12 47 -16 83 -10 295 -7 302 4 4 6 -44 10
-138 10 -80 0 -158 3 -175 6 -16 3 -32 2 -36 -4z"/>
<path d="M17196 4711 c-8 -12 52 -20 254 -31 226 -12 551 -12 570 0 10 6 -57
10 -200 10 -205 0 -519 14 -587 25 -17 3 -34 1 -37 -4z"/>
<path d="M9842 4619 c-55 -9 -106 -31 -117 -49 -9 -15 1 -50 24 -80 28 -35 39
-16 12 21 -12 16 -21 38 -19 47 4 23 66 42 159 49 127 10 184 -23 177 -103 -4
-47 -36 -68 -125 -82 l-63 -9 0 49 c0 60 -15 55 -24 -7 -7 -43 -9 -45 -42 -45
-19 0 -34 -4 -34 -10 0 -5 16 -10 35 -10 19 0 35 -2 35 -4 0 -3 -9 -42 -20
-88 -23 -96 -24 -111 -9 -106 6 2 13 19 15 38 2 19 11 64 21 100 17 60 20 65
48 68 56 6 140 34 163 55 16 15 22 32 22 62 0 98 -86 132 -258 104z"/>
<path d="M12190 4613 c-28 -10 -66 -38 -100 -73 -31 -31 -65 -60 -75 -65 -17
-7 -17 -9 -4 -12 9 -2 20 -20 25 -41 18 -71 111 -105 288 -104 86 1 102 4 120
21 11 11 17 24 13 27 -4 4 -14 -1 -21 -12 -13 -17 -27 -19 -118 -18 -153 1
-246 33 -263 92 l-6 22 165 0 c99 0 167 4 171 10 4 7 -52 10 -159 10 -91 0
-166 3 -166 8 0 11 31 54 50 70 8 7 39 25 69 39 52 25 59 26 170 19 78 -4 112
-3 105 4 -5 5 -57 12 -114 15 -82 4 -115 1 -150 -12z"/>
<path d="M17335 4601 c-114 -52 -214 -232 -230 -411 -9 -98 5 -151 48 -185
168 -127 523 -48 618 137 11 22 26 41 34 44 20 8 27 34 9 34 -8 0 -13 -4 -9
-9 15 -26 -250 -36 -318 -12 -48 16 -97 57 -97 82 0 18 9 19 138 20 152 1 237
10 254 27 17 17 1 27 -18 11 -13 -11 -62 -15 -197 -17 l-180 -4 7 29 c14 55
41 88 70 86 30 -2 32 20 2 25 -26 5 -63 -34 -82 -87 -10 -25 -20 -50 -24 -54
-4 -4 2 -28 13 -53 17 -36 31 -49 75 -71 51 -25 63 -26 183 -25 145 1 147 0
100 -65 -34 -47 -136 -103 -231 -128 -93 -25 -212 -16 -286 20 -78 38 -89 60
-88 170 2 158 82 340 176 403 41 27 131 41 182 28 24 -6 86 -60 86 -76 0 -4
-56 -9 -125 -12 -69 -2 -129 -8 -134 -13 -7 -7 69 -9 207 -7 119 2 221 8 227
13 5 5 -19 9 -63 9 -60 0 -74 3 -92 22 -11 12 -20 25 -20 30 0 4 -17 19 -37
33 -47 31 -137 34 -198 6z"/>
<path d="M8621 4436 c-6 -25 -11 -58 -11 -74 0 -29 -1 -30 -107 -52 -60 -13
-153 -30 -207 -40 -55 -9 -101 -21 -103 -26 -2 -5 34 -10 80 -10 125 -2 254
-42 314 -96 35 -32 43 -15 43 87 0 106 -8 98 104 115 111 17 166 31 166 41 0
13 -19 11 -146 -16 -64 -14 -118 -25 -121 -25 -7 0 4 101 13 124 3 9 2 16 -4
16 -5 0 -15 -20 -21 -44z m-11 -202 c0 -42 -3 -74 -7 -72 -81 41 -153 69 -208
81 l-68 13 119 26 c178 38 164 42 164 -48z"/>
<path d="M9212 4339 c-74 -5 -141 -14 -150 -19 -12 -8 6 -9 68 -5 47 3 136 8
199 10 63 2 119 9 124 14 13 13 -38 13 -241 0z"/>
<path d="M13010 4300 c0 -13 779 -13 800 0 10 6 -126 10 -392 10 -266 0 -408
-3 -408 -10z"/>
<path d="M9105 4272 c15 -16 250 -28 259 -13 5 8 -10 11 -52 11 -32 0 -95 3
-138 6 -57 5 -76 3 -69 -4z"/>
<path d="M13370 4090 l0 -129 -57 -3 c-34 -2 -58 -8 -61 -15 -4 -15 108 -18
136 -4 9 5 61 14 115 20 100 11 137 23 137 43 0 7 -4 7 -12 0 -11 -9 -91 -23
-205 -37 l-33 -4 0 130 c0 79 -4 129 -10 129 -6 0 -10 -50 -10 -130z"/>
<path d="M10190 4190 c-36 -4 -172 -8 -302 -9 -153 -1 -239 -5 -243 -12 -5 -7
69 -9 239 -7 135 2 247 0 249 -4 1 -4 20 -3 42 2 22 5 54 10 71 10 17 0 37 7
44 15 14 17 11 17 -100 5z"/>
<path d="M9920 4103 c0 -3 7 -15 16 -24 15 -17 14 -21 -15 -54 -17 -20 -42
-58 -56 -85 -22 -43 -30 -50 -55 -50 -16 0 -32 -4 -35 -10 -4 -6 7 -10 25 -10
l30 0 -20 -41 c-12 -23 -20 -43 -18 -44 8 -9 26 13 40 50 l16 40 87 3 c49 2
92 -1 97 -6 5 -5 11 -32 15 -61 3 -31 10 -50 17 -48 12 4 12 21 1 83 l-7 41
76 5 c43 3 82 11 89 18 10 10 6 11 -18 6 -16 -3 -59 -6 -94 -8 l-64 -3 -16 45
c-9 25 -24 60 -34 78 -18 33 -18 33 5 52 26 22 18 27 -12 8 -15 -10 -22 -9
-38 5 -19 18 -32 22 -32 10z m74 -117 c40 -85 39 -86 -55 -86 l-81 0 27 48
c30 50 64 92 76 92 4 0 19 -24 33 -54z"/>
<path d="M7037 3870 c-13 -47 -47 -345 -47 -408 0 -64 9 -72 31 -30 8 15 8 19
0 14 -17 -11 -14 61 10 244 19 154 22 241 6 180z"/>
<path d="M6630 3855 c-35 -16 -70 -51 -69 -70 0 -5 10 2 22 17 28 35 65 48
132 48 65 0 85 -7 85 -30 0 -25 -19 -38 -76 -52 -28 -7 -51 -17 -53 -22 -1 -6
15 -15 36 -21 88 -26 127 -62 101 -92 -9 -11 -30 -14 -90 -11 -58 2 -78 0 -78
-9 0 -9 21 -13 74 -13 64 0 79 3 103 24 25 22 26 26 15 51 -8 18 -29 34 -62
48 l-50 21 42 21 c47 22 72 65 50 87 -19 19 -141 21 -182 3z"/>
<path d="M7202 3847 c-6 -7 -16 -26 -22 -41 l-11 -29 -28 27 c-21 20 -31 24
-36 15 -5 -7 4 -22 23 -38 l32 -26 -20 -75 c-11 -41 -23 -127 -27 -190 -6
-103 -5 -114 9 -102 9 7 19 28 22 46 4 18 14 40 24 49 39 35 180 44 235 15 24
-12 21 -54 -5 -73 -34 -24 -144 -55 -194 -55 -45 0 -53 7 -32 28 9 9 9 12 0
12 -12 0 -32 -31 -32 -51 0 -18 123 -5 192 21 77 28 108 55 108 90 0 46 -31
60 -128 60 -91 0 -140 -16 -168 -54 -15 -20 -16 -16 -10 54 7 76 29 186 40
197 3 3 20 -6 38 -20 157 -124 251 -198 265 -206 14 -7 11 -15 -21 -54 -21
-26 -35 -51 -31 -56 7 -12 65 -3 80 11 6 6 -4 7 -29 2 l-39 -7 21 30 c38 54
44 55 93 25 24 -16 50 -36 58 -45 7 -9 18 -17 23 -17 6 0 47 -27 93 -60 80
-58 105 -67 139 -54 27 10 18 21 -13 16 -20 -3 -40 3 -60 18 -28 19 -31 27
-31 74 0 78 38 149 95 176 35 17 48 19 64 10 34 -18 43 -49 42 -141 0 -88 5
-103 29 -74 8 10 9 15 2 15 -7 0 -11 27 -11 70 1 114 -19 150 -83 150 -30 0
-47 -8 -79 -37 -22 -20 -49 -53 -59 -72 l-19 -36 -1 53 c0 37 -3 51 -11 46 -8
-5 -10 -34 -6 -95 3 -49 3 -89 0 -89 -3 0 -26 16 -49 36 -46 37 -53 58 -34
111 l10 28 -20 -24 c-11 -13 -20 -34 -20 -47 l0 -24 -42 26 c-24 15 -44 28
-46 29 -2 2 15 31 37 65 50 78 69 129 50 141 -19 11 -32 0 -18 -17 9 -11 6
-25 -16 -67 -14 -30 -37 -67 -49 -82 l-23 -29 -44 34 c-182 140 -269 215 -269
232 0 10 7 33 16 49 16 33 14 48 -4 26z"/>
<path d="M19003 3803 c-28 -42 -30 -152 -4 -206 35 -73 108 -90 128 -30 19 58
-13 99 -46 59 -10 -12 -9 -13 7 -9 25 6 32 -5 25 -40 -10 -50 -67 -28 -102 40
-14 27 -15 132 -1 167 6 16 17 26 29 26 11 0 23 5 26 10 3 6 -5 10 -19 10 -17
0 -32 -9 -43 -27z"/>
<path d="M6067 3804 c-3 -4 16 -32 43 -62 28 -31 50 -60 50 -64 0 -4 6 -8 13
-8 6 0 33 -20 60 -45 l47 -44 0 -111 c0 -87 3 -110 14 -110 7 0 19 7 26 15 11
13 10 14 -4 9 -14 -5 -16 5 -16 86 l0 92 65 -57 c36 -32 74 -72 84 -89 11 -17
39 -43 63 -56 24 -13 63 -40 87 -61 25 -21 49 -35 55 -32 5 4 -8 21 -29 39
l-39 32 41 11 c98 27 125 134 44 175 -36 19 -131 32 -131 19 0 -6 21 -13 48
-17 26 -3 62 -15 80 -26 64 -39 30 -125 -55 -137 -34 -4 -44 0 -95 41 -80 66
-84 123 -11 146 48 16 70 35 28 26 -42 -10 -74 -33 -93 -66 l-16 -28 -60 51
c-32 29 -61 60 -64 69 -2 10 -10 18 -17 18 -14 0 -93 74 -158 148 -37 42 -48
48 -60 36z"/>
<path d="M8105 3749 c-27 -11 -57 -27 -65 -35 -9 -9 9 -5 47 11 35 14 81 25
103 25 34 0 40 -3 46 -26 11 -42 -14 -102 -61 -149 -37 -37 -50 -44 -89 -47
-74 -5 -53 -23 27 -23 39 -1 101 -3 137 -5 37 -2 64 0 63 6 -2 5 -33 10 -70
12 -38 1 -74 4 -80 7 -8 3 4 22 32 50 57 59 79 130 55 176 -14 25 -78 25 -145
-2z"/>
<path d="M19648 3704 c-12 -12 -10 -426 2 -419 6 3 10 24 10 45 0 54 37 95
103 115 117 35 175 6 165 -81 -4 -38 -51 -64 -134 -74 -37 -5 -71 -13 -77 -19
-8 -8 3 -10 38 -6 133 16 195 54 195 120 0 52 -15 73 -61 85 -64 18 -173 -12
-210 -56 -12 -15 -15 2 -19 140 -3 87 -8 154 -12 150z"/>
<path d="M3973 3636 c-69 -33 -128 -95 -148 -157 -13 -39 -16 -76 -13 -157 7
-173 50 -237 214 -319 73 -36 103 -46 148 -47 49 -1 59 2 83 27 l28 29 -39
-23 c-35 -20 -44 -22 -90 -12 -28 6 -64 17 -81 23 -30 12 -29 13 40 27 132 27
259 106 303 187 25 48 22 168 -7 233 -33 74 -89 123 -141 123 -34 0 -48 7 -86
42 -40 37 -52 42 -102 45 -45 3 -68 -1 -109 -21z m187 -31 c17 -16 27 -32 23
-36 -5 -3 -32 -14 -60 -24 -29 -9 -53 -21 -53 -25 0 -5 25 0 57 11 31 10 62
19 69 19 7 0 25 -21 41 -47 29 -49 45 -45 19 6 -21 40 -21 41 14 41 91 0 171
-170 140 -299 -27 -115 -192 -211 -361 -211 -46 0 -63 5 -95 29 -99 71 -129
146 -122 305 5 115 25 167 81 210 56 43 97 57 160 53 47 -3 62 -8 87 -32z"/>
<path d="M4065 3403 c-119 -26 -185 -74 -185 -132 0 -26 7 -44 23 -59 56 -53
190 -85 332 -80 70 3 80 5 84 23 3 17 1 18 -13 6 -25 -21 -223 -9 -301 19 -65
22 -105 54 -105 82 0 16 16 18 247 20 153 2 248 7 250 13 2 7 -83 9 -247 7
-207 -2 -249 -1 -245 11 3 7 20 22 38 32 28 16 30 17 18 2 -8 -10 -11 -20 -7
-24 3 -4 12 1 19 11 9 13 37 20 97 28 47 5 87 14 88 19 5 14 48 11 89 -6 21
-9 40 -12 45 -7 17 17 -69 42 -140 41 -37 -1 -76 -3 -87 -6z m42 -19 c-3 -3
-12 -4 -19 -1 -8 3 -5 6 6 6 11 1 17 -2 13 -5z"/>
<path d="M5218 3644 c-8 -7 14 -64 24 -64 4 0 8 7 8 15 0 22 7 19 62 -21 36
-27 47 -41 42 -53 -10 -23 -23 -136 -23 -208 -1 -46 2 -61 12 -58 8 4 12 36
13 108 1 104 8 157 22 157 4 -1 18 -10 31 -21 18 -15 21 -23 13 -31 -22 -22
-13 -34 21 -30 31 3 39 -2 80 -51 26 -30 47 -58 47 -62 0 -11 -60 3 -78 17 -8
7 -19 24 -24 38 -12 29 -23 11 -14 -23 7 -30 38 -47 94 -54 44 -5 50 -9 100
-75 49 -67 52 -73 52 -131 0 -45 3 -58 11 -50 7 7 10 35 7 72 -4 53 -9 67 -51
119 l-46 60 31 6 c45 9 58 24 58 68 0 31 -7 46 -30 69 -29 30 -32 30 -115 28
-81 -3 -121 8 -101 28 4 5 74 9 154 10 100 2 148 6 151 14 5 16 -288 9 -309
-8 -13 -10 -32 0 -115 62 -95 72 -115 82 -127 69z m447 -219 c35 -34 35 -92 0
-101 -42 -10 -68 4 -112 61 -24 29 -43 56 -43 59 0 3 29 6 65 6 57 0 69 -3 90
-25z"/>
<path d="M13385 3612 c-46 -22 -95 -74 -127 -135 -16 -31 -23 -65 -26 -133 -5
-110 12 -157 83 -233 45 -48 98 -75 165 -83 17 -2 26 -10 28 -26 13 -88 -126
-195 -373 -287 -109 -41 -272 -85 -313 -85 -25 0 -25 0 -6 16 18 14 18 15 -6
8 -30 -8 -57 -31 -47 -41 14 -14 169 17 290 57 288 96 477 224 477 325 0 24 3
25 53 25 80 1 185 18 233 39 58 26 128 93 155 148 34 69 32 174 -3 233 -55 94
-200 160 -318 144 -37 -5 -56 -2 -89 15 -61 31 -127 36 -176 13z m160 -25 l27
-14 -47 -27 c-55 -33 -54 -46 1 -17 55 30 71 27 94 -19 11 -22 25 -40 30 -40
15 0 12 11 -11 49 -16 27 -18 36 -7 43 21 14 121 2 174 -21 125 -56 169 -114
168 -226 -1 -85 -23 -133 -87 -192 -66 -61 -130 -78 -292 -77 -71 1 -141 6
-154 11 -23 9 -20 11 25 17 28 3 59 13 70 22 19 15 19 16 -1 9 -11 -4 -47 -9
-80 -12 -55 -4 -64 -2 -107 27 -89 60 -123 192 -83 326 17 57 75 130 119 150
37 17 121 12 161 -9z"/>
<path d="M13563 3409 c-40 -19 -85 -64 -126 -123 -10 -14 -27 -26 -37 -26 -11
0 -20 -5 -20 -11 0 -5 10 -9 23 -7 18 2 23 -2 25 -27 8 -69 67 -94 220 -95
112 0 172 14 172 41 0 5 -10 3 -22 -5 -17 -12 -50 -16 -138 -16 -100 0 -122 3
-160 23 -37 18 -46 28 -48 53 l-3 31 107 6 c59 4 129 7 155 7 26 0 51 5 55 11
4 8 -40 9 -156 3 l-162 -7 16 31 c22 42 93 101 132 108 19 3 47 1 64 -4 37
-13 49 1 14 17 -36 16 -63 14 -111 -10z"/>
<path d="M16720 3591 c-97 -11 -165 -54 -200 -126 -19 -39 -21 -54 -14 -139 8
-116 19 -130 122 -151 102 -21 125 -32 118 -52 -6 -16 -6 -16 12 0 14 13 37
17 95 17 l77 0 0 -63 c0 -34 -12 -116 -26 -182 -14 -66 -28 -169 -31 -230 -5
-104 -4 -112 18 -144 45 -65 70 -76 181 -79 64 -3 104 0 111 7 8 8 -16 11 -89
11 -112 0 -149 14 -184 72 -29 49 -26 160 10 343 17 83 30 178 30 212 0 60 1
62 36 83 132 82 117 299 -27 395 -48 31 -121 39 -239 26z m40 -16 c0 -2 -17
-14 -37 -25 -42 -23 -22 -21 47 6 55 21 92 14 108 -21 7 -15 17 -23 22 -20 7
4 6 13 -1 26 -25 47 30 29 88 -29 52 -51 67 -88 67 -167 0 -78 -18 -122 -66
-158 -24 -18 -30 -19 -72 -6 -30 9 -45 18 -42 26 7 17 -2 16 -20 -2 -33 -32
-204 -10 -204 26 0 6 -7 9 -15 6 -7 -3 -24 2 -37 12 -22 18 -20 19 129 22 220
6 216 24 -5 24 l-177 0 -3 24 c-3 16 7 34 29 57 31 32 37 34 96 34 53 0 63 -3
63 -17 1 -17 1 -17 14 0 11 14 29 17 109 17 53 0 99 4 102 10 4 6 -33 10 -103
10 -103 0 -110 1 -115 21 -5 18 -10 20 -39 14 -18 -4 -45 -14 -60 -21 -34 -18
-108 -19 -108 -1 0 24 39 75 75 97 20 13 62 26 93 30 32 4 58 8 60 9 1 0 2 -1
2 -4z m-40 -135 c0 -5 -15 -10 -32 -9 -28 0 -30 2 -13 9 28 12 45 12 45 0z
m-140 -33 c0 -2 -13 -16 -30 -32 l-30 -29 0 32 c0 29 3 32 30 32 17 0 30 -1
30 -3z m15 -182 c27 -23 28 -25 9 -25 -26 0 -74 36 -74 56 0 17 18 9 65 -31z
m288 -62 c-13 -2 -35 -2 -50 0 -16 2 -5 4 22 4 28 0 40 -2 28 -4z"/>
<path d="M19478 3584 c-9 -14 3 -274 12 -274 4 0 14 8 21 17 10 11 10 14 2 9
-10 -5 -13 10 -14 66 -2 101 -13 195 -21 182z"/>
<path d="M12175 3556 c-114 -53 -159 -123 -158 -246 0 -94 19 -136 82 -190 51
-44 163 -106 226 -126 38 -12 33 -13 -75 -14 -90 -1 -109 -4 -90 -12 41 -17
282 -3 375 21 100 27 196 71 251 116 41 33 46 35 123 35 44 0 83 5 86 10 4 6
-23 10 -74 10 l-80 0 17 40 17 40 68 0 c38 0 67 4 67 10 0 6 -30 10 -69 10
l-69 0 -4 55 c-9 106 -90 195 -198 215 -55 11 -187 5 -242 -11 -25 -7 -30 -4
-43 20 -18 35 -32 41 -103 41 -39 0 -73 -8 -107 -24z m179 -12 c26 -25 19 -39
-29 -58 -64 -27 -80 -48 -80 -110 0 -40 6 -62 26 -92 l27 -40 -35 -22 c-91
-61 -51 -152 67 -152 97 0 110 38 41 124 -34 42 -33 56 4 56 13 0 27 5 31 11
5 8 -8 9 -43 4 -50 -6 -51 -6 -73 30 -32 52 -37 114 -12 145 18 22 28 24 109
27 64 3 94 0 108 -11 18 -13 18 -15 1 -41 -10 -15 -16 -29 -13 -31 8 -9 48 49
45 65 -4 22 -46 41 -93 42 l-40 1 30 10 c17 5 77 10 135 11 81 2 116 -2 152
-16 80 -31 138 -118 138 -206 0 -30 -1 -31 -47 -32 -80 -1 -98 -17 -20 -18 70
-1 73 -3 57 -46 -9 -23 -15 -27 -41 -23 -37 6 -49 -9 -14 -18 25 -6 25 -7 8
-26 -40 -44 -153 -97 -265 -123 -59 -13 -60 -13 -42 6 9 10 15 21 12 24 -3 3
-13 -4 -23 -15 -37 -41 -150 -17 -278 58 -130 76 -161 124 -161 247 1 108 41
172 134 214 57 26 161 29 184 5z m0 -364 c53 -69 52 -84 -3 -88 -61 -4 -88 4
-107 33 -21 32 -11 61 29 86 18 10 34 19 37 19 3 0 23 -23 44 -50z"/>
<path d="M6073 3493 l-40 -47 -62 33 c-80 43 -103 35 -27 -10 32 -19 59 -38
60 -44 0 -5 -13 -19 -31 -30 -18 -11 -32 -24 -33 -28 0 -10 40 11 67 35 21 20
21 20 59 -6 21 -14 44 -26 51 -26 19 0 16 18 -4 24 -10 4 -29 15 -42 25 l-25
19 38 47 c21 25 36 48 33 51 -2 3 -22 -17 -44 -43z"/>
<path d="M18620 3370 c0 -139 7 -154 46 -107 10 12 12 16 4 10 -8 -7 -18 -13
-22 -13 -4 0 -8 54 -8 120 0 73 -4 120 -10 120 -6 0 -10 -50 -10 -130z"/>
<path d="M18863 3485 c-87 -38 -100 -194 -21 -249 15 -11 46 -16 96 -16 71 0
75 1 108 34 53 53 40 122 -29 165 -36 22 -91 28 -102 11 -4 -6 7 -10 27 -10
86 0 152 -107 97 -158 -26 -25 -100 -35 -151 -21 -51 13 -78 56 -78 125 0 52
27 104 54 104 7 0 21 7 32 15 24 18 9 18 -33 0z"/>
<path d="M17660 3459 c-36 -10 -80 -50 -80 -72 1 -7 11 0 23 15 32 39 72 51
145 43 34 -4 62 -11 62 -16 0 -14 -64 -39 -99 -39 -35 0 -61 -9 -61 -20 0 -5
33 -8 73 -8 85 1 128 -15 138 -53 14 -53 -24 -69 -160 -69 -131 0 -152 23 -63
70 13 6 21 14 19 17 -7 7 -59 -22 -80 -45 -22 -24 -13 -50 19 -58 14 -4 70 -5
127 -2 86 3 107 7 134 26 29 21 33 21 67 7 19 -8 65 -15 100 -15 53 0 70 4 91
23 44 38 47 135 5 177 -23 23 -60 27 -60 6 0 -9 7 -12 19 -9 44 11 68 -117 31
-162 -18 -22 -135 -20 -180 3 -43 22 -57 66 -36 116 15 37 19 38 111 53 l50 8
-50 3 c-63 4 -108 -18 -130 -64 -9 -19 -17 -34 -18 -34 -1 0 -19 6 -40 14
l-38 13 25 17 c14 9 26 25 26 36 0 17 -7 20 -39 20 -21 0 -51 2 -67 4 -16 3
-45 0 -64 -5z"/>
<path d="M14060 3290 l0 -160 -34 0 c-19 0 -38 -5 -41 -11 -9 -14 490 -8 504
6 7 7 -60 9 -199 7 l-210 -3 0 160 c0 101 -4 161 -10 161 -6 0 -10 -60 -10
-160z"/>
<path d="M18411 3393 l-53 -47 -64 34 c-78 42 -95 34 -22 -10 67 -41 63 -37
48 -55 -14 -17 0 -21 17 -4 8 8 24 3 58 -21 28 -19 52 -29 62 -25 14 5 13 8
-8 19 -13 7 -37 21 -53 31 l-29 19 59 53 c32 29 55 53 49 53 -5 0 -34 -21 -64
-47z"/>
<path d="M4668 3363 c-52 -2 -88 -8 -88 -14 0 -12 322 -1 355 12 20 8 -89 8
-267 2z"/>
<path d="M17175 3340 c-4 -6 45 -10 139 -10 91 0 146 4 146 10 0 6 -53 10
-139 10 -83 0 -142 -4 -146 -10z"/>
<path d="M17165 3290 c-4 -6 56 -10 164 -10 104 0 171 4 171 10 0 6 -65 9
-165 9 -95 0 -167 -4 -170 -9z"/>
<path d="M4645 3279 c-6 -9 173 -19 238 -12 103 11 69 18 -85 18 -82 1 -151
-2 -153 -6z"/>
<path d="M19342 3112 c-19 -13 129 -22 381 -23 142 -1 212 2 220 10 8 8 -57
11 -245 11 -140 0 -275 2 -299 5 -24 3 -50 2 -57 -3z"/>
<path d="M20060 3071 c-17 -16 -30 -35 -30 -43 0 -7 13 2 28 20 33 39 62 43
62 8 0 -27 -23 -59 -112 -153 -32 -34 -58 -65 -58 -70 0 -9 15 -10 187 -14 97
-2 115 0 133 16 11 10 20 25 20 34 0 12 -6 9 -20 -9 -18 -23 -25 -25 -107 -25
-48 0 -109 4 -136 8 l-47 8 66 72 c36 40 72 85 80 100 36 68 -12 103 -66 48z"/>
<path d="M5855 3012 c-333 -1 -533 -6 -539 -12 -7 -7 177 -10 541 -10 l552 0
103 -82 c57 -44 104 -82 106 -83 1 -1 -5 -22 -13 -46 -9 -24 -15 -69 -14 -99
2 -30 -1 -63 -6 -73 -6 -16 -4 -18 16 -16 13 1 40 -5 59 -13 82 -36 166 -31
205 12 17 19 19 19 77 -22 33 -23 68 -53 79 -66 10 -13 23 -21 29 -17 15 9
-28 54 -97 102 -47 32 -53 40 -53 72 0 45 -29 108 -63 140 -15 13 -24 27 -22
32 3 4 -12 13 -32 19 -21 6 -44 14 -52 16 -11 3 -10 9 5 26 l19 22 -30 -21
c-16 -11 -45 -27 -62 -36 l-33 -15 -87 70 c-49 38 -90 72 -92 74 -2 2 186 4
419 4 l423 0 -7 -70 c-13 -143 -19 -340 -10 -340 5 0 19 16 32 35 22 35 18 47
-7 23 -11 -11 -12 10 -6 117 3 72 9 144 12 162 l5 31 64 -46 64 -46 -7 -99
c-7 -106 2 -121 31 -52 10 22 28 41 54 54 l39 20 51 -32 c29 -17 52 -37 52
-43 0 -23 -41 -47 -90 -52 -42 -4 -50 -2 -50 12 0 10 -4 14 -10 11 -5 -3 -10
-15 -10 -26 0 -39 122 -18 164 29 19 22 19 22 74 -14 7 -5 -22 -49 -60 -90
-22 -24 -36 -44 -30 -44 11 0 68 61 93 99 l15 24 52 -29 c29 -16 52 -32 52
-36 0 -5 5 -8 12 -8 7 0 52 -21 101 -46 85 -44 135 -53 107 -19 -7 8 -22 15
-34 15 -34 0 -53 17 -38 32 6 6 12 28 12 48 0 41 45 118 84 144 76 49 112 23
157 -112 42 -126 78 -167 142 -160 40 5 103 35 93 45 -2 3 -18 -3 -35 -11 -16
-9 -46 -16 -65 -16 -48 0 -77 38 -115 153 -55 163 -117 184 -218 74 l-43 -47
0 51 c0 31 -4 48 -10 44 -5 -3 -10 -32 -10 -63 0 -31 -3 -80 -6 -109 l-7 -51
-44 21 c-54 26 -59 44 -40 139 9 40 13 75 11 78 -10 9 -22 -25 -34 -96 -6 -41
-14 -74 -17 -74 -4 0 -26 11 -50 25 l-43 26 30 60 c17 33 49 90 72 127 53 88
54 90 30 67 -12 -11 -50 -70 -85 -132 l-63 -112 -32 19 c-18 11 -32 28 -32 38
0 9 -7 28 -16 40 -12 17 -25 22 -62 22 -38 0 -58 7 -101 36 -49 33 -53 38 -47
66 3 17 6 43 6 59 l0 29 219 0 c136 0 222 4 226 10 4 7 -96 10 -292 10 -164 0
-509 1 -768 3 -258 1 -708 1 -1000 -1z m1595 -59 c0 -68 -12 -72 -74 -24 -31
23 -56 46 -56 51 0 6 29 10 65 10 l65 0 0 -37z m-687 -127 c18 -7 47 -29 64
-49 32 -37 62 -111 50 -124 -4 -3 -39 19 -79 50 -115 90 -117 92 -111 116 6
24 30 27 76 7z m764 -33 c1 -4 -15 -21 -37 -36 l-40 -28 0 24 c0 14 3 39 6 56
l7 31 31 -19 c17 -11 32 -24 33 -28z m-784 -75 l58 -48 -53 0 c-29 0 -68 -4
-86 -9 l-32 -10 0 50 c0 28 5 59 11 70 12 23 4 27 102 -53z m917 42 c14 -25 3
-25 -35 0 l-30 20 27 0 c17 0 31 -8 38 -20z m-866 -116 c43 -16 2 -54 -59 -54
-58 0 -118 39 -82 53 18 8 123 8 141 1z m64 -17 c14 -17 3 -33 -31 -46 -44
-17 -52 -13 -23 10 14 11 26 27 26 35 0 17 14 18 28 1z"/>
<path d="M19764 2976 c-23 -7 -58 -26 -78 -41 l-36 -27 0 36 c0 20 -4 36 -10
36 -5 0 -10 -19 -10 -42 0 -24 -3 -74 -7 -113 -6 -65 -5 -69 10 -56 12 9 17
29 17 64 0 44 4 53 35 82 34 33 123 64 144 51 20 -13 23 -78 12 -224 -13 -163
-8 -201 30 -219 34 -17 92 0 113 32 21 32 10 32 -20 0 -26 -28 -60 -32 -90
-11 -17 13 -19 24 -14 133 9 241 7 283 -14 299 -23 17 -28 17 -82 0z"/>
<path d="M14248 2954 c-5 -4 -8 -130 -8 -279 l0 -271 -138 4 c-174 6 -227 -7
-300 -73 -62 -55 -98 -126 -112 -219 -28 -181 50 -345 186 -389 123 -41 290
-39 361 3 22 13 74 27 129 35 50 8 114 23 143 34 61 23 166 96 209 146 27 30
32 33 32 15 0 -11 6 -20 14 -20 20 0 30 17 14 22 -10 4 -10 14 0 53 7 27 19
63 26 80 8 16 16 38 20 48 11 34 96 44 134 14 17 -13 15 -136 -3 -212 -43
-178 -7 -209 245 -208 94 0 166 5 184 12 16 6 27 13 25 15 -2 2 -53 -1 -112
-7 -76 -8 -133 -8 -193 0 -140 17 -160 46 -130 187 23 106 24 191 3 220 -21
28 -91 37 -132 16 l-34 -17 -7 41 c-15 95 -83 161 -200 196 -67 20 -92 22
-193 18 -64 -3 -123 -7 -131 -9 -13 -4 -16 34 -20 274 -3 153 -8 275 -12 271z
m358 -575 c54 -17 79 -31 115 -68 54 -53 78 -116 58 -152 -6 -12 -13 -47 -16
-78 -2 -31 -14 -71 -25 -88 -28 -47 -120 -126 -181 -157 -53 -26 -168 -56
-221 -56 l-30 0 29 30 c16 16 26 32 24 35 -3 2 -23 -13 -44 -35 l-39 -40 -91
0 c-86 0 -94 2 -149 35 -32 19 -63 35 -69 35 -20 0 27 -40 76 -65 41 -20 66
-25 126 -25 89 -1 79 -15 -20 -31 -72 -12 -196 3 -273 32 -125 46 -191 194
-166 369 17 122 71 202 165 246 44 21 65 24 174 24 117 0 191 -12 191 -32 0
-5 11 -6 25 -2 21 5 34 -2 72 -40 50 -51 53 -52 53 -32 0 15 -86 95 -104 97
-6 1 0 5 14 9 14 4 73 8 131 9 83 1 123 -4 175 -20z"/>
<path d="M13987 2176 c-56 -15 -83 -39 -93 -81 -8 -36 1 -29 24 17 20 38 66
56 150 57 43 1 52 -2 52 -17 0 -30 -27 -58 -140 -147 -61 -48 -114 -94 -119
-103 -8 -16 5 -17 167 -14 98 1 184 6 192 10 8 4 -63 9 -159 12 l-175 5 110
87 c118 92 144 122 144 163 0 24 -3 25 -52 24 -29 0 -75 -6 -101 -13z"/>
<path d="M14260 2173 c-19 -3 -39 -9 -45 -15 -7 -7 6 -8 42 -4 l53 7 -10 -26
c-10 -27 -14 -105 -5 -105 3 0 14 9 24 19 36 36 164 39 219 5 18 -12 22 -23
22 -65 l0 -50 -47 -21 c-33 -15 -76 -23 -135 -26 l-87 -4 -6 28 c-11 48 -12
50 -20 30 -5 -10 -4 -30 1 -45 9 -25 12 -26 94 -25 95 0 146 14 190 51 25 21
30 32 30 69 0 60 -29 89 -96 98 -45 6 -142 -5 -165 -19 -12 -8 -12 27 1 59
l10 26 131 0 c116 0 130 -2 119 -15 -7 -8 -8 -15 -3 -15 11 0 43 33 43 43 0 7
-299 7 -360 0z"/>
<path d="M14665 2110 c-4 -6 -9 -47 -12 -91 -6 -80 1 -95 27 -64 9 10 9 15 1
15 -13 0 -15 63 -2 107 9 32 -1 54 -14 33z"/>
<path d="M19542 2936 c-17 -37 -28 -151 -13 -142 6 4 11 19 11 34 0 15 6 51
14 80 14 54 7 70 -12 28z"/>
<path d="M7004 2903 c-21 -15 -34 -52 -34 -95 0 -24 -4 -49 -9 -57 -13 -20 -2
-43 17 -36 8 3 20 0 28 -6 7 -5 28 -9 46 -7 26 2 34 8 36 27 5 31 -21 51 -65
51 -32 0 -33 1 -33 43 0 56 11 71 45 63 20 -5 26 -3 23 6 -5 15 -38 22 -54 11z
m50 -149 c18 -7 21 -30 6 -39 -12 -8 -60 21 -60 35 0 11 30 13 54 4z"/>
<path d="M5661 2803 c-23 -25 -47 -66 -54 -90 l-13 -43 -42 32 c-33 25 -42 39
-42 63 0 16 -4 35 -8 42 -20 31 -129 43 -203 23 -43 -12 -72 -41 -67 -67 3
-15 7 -12 18 11 19 37 61 49 153 44 70 -4 87 -14 87 -50 0 -10 -6 -17 -12 -15
-7 1 -12 -5 -10 -15 3 -17 -58 -45 -112 -50 -16 -2 -31 -8 -33 -13 -2 -7 28
-10 91 -7 95 4 95 4 126 -26 33 -33 39 -72 15 -95 -27 -28 -89 -41 -187 -42
-107 0 -132 10 -110 45 19 31 14 38 -8 11 -46 -55 -11 -76 122 -75 81 1 105 5
145 25 61 30 82 66 66 109 -9 23 -9 30 0 27 6 -2 15 -16 20 -33 19 -58 78
-105 149 -118 29 -5 52 -23 106 -81 39 -41 75 -75 82 -75 14 0 -77 118 -102
131 -23 13 -23 29 1 29 10 0 30 11 45 25 33 31 35 79 4 125 -31 46 -113 104
-135 96 -13 -5 -5 -14 34 -36 66 -38 103 -86 103 -132 0 -20 -6 -40 -12 -45
-25 -20 -68 -24 -96 -9 -54 30 -157 122 -160 144 -5 35 16 88 54 133 19 22 34
43 34 45 0 10 -11 1 -49 -43z m-141 -104 c18 -15 20 -19 7 -15 -10 3 -33 6
-50 6 -30 1 -31 1 -13 15 25 19 26 19 56 -6z m216 -171 c13 -21 -40 5 -73 35
-40 36 -25 39 23 5 25 -18 48 -36 50 -40z"/>
<path d="M6226 2710 c-31 -38 -61 -70 -66 -70 -4 0 -24 19 -43 41 -19 23 -37
37 -40 32 -4 -6 10 -29 30 -52 l35 -42 -22 -24 c-13 -14 -21 -28 -17 -31 3 -3
17 5 29 19 l24 26 47 -31 c39 -25 50 -28 62 -18 8 7 15 17 15 22 0 7 -5 6 -13
-1 -10 -8 -24 -4 -54 16 l-41 26 49 59 c46 56 75 98 65 98 -2 0 -29 -31 -60
-70z"/>
<path d="M6438 2774 c-5 -4 -8 -52 -8 -106 0 -104 6 -114 46 -82 18 15 18 15
-3 9 -22 -6 -22 -4 -25 90 -2 53 -6 93 -10 89z"/>
<path d="M12473 2541 c-46 -34 -80 -103 -91 -188 l-7 -56 -43 56 c-23 31 -47
68 -54 82 -11 25 -28 34 -28 14 0 -28 127 -202 141 -193 5 3 9 32 9 64 0 101
46 195 115 237 11 6 15 12 9 12 -6 1 -29 -12 -51 -28z"/>
<path d="M6328 2155 c-3 -6 -9 -28 -13 -50 -4 -22 -22 -91 -41 -154 -33 -111
-44 -199 -24 -186 6 3 10 23 10 43 0 52 41 187 51 170 5 -7 9 -76 9 -152 0
-95 3 -137 10 -130 7 7 9 94 8 240 -2 126 -6 224 -10 219z"/>
<path d="M4272 1816 c-60 -20 -107 -59 -128 -106 -13 -30 -24 -40 -40 -40 -13
0 -26 -4 -29 -10 -4 -6 6 -10 24 -10 24 0 30 -5 36 -30 23 -106 187 -159 309
-101 25 13 46 27 46 32 0 5 -17 0 -37 -11 -106 -56 -261 -19 -292 71 l-11 32
179 -7 c106 -4 182 -3 185 3 4 5 -69 12 -174 16 -99 4 -183 11 -186 16 -9 15
24 76 53 97 62 44 190 53 227 16 18 -18 26 -18 26 1 0 20 -27 32 -90 39 -35 3
-71 0 -98 -8z"/>
<path d="M5820 1790 c0 -6 25 -10 58 -9 41 0 51 3 37 9 -28 12 -95 12 -95 0z"/>
<path d="M4898 1713 c-27 -2 -48 -8 -48 -12 0 -10 283 -1 295 10 9 9 -145 10
-247 2z"/>
<path d="M4867 1650 c16 -17 282 -27 309 -12 15 9 -5 11 -87 12 -58 0 -135 3
-170 6 -51 5 -62 4 -52 -6z"/>
<path d="M13845 1550 c-4 -7 118 -10 359 -10 232 0 367 4 371 10 4 7 -118 10
-359 10 -232 0 -367 -4 -371 -10z"/>
<path d="M12875 1530 c-4 -7 153 -10 464 -10 307 0 471 3 471 10 0 7 -161 10
-464 10 -299 0 -467 -4 -471 -10z"/>
<path d="M6485 1489 c-808 -14 -1079 -24 -1054 -42 2 -2 96 0 209 4 113 4 468
10 790 14 322 4 592 9 600 12 12 4 11 7 -5 13 -11 5 -24 8 -30 8 -5 -1 -235
-5 -510 -9z"/>
<path d="M13376 1491 c-3 -5 19 -21 48 -35 80 -39 256 -156 256 -170 0 -19 48
-13 64 9 21 28 20 38 -4 25 -11 -6 -20 -8 -20 -5 0 10 52 89 87 133 19 23 30
42 24 42 -12 0 -94 -107 -117 -153 l-15 -27 -87 58 c-84 57 -213 132 -225 132
-3 0 -8 -4 -11 -9z"/>
<path d="M7040 1401 c0 -6 8 -16 19 -23 31 -22 69 -86 76 -128 15 -87 -19
-110 -160 -110 -141 0 -191 27 -188 101 2 52 40 118 71 126 14 3 53 2 88 -4
35 -5 69 -6 75 -2 14 8 -22 17 -99 25 -53 6 -60 4 -90 -21 -18 -15 -40 -41
-49 -58 -13 -26 -17 -28 -24 -14 -22 38 -68 58 -143 63 -73 5 -75 4 -95 -25
-11 -16 -25 -39 -29 -51 -8 -22 -9 -21 -22 10 -17 42 -106 85 -144 71 -54 -21
-88 -110 -66 -176 14 -43 52 -65 111 -65 33 0 47 6 75 34 33 33 35 33 45 14
15 -28 70 -48 133 -48 63 0 97 11 126 40 l22 22 22 -21 c32 -31 78 -41 179
-41 103 0 150 17 173 63 20 38 12 97 -21 153 -29 49 -85 92 -85 65z m-390 -72
c65 0 120 -74 103 -140 -8 -30 -55 -49 -123 -49 -122 0 -158 52 -110 159 20
42 21 43 58 36 20 -3 53 -6 72 -6z m-326 -10 c11 17 41 13 68 -9 14 -10 29
-16 32 -12 13 13 36 -31 36 -69 0 -22 -8 -47 -21 -63 -17 -22 -28 -26 -67 -26
-89 1 -125 66 -87 158 12 26 18 33 24 23 6 -9 11 -10 15 -2z"/>
<path d="M6005 1316 c-61 -19 -78 -31 -98 -68 l-18 -33 28 32 c48 54 173 86
173 44 0 -24 -37 -55 -144 -121 -46 -28 -92 -60 -102 -71 -12 -13 -31 -19 -62
-19 -25 0 -43 -2 -40 -5 4 -5 330 -8 456 -5 23 0 12 16 -23 33 -34 16 -36 16
-33 0 3 -16 -10 -18 -131 -21 -74 -1 -139 2 -144 7 -5 5 35 38 107 85 114 74
145 107 133 140 -8 19 -46 20 -102 2z"/>
<path d="M14740 1233 c-14 -2 -39 -6 -57 -9 -45 -7 -89 -47 -120 -108 -22 -43
-27 -68 -31 -156 -4 -103 -4 -106 22 -137 53 -62 226 -107 398 -101 97 3 120
7 162 28 53 27 80 58 90 103 10 41 -9 32 -22 -11 -23 -77 -84 -102 -246 -102
-87 0 -131 5 -204 25 -166 44 -182 60 -182 180 0 159 49 247 149 265 29 6 79
10 110 11 43 1 50 3 31 9 -27 9 -59 10 -100 3z"/>
<path d="M12663 1096 c-39 -18 -53 -43 -53 -96 0 -53 21 -92 87 -162 l55 -57
-39 -19 c-84 -43 -106 -104 -48 -130 32 -15 130 -16 156 -2 28 15 25 68 -6
110 -14 19 -25 37 -25 41 0 4 15 13 34 19 19 6 40 18 46 26 17 20 7 18 -49
-11 l-49 -24 -54 57 c-67 70 -89 111 -90 164 -1 53 19 70 86 76 113 9 124 -8
54 -85 -50 -56 -49 -67 3 -18 51 50 75 93 60 108 -17 17 -132 19 -168 3z m131
-364 c34 -50 35 -88 0 -95 -75 -14 -153 19 -140 61 5 16 87 71 107 72 4 0 18
-17 33 -38z"/>
<path d="M14066 1010 c-30 -32 -46 -58 -46 -75 0 -14 5 -25 10 -25 6 0 10 13
10 28 0 19 11 39 36 63 l35 34 -6 -110 c-4 -60 -10 -128 -14 -150 l-7 -40
-204 -3 c-116 -1 -209 -7 -214 -12 -7 -7 63 -10 201 -10 160 0 212 -3 216 -12
3 -10 7 -10 19 0 11 9 69 12 222 11 142 -1 211 2 219 10 8 8 -47 11 -212 11
l-224 0 6 73 c17 196 19 257 10 257 -6 0 -31 -22 -57 -50z"/>
<path d="M14840 1050 c-1 -3 -4 -63 -6 -135 -3 -88 -1 -126 6 -119 6 6 13 42
17 80 6 62 10 73 43 107 25 24 47 37 64 37 14 0 26 -1 27 -2 0 -2 4 -45 8 -97
7 -85 10 -96 35 -118 35 -30 80 -30 100 -1 18 25 21 48 7 48 -5 0 -12 -11 -15
-25 -8 -31 -43 -34 -77 -7 -19 16 -23 32 -29 108 -3 49 -10 95 -14 102 -16 26
-69 10 -118 -35 l-26 -25 -10 43 c-5 24 -11 42 -12 39z"/>
<path d="M14749 974 c-6 -16 -14 -60 -17 -99 -5 -64 -4 -69 11 -57 11 10 14
23 10 42 -3 16 0 52 7 80 14 57 7 79 -11 34z"/>
<path d="M7395 970 c-4 -7 70 -10 214 -10 136 0 222 4 226 10 4 7 -70 10 -214
10 -136 0 -222 -4 -226 -10z"/>
<path d="M13338 883 c-82 -2 -148 -7 -148 -12 0 -12 304 -4 308 8 2 6 0 10 -5
9 -4 -1 -74 -4 -155 -5z"/>
<path d="M5825 820 c-4 -7 301 -10 909 -10 599 0 917 3 921 10 4 7 -301 10
-909 10 -599 0 -917 -3 -921 -10z"/>
<path d="M13200 781 c0 -6 7 -11 15 -11 8 0 60 -5 116 -11 64 -7 104 -8 110
-2 7 7 -17 12 -63 17 -40 3 -97 9 -125 13 -37 4 -53 2 -53 -6z"/>
<path d="M13905 671 c-38 -16 -58 -48 -53 -86 3 -27 0 -36 -14 -41 -46 -14
-74 -96 -48 -143 16 -32 86 -52 176 -52 91 0 133 15 160 56 23 35 11 70 -37
105 l-41 29 36 15 c42 17 66 58 50 84 -6 9 -26 22 -45 29 -39 14 -154 16 -184
4z m175 -24 c27 -9 35 -17 35 -37 0 -41 -39 -53 -148 -43 -90 8 -92 9 -95 35
-3 29 25 52 51 42 8 -3 18 -1 22 5 8 14 91 13 135 -2z m-76 -121 c67 -15 122
-64 114 -102 -2 -9 -15 -26 -31 -37 -53 -40 -252 -23 -277 23 -20 37 -12 87
18 110 23 19 36 21 87 17 33 -3 73 -8 89 -11z"/>
<path d="M14207 654 c-48 -26 -61 -100 -32 -172 22 -51 52 -81 110 -108 154
-73 303 28 239 162 -17 37 -90 95 -148 119 -45 19 -133 19 -169 -1z m180 -29
c60 -30 120 -86 129 -120 10 -41 -5 -93 -33 -115 -60 -47 -211 -11 -268 64
-38 50 -47 144 -16 175 31 31 120 29 188 -4z"/>
</g>
</svg>
