<?xml version="1.0" standalone="no"?>
<!DOCTYPE svg PUBLIC "-//W3C//DTD SVG 20010904//EN"
 "http://www.w3.org/TR/2001/REC-SVG-20010904/DTD/svg10.dtd">
<svg version="1.0" xmlns="http://www.w3.org/2000/svg"
 width="2560.000000pt" height="989.000000pt" viewBox="0 0 2560.000000 989.000000"
 preserveAspectRatio="xMidYMid meet">

<g transform="translate(0.000000,989.000000) scale(0.100000,-0.100000)"
fill="#000000" stroke="none">
<path d="M18778 9224 c-5 -4 -8 -96 -8 -205 l0 -198 30 -16 c16 -8 54 -15 85
-15 46 0 60 4 80 25 21 20 25 34 25 85 0 52 -4 65 -26 87 -22 22 -32 25 -71
20 -25 -2 -58 -14 -74 -26 l-28 -21 -3 136 c-2 75 -6 132 -10 128z m172 -254
c15 -15 20 -33 20 -79 0 -74 -10 -83 -92 -79 -73 3 -85 20 -48 70 28 37 20 48
-9 12 l-21 -27 0 40 c0 55 30 81 98 82 19 1 40 -7 52 -19z"/>
<path d="M19020 9004 c0 -180 3 -224 13 -216 15 13 12 442 -3 442 -6 0 -10
-88 -10 -226z"/>
<path d="M12196 9212 c-3 -5 17 -21 45 -37 122 -66 280 -220 321 -312 23 -52
17 -97 -21 -153 -33 -50 -75 -81 -175 -131 -43 -22 -76 -43 -73 -46 3 -2 46
16 96 42 153 79 229 184 202 277 -17 55 -96 153 -189 233 -84 73 -197 142
-206 127z"/>
<path d="M17083 9199 c-153 -20 -265 -62 -320 -122 l-28 -31 40 31 c55 42 90
58 165 77 106 26 218 37 340 34 l115 -3 3 -33 c4 -44 -17 -68 -95 -103 -61
-28 -222 -79 -249 -79 -11 0 -14 17 -14 71 0 44 -4 68 -10 64 -5 -3 -10 -35
-10 -71 0 -64 0 -65 -30 -71 -17 -3 -33 -10 -36 -15 -4 -6 9 -7 30 -3 l36 7 0
-101 c0 -66 4 -100 10 -96 6 3 10 48 10 100 l0 95 28 5 c65 14 201 59 243 81
77 38 109 71 109 109 0 58 -16 65 -153 64 -67 -1 -150 -5 -184 -10z"/>
<path d="M14549 9158 c-7 -12 -15 -62 -17 -110 l-4 -88 -194 0 c-115 0 -195
-4 -199 -10 -4 -6 69 -11 201 -12 l207 -3 14 -39 c7 -22 16 -64 20 -93 5 -46
3 -56 -13 -68 -17 -12 -18 -14 -2 -20 9 -4 22 -4 28 0 15 9 12 92 -5 159 -8
32 -13 62 -9 67 3 5 29 9 59 9 30 0 57 5 60 11 12 18 1 19 -64 8 -52 -10 -65
-9 -72 2 -12 19 -11 126 1 168 12 42 6 51 -11 19z"/>
<path d="M11065 9089 c-4 -5 -7 -44 -7 -85 l1 -74 -41 0 c-106 0 -435 -23
-448 -32 -10 -6 20 -7 85 -4 55 3 170 9 255 12 l156 7 22 -120 c12 -66 20
-127 16 -137 -3 -9 -1 -16 5 -16 22 0 23 30 5 130 l-17 101 28 29 29 30 -37 0
c-36 0 -37 1 -39 38 -1 20 -1 58 1 85 2 46 -2 57 -14 36z m45 -183 c0 -3 -4
-8 -10 -11 -5 -3 -10 -1 -10 4 0 6 5 11 10 11 6 0 10 -2 10 -4z"/>
<path d="M18666 8998 c-9 -37 -7 -122 5 -157 12 -33 29 -40 48 -17 10 12 9 13
-8 9 -17 -4 -20 2 -26 42 -4 25 -5 68 -3 96 5 50 -5 67 -16 27z"/>
<path d="M13637 8993 c-12 -7 -34 -12 -48 -13 -14 0 -33 -6 -44 -13 -16 -13
-15 -14 13 -9 34 5 42 -8 18 -28 -8 -6 -20 -28 -27 -48 -6 -20 -15 -41 -19
-45 -12 -13 6 -96 26 -118 36 -41 92 -59 187 -59 89 0 129 11 156 44 19 23 5
20 -30 -6 -26 -20 -43 -23 -112 -22 -131 1 -213 50 -205 121 l3 28 219 12
c192 11 252 20 235 37 -2 3 -22 1 -44 -4 -22 -5 -114 -11 -205 -15 -91 -4
-173 -9 -182 -11 -27 -8 -22 25 11 78 33 52 38 53 259 65 67 3 122 10 122 15
0 13 -307 5 -333 -9z"/>
<path d="M8132 8977 c-59 -63 -102 -200 -102 -324 0 -91 16 -145 48 -162 26
-14 99 -14 107 -1 4 6 -10 10 -34 10 -21 0 -47 3 -56 6 -65 25 -60 267 10 403
30 60 45 72 45 36 0 -15 4 -24 10 -20 12 8 13 62 1 69 -4 3 -17 -5 -29 -17z"/>
<path d="M18310 8898 c0 -96 7 -128 26 -128 16 0 19 16 4 25 -5 3 -10 46 -10
96 0 53 -4 89 -10 89 -6 0 -10 -34 -10 -82z"/>
<path d="M18390 8962 c-44 -22 -51 -54 -15 -70 25 -12 25 -12 10 -48 -31 -75
-12 -92 90 -81 74 8 110 26 110 57 0 22 -9 27 -80 51 -44 14 -80 31 -79 37 1
7 2 21 3 32 1 18 8 20 82 20 51 0 78 4 74 10 -11 18 -156 12 -195 -8z m20 -26
c0 -8 -5 -18 -11 -22 -14 -8 -33 11 -25 25 10 16 36 13 36 -3z m94 -86 c41
-13 66 -26 66 -35 0 -18 -61 -35 -127 -35 -58 0 -65 10 -40 63 15 32 17 32
101 7z"/>
<path d="M19187 8956 c-127 -47 -129 -136 -4 -194 91 -42 251 -57 282 -26 9 9
13 19 10 22 -3 4 -10 0 -15 -7 -12 -21 -170 -9 -239 17 -64 25 -111 67 -111
99 0 52 83 90 179 80 51 -6 96 -31 85 -48 -3 -5 -54 -9 -114 -9 -68 0 -111 -4
-116 -11 -9 -15 231 -8 247 7 17 18 2 49 -29 64 -41 19 -132 22 -175 6z"/>
<path d="M17422 8931 c-18 -12 -41 -21 -52 -21 -11 0 -20 -4 -20 -10 0 -5 5
-10 11 -10 7 0 9 -9 6 -22 -16 -61 19 -88 113 -88 58 0 140 24 140 41 0 4 -16
1 -35 -7 -36 -15 -162 -19 -181 -6 -15 10 -26 46 -19 64 5 11 22 14 88 10 63
-3 87 0 102 12 18 13 19 16 4 31 -9 9 -39 18 -70 21 -43 4 -61 1 -87 -15z
m116 -7 c46 -13 19 -24 -55 -24 -71 1 -76 2 -59 15 20 15 74 19 114 9z"/>
<path d="M17650 8941 c0 -5 -10 -12 -22 -16 -22 -7 -22 -8 -3 -12 16 -3 23
-17 32 -66 11 -53 10 -64 -4 -79 -9 -10 -12 -18 -6 -18 5 0 18 9 28 20 15 17
16 25 6 64 -19 75 -18 76 50 76 37 0 58 4 54 10 -3 6 -31 10 -61 10 -30 0 -54
5 -54 10 0 6 -4 10 -10 10 -5 0 -10 -4 -10 -9z"/>
<path d="M18070 8925 c-19 -14 -49 -42 -67 -62 -29 -34 -32 -36 -38 -18 -15
49 -32 70 -58 73 -21 3 -31 -3 -46 -30 l-20 -32 6 39 c4 32 3 38 -7 28 -16
-15 -28 -169 -12 -159 6 3 14 21 18 39 3 17 14 47 22 65 33 69 80 16 81 -92 1
-42 3 -47 16 -36 8 7 15 25 15 40 0 26 40 91 72 117 8 7 31 19 51 28 32 13 37
13 51 -1 10 -9 16 -33 16 -62 0 -66 9 -92 31 -92 10 0 21 5 24 10 3 6 0 10 -8
10 -19 0 -27 22 -27 70 0 65 -15 90 -52 90 -18 -1 -49 -12 -68 -25z"/>
<path d="M15040 8928 c-19 -5 -52 -12 -72 -15 -39 -5 -53 -23 -19 -23 17 0 18
-3 9 -28 -18 -48 -3 -81 47 -103 50 -22 160 -28 193 -10 17 9 21 8 25 -7 4
-14 6 -13 12 6 7 22 8 22 27 5 33 -29 160 -31 244 -3 66 22 68 22 117 5 35
-13 76 -18 133 -17 104 2 144 19 144 62 0 49 -55 90 -155 116 -75 21 -100 18
-139 -17 -28 -24 -36 -39 -38 -71 -3 -40 -5 -42 -53 -59 -56 -20 -195 -25
-226 -9 -26 14 -24 46 4 65 32 21 156 62 239 79 67 14 86 21 77 30 -2 2 -46
-1 -98 -7 -73 -8 -96 -8 -99 1 -5 15 -319 15 -372 0z m189 -45 c-5 -21 -9 -55
-9 -75 0 -35 -2 -38 -40 -48 -61 -17 -179 9 -202 44 -12 18 -9 63 5 73 6 6 47
13 89 16 42 3 85 10 95 16 10 6 30 11 44 11 26 0 27 -1 18 -37z m121 31 c-36
-8 -100 -9 -100 -2 0 5 26 7 58 7 31 -1 50 -3 42 -5z m431 -33 c67 -25 99 -53
99 -86 0 -31 -28 -39 -135 -39 -77 0 -113 10 -142 40 -20 20 -16 71 8 95 18
18 29 21 68 16 25 -3 71 -15 102 -26z m-397 0 c-73 -27 -111 -48 -128 -73
l-16 -22 0 29 c0 17 3 40 6 52 6 23 29 28 139 31 l50 1 -51 -18z"/>
<path d="M5634 8895 c-12 -19 -19 -54 -22 -112 l-5 -86 -83 7 c-46 3 -85 2
-88 -3 -3 -5 34 -12 83 -16 l88 -7 7 -66 c3 -37 6 -95 6 -130 0 -47 3 -62 13
-59 13 4 13 3 3 155 l-7 102 145 0 c86 0 147 4 151 10 4 6 -47 10 -144 10
l-151 0 0 70 c0 40 6 86 15 107 19 44 13 54 -11 18z"/>
<path d="M14816 8911 c-4 -6 9 -25 28 -42 28 -24 36 -39 36 -65 l0 -34 -74 0
c-111 0 -156 24 -156 83 0 23 -3 28 -11 20 -7 -7 -9 -25 -5 -47 10 -51 61 -76
156 -76 92 0 110 10 110 58 0 31 -7 45 -39 76 -24 23 -41 34 -45 27z"/>
<path d="M14166 8899 c-86 -10 -116 -17 -116 -28 0 -4 22 -4 49 2 44 8 55 6
103 -16 29 -14 83 -39 121 -56 37 -16 67 -34 67 -39 0 -14 -53 -22 -146 -22
-92 0 -107 11 -56 42 17 11 21 18 11 18 -23 0 -63 -46 -56 -64 5 -13 24 -16
94 -16 134 0 196 25 163 65 -6 7 -53 31 -103 52 -68 28 -85 39 -67 41 47 5 70
12 70 22 0 11 -33 11 -134 -1z"/>
<path d="M9208 8894 c-12 -12 -9 -113 6 -181 7 -34 11 -64 9 -67 -3 -3 3 -4
13 -4 11 1 54 -5 98 -11 49 -8 82 -9 88 -3 6 6 -10 12 -44 16 -112 14 -118 16
-118 42 0 17 25 51 80 108 44 46 80 87 80 92 0 12 -95 -81 -140 -139 -36 -44
-39 -46 -46 -25 -4 13 -10 58 -13 101 -3 44 -9 75 -13 71z"/>
<path d="M11994 8865 c-10 -25 14 -44 117 -96 54 -26 100 -53 103 -58 11 -16
-28 -23 -151 -26 -97 -3 -123 -1 -123 10 0 18 -37 40 -127 76 -107 42 -110 49
-26 49 50 0 74 4 83 15 11 13 1 15 -81 15 -62 0 -103 -5 -121 -14 -33 -18 -67
-22 -91 -11 -28 12 -227 -11 -227 -26 0 -5 8 -9 18 -10 46 -3 198 3 206 8 4 3
27 6 50 8 57 2 296 -90 296 -115 0 -6 -51 -10 -126 -10 -111 0 -125 2 -114 15
8 10 9 15 1 15 -6 0 -18 -11 -27 -25 -15 -23 -22 -25 -89 -25 -76 0 -146 19
-178 48 -13 12 -17 25 -13 47 5 28 5 29 -9 11 -8 -11 -15 -25 -15 -32 0 -27
44 -64 92 -79 59 -17 170 -20 198 -5 11 6 107 10 227 11 301 0 401 18 362 65
-8 10 -55 37 -105 60 -49 23 -96 49 -103 58 -12 14 -7 16 43 16 31 0 56 -3 56
-7 0 -5 31 -7 70 -5 38 2 70 7 70 12 0 13 -57 20 -162 20 -79 0 -100 -3 -104
-15z"/>
<path d="M10762 8847 c-16 -18 -4 -31 74 -85 84 -57 94 -85 40 -107 -39 -17
-176 -21 -176 -6 0 6 14 18 30 28 17 9 30 21 30 26 0 9 -11 3 -52 -27 -16 -11
-28 -28 -28 -38 0 -16 9 -18 66 -18 169 0 234 63 138 135 -42 31 -55 69 -27
79 8 3 11 10 8 16 -9 15 -91 12 -103 -3z"/>
<path d="M10028 8814 c-13 -13 -22 -14 -56 -4 -54 14 -101 -5 -134 -54 l-24
-35 -18 39 c-10 22 -22 40 -28 40 -16 0 -67 -59 -99 -115 l-29 -50 -1 50 c-2
66 -12 111 -24 107 -6 -2 -8 -9 -7 -15 2 -7 7 -50 10 -96 4 -47 12 -86 18 -88
5 -2 20 21 33 51 32 79 79 140 95 127 12 -10 17 -24 48 -131 l13 -45 52 -3
c47 -3 54 0 86 32 29 29 51 72 74 146 11 38 66 -88 83 -192 23 -144 6 -206
-70 -248 -38 -21 -62 -25 -149 -28 -178 -7 -297 40 -342 137 -26 54 -45 68
-35 24 18 -77 106 -148 211 -172 26 -6 -205 -9 -645 -10 -600 -1 -737 -6 -710
-23 14 -9 3840 3 3840 12 0 7 -400 10 -1127 11 -957 0 -1121 2 -1085 14 93 29
142 93 142 184 0 101 -46 264 -93 331 -12 17 -15 18 -29 4z m-55 -25 c41 -11
44 -20 25 -81 -25 -85 -101 -125 -148 -78 -36 36 -19 119 32 154 26 19 40 19
91 5z"/>
<path d="M11236 8817 c-12 -9 -21 -33 -25 -73 l-7 -59 -12 40 c-7 22 -12 46
-12 53 0 6 -5 12 -11 12 -15 0 -4 -68 18 -114 24 -51 43 -36 43 33 0 90 6 101
51 101 21 0 41 5 44 10 9 15 -68 12 -89 -3z"/>
<path d="M3379 8797 c-80 -34 -121 -61 -167 -111 -78 -84 -122 -214 -107 -313
5 -37 15 -56 44 -83 69 -66 247 -104 456 -98 146 3 181 15 223 79 20 29 23 44
20 101 -3 57 -8 73 -34 104 -44 55 -183 178 -191 170 -4 -4 32 -43 79 -87 111
-102 128 -129 128 -207 0 -75 -29 -115 -93 -133 -67 -18 -335 -6 -431 20 -149
40 -181 74 -180 189 2 147 79 269 210 333 78 39 140 46 250 29 46 -7 87 -11
90 -7 11 10 -70 28 -156 33 -74 4 -92 2 -141 -19z"/>
<path d="M4850 8774 c-19 -7 -48 -13 -65 -13 -40 -2 -75 -11 -75 -22 0 -4 17
-5 38 -2 l37 6 -32 -36 c-36 -41 -48 -88 -39 -150 13 -88 115 -147 254 -147
49 0 85 5 97 14 13 8 65 15 140 19 170 8 285 34 285 63 0 21 -27 31 -153 55
-64 13 -117 26 -117 30 0 4 36 10 80 14 44 4 80 10 80 15 0 8 -98 20 -166 20
-36 0 -47 -5 -60 -25 -9 -14 -15 -28 -12 -30 3 -3 71 -18 152 -35 150 -30 187
-42 168 -54 -22 -13 -210 -36 -297 -36 -83 1 -88 2 -65 15 17 10 20 14 9 15
-9 0 -29 -10 -43 -21 -22 -17 -25 -24 -14 -31 8 -6 -24 -8 -87 -5 -107 3 -158
21 -201 69 -27 29 -39 77 -22 83 7 2 78 11 157 19 79 8 149 20 155 26 8 8 0
10 -29 6 -22 -3 -89 -11 -150 -17 -60 -6 -119 -13 -129 -16 -17 -5 -18 -1 -13
32 13 80 69 113 212 124 58 4 110 12 115 17 5 5 -26 7 -78 4 -48 -3 -89 -3
-92 1 -3 3 -21 0 -40 -7z m358 -161 c-10 -2 -26 -2 -35 0 -10 3 -2 5 17 5 19
0 27 -2 18 -5z"/>
<path d="M8631 8748 c-4 -12 -9 -49 -10 -82 -3 -78 -20 -146 -37 -146 -7 0
-47 45 -89 100 -43 55 -83 100 -90 100 -23 0 -33 -24 -46 -112 -7 -49 -16 -88
-19 -88 -3 0 -26 41 -52 91 -25 49 -49 85 -53 80 -9 -15 101 -230 113 -222 5
3 18 56 27 118 11 74 21 110 29 107 6 -3 40 -43 75 -90 80 -105 98 -120 122
-98 22 19 39 96 39 169 0 43 5 58 22 75 l22 20 -22 0 c-14 0 -26 -8 -31 -22z"/>
<path d="M6895 8727 c-30 -30 -35 -42 -35 -80 0 -79 61 -112 205 -112 107 0
155 27 155 87 0 40 -96 116 -155 124 -142 18 -131 20 -170 -19z m183 -12 c73
-22 124 -68 120 -109 -2 -25 -9 -33 -38 -43 -75 -26 -216 -8 -261 33 -27 24
-26 93 3 123 18 21 28 23 72 18 28 -3 75 -13 104 -22z"/>
<path d="M8744 8741 c-59 -36 -80 -93 -53 -143 26 -48 192 -79 252 -46 12 7
31 12 42 12 18 1 21 10 25 74 3 50 10 76 20 82 8 5 43 10 78 10 36 0 62 4 62
11 0 6 -30 9 -85 7 -47 -1 -85 -6 -85 -10 0 -4 -16 -10 -35 -14 -25 -4 -45 -1
-75 15 -50 26 -105 27 -146 2z m94 -2 c17 -6 38 -22 47 -36 10 -15 22 -22 31
-19 22 8 49 -61 37 -94 -6 -19 -18 -26 -48 -32 -75 -13 -184 19 -199 57 -19
50 12 108 67 124 18 5 32 10 33 10 1 1 15 -4 32 -10z m154 -91 c-2 -35 -8 -67
-13 -73 -6 -6 -7 2 -3 21 3 18 0 45 -9 66 -16 38 -14 48 12 48 13 0 15 -11 13
-62z"/>
<path d="M9497 8729 c-4 -9 -7 -51 -5 -94 l3 -77 34 46 c18 26 31 50 28 52 -3
3 -14 -7 -24 -22 l-18 -28 -5 69 c-4 43 -9 64 -13 54z"/>
<path d="M6636 8705 c-27 -8 -53 -18 -59 -24 -14 -14 -13 -14 53 4 83 22 88
19 45 -25 -37 -38 -43 -40 -100 -41 -33 0 -84 -4 -113 -8 l-53 -8 3 36 3 36
63 3 c35 2 62 8 62 14 0 13 -203 3 -230 -12 -10 -5 -63 -10 -117 -10 -80 0
-104 -4 -130 -20 -18 -11 -33 -24 -33 -29 0 -5 -9 -7 -20 -4 -11 3 -20 0 -20
-6 0 -6 4 -11 9 -11 13 0 51 -67 51 -90 0 -11 -9 -24 -19 -30 -45 -24 -165 -4
-198 32 -17 19 -17 21 0 50 23 40 15 47 -12 12 -27 -34 -26 -49 3 -79 41 -41
153 -59 205 -32 19 10 38 31 47 55 1 1 27 -4 60 -13 86 -22 186 -20 215 5 13
10 19 19 12 20 -6 0 -15 -4 -18 -10 -10 -15 -142 -12 -205 6 -43 12 -59 22
-73 45 -9 17 -17 37 -17 44 0 17 31 35 57 35 15 0 16 -2 3 -10 -10 -7 28 -10
116 -10 101 0 134 3 143 14 9 11 9 15 -1 19 -8 3 -6 6 5 6 17 1 18 -6 12 -99
-4 -56 -4 -100 1 -100 15 0 41 20 27 20 -16 0 -18 86 -3 95 5 3 56 8 112 11
l103 5 -48 -43 c-26 -24 -47 -46 -47 -50 0 -12 288 -10 295 2 4 6 -42 10 -131
10 l-138 0 39 40 c37 38 42 40 100 40 35 0 69 6 79 13 15 11 7 12 -51 9 l-68
-4 43 44 c23 24 42 47 42 51 0 11 -49 7 -104 -8z"/>
<path d="M3506 8682 c-3 -5 -8 -32 -12 -61 -6 -48 -11 -56 -55 -91 -27 -21
-75 -53 -106 -71 l-58 -34 40 -7 c22 -4 70 -7 106 -7 l66 -1 7 -40 c4 -27 11
-40 22 -40 12 0 14 5 9 18 -4 9 -10 28 -13 41 l-5 24 95 -8 c65 -4 98 -3 102
4 7 11 -1 13 -74 16 -19 0 -54 2 -77 3 l-43 2 0 69 c0 67 1 69 30 81 38 16 49
30 41 54 -6 17 -9 16 -40 -10 l-33 -27 7 46 c7 44 3 58 -9 39z m54 -72 c0 -5
-5 -10 -11 -10 -5 0 -7 5 -4 10 3 6 8 10 11 10 2 0 4 -4 4 -10z m-70 -120 l0
-60 -82 0 c-76 1 -81 2 -63 16 54 41 140 103 143 104 1 0 2 -27 2 -60z"/>
<path d="M11576 8222 c-3 -6 27 -12 75 -16 155 -14 264 -57 295 -118 21 -41
19 -118 -5 -172 -45 -103 -156 -191 -602 -477 -171 -109 -313 -199 -315 -199
-3 0 -3 57 -2 128 l3 127 99 8 c91 7 159 28 142 44 -3 3 -12 1 -19 -5 -14 -12
-206 -34 -219 -25 -5 2 -8 15 -8 29 0 14 -4 22 -10 19 -5 -3 -10 -16 -10 -29
l0 -23 -232 -6 c-128 -4 -236 -11 -242 -17 -6 -6 78 -7 232 -3 l242 6 0 -126
c0 -112 -2 -126 -16 -120 -13 5 -15 2 -10 -15 6 -17 -17 -36 -166 -138 -185
-125 -435 -309 -533 -393 l-60 -50 -1117 -1 c-733 0 -1119 -3 -1123 -10 -4 -7
367 -10 1106 -10 l1111 0 -104 -109 c-312 -326 -413 -647 -280 -895 107 -200
456 -403 880 -511 178 -46 386 -85 397 -74 5 5 6 9 3 9 -24 0 -363 75 -452
100 -473 133 -788 353 -852 594 -60 223 66 518 339 799 l85 87 1104 -2 1103
-3 3 -809 2 -809 -67 6 c-191 17 -335 -48 -400 -181 -25 -51 -27 -68 -28 -162
0 -89 3 -111 22 -145 39 -74 87 -104 210 -134 l78 -20 -87 0 c-112 -1 -228 21
-303 58 -57 29 -73 32 -62 14 9 -14 95 -54 150 -70 74 -21 324 -28 442 -14
237 30 376 99 422 210 18 42 20 175 4 216 -21 52 -60 94 -111 120 -43 22 -63
25 -150 25 l-100 0 0 26 c0 19 4 24 18 20 48 -14 70 -17 75 -9 3 5 -16 15 -43
22 l-50 13 0 814 0 814 2144 0 c1417 0 2147 3 2151 10 4 7 -1085 11 -3246 12
l-3253 3 115 91 c168 134 446 330 651 459 8 6 55 36 104 68 49 32 188 122 310
200 363 234 496 340 542 438 31 64 30 154 -1 200 -27 40 -108 83 -186 97 -95
18 -188 25 -195 14z m794 -3230 c42 -7 45 -9 45 -37 0 -22 -5 -31 -20 -33 -11
-2 -24 -9 -30 -14 -7 -7 -1 -9 18 -5 23 3 30 0 36 -17 l8 -21 7 22 c6 17 17
22 66 28 120 14 227 -32 271 -117 18 -34 22 -60 22 -123 0 -156 -62 -218 -271
-271 -52 -13 -103 -24 -114 -24 -19 0 -19 1 3 20 29 24 18 26 -17 4 -20 -14
-41 -16 -107 -11 -45 3 -104 12 -132 19 l-50 13 -3 89 c-3 89 -3 89 20 82 104
-28 228 -30 244 -5 10 17 -4 23 -21 9 -18 -15 -139 -8 -201 12 -38 13 -39 14
-39 63 l0 50 45 7 c25 3 86 7 137 7 58 1 94 5 99 13 5 8 -28 10 -136 4 l-142
-6 6 26 c5 19 3 25 -6 22 -7 -3 -15 -13 -17 -24 -4 -23 -19 -34 -48 -34 -12 0
-25 -5 -29 -11 -5 -9 3 -10 30 -5 l36 7 0 -146 c0 -161 -3 -167 -60 -119 -58
49 -75 97 -75 209 0 110 20 172 73 228 71 75 210 110 352 89z"/>
<path d="M12518 4846 c-65 -17 -98 -41 -98 -71 0 -32 29 -58 119 -108 40 -22
85 -50 100 -63 l26 -22 -45 -13 c-26 -7 -109 -12 -197 -13 -97 -1 -152 -5
-150 -11 5 -14 258 -11 329 4 101 22 98 52 -11 113 -125 69 -151 89 -151 115
0 18 9 28 35 39 19 7 40 14 47 13 7 0 -2 -7 -21 -15 -53 -24 -29 -27 40 -5 35
11 76 22 92 26 15 3 27 10 27 15 0 14 -85 11 -142 -4z"/>
<path d="M4860 8150 c-10 -6 405 -10 1182 -10 787 0 1199 3 1203 10 8 14
-2364 14 -2385 0z"/>
<path d="M16989 7927 c-185 -77 -316 -284 -285 -451 8 -44 120 -167 178 -197
46 -24 134 -25 186 -3 24 10 63 15 110 15 85 -2 172 12 260 40 57 19 65 20 80
5 27 -23 87 -46 124 -46 83 0 126 65 114 174 -10 100 -25 88 -23 -19 2 -90 1
-98 -22 -116 -30 -25 -91 -25 -141 1 -21 11 -41 24 -44 28 -3 5 14 23 38 40
89 62 125 173 92 286 -32 110 -136 184 -281 201 -34 4 -69 15 -80 25 -38 33
-64 40 -157 40 -74 0 -105 -5 -149 -23z m278 -19 c16 -17 16 -18 -17 -18 -86
-1 -167 -36 -191 -83 -9 -17 -3 -14 22 10 37 35 94 52 172 53 46 0 47 -1 47
-30 0 -16 5 -30 10 -30 6 0 10 14 10 31 l0 32 51 -7 c114 -15 200 -65 246
-144 24 -41 28 -57 28 -129 0 -74 -3 -85 -30 -124 -17 -24 -46 -54 -65 -67
-34 -23 -35 -23 -43 -3 -6 13 -4 29 6 49 11 23 12 29 2 26 -19 -8 -38 -59 -30
-83 5 -18 0 -24 -31 -37 -52 -22 -175 -44 -244 -44 l-58 0 29 69 c16 38 35
104 42 147 l14 79 156 -4 c110 -3 157 0 157 7 0 8 -51 12 -157 14 l-158 3 2
33 c1 41 -20 38 -27 -4 l-5 -29 -116 -5 c-76 -4 -122 -10 -133 -19 -33 -28
-15 -76 67 -174 90 -108 86 -101 49 -93 -39 9 -41 2 -4 -18 l27 -14 -28 -11
c-39 -15 -131 -14 -170 3 -40 16 -164 147 -173 182 -12 48 3 142 34 209 55
116 116 178 220 222 50 20 70 23 164 21 86 -2 111 -6 125 -20z m-59 -335 c4
-39 -20 -137 -49 -202 l-20 -46 -40 45 c-105 120 -154 199 -134 218 7 8 139
20 200 18 38 -1 40 -3 43 -33z"/>
<path d="M17194 7804 c-17 -14 -17 -15 -1 -10 10 3 32 6 48 6 16 0 29 5 29 10
0 16 -54 12 -76 -6z"/>
<path d="M22698 7817 c-5 -10 -8 -27 -8 -38 0 -19 -26 -19 -1369 -19 -903 0
-1372 -3 -1376 -10 -4 -7 455 -10 1369 -10 l1376 0 0 -585 c0 -513 4 -632 21
-572 8 25 -6 1251 -13 1234z"/>
<path d="M20018 7714 c-5 -4 -8 -230 -8 -503 0 -333 3 -492 10 -485 7 7 9 181
8 503 -2 271 -6 489 -10 485z"/>
<path d="M22285 7658 c-25 -30 -27 -37 -22 -96 5 -54 3 -71 -19 -120 -52 -114
-55 -122 -43 -122 6 0 13 9 16 20 3 12 21 53 40 92 23 49 37 68 44 61 7 -7 2
-26 -16 -62 -29 -54 -28 -83 1 -128 30 -47 154 -20 154 33 0 37 -16 62 -83
131 -57 58 -60 64 -49 88 17 37 14 43 -8 16 l-20 -23 0 44 c0 55 29 90 59 71
23 -14 35 -5 20 14 -19 22 -46 15 -74 -19z m121 -280 c31 -59 10 -84 -67 -76
-28 2 -35 9 -47 39 -13 33 -12 41 7 85 l21 48 36 -35 c20 -19 42 -46 50 -61z"/>
<path d="M8968 7594 c-5 -4 -8 -61 -8 -127 0 -119 0 -119 -22 -112 -13 4 -48
9 -79 12 -53 5 -57 4 -82 -27 -22 -25 -27 -42 -27 -84 0 -63 22 -90 89 -105
56 -12 150 5 149 28 0 9 3 25 7 35 6 14 5 17 -3 12 -9 -5 -12 44 -14 184 -2
106 -6 188 -10 184z m-26 -265 c15 -8 18 -23 18 -80 0 -67 -1 -70 -27 -80 -37
-14 -105 -3 -136 21 -29 23 -38 60 -25 106 13 51 38 63 100 52 29 -5 61 -14
70 -19z"/>
<path d="M6929 7575 c-3 -2 -42 -7 -88 -10 -45 -2 -86 -7 -91 -10 -5 -3 -60
-15 -122 -26 -140 -25 -162 -38 -155 -86 6 -38 123 -202 144 -203 12 0 99 164
128 244 16 41 20 46 30 32 18 -23 38 -21 26 3 -9 16 -6 20 22 26 18 3 79 9
136 11 125 5 164 24 50 24 -42 0 -78 -2 -80 -5z m-189 -54 c0 -13 -67 -168
-92 -213 -12 -21 -25 -38 -30 -38 -4 0 -35 37 -69 82 -44 59 -59 88 -57 107 3
25 9 27 108 47 122 25 140 27 140 15z"/>
<path d="M7130 7553 c-30 -11 -65 -36 -106 -79 -67 -69 -74 -90 -74 -216 0
-62 14 -101 49 -132 12 -11 21 -28 21 -39 0 -16 3 -17 14 -8 11 9 25 10 53 2
81 -23 183 -12 395 40 52 13 128 68 150 109 23 43 24 136 3 188 -21 49 -80
110 -130 133 -54 25 -305 26 -375 2z m257 -43 c62 -35 81 -23 20 14 l-42 25
47 1 c61 0 88 -11 139 -57 54 -48 79 -103 79 -173 0 -95 -48 -156 -144 -181
-23 -5 -50 -13 -61 -16 -17 -5 -18 -4 -6 11 17 20 3 21 -23 1 -13 -10 -43 -15
-82 -15 -55 0 -63 3 -69 21 -4 13 -11 17 -16 12 -16 -16 1 -42 35 -53 23 -7 5
-9 -76 -7 -65 2 -112 7 -119 14 -13 13 49 127 125 231 53 72 59 82 49 82 -4 0
-30 -32 -58 -70 -27 -39 -54 -70 -59 -70 -6 0 -38 28 -73 62 -59 59 -61 62
-48 87 20 38 64 77 115 101 39 18 57 20 130 15 68 -4 94 -11 137 -35z m-332
-199 l62 -60 -25 -43 c-55 -96 -51 -92 -74 -71 -36 32 -48 69 -48 146 0 67 4
87 18 87 3 0 33 -27 67 -59z"/>
<path d="M7389 7451 c-41 -13 -75 -39 -87 -66 -7 -15 -8 -25 -2 -25 6 0 10
-47 10 -115 0 -70 4 -115 10 -115 6 0 10 53 10 140 0 167 -1 165 126 165 99 0
116 -11 112 -69 -4 -55 -30 -68 -126 -64 -46 2 -71 0 -69 -7 2 -6 37 -10 80
-10 99 0 131 20 135 87 2 32 -2 48 -15 60 -21 19 -144 32 -184 19z"/>
<path d="M20735 7529 c-211 -42 -219 -43 -210 -29 9 15 -6 12 -24 -4 -9 -8
-72 -24 -141 -36 -210 -35 -206 -33 -137 -73 23 -14 78 -55 121 -92 43 -36 83
-64 89 -62 10 3 51 134 62 200 4 20 10 37 15 37 4 0 93 16 197 36 103 19 206
38 228 40 52 7 71 24 25 23 -19 -1 -120 -19 -225 -40z m-260 -105 c-9 -52 -45
-164 -52 -164 -3 0 -31 22 -62 48 -31 27 -75 63 -98 79 l-43 31 98 17 c53 9
102 18 107 20 6 2 21 4 34 4 21 1 23 -2 16 -35z"/>
<path d="M8668 7554 c-5 -4 -8 -56 -8 -116 l0 -108 -70 0 c-116 0 -180 -39
-180 -109 0 -34 4 -41 34 -55 41 -19 164 -22 189 -3 15 10 4 12 -63 9 -120 -6
-164 21 -139 85 12 33 66 53 136 52 l58 -2 -72 -11 c-39 -6 -75 -15 -80 -20
-7 -8 32 -5 145 10 l42 6 0 -71 c0 -62 2 -71 18 -71 11 0 27 10 38 23 10 12
12 16 4 10 -36 -33 -39 -19 -42 183 -2 108 -6 192 -10 188z"/>
<path d="M21686 7545 c-15 -8 -53 -15 -82 -15 -30 0 -54 -4 -54 -10 0 -5 21
-10 46 -10 l45 0 -3 -42 c-3 -40 -5 -43 -35 -46 -44 -4 -42 -22 2 -22 30 0 35
-3 35 -23 0 -79 145 -136 231 -91 17 8 29 18 26 21 -3 2 -14 0 -25 -6 -52 -28
-165 -3 -197 43 -35 49 -27 53 135 58 155 6 193 16 169 44 -6 8 -18 14 -25 14
-17 0 -19 -20 -1 -21 6 -1 -1 -5 -18 -9 -16 -4 -85 -8 -152 -9 l-123 -1 0 46
0 45 140 -2 c96 -1 145 2 152 9 9 9 -21 12 -122 13 -91 0 -128 3 -112 9 12 5
22 12 22 15 0 9 -25 5 -54 -10z"/>
<path d="M22026 7515 c-3 -9 -6 -24 -5 -33 0 -9 5 -4 10 12 9 32 6 48 -5 21z"/>
<path d="M4990 7470 c-96 -10 -195 -23 -220 -30 -100 -27 -193 -93 -236 -166
-55 -94 -25 -252 56 -295 37 -20 120 -26 120 -9 0 6 -18 10 -40 10 -59 0 -95
22 -121 77 -30 63 -31 152 -1 209 24 47 75 95 130 123 47 24 149 51 192 51
l32 0 -32 -26 c-25 -21 -30 -33 -28 -58 2 -17 7 -29 13 -26 5 3 8 16 7 30 -5
46 62 81 157 82 57 0 69 -5 81 -36 7 -19 9 -19 15 -3 5 11 1 25 -9 36 -16 17
-15 19 15 25 48 9 150 7 191 -4 34 -10 78 -50 78 -71 0 -5 -18 -9 -39 -9 -22
0 -43 -4 -46 -10 -4 -6 13 -10 44 -10 l51 0 0 -43 c0 -31 -6 -49 -20 -62 -11
-10 -18 -21 -15 -23 3 -3 16 5 30 18 19 18 25 34 25 67 0 52 11 59 71 43 83
-23 141 -126 142 -255 1 -77 -13 -113 -60 -156 -65 -60 -202 -116 -338 -139
-82 -14 -117 -36 -40 -25 163 24 319 89 396 165 38 38 49 57 58 101 23 113
-26 258 -106 310 -16 11 -46 19 -70 19 -27 0 -47 6 -55 16 -82 102 -105 106
-428 74z"/>
<path d="M8201 7383 c-32 -105 -29 -105 -114 -24 -41 40 -78 68 -81 62 -3 -5
30 -43 74 -84 l79 -75 -39 -118 c-45 -134 -44 -127 -29 -122 6 2 10 7 10 11 0
4 31 97 69 208 39 111 70 203 70 205 0 2 -4 4 -9 4 -5 0 -18 -30 -30 -67z"/>
<path d="M10702 7410 c-23 -17 -42 -36 -42 -43 -1 -6 -6 -2 -13 11 -7 12 -15
21 -18 18 -2 -2 -3 -54 -1 -116 3 -95 5 -110 18 -99 10 8 14 34 14 91 0 78 1
81 34 114 38 38 80 45 94 17 6 -10 15 -52 21 -93 18 -115 22 -130 32 -130 11
0 42 60 35 67 -3 3 -8 -2 -12 -11 -13 -33 -21 -14 -33 72 -19 137 -49 161
-129 102z"/>
<path d="M15580 7413 c-19 -2 -136 -19 -259 -38 -123 -19 -226 -35 -227 -35
-2 0 -4 17 -4 37 0 43 -17 34 -22 -12 -3 -29 -4 -30 -89 -42 -47 -7 -133 -16
-189 -20 -57 -4 -105 -12 -106 -18 -2 -5 24 -26 58 -45 34 -19 99 -72 146
-118 50 -50 90 -82 100 -80 29 5 93 145 99 216 5 53 9 63 27 67 93 20 430 64
435 56 4 -6 25 -6 56 0 80 14 95 19 95 29 0 10 -48 11 -120 3z m-510 -131 c0
-66 -57 -222 -82 -222 -4 0 -40 33 -80 73 -40 40 -97 90 -127 109 l-53 36 79
7 c61 6 196 24 256 34 4 0 7 -16 7 -37z"/>
<path d="M10514 7315 c1 -88 3 -100 19 -103 15 -3 16 0 8 15 -5 10 -14 56 -19
103 l-9 85 1 -100z"/>
<path d="M21065 7400 c-4 -6 43 -10 134 -10 87 0 141 4 141 10 0 6 -51 10
-134 10 -79 0 -137 -4 -141 -10z"/>
<path d="M9996 7389 c-4 -9 0 -110 8 -224 9 -115 16 -214 16 -222 0 -7 4 -13
9 -13 15 0 20 26 11 66 -4 22 -10 76 -13 121 l-5 81 78 -1 c59 0 87 4 119 20
30 15 41 17 41 7 0 -26 43 -44 106 -44 54 0 66 3 93 29 27 25 31 36 31 79 0
35 -6 57 -21 76 -20 25 -48 34 -63 19 -4 -5 -30 -8 -57 -8 -31 0 -54 -6 -65
-17 -15 -15 -19 -15 -48 3 -49 29 -157 29 -195 1 l-30 -22 -3 33 c-3 23 -6 28
-12 16z m224 -43 c20 -9 26 -20 28 -52 2 -26 -2 -45 -12 -53 -21 -18 -127 -35
-168 -27 -32 6 -36 10 -42 46 -8 48 7 88 36 100 27 11 122 3 158 -14z m234 2
c9 -13 16 -43 16 -70 0 -60 -22 -78 -100 -78 -82 0 -94 12 -91 98 1 56 28 70
97 53 47 -12 70 -7 44 9 -13 8 -12 10 2 10 9 0 24 -10 32 -22z"/>
<path d="M9440 7354 c-56 -51 -75 -95 -58 -132 10 -21 21 -28 49 -30 45 -4 65
17 88 95 l18 58 22 -48 c33 -77 51 -159 51 -241 l0 -76 -752 0 c-489 0 -755
-3 -762 -10 -7 -7 145 -10 457 -10 l467 0 15 -37 c23 -53 48 -77 118 -109 54
-26 74 -29 157 -29 85 0 101 3 150 29 30 16 80 55 111 87 l57 59 111 0 c67 0
111 4 111 10 0 6 -43 10 -110 10 l-110 0 0 83 c0 85 -15 151 -53 240 -17 41
-18 50 -6 57 20 13 6 22 -44 27 -41 5 -48 2 -87 -33z m76 -1 c-3 -10 -10 -40
-16 -68 -14 -61 -25 -75 -61 -75 -59 0 -61 68 -2 126 37 38 89 48 79 17z m74
-403 c0 -20 -71 -87 -121 -115 -73 -39 -171 -46 -266 -17 -77 24 -139 71 -149
115 l-6 27 271 0 c173 0 271 -4 271 -10z"/>
<path d="M9222 7350 c-23 -17 -42 -35 -42 -40 0 -6 -4 -10 -10 -10 -5 0 -10
16 -10 36 0 19 -4 33 -9 30 -14 -9 -13 -248 2 -243 7 2 14 32 17 78 7 111 50
163 127 157 l38 -3 5 -114 c5 -112 5 -113 24 -92 11 12 14 21 8 21 -8 0 -12
28 -12 86 0 47 -5 94 -10 105 -17 31 -78 25 -128 -11z"/>
<path d="M9098 7354 c-5 -4 -8 -54 -8 -111 0 -83 3 -103 14 -103 8 0 18 5 21
10 3 6 2 10 -4 10 -6 0 -11 41 -13 101 -2 55 -6 97 -10 93z"/>
<path d="M5033 7332 c-6 -4 -16 -19 -21 -33 -10 -24 -13 -25 -168 -38 -88 -7
-163 -17 -169 -22 -19 -19 7 -43 227 -215 71 -56 88 -56 88 -2 0 34 29 218 36
230 3 4 58 8 122 7 91 0 111 -3 90 -11 -16 -5 -28 -13 -28 -18 0 -9 111 17
124 30 12 11 -126 23 -223 19 -74 -4 -81 -3 -81 15 0 10 8 25 18 32 18 14 6
19 -15 6z m-33 -89 c0 -15 -33 -228 -36 -231 -3 -5 -183 132 -239 181 l-40 35
70 6 c39 4 79 8 90 10 43 7 155 6 155 -1z"/>
<path d="M21054 7309 c-12 -21 252 -27 279 -6 14 10 -9 12 -129 12 -80 0 -148
-3 -150 -6z"/>
<path d="M8275 7296 c-5 -12 -3 -49 4 -93 16 -94 29 -133 46 -133 20 0 27 17
11 23 -14 6 -42 114 -49 187 -2 29 -4 32 -12 16z"/>
<path d="M15483 7302 c-5 -4 -16 -25 -23 -47 -30 -94 -72 -195 -82 -195 -11 0
-76 137 -84 180 -7 32 -21 39 -30 16 -6 -15 68 -180 94 -208 27 -31 53 8 101
155 13 37 27 65 32 62 4 -3 29 -45 54 -93 24 -48 56 -100 70 -117 l25 -30 19
23 c20 23 41 101 41 150 0 64 8 72 69 73 43 1 50 3 31 9 -33 11 -82 12 -98 2
-6 -5 -17 -46 -23 -91 -5 -46 -15 -97 -22 -114 l-13 -30 -26 40 c-14 22 -40
67 -57 101 -48 94 -66 121 -78 114z"/>
<path d="M20527 7303 c-4 -3 -7 -22 -7 -41 0 -25 4 -33 14 -29 8 3 17 -2 21
-11 13 -35 89 -162 97 -162 10 0 16 28 23 123 4 42 10 77 14 77 4 0 31 -40 61
-90 65 -106 71 -104 90 20 7 47 17 93 22 104 8 14 7 17 -4 14 -12 -4 -28 -56
-43 -141 -3 -21 -10 -35 -14 -32 -5 2 -27 37 -51 75 -65 111 -84 107 -95 -22
-4 -47 -11 -75 -17 -72 -12 8 -88 163 -88 181 0 14 -12 17 -23 6z"/>
<path d="M16260 7289 c-68 -5 -129 -14 -135 -20 -7 -7 14 -9 70 -4 44 4 126 7
182 8 63 1 102 6 100 12 -5 13 -67 14 -217 4z"/>
<path d="M22345 7203 c-165 -2 -307 -6 -315 -11 -17 -8 511 -19 584 -12 27 3
51 11 54 18 2 6 -2 11 -10 10 -7 -2 -148 -4 -313 -5z"/>
<path d="M5506 7157 c-14 -14 -34 -56 -46 -96 l-22 -72 -49 79 c-26 43 -54 84
-62 90 -22 18 -34 -3 -62 -103 -13 -48 -26 -90 -29 -93 -19 -18 -36 64 -29
135 5 45 3 55 -8 51 -36 -12 -7 -223 30 -223 15 0 41 67 62 159 7 31 17 55 22
53 6 -2 35 -43 64 -93 30 -49 57 -88 61 -87 4 1 21 43 38 94 17 51 40 98 50
106 9 7 15 16 11 19 -3 3 -17 -5 -31 -19z"/>
<path d="M16231 7159 c-41 -5 -80 -14 -85 -20 -8 -8 0 -10 29 -5 22 3 72 8
110 12 87 8 130 23 65 22 -25 0 -78 -4 -119 -9z"/>
<path d="M5885 7139 c-93 -7 -164 -23 -153 -34 3 -3 29 -1 58 5 29 5 74 10
100 10 59 0 110 10 110 21 0 5 -3 8 -7 8 -5 -1 -53 -5 -108 -10z"/>
<path d="M22276 7018 c-9 -121 -11 -125 -58 -131 -23 -3 -47 -12 -55 -19 -12
-12 -11 -18 8 -42 31 -39 68 -33 91 15 l17 36 113 6 c115 7 155 21 166 58 3 8
-6 4 -21 -9 -22 -21 -38 -24 -143 -29 l-117 -6 7 24 c12 46 19 179 9 179 -6 0
-13 -37 -17 -82z m-26 -157 c0 -22 -14 -41 -30 -41 -21 0 -44 25 -35 40 8 12
65 14 65 1z"/>
<path d="M16513 7079 c-9 -12 42 -15 317 -17 180 -2 344 -5 365 -7 30 -3 978
-8 1038 -6 9 1 17 5 17 9 0 5 -357 12 -792 16 -436 4 -825 9 -863 12 -53 5
-74 3 -82 -7z"/>
<path d="M17173 7021 c-141 -51 -235 -165 -263 -320 -18 -98 -7 -135 59 -204
78 -82 141 -117 212 -117 34 0 63 6 75 15 18 14 17 15 -11 8 -83 -22 -148 3
-242 90 -76 72 -90 110 -75 205 30 182 148 299 324 322 97 12 98 12 92 -5 -5
-12 6 -15 67 -15 102 0 123 -13 127 -73 4 -63 22 -60 22 3 l0 50 38 -15 c100
-42 156 -103 174 -186 22 -107 -19 -177 -135 -233 -112 -55 -112 -55 -113 34
0 41 -4 92 -8 113 -5 29 -3 45 9 64 9 13 14 27 12 30 -10 9 -78 -104 -93 -152
-16 -55 -18 -79 -5 -71 5 3 12 22 15 42 8 42 26 84 36 84 14 0 20 -98 10 -148
l-11 -50 -65 -12 c-83 -16 -132 -7 -144 26 -6 14 -10 115 -10 225 0 112 -4
199 -9 199 -15 0 -120 -89 -133 -113 -12 -21 -13 -21 -19 13 -7 44 -14 26 -26
-68 -10 -84 4 -93 26 -16 10 37 28 62 75 108 l61 60 5 -209 c3 -116 10 -219
14 -229 9 -18 6 -19 -47 -13 -63 6 -90 -8 -30 -16 21 -3 128 -5 238 -6 148 -1
205 2 218 11 14 11 -1 13 -90 12 -60 -1 -92 0 -73 3 19 3 39 8 45 12 5 4 33
16 60 26 64 23 149 79 174 114 27 38 44 109 37 154 -19 114 -101 187 -274 241
-106 33 -267 36 -349 7z"/>
<path d="M5765 7020 c8 -12 202 -12 230 0 13 5 -27 9 -108 9 -83 1 -126 -3
-122 -9z"/>
<path d="M7290 6984 c-301 -16 -828 -34 -1014 -34 -96 0 -147 -4 -152 -11 -5
-8 89 -9 352 -4 198 4 356 4 352 0 -4 -4 -56 -8 -116 -10 -84 -2 -120 -8 -157
-24 -72 -32 -121 -76 -151 -136 -22 -46 -26 -65 -22 -114 6 -80 39 -123 127
-165 60 -28 74 -31 166 -31 55 0 110 4 123 9 21 8 22 7 22 -57 0 -85 26 -120
101 -136 63 -14 136 -14 144 -1 4 6 -14 10 -47 10 -78 1 -130 16 -155 45 -19
22 -23 38 -23 96 l0 69 95 0 c100 0 149 15 187 57 52 57 63 166 24 249 -41 88
-131 142 -245 146 -64 2 213 16 451 22 200 6 248 11 248 27 0 10 4 10 -310 -7z
m-263 -92 c85 -44 131 -134 120 -238 -7 -64 -25 -97 -70 -124 -26 -16 -51 -20
-136 -20 l-103 0 6 33 c3 17 8 77 12 133 8 119 0 194 -22 194 -8 0 -27 8 -41
17 l-26 17 24 8 c13 4 62 6 109 4 63 -2 96 -8 127 -24z m-337 7 c0 -6 7 -8 16
-5 12 5 65 -14 83 -30 2 -2 -15 -22 -38 -44 -23 -22 -51 -55 -62 -73 l-21 -32
5 42 c5 39 -5 65 -16 46 -11 -18 -19 -203 -9 -203 5 0 13 20 16 44 8 54 71
154 116 186 32 23 33 23 46 5 17 -23 18 -143 3 -252 -15 -104 -25 -113 -135
-113 -96 0 -174 22 -231 66 -99 75 -79 243 38 321 62 41 189 69 189 42z"/>
<path d="M2025 6784 c-185 -34 -372 -120 -396 -181 -15 -37 9 -139 27 -120 3
3 0 28 -7 56 -11 43 -10 53 4 75 54 81 332 167 541 165 92 0 175 -21 183 -46
2 -6 -53 -41 -126 -78 -72 -37 -131 -71 -131 -76 0 -4 65 26 144 67 l144 74
51 -56 c29 -31 50 -58 48 -60 -2 -3 -25 5 -50 16 -57 25 -177 25 -185 0 -5
-13 -3 -13 11 -1 39 31 204 -18 270 -81 35 -33 39 -41 33 -69 -3 -18 -24 -51
-45 -74 -48 -52 -80 -113 -89 -168 -7 -42 -8 -42 -54 -45 -52 -3 -91 -32 -44
-32 15 0 42 -6 60 -14 26 -11 35 -22 46 -60 13 -49 103 -164 128 -165 19 -1
72 -33 72 -43 0 -4 -110 -8 -244 -8 -153 0 -247 -4 -251 -10 -4 -6 43 -10 135
-10 115 0 147 -3 173 -17 27 -15 60 -18 197 -19 91 -1 185 -6 210 -12 58 -15
121 -16 100 -2 -8 5 -27 10 -42 10 -52 0 -37 18 21 24 150 17 316 86 363 150
15 21 28 47 28 57 0 11 14 25 33 35 45 23 67 44 67 64 0 21 -19 30 -63 30 -30
0 -34 4 -50 50 -22 61 -69 124 -124 166 -65 50 -140 73 -256 80 -66 4 -111 12
-127 22 -14 9 -50 17 -82 17 -32 1 -67 8 -78 16 l-22 14 17 119 c9 65 14 121
11 124 -9 8 -15 -18 -30 -127 -8 -57 -18 -106 -21 -109 -6 -6 -195 187 -195
198 0 3 19 15 41 28 22 13 38 26 36 29 -3 2 -25 -7 -50 -21 l-44 -26 -49 27
c-44 25 -60 28 -154 30 -60 1 -139 -4 -185 -13z m605 -290 c0 -8 -4 -14 -10
-14 -5 0 -10 2 -10 4 0 2 -3 12 -6 20 -5 12 -2 15 10 10 9 -3 16 -12 16 -20z
m165 -24 c27 -10 26 -30 -2 -30 -18 0 -126 -60 -120 -66 2 -3 30 9 62 26 54
29 105 39 105 22 0 -4 -14 -28 -32 -53 l-32 -44 38 35 c20 19 40 46 43 59 6
24 7 24 102 18 124 -7 194 -33 266 -98 47 -44 105 -135 105 -167 0 -5 -26 -15
-57 -21 -32 -6 -71 -18 -87 -26 -15 -8 -32 -13 -36 -10 -5 3 -29 -18 -53 -46
l-45 -52 -28 26 c-41 38 -121 79 -147 74 -20 -3 -20 -4 8 -15 57 -23 96 -47
122 -74 23 -24 24 -29 12 -44 -13 -16 -12 -16 13 -3 15 8 37 29 50 48 13 19
34 41 48 50 l25 16 -23 -29 c-12 -16 -54 -62 -93 -104 l-71 -75 -72 -8 c-126
-14 -172 -11 -224 16 -80 41 -77 32 -39 131 19 49 37 102 41 117 l7 29 149 -3
c148 -3 198 4 124 16 -22 4 -52 11 -67 17 -15 6 -65 14 -110 17 l-82 6 2 38
c1 25 -2 37 -10 34 -7 -2 -13 -27 -15 -55 l-3 -51 -101 -3 -100 -3 5 47 c7 59
27 98 79 154 29 31 46 43 59 39 12 -4 19 1 24 14 11 35 103 53 160 31z m-12
-277 c-18 -2 -48 -2 -65 0 -18 2 -4 4 32 4 36 0 50 -2 33 -4z m-123 -32 c0 -6
-14 -48 -31 -95 -31 -85 -49 -114 -49 -79 0 27 -54 109 -84 129 -14 9 -26 25
-26 35 0 17 9 19 95 19 53 0 95 -4 95 -9z m680 -56 l0 -35 -65 0 c-36 0 -65 2
-65 5 0 2 5 15 11 29 12 25 29 32 87 35 30 1 32 -1 32 -34z m90 21 c0 -16 -37
-46 -57 -46 -8 0 -13 12 -13 30 0 28 3 30 35 30 24 0 35 -5 35 -14z m-240 -57
c-12 -28 -20 -66 -20 -103 0 -78 18 -62 22 19 l3 60 72 3 c70 3 71 2 66 -20
-18 -70 -103 -124 -259 -163 -112 -29 -253 -42 -280 -27 -11 6 -14 12 -9 12
120 7 201 21 210 36 14 25 207 235 212 231 2 -2 -6 -24 -17 -48z m-649 -41
c26 -52 24 -66 -7 -37 -30 28 -54 70 -54 95 0 15 2 15 21 -2 12 -10 30 -36 40
-56z m212 -197 c8 -8 -16 -11 -98 -11 -141 0 -190 13 -85 21 98 8 168 5 183
-10z"/>
<path d="M5460 6739 c-163 -24 -413 -39 -533 -32 -65 4 -96 2 -101 -6 -11 -17
337 -14 506 4 160 17 267 34 288 46 22 12 -14 10 -160 -12z"/>
<path d="M19955 6650 c-4 -7 385 -10 1159 -10 771 0 1166 3 1166 10 0 7 -393
10 -1159 10 -763 0 -1162 -3 -1166 -10z"/>
<path d="M2347 6593 c-13 -13 -7 -21 13 -16 11 3 20 9 20 14 0 10 -24 12 -33
2z"/>
<path d="M21567 6510 c-87 -22 -160 -78 -197 -150 -24 -46 -40 -142 -40 -236
l0 -71 -126 -6 c-69 -3 -130 -9 -136 -15 -6 -6 41 -8 131 -4 96 3 141 1 141
-6 0 -6 3 -17 6 -26 5 -14 -10 -16 -129 -16 -80 0 -138 -4 -142 -10 -4 -6 43
-10 135 -10 125 0 141 -2 147 -17 39 -115 92 -214 151 -283 37 -44 39 -50 13
-50 -11 0 -23 -5 -27 -12 -5 -8 4 -9 34 -5 23 4 43 3 47 -3 3 -5 -1 -36 -10
-69 -19 -73 -19 -76 0 -61 8 7 15 23 15 36 0 12 4 34 10 48 l9 25 53 -24 c29
-13 72 -27 96 -31 23 -3 44 -9 47 -13 2 -4 41 -4 87 1 95 9 184 47 233 99 27
28 23 27 -37 -14 -72 -49 -145 -71 -213 -65 l-40 3 -7 57 c-9 72 -41 148 -78
183 -18 17 -26 33 -23 44 5 13 2 12 -16 -4 -31 -26 -74 -91 -91 -135 -7 -19
-17 -39 -23 -45 -16 -18 -105 94 -157 200 -49 98 -60 135 -40 135 6 0 10 5 10
10 0 6 -6 10 -14 10 -13 0 -26 20 -26 41 0 5 15 9 34 9 19 0 39 7 47 17 13 15
10 15 -33 9 -45 -7 -48 -6 -54 20 -10 40 3 203 21 253 23 67 59 106 122 138
56 27 64 28 205 28 168 0 185 -7 225 -83 12 -24 24 -39 27 -33 9 13 -11 62
-36 89 -21 21 -21 22 -2 22 30 0 117 -44 157 -80 50 -43 121 -153 154 -236 25
-64 27 -80 28 -220 l0 -150 -44 -90 c-83 -168 -223 -271 -448 -330 -54 -14
-102 -30 -107 -35 -15 -14 0 -11 100 15 269 73 431 209 503 423 26 76 29 248
6 333 -47 176 -183 346 -305 380 -49 14 -347 21 -393 10z m165 -769 c29 -33
53 -89 44 -98 -3 -3 -42 -8 -86 -11 l-80 -5 16 39 c24 59 54 104 69 104 7 0
24 -13 37 -29z m62 -137 c3 -9 6 -29 6 -45 0 -34 -12 -36 -91 -13 -58 17 -99
39 -99 54 0 5 26 11 58 13 31 2 71 4 88 5 21 1 34 -3 38 -14z"/>
<path d="M17330 6495 c-8 -9 -8 -15 -2 -15 12 0 26 19 19 26 -2 2 -10 -2 -17
-11z"/>
<path d="M21582 6320 c-7 -14 -17 -33 -24 -42 -10 -14 -9 -27 5 -65 12 -34 17
-79 17 -151 0 -66 4 -101 10 -97 6 4 10 53 10 116 0 72 4 109 11 109 7 0 9 16
4 49 -6 45 -5 49 17 55 13 3 58 6 101 6 69 0 81 -3 102 -25 32 -31 32 -70 2
-90 -13 -8 -47 -19 -77 -25 -30 -6 -59 -15 -64 -20 -11 -11 24 -7 99 12 81 20
108 80 61 135 -24 28 -25 28 -140 27 -97 0 -116 2 -119 15 -3 12 -7 10 -15 -9z
m-5 -72 c-3 -7 -5 -2 -5 12 0 14 2 19 5 13 2 -7 2 -19 0 -25z"/>
<path d="M895 6236 c-119 -38 -238 -134 -288 -233 -49 -96 -53 -233 -10 -291
48 -65 182 -106 348 -106 126 -1 181 22 226 92 32 50 37 71 14 52 -8 -7 -15
-17 -15 -22 0 -14 -40 -68 -50 -68 -6 0 -6 9 -1 23 5 13 24 78 41 145 18 68
37 121 43 119 6 -2 31 -56 56 -120 25 -65 50 -116 56 -114 6 2 12 54 16 123 5
122 10 144 33 144 7 0 12 10 11 23 l-2 22 -217 -1 c-119 0 -215 2 -213 5 1 4
9 18 16 34 14 27 31 36 31 16 0 -5 4 -8 9 -5 4 3 6 17 3 31 -6 32 -22 21 -58
-41 l-25 -42 -89 -7 c-54 -4 -94 -12 -100 -20 -15 -18 0 -100 35 -198 15 -39
29 -80 32 -90 10 -32 27 -12 38 44 15 69 31 120 62 190 22 51 28 57 61 63 58
9 142 7 142 -4 0 -5 10 -10 23 -10 13 0 31 -6 39 -12 15 -12 14 -24 -18 -142
-19 -72 -37 -132 -39 -134 -6 -7 -17 41 -30 141 -8 65 -14 86 -20 73 -7 -17
14 -195 31 -253 5 -19 0 -23 -38 -34 -88 -24 -332 14 -399 62 -54 38 -76 117
-59 210 32 169 180 301 370 330 131 20 234 -6 292 -74 14 -18 29 -29 33 -25
13 13 -40 69 -89 93 -44 22 -62 25 -155 24 -59 0 -124 -6 -146 -13z m5 -239
c0 -2 -15 -41 -34 -88 -19 -46 -37 -101 -41 -122 -4 -20 -11 -37 -16 -37 -11
0 -56 145 -60 195 -4 39 -3 40 31 46 38 7 120 11 120 6z m440 -15 c-19 -15
-23 -31 -27 -105 -3 -48 -9 -87 -12 -87 -7 0 -61 138 -61 154 0 5 13 6 29 3
58 -12 40 8 -26 30 l-68 22 94 0 c91 1 93 1 71 -17z"/>
<path d="M20825 6169 c-93 -11 -199 -24 -235 -29 -36 -6 -123 -18 -194 -28
-71 -9 -131 -21 -132 -27 -2 -5 31 -26 74 -45 42 -19 113 -59 156 -87 43 -29
82 -53 86 -53 4 0 12 48 18 107 7 59 17 110 22 113 6 3 81 14 168 24 194 21
222 26 222 37 0 5 -3 8 -7 8 -5 -1 -84 -10 -178 -20z m-240 -106 c-3 -32 -8
-74 -11 -94 l-5 -37 -82 52 c-45 28 -101 60 -125 70 -23 10 -42 22 -42 26 0 6
182 34 253 39 17 1 18 -5 12 -56z"/>
<path d="M20917 6002 c-9 -10 -24 -52 -33 -93 -9 -41 -20 -80 -23 -87 -4 -7
-22 20 -45 67 -21 44 -49 90 -63 103 -24 22 -25 22 -38 4 -8 -10 -17 -45 -21
-78 -4 -32 -10 -61 -15 -63 -7 -5 -31 64 -44 128 -3 15 -10 27 -15 27 -6 0
-10 -12 -10 -27 1 -36 62 -195 75 -195 6 -1 16 42 23 93 8 52 16 96 19 99 9
10 46 -45 81 -122 19 -43 41 -78 48 -78 13 0 17 12 50 143 13 54 22 71 43 82
23 13 24 14 5 15 -11 0 -28 -8 -37 -18z"/>
<path d="M1755 5993 c-173 -4 -228 -23 -65 -23 139 0 271 11 264 21 -3 5 -15
8 -27 7 -12 -1 -89 -4 -172 -5z"/>
<path d="M15997 5955 c-290 -47 -396 -111 -467 -280 -91 -221 -54 -431 107
-605 74 -80 132 -112 245 -134 122 -25 218 -21 317 14 46 16 91 36 99 44 9 9
-16 3 -64 -16 -139 -55 -337 -48 -471 18 -109 53 -229 222 -254 359 -28 150
29 362 123 455 121 122 624 187 793 103 32 -17 75 -52 75 -63 0 -4 -35 -10
-77 -14 -42 -3 -82 -11 -88 -17 -7 -8 7 -9 50 -4 112 12 122 10 130 -15 4 -11
11 -18 16 -14 6 3 8 12 5 20 -9 23 44 17 102 -12 145 -72 231 -246 232 -466 0
-174 -60 -282 -195 -355 -126 -67 -224 -86 -440 -87 -99 -1 -204 3 -232 7 -33
5 -53 4 -53 -2 0 -18 92 -26 275 -25 206 0 305 18 424 77 130 64 185 126 223
251 28 94 22 259 -14 357 -61 165 -161 266 -284 286 -26 4 -50 19 -78 49 -29
29 -57 47 -96 59 -76 23 -288 29 -403 10z"/>
<path d="M6842 5944 c-52 -14 -110 -49 -111 -68 -1 -5 7 -2 17 6 31 28 78 47
130 54 95 12 63 -19 -151 -149 -66 -40 -138 -93 -163 -119 -41 -44 -44 -51
-44 -103 0 -56 1 -58 58 -114 31 -31 103 -85 159 -120 119 -73 157 -112 148
-150 -3 -15 -43 -62 -92 -107 -82 -78 -86 -83 -79 -115 3 -18 14 -41 22 -51
15 -16 15 -18 1 -24 -20 -7 -37 3 -37 22 0 9 -6 14 -12 12 -7 -3 -13 -11 -13
-19 0 -8 -7 -19 -15 -26 -13 -10 -11 -12 11 -13 20 0 39 -17 86 -77 97 -126
114 -158 103 -188 -13 -34 -13 -45 1 -45 6 0 13 9 16 19 3 11 11 22 19 25 8 3
14 17 14 31 0 29 31 94 55 119 9 9 30 16 46 16 38 0 89 26 89 46 0 8 -12 26
-27 40 l-28 25 23 16 c33 23 27 32 -15 22 -21 -4 -89 -11 -151 -15 -102 -6
-114 -5 -133 12 -57 51 -45 101 42 168 60 46 99 97 99 127 0 31 -43 71 -169
153 -176 116 -210 157 -201 241 6 55 59 100 272 229 172 105 187 163 30 120z
m196 -1066 c-3 -9 -37 -13 -119 -14 l-114 -1 105 12 c58 7 111 13 118 14 8 0
12 -5 10 -11z m-258 -18 c13 -8 12 -11 -5 -24 -18 -13 -21 -13 -32 1 -7 9 -13
20 -13 25 0 11 32 10 50 -2z m113 -27 c-7 -2 -19 -2 -25 0 -7 3 -2 5 12 5 14
0 19 -2 13 -5z m64 1 c-3 -3 -12 -4 -19 -1 -8 3 -5 6 6 6 11 1 17 -2 13 -5z
m-132 -20 c29 -19 32 -34 7 -34 -23 0 -64 29 -57 41 9 13 22 11 50 -7z m250
-5 c4 -6 4 -13 1 -16 -6 -7 -90 -23 -94 -18 -2 2 6 13 17 24 22 22 65 28 76
10z m-175 -9 c-20 -13 -33 -13 -25 0 3 6 14 10 23 10 15 0 15 -2 2 -10z m78
-2 c-6 -18 -28 -21 -28 -4 0 9 7 16 16 16 9 0 14 -5 12 -12z m-48 -13 c0 -9
-9 -15 -22 -15 -22 1 -23 1 -4 15 25 19 26 19 26 0z m-100 -41 c0 -8 -4 -12
-10 -9 -5 3 -10 10 -10 16 0 5 5 9 10 9 6 0 10 -7 10 -16z m94 -8 c-9 -24 -34
-28 -34 -6 0 13 7 20 20 20 13 0 17 -5 14 -14z m-54 -11 c0 -8 -4 -15 -10 -15
-5 0 -7 7 -4 15 4 8 8 15 10 15 2 0 4 -7 4 -15z m31 -57 c-16 -25 -21 -28 -21
-14 0 20 29 60 38 51 2 -2 -5 -19 -17 -37z"/>
<path d="M21635 5900 c-135 -8 -125 -7 -125 -21 0 -5 4 -8 8 -5 5 3 105 8 223
11 117 3 218 10 223 15 11 11 -134 11 -329 0z"/>
<path d="M1640 5880 c0 -6 55 -10 144 -10 86 0 147 4 151 10 4 6 -47 10 -144
10 -94 0 -151 -4 -151 -10z"/>
<path d="M2255 5755 c-95 -34 -140 -126 -116 -243 17 -85 48 -140 120 -213
117 -117 257 -166 427 -149 92 9 147 29 187 68 49 46 61 80 61 164 0 68 -5 85
-37 151 -43 87 -98 141 -159 158 -38 10 -41 13 -24 23 10 6 28 19 40 28 21 17
20 17 -19 18 -50 0 -107 -27 -120 -58 -6 -14 -41 -40 -89 -65 -92 -49 -139
-89 -134 -114 4 -21 80 -48 106 -38 12 6 3 11 -33 19 -68 15 -70 37 -8 76 26
17 73 42 103 56 30 14 67 32 81 40 23 12 34 12 80 -2 167 -49 258 -326 146
-442 -52 -54 -196 -82 -316 -63 -147 24 -310 141 -366 264 -55 118 -41 243 32
288 45 28 152 36 251 19 80 -13 81 -13 84 -2 3 11 -119 31 -192 31 -36 0 -83
-6 -105 -14z m425 -40 c-46 -24 -57 -25 -45 -5 9 14 44 29 70 29 13 0 4 -8
-25 -24z"/>
<path d="M16551 5616 c-35 -12 -81 -58 -81 -79 0 -7 10 1 22 17 30 40 76 56
161 56 82 0 97 -9 97 -55 0 -39 -16 -63 -106 -155 -76 -78 -99 -116 -83 -141
5 -8 9 -12 10 -9 0 3 2 18 4 33 3 20 31 57 90 118 87 91 105 119 105 168 0 47
-27 61 -111 60 -41 0 -89 -6 -108 -13z"/>
<path d="M15793 5555 c-13 -9 -27 -33 -34 -53 -13 -44 1 -87 46 -147 l27 -34
-29 -6 c-116 -25 -146 -42 -127 -73 19 -30 76 -52 134 -51 112 2 140 26 96 83
l-27 36 29 0 c15 0 36 6 46 13 16 12 10 13 -41 9 l-60 -4 -32 43 c-44 61 -57
108 -40 145 14 29 15 29 114 31 107 3 108 1 34 -40 -17 -10 -30 -20 -27 -22 6
-6 95 43 104 57 12 19 -21 28 -106 28 -61 0 -92 -4 -107 -15z m93 -291 c34
-44 24 -54 -59 -54 -58 0 -118 18 -132 40 -10 16 -2 21 52 36 84 22 109 18
139 -22z"/>
<path d="M2700 5471 c0 -5 6 -11 13 -14 38 -13 -24 -22 -176 -25 -205 -4 -210
-22 -7 -22 177 0 253 21 205 57 -22 15 -35 17 -35 4z"/>
<path d="M16175 5383 c-27 -2 -54 -8 -59 -13 -12 -12 236 0 249 11 9 9 -86 9
-190 2z"/>
<path d="M16164 5283 c19 -19 226 -23 226 -4 0 3 -53 7 -117 9 -64 1 -113 -1
-109 -5z"/>
<path d="M1335 5249 c-138 -7 -215 -21 -302 -56 l-61 -25 -21 21 c-41 41 -188
22 -317 -40 -130 -61 -159 -130 -88 -209 20 -22 41 -37 46 -34 5 4 -6 23 -26
43 -48 49 -50 100 -6 141 43 41 180 92 262 98 85 6 116 -2 130 -34 10 -22 14
-24 23 -10 16 21 98 52 190 71 78 16 285 22 318 10 20 -8 23 -35 5 -53 -8 -8
-8 -12 -1 -12 20 0 35 29 29 55 -6 25 -6 25 56 24 125 -1 178 -44 178 -146 0
-58 -27 -124 -57 -142 -10 -6 -13 -11 -6 -11 17 0 53 39 69 77 21 48 18 132
-6 170 -41 68 -112 79 -415 62z"/>
<path d="M2531 5108 c-46 -10 -113 -47 -127 -70 -5 -8 3 -6 19 5 14 9 29 17
32 17 7 0 -5 -49 -18 -74 -5 -11 -11 -36 -13 -55 -17 -181 -19 -221 -9 -218 5
2 11 28 13 58 1 30 7 84 13 121 l11 67 41 6 c114 19 195 72 183 118 -9 36 -58
44 -145 25z m107 -14 c30 -8 26 -40 -8 -65 -27 -20 -157 -56 -166 -46 -7 6 14
77 26 91 18 19 107 31 148 20z"/>
<path d="M22261 4971 c-11 -7 -10 -10 5 -14 10 -2 -2 -5 -27 -6 -70 -2 -192
-36 -269 -77 -119 -62 -256 -204 -351 -364 -23 -39 -47 -70 -53 -70 -7 0 -21
-7 -32 -15 -18 -15 -18 -15 8 -9 l26 6 -26 -70 -27 -69 -74 -12 c-41 -7 -136
-12 -210 -11 -151 3 -170 1 -126 -10 51 -13 266 -10 335 4 36 8 66 13 68 11 1
-1 -4 -31 -12 -66 -47 -209 -18 -407 80 -555 91 -137 264 -194 500 -165 113
14 193 41 263 88 53 37 141 135 141 156 0 7 -10 -1 -22 -18 -41 -57 -123 -131
-171 -153 -91 -43 -164 -56 -307 -57 -208 0 -304 40 -387 164 -108 158 -129
394 -56 624 45 143 52 153 130 171 37 8 70 13 73 11 4 -3 10 -33 13 -67 7 -79
26 -143 38 -131 5 5 2 31 -6 63 -8 30 -15 76 -15 101 l0 46 92 11 c51 6 95 8
99 4 10 -12 29 -122 29 -170 0 -36 3 -42 13 -33 13 10 11 54 -8 167 -6 36 -5
42 14 47 30 7 26 23 -6 22 -20 0 -28 6 -34 25 -6 25 -10 21 -22 -20 -5 -21
-177 -43 -177 -23 0 7 -4 13 -10 13 -5 0 -10 -7 -10 -15 0 -8 -12 -17 -27 -21
-16 -3 -44 -10 -63 -15 -51 -13 -52 -12 -31 29 34 67 135 195 207 262 127 119
260 170 450 171 87 1 121 -3 168 -20 67 -24 76 -25 76 -11 0 5 -28 18 -62 29
-82 26 -39 26 77 1 235 -52 365 -169 422 -380 25 -92 25 -368 0 -458 -75 -274
-267 -506 -492 -593 -129 -50 -225 -62 -465 -56 -241 6 -312 18 -417 69 -38
18 -71 35 -75 36 -5 2 -8 -1 -8 -7 0 -17 140 -80 215 -97 109 -25 455 -31 573
-10 186 32 325 107 453 243 85 91 121 143 174 256 68 145 79 196 79 387 0 124
-4 182 -17 234 -62 248 -225 370 -552 415 -92 13 -155 14 -174 2z"/>
<path d="M915 4959 c-88 -3 -161 -7 -162 -7 -11 -7 6 -34 57 -89 33 -35 82
-95 109 -133 45 -64 50 -68 63 -52 22 24 67 142 80 207 7 34 16 55 24 55 8 0
14 -4 14 -10 0 -11 63 14 67 27 3 10 -38 10 -252 2z m130 -61 c-8 -48 -40
-150 -59 -185 -11 -23 -13 -22 -54 36 -23 33 -66 86 -97 119 -30 33 -55 62
-55 66 0 3 61 6 136 6 l136 0 -7 -42z"/>
<path d="M1435 4918 c-2 -7 -6 -48 -10 -91 -10 -133 -16 -135 -66 -32 -56 115
-74 119 -107 25 -13 -35 -24 -66 -26 -68 -2 -2 -14 27 -26 63 -13 39 -26 63
-31 58 -11 -11 42 -173 56 -169 6 1 21 39 34 84 13 45 28 82 32 82 11 0 32
-38 68 -122 19 -43 37 -78 42 -78 17 0 30 43 41 140 12 98 18 109 48 91 8 -6
18 -7 23 -4 12 7 -31 32 -56 33 -10 0 -19 -6 -22 -12z"/>
<path d="M1732 4851 c-68 -12 -73 -29 -5 -20 32 5 102 9 156 10 53 0 97 5 97
10 0 10 -184 10 -248 0z"/>
<path d="M22552 4790 c-48 -11 -72 -37 -72 -77 0 -20 4 -32 10 -28 6 3 10 19
10 34 0 40 18 51 94 58 98 9 90 -22 -28 -111 -61 -46 -82 -56 -113 -56 l-39 0
-13 76 c-8 51 -16 73 -23 66 -7 -7 -6 -27 1 -63 5 -30 13 -78 16 -106 l7 -53
-59 0 c-148 0 -270 -87 -241 -171 16 -47 132 -85 234 -77 67 6 91 26 96 81 3
23 8 51 13 62 8 18 7 19 -8 6 -16 -12 -17 -7 -17 73 0 79 2 86 20 86 11 0 20
-5 20 -11 0 -8 4 -8 13 -1 8 7 68 13 142 14 74 2 130 7 132 13 2 6 -39 9 -114
7 l-118 -2 30 22 c71 53 135 121 135 144 0 22 -4 24 -47 23 -27 -1 -63 -5 -81
-9z m-172 -294 c0 -8 4 -16 9 -18 5 -1 11 -38 12 -81 2 -92 -1 -97 -78 -97
-72 0 -147 18 -178 41 -39 31 -35 80 10 116 48 38 89 51 163 52 47 1 62 -2 62
-13z"/>
<path d="M1915 4760 c-33 -4 -90 -8 -127 -9 -44 -1 -68 -5 -68 -12 0 -9 29
-10 105 -5 122 8 165 15 165 27 0 5 -3 8 -7 8 -5 -1 -35 -5 -68 -9z"/>
<path d="M13628 4764 c-5 -4 -8 -107 -8 -230 l0 -222 -64 -7 c-41 -4 -70 -12
-78 -23 -11 -13 -11 -15 4 -9 12 4 19 -2 27 -24 9 -27 8 -31 -14 -39 -34 -13
-32 -24 3 -17 25 5 31 0 57 -44 17 -27 37 -63 45 -79 8 -16 19 -30 24 -30 5 0
18 -7 28 -16 15 -14 20 -15 33 -4 14 12 15 10 10 -13 -4 -16 -3 -27 3 -27 6 0
15 23 22 52 6 29 31 95 56 147 42 89 44 97 28 108 -10 7 -35 14 -56 14 -21 1
-42 3 -48 4 -5 1 -21 3 -35 4 l-25 1 -2 231 c-2 127 -6 227 -10 223z m-10
-502 c3 -22 -1 -25 -51 -36 -23 -6 -29 -2 -37 20 -14 36 -4 46 43 42 35 -2 43
-7 45 -26z m120 22 c59 -8 68 -19 20 -27 -122 -21 -118 -21 -118 7 0 29 7 30
98 20z m34 -76 c-11 -18 -28 -53 -38 -78 -50 -127 -94 -118 -94 19 l0 70 38 7
c20 3 53 10 72 13 19 4 37 6 39 5 2 -2 -6 -18 -17 -36z m-152 -48 c0 -27 -4
-50 -9 -50 -13 0 -61 82 -55 92 3 4 18 8 35 8 28 0 29 -1 29 -50z"/>
<path d="M19748 4734 c-5 -4 -8 -190 -8 -413 0 -325 2 -402 13 -391 9 12 11
103 7 413 -3 219 -8 395 -12 391z"/>
<path d="M2100 4682 c0 -16 112 -22 395 -22 237 0 274 2 286 16 12 14 5 15
-72 8 -99 -10 -392 -9 -520 1 -53 4 -89 3 -89 -3z"/>
<path d="M2863 4629 c-26 -61 -27 -61 -43 -39 -10 13 -22 20 -29 16 -7 -5 -5
-14 9 -28 11 -12 20 -25 20 -29 0 -4 -15 -42 -33 -86 -33 -77 -34 -78 -75 -84
-57 -7 -65 -19 -14 -19 41 0 41 -1 36 -30 -8 -37 13 -41 22 -4 7 28 38 44 84
44 23 0 30 -6 39 -31 14 -42 14 -69 -1 -69 -8 0 -6 -6 5 -17 13 -13 20 -14 29
-5 9 9 8 25 -4 69 -15 53 -15 58 0 70 16 11 15 12 -3 13 -16 0 -24 14 -41 74
l-21 75 33 70 c18 39 28 71 23 71 -5 0 -21 -27 -36 -61z m-14 -173 c6 -25 11
-49 11 -54 0 -11 -69 -26 -77 -18 -8 8 38 127 47 121 4 -3 13 -25 19 -49z"/>
<path d="M20730 4534 c0 -29 -10 -47 -51 -92 -27 -32 -62 -76 -77 -99 -27 -42
-28 -43 -84 -43 -31 0 -60 -4 -63 -10 -4 -6 15 -10 49 -10 31 0 56 -2 56 -3 0
-2 -7 -18 -16 -36 -19 -39 -13 -61 16 -54 11 3 23 10 27 16 4 6 -2 8 -15 5
-26 -7 -27 3 -7 41 14 28 18 29 116 36 55 4 104 3 108 -1 18 -20 41 -98 35
-116 -5 -16 -2 -19 18 -16 27 4 27 4 -6 82 -23 55 -23 61 -8 73 15 11 15 12
-5 13 -19 0 -25 11 -43 69 -11 37 -20 78 -20 89 0 26 17 37 34 23 17 -14 29
-2 15 15 -7 8 -21 11 -35 8 -21 -5 -24 -3 -24 20 0 14 -4 26 -10 26 -5 0 -10
-16 -10 -36z m31 -153 c11 -35 18 -65 17 -67 -9 -9 -178 -15 -178 -7 0 12 62
96 104 141 26 28 32 30 34 15 2 -10 12 -47 23 -82z"/>
<path d="M1406 4551 c-4 -6 -4 -12 1 -13 36 -7 -191 -18 -477 -23 -190 -4
-352 -9 -360 -12 -42 -17 94 -21 355 -12 330 12 502 23 512 33 4 3 0 14 -9 22
-11 11 -18 12 -22 5z"/>
<path d="M2445 4532 c-73 -22 -162 -69 -170 -91 -7 -18 19 -41 47 -41 25 0 22
9 -7 20 -14 5 -25 14 -25 20 0 22 171 90 227 90 64 0 -3 -84 -141 -174 -62
-41 -118 -82 -126 -90 -7 -9 -25 -16 -41 -16 -15 0 -31 -4 -34 -10 -14 -22
379 -1 400 22 7 7 -6 9 -45 4 -135 -15 -273 -19 -266 -7 4 6 51 40 104 75 112
73 195 155 190 189 -4 29 -35 31 -113 9z"/>
<path d="M15675 4490 c-4 -7 585 -10 1760 -10 1678 0 1766 -1 1761 -17 -37
-121 -70 -373 -49 -373 11 0 73 63 73 75 0 5 -14 -4 -31 -21 l-31 -29 7 85 c6
82 25 181 46 248 l11 32 244 0 c156 0 244 4 244 10 0 7 -678 10 -2014 10
-1333 0 -2017 -3 -2021 -10z"/>
<path d="M19367 4420 c-5 -14 -31 -134 -57 -262 -20 -102 4 -138 94 -138 66 0
129 23 165 59 30 30 29 94 -1 115 -29 20 -110 21 -174 1 -27 -8 -50 -15 -51
-15 -9 0 0 64 18 141 11 49 19 95 16 102 -3 9 -6 8 -10 -3z m192 -244 c7 -8
11 -32 9 -53 -3 -34 -8 -40 -48 -60 -50 -26 -157 -32 -178 -11 -16 16 -15 93
1 106 37 31 195 44 216 18z"/>
<path d="M15688 4384 c-5 -4 -8 -120 -8 -258 0 -169 3 -247 10 -240 7 7 9 100
8 258 -2 136 -6 244 -10 240z"/>
<path d="M21055 4339 c-4 -5 57 -9 154 -9 88 0 162 3 164 8 3 4 -66 8 -154 9
-89 1 -161 -2 -164 -8z"/>
<path d="M18676 4231 c-16 -11 -33 -27 -38 -36 -8 -14 -12 -13 -38 5 -28 20
-64 25 -94 14 -27 -10 -18 -21 15 -16 56 8 99 -33 99 -94 0 -60 -43 -84 -155
-84 -118 0 -175 34 -175 105 0 22 7 51 16 64 15 21 22 23 70 17 68 -8 80 10
13 19 -63 9 -99 -13 -114 -68 -10 -34 -11 -35 -23 -17 -18 29 -62 48 -118 52
-27 2 -52 7 -55 11 -10 14 -67 -42 -89 -89 -20 -41 -21 -48 -9 -71 31 -59 170
-84 237 -43 18 11 37 32 42 46 l10 26 25 -25 c30 -29 93 -47 167 -47 92 0 142
21 173 74 9 15 13 15 53 -5 29 -14 69 -23 127 -26 83 -6 84 -6 114 25 23 22
31 40 31 65 0 59 -67 120 -108 98 -11 -6 -37 -4 -72 5 -69 18 -69 18 -104 -5z
m116 -21 c75 -24 82 -24 75 -6 -9 23 31 7 53 -22 24 -30 26 -79 3 -104 -30
-34 -199 -17 -258 26 -28 20 -26 83 4 107 29 24 44 24 123 -1z m-591 -56 c54
-27 65 -89 24 -129 -34 -35 -136 -36 -185 -2 -50 33 -55 48 -35 90 9 20 22 37
27 37 5 0 17 7 25 16 19 19 97 13 144 -12z"/>
<path d="M17438 4163 c-9 -10 -19 -29 -23 -41 l-7 -24 -22 21 c-61 57 -176 63
-228 11 -30 -30 -38 -83 -18 -120 31 -59 228 -51 260 11 10 17 12 17 34 -6 30
-30 84 -45 163 -45 51 0 67 4 89 23 55 48 28 122 -59 163 -66 30 -165 34 -189
7z m52 -14 c0 -8 4 -8 13 -1 18 14 82 7 125 -15 23 -12 44 -34 55 -56 18 -35
18 -39 3 -62 -15 -23 -23 -25 -86 -25 -76 0 -145 22 -160 51 -13 23 -13 75 0
100 11 20 50 27 50 8z m-139 -32 c27 -18 35 -30 37 -59 3 -32 -1 -39 -27 -52
-39 -21 -143 -21 -181 -1 -25 13 -30 22 -30 53 0 63 18 78 98 80 57 2 75 -2
103 -21z"/>
<path d="M16975 4147 c-12 -28 36 -219 51 -206 9 7 8 18 -2 47 -7 21 -19 70
-27 108 -11 50 -17 64 -22 51z"/>
<path d="M15930 4132 c-60 -18 -88 -32 -94 -48 -6 -17 13 -74 25 -74 11 0 11
12 0 43 -13 33 -2 45 45 53 l40 6 -10 -60 c-6 -36 -14 -58 -21 -56 -6 3 -19
-2 -30 -10 -19 -15 -19 -15 8 -16 l27 0 0 -86 c0 -62 3 -85 12 -82 8 3 12 32
12 83 l1 79 87 12 c91 12 161 35 191 61 22 20 22 76 0 94 -22 19 -231 19 -293
1z m271 -12 c22 -12 26 -62 7 -78 -25 -20 -111 -43 -184 -49 -83 -7 -81 -9
-67 70 4 26 10 36 19 33 8 -3 14 1 14 8 0 8 6 17 13 19 23 10 178 7 198 -3z"/>
<path d="M22220 4139 c-102 -3 -287 -7 -412 -8 -160 -1 -229 -4 -234 -13 -5
-8 86 -9 377 -3 211 5 436 10 499 11 63 1 134 2 158 3 23 1 42 6 42 11 0 11
-128 11 -430 -1z"/>
<path d="M17875 4111 c-18 -30 -55 -159 -55 -193 l0 -38 -782 -1 c-431 -1
-844 -5 -918 -8 -74 -4 681 -8 1678 -9 1207 -1 1811 1 1807 8 -4 7 -312 10
-891 10 l-884 0 17 27 c10 15 12 24 6 20 -20 -12 -16 23 12 110 22 71 26 100
10 74z"/>
<path d="M3315 4090 c-8 -13 14 -42 26 -34 16 9 121 -56 111 -69 -13 -16 -30
-174 -37 -330 -4 -102 -3 -128 7 -125 8 3 15 28 18 62 4 46 10 61 30 77 28 21
82 39 122 39 53 0 79 -89 39 -129 -22 -22 -97 -37 -137 -27 -23 6 -26 11 -20
36 3 17 1 30 -4 30 -13 0 -22 -37 -15 -59 11 -36 122 -35 180 3 41 27 46 114
9 150 -29 30 -122 13 -174 -30 l-30 -26 1 89 c0 121 20 239 39 235 8 -2 85
-46 172 -98 l157 -95 -35 -70 c-19 -38 -42 -88 -50 -111 -8 -23 -18 -46 -23
-52 -5 -6 -11 -26 -13 -44 -8 -59 14 -28 43 60 37 114 86 211 102 202 7 -4 25
-16 40 -27 l29 -19 -7 -84 c-5 -59 -4 -84 4 -84 6 0 11 17 12 38 0 20 3 55 7
76 l7 39 31 -26 c26 -22 32 -36 37 -83 3 -31 8 -58 11 -61 11 -11 26 10 26 37
0 44 13 43 58 -3 54 -55 102 -91 102 -77 0 6 -32 42 -72 80 l-71 69 18 41 c35
78 102 105 128 53 21 -41 29 -94 16 -109 -13 -16 -1 -86 15 -81 7 3 11 33 10
85 -1 89 -24 145 -61 150 -36 5 -83 -27 -115 -78 -17 -27 -34 -47 -38 -45 -4
3 -13 25 -19 50 -13 51 -37 64 -26 14 l7 -32 -31 22 c-17 12 -31 29 -31 37 0
10 -6 13 -17 10 -16 -5 -63 24 -63 38 0 3 20 37 45 76 25 38 41 70 36 70 -5 0
-28 -30 -51 -67 -24 -38 -44 -69 -45 -71 -2 -2 -114 62 -249 142 -135 80 -248
146 -250 146 -3 0 -8 -5 -11 -10z m702 -472 c-3 -8 -6 -5 -6 6 -1 11 2 17 5
13 3 -3 4 -12 1 -19z"/>
<path d="M22190 4051 l0 -39 -82 -34 c-46 -19 -113 -45 -150 -57 -82 -27 -93
-41 -36 -42 24 -1 97 -4 163 -8 l120 -6 3 -99 c2 -85 0 -100 -15 -112 -17 -13
-17 -13 3 -14 30 0 34 16 34 130 l0 99 91 3 c76 2 94 6 103 21 9 15 7 21 -8
33 -11 8 -27 14 -35 13 -12 0 -10 -4 7 -16 39 -27 24 -34 -70 -31 l-93 3 -8
54 c-7 53 -6 55 25 82 25 22 29 28 15 29 -10 0 -20 -7 -23 -15 -10 -25 -24
-17 -24 15 0 17 -4 30 -10 30 -5 0 -10 -18 -10 -39z m4 -77 c3 -9 6 -31 6 -50
l0 -34 -104 0 c-57 0 -112 3 -121 6 -10 4 20 21 87 49 119 49 124 50 132 29z"/>
<path d="M16377 4042 c-4 -5 16 -12 46 -16 83 -10 275 -7 282 4 4 6 -39 10
-122 10 -70 0 -144 3 -164 6 -20 4 -39 2 -42 -4z"/>
<path d="M20053 4020 c-24 -12 -43 -26 -43 -30 0 -4 17 1 37 11 49 25 257 27
370 3 298 -61 443 -195 500 -459 25 -117 12 -369 -30 -579 -26 -126 -39 -173
-53 -184 -11 -8 -14 -16 -8 -18 8 -3 7 -20 -2 -56 -8 -29 -10 -54 -5 -57 4 -4
4 -42 -1 -86 -5 -44 -7 -145 -5 -225 4 -115 9 -158 27 -210 37 -107 80 -183
164 -284 36 -44 145 -126 168 -126 21 0 4 22 -33 41 -115 58 -254 263 -294
432 -17 71 -19 283 -5 395 7 56 15 78 32 93 23 20 23 20 1 10 -21 -11 -21 -9
-16 26 3 21 7 40 9 42 2 2 32 0 68 -4 l66 -7 11 -41 c6 -23 13 -49 14 -57 2
-8 4 -17 4 -19 1 -2 8 2 16 9 10 8 12 17 6 24 -5 6 -14 28 -19 49 l-10 37 58
0 c58 0 90 7 90 19 0 3 -34 6 -76 6 l-77 0 -18 52 c-30 89 -33 134 -9 163 12
15 18 18 14 8 -3 -10 -4 -18 -1 -18 7 0 58 92 54 97 -7 6 -101 -101 -134 -152
-18 -28 -33 -45 -33 -40 0 6 12 69 27 140 24 116 27 151 27 330 0 190 -1 204
-27 281 -50 150 -144 256 -288 324 -114 53 -208 72 -379 77 -144 4 -158 3
-197 -17z m918 -1170 c11 -40 18 -75 15 -77 -5 -5 -116 7 -116 13 0 21 69 149
76 141 3 -2 14 -37 25 -77z"/>
<path d="M4291 3999 c-36 -22 -70 -58 -70 -74 0 -5 12 4 27 21 43 50 105 70
172 56 32 -7 35 -11 35 -42 0 -28 -7 -39 -43 -67 -24 -18 -65 -40 -92 -50 -28
-10 -50 -21 -50 -25 0 -5 92 -8 204 -8 151 0 206 3 214 13 8 9 -27 11 -171 9
l-182 -3 51 30 c62 36 94 74 94 110 0 41 -17 51 -89 51 -49 0 -75 -5 -100 -21z"/>
<path d="M7242 3971 c-59 -20 -102 -55 -102 -83 0 -32 32 -100 42 -90 6 6 4
21 -6 40 -29 56 -22 81 28 103 25 11 62 20 83 22 38 2 38 2 35 -33 -4 -43 -31
-86 -117 -184 -62 -71 -64 -76 -43 -81 13 -2 43 -9 68 -15 25 -6 104 -13 175
-16 151 -6 180 3 227 71 30 43 49 125 29 125 -6 0 -11 -12 -11 -27 -1 -37 -31
-103 -60 -128 -20 -18 -36 -20 -154 -20 -116 0 -266 18 -266 32 0 3 27 34 59
69 74 79 111 140 114 190 2 35 -1 39 -23 41 -14 2 -49 -6 -78 -16z"/>
<path d="M16450 3970 c-10 -6 37 -10 143 -10 103 0 156 3 152 10 -8 13 -275
13 -295 0z"/>
<path d="M13842 3943 c-13 -23 -13 -23 -277 -23 -238 0 -265 2 -265 16 0 13
-3 14 -14 5 -19 -16 -46 -136 -46 -205 0 -67 4 -65 -160 -69 l-115 -3 132 -2
c75 -1 134 -6 138 -12 4 -7 14 -6 28 2 16 8 113 9 368 5 191 -4 354 -4 363 -1
55 21 -10 25 -322 18 -186 -4 -355 -4 -376 0 l-39 7 6 87 c4 48 9 97 13 110
l6 22 279 0 279 0 0 -86 c0 -76 2 -85 15 -74 13 10 14 27 9 85 -6 72 -6 72 20
79 33 8 34 26 2 26 -15 0 -26 7 -28 18 -3 15 -6 14 -16 -5z"/>
<path d="M6166 3941 c-13 -20 -35 -174 -36 -246 0 -59 -13 -157 -26 -197 -4
-14 -2 -19 6 -16 7 2 24 37 37 77 28 87 121 285 150 321 l21 24 11 -39 c13
-49 14 -307 1 -430 -14 -132 -4 -203 33 -237 l29 -28 -46 0 c-88 0 -170 -52
-211 -133 -21 -42 -25 -65 -25 -133 0 -70 4 -89 28 -135 24 -46 37 -59 92 -88
54 -29 78 -35 143 -39 66 -4 83 -2 105 15 15 10 48 27 75 37 74 28 139 76 175
131 33 49 34 52 30 137 -3 79 -6 90 -34 125 -47 59 -110 86 -202 86 l-77 0 45
12 c101 27 209 94 280 171 38 42 23 32 -55 -35 -27 -24 -86 -61 -129 -82 -94
-46 -181 -54 -215 -20 -25 25 -33 101 -21 212 5 52 10 164 10 249 0 149 -10
222 -31 235 -20 13 -79 -69 -128 -179 -57 -124 -60 -120 -35 55 16 118 16 175
0 150z m475 -811 c132 -68 139 -278 12 -368 -56 -39 -142 -75 -129 -53 11 17
-10 13 -24 -4 -7 -8 -28 -15 -46 -15 -34 0 -34 0 -34 48 0 26 7 72 15 102 8
30 15 81 15 113 0 66 0 66 -110 42 -85 -19 -90 -19 -90 5 0 11 -4 20 -10 20
-6 0 -10 -44 -10 -112 0 -100 2 -111 15 -97 10 9 16 38 17 82 1 59 4 68 22 72
153 35 146 36 146 -27 0 -29 -7 -75 -15 -102 -8 -27 -15 -72 -15 -99 l0 -50
-42 7 c-23 4 -63 22 -90 41 -31 23 -48 30 -48 21 0 -20 86 -75 129 -82 58 -9
60 -14 4 -11 -79 6 -157 48 -190 104 -21 36 -24 49 -15 62 7 9 19 30 27 46
l16 30 -19 -22 -20 -23 -4 83 c-5 95 10 132 71 172 42 27 98 45 87 26 -9 -14
-3 -14 67 0 72 15 101 7 131 -37 29 -43 43 -31 15 14 -10 18 -19 35 -19 39 0
11 104 -8 141 -27z"/>
<path d="M3339 3933 c0 -5 -1 -104 -2 -220 -1 -138 2 -212 8 -210 13 4 34 111
23 115 -4 2 -8 75 -8 163 0 99 -4 159 -10 159 -5 0 -10 -3 -11 -7z"/>
<path d="M6745 3841 c-5 -9 232 -21 241 -12 2 2 1 8 -2 12 -7 12 -231 11 -239
0z"/>
<path d="M6746 3742 c-3 -5 11 -12 32 -16 59 -9 210 -7 217 4 4 6 -28 10 -88
10 -52 0 -108 3 -125 6 -16 3 -32 2 -36 -4z"/>
<path d="M2430 3714 c-39 -17 -86 -58 -102 -89 -6 -11 9 -1 32 22 37 38 76 61
85 51 2 -1 1 -42 -2 -90 -4 -57 -10 -88 -17 -88 -7 0 -21 -7 -32 -15 -18 -14
-17 -14 14 -9 l32 7 0 -77 c0 -49 4 -75 10 -71 6 3 10 39 10 80 l0 73 50 17
c28 9 66 32 85 50 30 28 35 39 35 78 0 36 -5 49 -22 61 -29 21 -131 20 -178 0z
m168 -16 c7 -7 12 -31 12 -54 0 -37 -5 -46 -32 -67 -30 -22 -88 -47 -109 -47
-10 0 -12 88 -3 143 l7 37 56 0 c31 0 62 -5 69 -12z"/>
<path d="M19367 3653 c-11 -10 -8 -393 2 -393 6 0 23 12 38 26 22 20 23 23 6
15 -12 -6 -25 -11 -28 -11 -4 0 -5 81 -4 179 4 170 1 200 -14 184z"/>
<path d="M16206 3621 c-4 -6 -24 -11 -45 -11 -39 0 -108 -38 -148 -81 -35 -39
-63 -113 -71 -190 l-7 -72 -47 -14 c-55 -16 -71 -33 -31 -33 56 0 70 -10 77
-50 8 -48 72 -107 165 -152 53 -25 84 -32 170 -39 59 -5 135 -11 171 -15 38
-3 90 -1 125 6 33 6 92 13 130 14 39 1 98 3 133 4 34 1 62 6 62 12 0 6 -40 8
-107 5 -90 -5 -105 -4 -89 7 11 7 36 28 56 46 23 19 48 32 65 32 40 0 90 -27
106 -57 21 -40 15 -178 -16 -333 -15 -78 -24 -149 -20 -167 13 -72 183 -173
365 -217 160 -39 370 -60 355 -36 -3 6 -27 10 -53 10 -130 0 -375 56 -482 110
-76 39 -158 105 -166 135 -3 13 6 85 21 160 32 167 37 306 13 351 -19 34 -71
64 -112 64 -23 0 -25 2 -16 26 6 14 10 63 10 108 0 75 -3 90 -35 153 -40 80
-121 167 -180 194 -49 23 -133 24 -182 4 -32 -13 -41 -13 -86 0 -28 8 -62 15
-77 15 -14 0 -31 5 -37 11 -8 8 -13 8 -17 0z m-43 -53 c-64 -25 -127 -77 -165
-137 -31 -49 -38 -34 -12 27 33 80 105 132 179 131 l50 0 -52 -21z m435 3 c50
-26 134 -116 166 -179 33 -65 33 -81 1 -75 -29 6 -35 -6 -59 -111 -9 -38 -18
-72 -21 -74 -9 -9 -45 31 -76 85 -17 29 -35 55 -41 59 -16 10 -32 -15 -62 -94
-16 -41 -32 -70 -36 -65 -13 14 -39 131 -33 153 4 16 2 19 -11 14 -9 -3 -16
-10 -16 -16 0 -20 33 -154 42 -172 10 -18 10 -18 28 0 10 11 30 51 45 89 15
39 28 71 30 73 1 1 19 -25 39 -58 78 -126 101 -122 136 25 16 65 19 70 43 70
23 1 27 -4 29 -30 5 -95 -6 -141 -40 -157 -16 -8 -27 -21 -27 -33 0 -49 -205
-112 -291 -91 -26 7 -27 9 -11 20 24 18 21 29 -4 16 -17 -9 -25 -8 -41 7 -37
33 -78 95 -78 120 0 14 -4 21 -10 18 -16 -10 -11 -45 11 -82 18 -29 19 -37 8
-44 -24 -15 -49 -10 -74 16 -27 26 -31 40 -15 50 6 3 10 52 10 110 l0 104 53
10 c28 6 71 10 95 9 30 -2 47 3 60 16 16 18 15 18 -33 12 -27 -4 -65 -10 -84
-13 -23 -4 -32 -2 -27 5 7 12 -51 32 -71 24 -7 -2 -13 -15 -13 -27 0 -21 -7
-25 -57 -35 -32 -6 -83 -18 -114 -26 -86 -21 -92 -20 -84 18 22 97 92 190 172
228 64 30 93 24 120 -26 30 -54 99 -131 109 -121 4 4 -6 22 -23 40 -46 48 -86
118 -75 129 5 5 26 6 48 2 l38 -7 -30 -23 c-36 -30 -23 -31 18 -3 29 21 32 21
58 6 15 -9 30 -14 33 -11 3 3 14 3 25 0 24 -8 45 -52 36 -78 -4 -14 -2 -19 7
-16 8 3 29 -20 51 -54 21 -32 42 -58 48 -58 15 0 12 10 -14 44 -32 43 -66 111
-66 134 0 11 -7 25 -15 32 -8 7 -15 19 -15 27 0 12 -3 13 -14 4 -10 -9 -21 -9
-42 0 -27 10 -28 12 -9 19 38 16 134 11 173 -9z m-318 -221 c0 -5 -9 -10 -20
-10 -11 0 -20 5 -20 10 0 6 9 10 20 10 11 0 20 -4 20 -10z m-60 -135 c0 -52
-2 -95 -4 -95 -2 0 -33 16 -70 35 -37 19 -91 42 -121 50 -55 17 -78 41 -47 52
30 12 196 51 220 52 21 1 22 -2 22 -94z m-290 25 c0 -5 -8 -10 -17 -10 -15 0
-16 2 -3 10 19 12 20 12 20 0z m198 -101 c55 -27 82 -45 79 -54 -3 -7 2 -23
10 -35 16 -23 16 -23 -21 -17 -71 11 -176 83 -208 141 -9 17 -7 18 23 12 18
-3 71 -25 117 -47z m-104 -48 c-7 -7 -64 52 -64 66 0 7 15 -4 34 -25 19 -20
32 -39 30 -41z m343 -87 c-3 -4 -19 -3 -34 1 -27 6 -27 7 -8 21 17 12 21 12
34 -1 8 -8 12 -17 8 -21z m-109 -1 c-10 -2 -28 -2 -40 0 -13 2 -5 4 17 4 22 1
32 -1 23 -4z"/>
<path d="M19586 3608 c-3 -7 -7 -60 -10 -116 -4 -67 -11 -111 -21 -125 -17
-24 -20 -113 -5 -137 14 -22 19 -10 26 68 8 85 10 86 129 80 94 -4 129 -26
133 -85 3 -35 0 -41 -25 -52 -25 -11 -161 -30 -220 -31 -13 0 -23 -4 -23 -8 0
-10 131 -5 196 9 65 13 94 39 94 85 0 75 -75 112 -210 102 l-60 -4 7 113 c3
62 3 113 -1 113 -4 0 -8 -6 -10 -12z"/>
<path d="M1237 3466 c-33 -66 -87 -226 -87 -255 0 -24 15 -28 24 -6 4 12 24
15 89 15 l84 0 23 -50 c13 -27 26 -50 30 -50 18 0 16 15 -5 53 -13 22 -22 44
-19 49 3 4 29 8 59 8 82 0 77 19 -6 22 l-72 3 -35 80 c-23 53 -35 97 -36 129
-1 27 -6 51 -12 53 -6 2 -23 -21 -37 -51z m93 -211 c0 -12 -15 -15 -66 -15
-59 0 -65 2 -59 18 9 19 46 128 52 152 5 16 73 -130 73 -155z m-115 65 c-17
-50 -44 -85 -30 -39 22 73 40 119 43 105 2 -9 -4 -39 -13 -66z"/>
<path d="M13858 3494 c-5 -4 -8 -28 -8 -53 l0 -46 -192 0 c-106 0 -219 -3
-250 -8 l-58 -7 0 51 c0 45 -2 50 -15 39 -9 -7 -15 -29 -15 -54 0 -37 -4 -43
-37 -61 -42 -23 -78 -67 -71 -86 3 -9 11 -2 22 19 14 26 22 32 50 32 26 0 35
-5 40 -22 12 -48 7 -75 -16 -82 l-23 -7 23 -11 22 -11 0 -519 c0 -372 -3 -518
-11 -518 -6 0 -28 14 -49 30 -21 17 -41 26 -45 21 -3 -6 20 -29 51 -52 l56
-43 -4 -617 c-3 -572 -4 -618 -21 -636 -16 -19 -16 -21 2 -37 22 -20 41 -14
41 14 0 26 9 30 98 45 52 9 79 10 83 3 4 -7 9 -7 13 1 4 6 38 11 81 11 93 0
110 18 21 22 l-65 3 69 100 c38 55 99 129 135 165 l65 64 0 -102 c0 -66 4
-101 10 -97 7 4 10 273 10 774 0 539 3 770 11 778 8 8 8 13 0 17 -8 5 -11 118
-11 364 1 301 3 353 14 333 8 -14 16 -19 20 -13 7 12 -2 41 -20 62 -7 9 -14
44 -16 79 -2 34 -6 59 -10 55z m-31 -125 l23 -9 0 -236 c0 -188 -3 -234 -12
-227 -130 101 -278 228 -278 238 0 3 19 5 43 5 51 0 105 26 126 60 14 23 12
23 -17 -5 -28 -25 -42 -30 -101 -33 -65 -4 -70 -3 -105 28 -39 34 -62 34 -31
0 22 -24 21 -24 -61 -4 l-65 17 3 56 3 56 195 5 195 5 -194 5 c-134 3 -196 9
-198 17 -5 15 40 24 167 33 116 9 270 3 307 -11z m-507 -29 c0 -5 -9 -10 -21
-10 -11 0 -17 5 -14 10 3 6 13 10 21 10 8 0 14 -4 14 -10z m130 -182 c46 -9
68 -22 131 -77 41 -36 114 -97 162 -136 47 -38 86 -76 87 -82 0 -7 5 -13 10
-13 6 0 10 -42 10 -105 0 -71 -4 -105 -11 -105 -14 0 -131 79 -177 119 l-34
29 27 47 c16 26 34 49 41 52 8 3 14 11 14 19 0 26 -26 3 -59 -51 -22 -37 -37
-52 -45 -47 -6 5 -43 34 -83 65 -40 32 -74 57 -77 57 -20 0 4 -27 74 -82 44
-35 80 -68 80 -73 0 -6 -25 -61 -55 -123 -30 -62 -55 -116 -55 -118 0 -21 27
23 71 116 29 61 55 110 59 110 4 0 35 -23 70 -50 34 -28 84 -62 111 -76 l49
-24 0 -674 0 -674 -78 -78 c-43 -44 -107 -122 -143 -174 -56 -81 -70 -96 -100
-102 -19 -4 -67 -13 -106 -21 l-73 -14 0 209 c0 114 2 208 4 208 2 0 29 -12
60 -26 55 -25 57 -27 42 -47 -27 -38 -37 -57 -29 -57 4 0 19 16 32 35 21 31
29 35 67 35 24 0 44 5 44 10 0 6 -13 10 -30 10 -16 0 -30 3 -30 6 0 16 112
144 125 144 8 0 15 8 15 18 0 10 16 33 35 52 l35 34 36 -17 c50 -24 66 -9 16
17 l-40 21 39 64 c21 36 39 69 39 74 0 16 -29 -13 -36 -36 -4 -12 -18 -39 -32
-59 l-25 -38 -56 31 c-31 17 -68 41 -83 52 l-27 22 46 67 c41 60 49 67 64 55
10 -6 36 -25 59 -41 22 -16 44 -26 48 -22 4 4 -7 17 -23 29 -16 12 -42 33 -57
47 l-28 25 27 42 c15 23 36 44 46 47 11 2 16 9 13 15 -4 6 -2 20 4 31 13 25 2
26 -16 3 -12 -17 -18 -15 -86 21 -40 21 -74 40 -76 42 -5 4 108 184 163 259
64 88 72 100 56 91 -19 -12 -112 -141 -175 -243 -31 -51 -61 -93 -66 -93 -5 0
-51 24 -102 54 l-93 53 -3 533 -2 532 22 -6 c13 -4 48 -12 78 -18z m-55 -1089
c17 -11 56 -33 88 -50 31 -16 57 -33 57 -37 0 -4 -8 -19 -18 -34 l-17 -26 -55
39 c-30 21 -58 39 -62 39 -20 0 -3 -20 47 -55 30 -20 55 -40 55 -43 0 -3 -18
-36 -40 -74 -22 -39 -40 -72 -40 -74 0 -16 24 15 56 71 41 74 37 74 119 1 l49
-44 -44 -66 c-28 -42 -52 -66 -63 -66 -13 0 -17 -5 -13 -16 7 -17 -53 -107
-81 -123 -9 -5 -18 -23 -20 -41 -3 -33 -3 -33 17 -15 19 17 22 16 100 -15 l80
-32 -29 -37 c-16 -20 -44 -54 -63 -75 l-34 -39 -58 26 c-32 15 -62 24 -67 21
-5 -3 -9 161 -9 390 0 218 3 396 8 396 4 0 21 -9 37 -21z m242 -134 c34 -20
63 -40 63 -46 0 -5 -12 -27 -26 -49 l-26 -39 -63 52 c-35 29 -64 56 -64 60 -1
13 31 57 42 57 5 0 39 -16 74 -35z m-24 -370 c38 -24 74 -46 80 -48 7 -2 -2
-20 -23 -45 -41 -48 -54 -49 -155 -3 l-66 30 42 56 c23 30 44 55 48 55 3 0 37
-20 74 -45z"/>
<path d="M13668 2589 c-42 -93 -133 -243 -203 -335 -36 -47 -63 -89 -59 -93 3
-3 11 2 18 12 6 11 34 49 62 85 89 116 220 349 211 375 -2 7 -16 -13 -29 -44z"/>
<path d="M23866 3481 c-5 -8 13 -11 63 -11 96 0 286 -26 363 -50 91 -28 201
-111 184 -139 -3 -4 -22 -11 -43 -14 -42 -6 -139 -45 -131 -53 3 -2 28 4 57
15 64 26 136 32 136 12 0 -18 -85 -75 -205 -138 -78 -41 -93 -52 -82 -62 9 -9
17 -10 25 -2 8 6 61 8 145 4 151 -7 145 -1 117 -107 -32 -121 -116 -248 -210
-315 l-47 -34 6 149 c8 173 2 197 -53 202 -43 4 -130 -38 -170 -84 l-31 -35 0
51 c0 82 -17 57 -24 -37 -3 -49 -9 -103 -12 -120 -5 -26 -3 -33 10 -33 12 0
16 10 16 38 1 101 101 202 200 202 46 0 53 -29 44 -199 l-7 -144 -64 -29 c-57
-26 -165 -55 -263 -72 l-35 -6 48 45 c58 54 63 72 6 20 -77 -69 -100 -75 -316
-75 -219 0 -271 8 -366 58 -64 33 -157 112 -157 133 0 5 31 9 69 9 39 0 73 5
76 10 4 6 -21 10 -69 10 -41 0 -82 3 -91 6 -22 9 -51 67 -36 72 6 2 11 12 11
22 0 20 19 25 143 36 42 3 80 10 83 15 3 5 -5 9 -18 9 -51 0 -201 -21 -218
-30 -26 -14 -31 -2 -31 85 -1 98 21 166 76 240 123 164 345 268 537 252 90 -8
146 -34 218 -103 33 -32 63 -54 68 -50 10 11 -106 118 -151 139 -97 47 -262
43 -386 -7 -141 -57 -298 -195 -350 -305 -43 -94 -41 -247 5 -358 4 -8 -2 -13
-15 -13 -12 0 -21 -4 -21 -10 0 -5 13 -10 28 -10 22 0 36 -10 63 -46 19 -25
58 -63 86 -84 49 -35 51 -38 30 -45 -19 -5 -14 -9 28 -21 96 -26 288 -54 377
-54 142 0 441 58 566 109 57 24 71 26 86 16 12 -9 27 -11 48 -5 40 12 56 26
79 72 25 49 10 50 -16 1 -21 -41 -63 -67 -89 -57 -24 9 -20 15 44 62 107 77
206 242 226 373 4 24 10 49 14 54 4 6 2 53 -5 105 -6 52 -10 98 -8 102 7 13
-64 99 -107 130 -77 57 -218 91 -431 104 -82 4 -118 3 -123 -5z m653 -372 c1
-34 -1 -37 -36 -43 -64 -10 -225 -7 -218 4 4 6 37 26 73 44 37 19 90 50 117
70 l50 36 7 -37 c4 -21 7 -54 7 -74z"/>
<path d="M14658 3460 c-4 -8 -9 -62 -10 -120 l-3 -105 -205 -5 -205 -6 203 -2
c119 -1 202 -6 202 -11 0 -16 -96 -127 -130 -151 -16 -12 -30 -26 -30 -32 0
-17 78 51 126 109 l44 55 -2 -1011 c-2 -802 0 -1011 9 -1011 10 0 13 215 15
1023 l3 1022 91 -3 c75 -3 93 -1 104 14 14 15 8 16 -89 9 -86 -6 -102 -5 -96
6 5 8 35 53 68 101 33 49 58 90 55 93 -3 3 -35 -38 -71 -91 l-66 -97 -3 114
c-2 63 -6 107 -10 99z"/>
<path d="M17856 3408 c-27 -23 -56 -58 -65 -79 -18 -40 -110 -125 -121 -112
-8 9 -25 92 -36 166 -4 33 -10 45 -17 38 -6 -6 -4 -42 8 -108 27 -149 21 -144
94 -83 49 41 65 50 72 39 5 -8 9 -18 9 -22 0 -14 83 -47 118 -47 135 -1 183
159 65 215 -33 16 -40 16 -62 4 -14 -8 -27 -24 -29 -34 -3 -18 -1 -18 16 3 23
30 62 22 97 -20 30 -35 33 -86 7 -118 -25 -31 -105 -39 -155 -15 -49 23 -64
62 -42 109 10 20 20 36 24 36 11 1 86 70 76 70 -5 0 -32 -19 -59 -42z"/>
<path d="M18730 3433 c-89 -32 -113 -64 -100 -133 10 -54 43 -85 99 -95 75
-12 144 28 157 91 4 24 0 37 -21 62 -33 39 -97 61 -120 42 -12 -10 -13 -15 -3
-21 7 -4 18 -3 25 3 17 13 73 -19 92 -54 34 -60 -36 -120 -122 -104 -52 10
-78 35 -87 86 -11 60 4 81 74 103 31 10 56 20 56 23 0 5 -31 4 -50 -3z"/>
<path d="M18956 3370 c-25 -27 -46 -58 -46 -69 0 -32 63 -73 120 -79 44 -4 52
-2 80 26 34 35 40 83 14 120 -19 27 -57 44 -79 36 -22 -9 -18 -23 4 -17 30 8
71 -39 71 -80 0 -63 -62 -86 -136 -51 -66 31 -67 58 -7 125 20 21 33 39 31 39
-3 0 -26 -22 -52 -50z"/>
<path d="M18373 3387 c-79 -87 -71 -143 25 -192 65 -32 127 -20 148 30 29 70
-10 137 -93 155 -37 9 -73 -1 -73 -21 0 -6 6 -6 19 0 26 14 82 -3 112 -35 26
-28 32 -95 10 -117 -22 -22 -90 -12 -134 20 -59 41 -62 82 -11 143 30 35 28
51 -3 17z"/>
<path d="M1750 3363 c-25 -3 -49 -9 -55 -15 -7 -7 9 -9 54 -4 35 3 77 6 92 6
16 0 29 5 29 10 0 10 -30 10 -120 3z"/>
<path d="M18177 3253 c-25 -64 -47 -145 -47 -176 0 -30 0 -30 20 -12 13 12 17
21 10 25 -13 8 0 74 30 149 11 28 16 51 11 51 -5 0 -16 -17 -24 -37z"/>
<path d="M16945 3260 c-4 -6 37 -10 114 -10 74 0 121 4 121 10 0 6 -45 10
-114 10 -66 0 -117 -4 -121 -10z"/>
<path d="M1720 3253 c-58 -2 -109 -9 -115 -14 -15 -16 241 -7 257 9 9 9 7 12
-12 10 -14 -1 -72 -4 -130 -5z"/>
<path d="M2720 3239 c-47 -4 -197 -11 -333 -15 -146 -4 -250 -11 -254 -17 -6
-10 401 -4 513 8 37 4 43 3 22 -4 -15 -5 -37 -16 -50 -25 -12 -9 -36 -16 -53
-16 -49 0 -202 -31 -221 -45 -13 -9 8 -8 77 5 196 37 198 36 49 -36 -144 -70
-193 -101 -211 -137 -8 -15 1 -10 27 15 25 23 88 60 174 99 138 63 170 83 170
104 0 7 40 20 101 31 56 10 109 24 118 31 19 14 8 15 -129 2z"/>
<path d="M4573 3222 c-10 -6 -9 -19 5 -55 10 -25 22 -50 26 -54 9 -8 3 39 -10
71 -7 17 -4 18 27 12 57 -11 211 -93 267 -142 111 -97 188 -239 238 -435 31
-125 29 -176 -12 -234 -44 -63 -57 -99 -58 -165 -1 -76 17 -120 72 -175 53
-53 124 -85 194 -85 101 0 266 101 314 192 17 32 37 218 23 218 -4 0 -18 18
-33 40 -39 60 -60 66 -234 69 -139 2 -157 0 -188 -18 -19 -12 -37 -21 -38 -21
-2 0 -1 19 1 43 5 47 -33 214 -72 309 -57 139 -148 254 -262 328 -100 66 -234
118 -260 102z m812 -773 c-5 -7 7 -8 37 -4 31 5 56 2 83 -9 43 -18 55 -15 34
10 -13 16 -12 16 18 1 32 -17 63 -52 63 -73 0 -6 -19 -14 -42 -18 -24 -4 -53
-9 -65 -12 -17 -5 -22 -1 -25 18 l-4 23 -11 -25 c-10 -23 -22 -28 -107 -44
-53 -10 -99 -22 -102 -28 -14 -22 12 -64 93 -148 67 -69 90 -87 100 -79 7 6
10 15 7 21 -10 16 18 219 33 234 15 14 23 16 101 19 l42 2 0 -69 c0 -102 -48
-185 -128 -219 -67 -29 -164 -36 -196 -15 -37 24 -54 20 -28 -6 19 -19 33 -23
87 -23 56 0 62 -1 42 -12 -37 -20 -141 -16 -192 8 -64 30 -130 107 -145 169
-22 94 24 208 108 265 32 22 48 25 120 25 57 0 81 -3 77 -11z m82 -151 c-3
-13 -11 -61 -17 -108 -6 -47 -14 -87 -17 -90 -8 -7 -153 151 -153 166 0 8 10
16 23 19 36 8 151 33 161 34 4 1 6 -9 3 -21z"/>
<path d="M10138 3188 c-98 -71 -149 -167 -156 -293 -5 -98 19 -171 75 -229 49
-51 103 -74 203 -87 124 -17 217 14 290 98 56 63 71 111 71 218 0 114 -11 159
-48 203 -29 34 -117 70 -128 52 -3 -5 13 -14 36 -20 52 -14 95 -58 110 -112 6
-23 10 -83 10 -135 0 -112 -18 -159 -86 -222 -55 -51 -68 -52 -44 -3 24 49 34
92 21 92 -5 0 -15 -21 -22 -47 -20 -85 -48 -104 -153 -105 -137 -2 -240 49
-289 146 -26 51 -35 165 -18 235 16 66 76 159 126 194 51 34 135 37 203 6 27
-12 48 -16 54 -10 14 14 -97 51 -157 51 -43 0 -60 -6 -98 -32z"/>
<path d="M16938 3169 c-13 -8 50 -18 137 -21 87 -3 125 1 125 11 0 6 -15 8
-32 5 -18 -3 -75 -1 -126 3 -51 5 -98 6 -104 2z"/>
<path d="M3190 3113 c-25 -2 -58 -10 -75 -17 -16 -8 -50 -17 -74 -21 -38 -6
-43 -5 -38 9 4 9 2 16 -4 16 -6 0 -13 -9 -16 -19 -5 -20 -61 -31 -231 -46
-100 -10 -101 -25 0 -25 l83 0 77 -79 c42 -44 79 -77 82 -74 3 4 6 48 6 99 l0
92 50 11 c91 20 90 20 90 -55 0 -41 4 -63 10 -59 6 3 10 21 11 38 1 24 7 12
28 -53 32 -100 48 -133 62 -125 5 4 29 48 53 99 24 51 48 96 53 99 10 7 60
-111 89 -210 8 -29 19 -53 24 -53 29 0 90 152 97 243 5 52 3 68 -5 63 -7 -4
-12 -24 -12 -44 0 -49 -24 -142 -51 -194 l-22 -42 -32 94 c-43 126 -62 170
-74 170 -15 0 -43 -41 -80 -118 -19 -40 -38 -72 -43 -72 -12 0 -81 231 -71
240 4 5 21 10 37 12 16 2 31 9 34 16 2 6 0 11 -5 10 -4 -1 -28 -3 -53 -5z
m-210 -145 l0 -72 -65 64 -66 65 38 6 c21 3 50 7 66 8 l27 1 0 -72z"/>
<path d="M18720 3083 c0 -18 127 -23 593 -23 298 0 457 3 457 10 0 7 -161 10
-464 10 -254 0 -491 3 -525 6 -38 4 -61 3 -61 -3z"/>
<path d="M10287 3064 c-3 -4 -26 -48 -51 -98 -24 -50 -51 -100 -60 -111 -14
-19 -15 -14 -16 58 0 42 -4 77 -9 77 -14 0 -23 -67 -15 -118 7 -46 9 -67 12
-137 3 -53 17 -42 41 33 12 37 43 118 68 180 40 101 49 135 30 116z m-100
-251 c-7 -22 -13 -31 -15 -21 -3 15 14 58 22 58 2 0 -1 -17 -7 -37z"/>
<path d="M23266 3052 c-5 -9 9 -12 48 -12 l56 0 0 -85 0 -86 33 18 c19 10 64
18 113 21 115 6 164 -22 164 -96 0 -56 -71 -91 -188 -92 -50 0 -54 2 -67 33
-11 26 -15 29 -20 14 -4 -10 0 -28 10 -43 17 -26 19 -27 96 -21 43 4 93 13
112 20 96 41 103 155 11 193 -43 18 -138 18 -197 0 l-47 -14 0 38 c0 21 3 52
6 70 l7 32 131 -7 c72 -4 139 -11 148 -16 17 -9 48 -2 48 11 0 20 -452 41
-464 22z"/>
<path d="M19584 2991 c-18 -11 -35 -25 -40 -32 -4 -7 8 -3 28 9 43 26 83 30
74 6 -3 -9 -6 -22 -6 -29 0 -40 -116 -135 -165 -135 -33 0 -75 -23 -63 -36 4
-4 28 -1 53 6 44 12 166 9 251 -6 26 -5 38 0 65 26 l34 32 -32 -23 c-30 -21
-36 -21 -102 -11 -38 7 -86 12 -105 12 l-34 0 57 58 c42 42 60 67 63 92 3 19
4 38 1 43 -8 13 -47 7 -79 -12z"/>
<path d="M22132 2984 c-16 -11 -22 -24 -20 -40 4 -35 22 -34 23 1 l0 30 70 3
c88 3 152 -15 178 -50 17 -22 18 -32 10 -51 -9 -20 -28 -29 -95 -46 -46 -12
-93 -26 -105 -31 -22 -9 -23 -8 -23 51 0 38 4 58 10 54 13 -8 13 8 -2 40 -12
26 -28 33 -29 13 0 -7 1 -58 2 -113 2 -133 11 -197 28 -203 11 -4 13 4 8 39
-3 24 -9 54 -13 67 -5 18 -3 22 16 22 13 0 28 6 34 13 6 8 42 22 81 32 83 22
120 53 111 93 -9 35 -47 68 -94 81 -58 17 -164 14 -190 -5z"/>
<path d="M23899 2929 c-9 -17 -30 -234 -24 -246 0 -1 7 2 15 7 11 7 14 28 12
89 -1 44 2 99 7 123 11 49 8 59 -10 27z"/>
<path d="M2360 2924 c-52 -7 -125 -13 -162 -13 -37 -1 -70 -5 -73 -11 -9 -15
91 -13 230 5 66 8 148 15 182 15 34 0 65 5 68 10 8 14 -125 11 -245 -6z"/>
<path d="M19186 2928 c-9 -30 -36 -185 -36 -206 0 -47 25 -15 31 39 10 92 45
131 120 133 57 1 69 -19 69 -111 0 -62 -17 -210 -25 -221 -2 -2 -18 6 -36 17
-47 29 -55 26 -56 -14 -1 -49 -51 -148 -178 -360 -163 -270 -222 -421 -246
-626 -36 -314 54 -524 295 -683 94 -62 167 -95 286 -128 76 -20 108 -23 295
-23 247 0 311 13 484 97 88 42 117 62 180 127 73 74 159 186 150 195 -3 3 -31
-31 -64 -75 -118 -160 -244 -246 -440 -299 -113 -31 -401 -39 -529 -15 -310
58 -538 235 -622 485 -15 44 -19 85 -19 200 1 159 14 239 67 390 40 113 70
170 204 395 99 166 135 237 158 308 5 16 8 17 35 2 17 -8 36 -27 43 -42 10
-22 21 -29 51 -31 32 -3 43 2 67 28 17 18 30 37 30 44 0 6 -13 -4 -28 -22 -23
-28 -33 -33 -62 -30 l-35 3 1 65 c1 36 5 115 9 177 7 96 5 116 -9 138 -23 35
-96 36 -148 0 l-36 -24 5 39 c5 37 -3 56 -11 28z"/>
<path d="M19033 2918 c-13 -16 -33 -108 -33 -148 0 -28 1 -29 25 -18 27 12 35
31 10 22 -19 -8 -20 23 0 96 15 57 15 69 -2 48z"/>
<path d="M16380 2530 c0 -247 4 -380 10 -380 6 0 10 133 10 380 0 247 -4 380
-10 380 -6 0 -10 -133 -10 -380z"/>
<path d="M21290 2870 c-10 -7 30 -10 122 -10 81 0 139 4 143 10 8 13 -245 13
-265 0z"/>
<path d="M5892 2733 c-60 -60 -119 -126 -130 -148 -22 -44 -33 -143 -17 -147
6 -2 13 26 16 62 7 84 35 127 166 249 54 50 93 91 86 91 -6 0 -61 -48 -121
-107z"/>
<path d="M7809 2824 c-170 -30 -352 -104 -432 -174 -51 -45 -73 -99 -62 -151
8 -34 102 -142 117 -133 5 4 -11 27 -35 53 -25 25 -51 59 -57 76 -16 43 -3 95
33 133 89 93 391 192 587 192 74 0 81 -2 138 -40 111 -75 212 -204 212 -273 0
-15 5 -27 10 -27 17 0 11 58 -12 108 -27 59 -167 200 -229 230 -54 26 -149 28
-270 6z"/>
<path d="M21326 2762 c-9 -15 147 -36 215 -28 55 5 106 22 97 32 -2 2 -22 -1
-44 -8 -37 -10 -175 -6 -235 8 -15 3 -29 1 -33 -4z"/>
<path d="M8893 2728 c-14 -17 -28 -86 -15 -73 11 12 34 77 28 82 -2 2 -8 -2
-13 -9z"/>
<path d="M7950 2676 c-5 -15 -10 -33 -10 -39 -1 -49 -164 -344 -205 -371 -27
-18 -35 -49 -10 -40 38 15 200 301 230 407 17 60 14 91 -5 43z"/>
<path d="M7640 2483 c0 -109 2 -125 14 -113 10 12 12 40 8 128 -2 61 -8 112
-13 112 -5 0 -9 -57 -9 -127z"/>
<path d="M21648 2591 c-75 -15 -159 -98 -188 -187 -7 -19 -15 -34 -19 -34 -4
0 -16 -7 -27 -16 -18 -15 -18 -15 4 -9 25 7 30 -11 8 -29 -13 -10 -13 -19 0
-71 18 -70 43 -95 122 -125 59 -22 107 -25 149 -9 15 6 57 15 93 20 80 12 155
45 208 93 22 20 43 32 46 27 11 -18 176 -112 186 -106 6 3 10 41 10 84 0 73 2
79 23 85 33 9 49 7 42 -4 -8 -12 -9 -13 48 5 53 16 51 17 62 -50 7 -44 41
-115 54 -115 19 0 33 33 38 90 3 33 9 60 14 60 4 0 33 -31 64 -69 30 -38 69
-75 87 -82 28 -11 32 -11 49 9 10 13 20 48 24 80 3 31 8 75 10 97 4 35 3 38
-9 23 -7 -10 -16 -55 -19 -100 -4 -45 -11 -86 -17 -92 -16 -16 -53 11 -114 85
-31 39 -64 73 -72 76 -22 8 -34 -14 -35 -67 0 -25 -4 -54 -8 -65 -7 -18 -9
-17 -24 12 -20 38 -22 113 -4 132 10 11 -1 13 -63 7 -41 -3 -92 -9 -112 -12
-37 -6 -38 -6 -38 25 0 22 5 31 17 31 13 0 14 3 6 11 -20 20 -43 2 -43 -35 0
-40 -11 -46 -85 -46 l-54 0 2 58 c3 108 -63 170 -191 180 -37 3 -76 11 -87 18
-26 16 -110 24 -157 15z m102 -21 c15 -5 18 -8 9 -9 -30 -2 -154 -44 -142 -48
6 -2 35 3 64 11 29 9 70 16 91 16 l38 0 0 -46 c0 -27 4 -43 10 -39 6 3 10 23
10 44 0 21 2 40 5 43 10 10 116 -11 152 -29 56 -29 76 -62 75 -126 0 -66 -17
-101 -73 -151 -55 -51 -121 -79 -192 -82 -31 -2 -61 -6 -66 -9 -26 -15 -221
33 -221 54 0 3 86 4 191 2 131 -2 194 0 202 8 8 8 -37 11 -167 11 -134 0 -177
3 -174 12 3 7 60 40 129 74 197 98 207 128 42 127 -66 0 -124 -8 -177 -22 -44
-11 -81 -21 -82 -21 -2 0 2 12 8 28 21 48 66 108 95 127 47 31 121 42 173 25z
m58 -159 c23 -6 23 -7 5 -23 -10 -9 -58 -36 -108 -59 -49 -24 -109 -55 -132
-71 -81 -54 -131 -29 -118 59 6 39 11 46 43 60 77 32 249 52 310 34z m412
-171 c0 -38 -2 -70 -5 -70 -8 0 -154 91 -160 99 -9 16 21 30 75 34 30 2 63 4
73 5 15 2 17 -7 17 -68z m-676 -85 c22 -9 58 -21 80 -26 l41 -8 -49 4 c-49 5
-146 50 -146 68 0 6 8 3 18 -6 10 -9 35 -24 56 -32z"/>
<path d="M3340 2560 c-26 -9 -445 -42 -760 -61 -102 -5 -339 -9 -527 -7 -337
3 -433 -3 -271 -15 237 -19 708 -6 1228 33 306 23 332 27 357 45 20 16 10 18
-27 5z"/>
<path d="M22382 2562 c-256 -1 -391 -6 -387 -12 9 -14 772 -14 780 1 4 6 5 11
4 12 -2 1 -181 1 -397 -1z"/>
<path d="M8083 2492 c-28 -26 -59 -61 -67 -79 -20 -40 -22 -166 -3 -181 21
-18 118 -25 164 -13 71 19 110 96 61 122 -30 16 -129 5 -178 -19 l-40 -19 0
38 c0 58 16 90 77 147 31 28 52 52 47 52 -5 0 -32 -22 -61 -48z m141 -168 c23
-9 20 -48 -5 -70 -30 -27 -144 -23 -173 6 -16 16 -18 22 -8 32 30 30 142 49
186 32z"/>
<path d="M8373 2519 c-7 -7 -13 -19 -13 -26 0 -6 -12 -29 -26 -50 -23 -33 -25
-45 -20 -91 8 -69 28 -97 82 -118 66 -25 130 -15 167 26 26 29 29 38 25 86 -5
60 -37 110 -96 149 -46 30 -102 41 -119 24z m82 -28 c72 -33 115 -95 115 -167
0 -74 -77 -105 -167 -69 -47 19 -62 42 -70 105 -7 58 14 100 50 100 30 0 67
11 67 19 0 4 -16 5 -35 3 -27 -3 -35 -1 -35 12 0 21 25 20 75 -3z"/>
<path d="M9022 2499 c-18 -4 -41 -14 -51 -23 -17 -16 -19 -15 -26 6 -6 19 -9
14 -15 -27 -13 -83 -12 -177 3 -173 8 3 13 31 15 80 3 85 20 110 79 123 27 5
37 2 59 -20 l27 -27 -6 -124 c-5 -118 -4 -125 16 -139 33 -23 128 -20 161 6
22 18 26 28 26 74 0 30 -4 57 -10 60 -6 4 -9 -15 -9 -49 2 -74 -9 -86 -80 -86
-86 0 -86 -1 -86 148 0 111 -3 133 -18 150 -23 25 -43 30 -85 21z"/>
<path d="M8811 2424 c-7 -26 -15 -76 -18 -110 -6 -69 3 -81 31 -39 20 31 21
41 1 25 -23 -19 -21 11 10 148 10 44 -13 21 -24 -24z"/>
<path d="M5752 2425 c-49 -41 -72 -103 -72 -195 0 -80 0 -81 41 -125 53 -58
124 -85 221 -85 176 0 249 72 234 232 -11 118 -43 168 -107 168 -21 0 -41 -4
-44 -10 -4 -6 9 -10 33 -10 64 0 89 -41 98 -162 9 -119 11 -118 -171 -118
l-144 0 9 28 c4 15 14 84 21 155 9 96 15 127 26 127 7 0 16 -7 19 -15 9 -21
24 -19 24 4 0 25 -19 31 -95 31 -53 0 -68 -4 -93 -25z m108 -17 c0 -67 -31
-282 -42 -295 -11 -13 6 -15 154 -12 157 4 166 3 151 -13 -32 -35 -97 -51
-190 -46 -101 5 -151 26 -201 83 -30 33 -32 41 -32 111 0 125 41 194 117 194
38 0 43 -3 43 -22z"/>
<path d="M17918 2358 c-81 -100 -124 -198 -144 -325 -4 -24 -9 -43 -13 -43 -3
0 -28 45 -56 100 -45 91 -63 112 -72 84 -2 -5 16 -39 39 -74 23 -36 52 -90 65
-120 12 -30 26 -54 30 -53 4 1 16 43 25 94 30 161 60 234 133 324 25 30 41 55
36 55 -5 0 -24 -19 -43 -42z"/>
<path d="M4273 2350 c-42 -25 -63 -68 -63 -127 0 -51 17 -87 76 -160 l35 -42
-43 -22 c-62 -31 -98 -68 -98 -101 0 -46 64 -62 155 -37 78 21 93 65 45 126
-25 32 -25 40 0 48 11 3 20 11 20 16 0 5 -13 3 -29 -5 -28 -15 -29 -15 -68 32
-56 67 -73 104 -73 162 0 44 5 56 29 81 26 26 36 29 90 29 33 0 63 -4 66 -10
3 -5 -1 -23 -10 -39 -18 -35 -19 -45 -4 -35 6 3 18 23 26 42 14 33 13 37 -3
49 -27 20 -114 16 -151 -7z m92 -379 c14 -22 25 -48 23 -58 -5 -24 -70 -45
-133 -41 -44 3 -50 6 -53 26 -2 13 5 33 15 44 16 18 98 66 114 68 4 0 19 -18
34 -39z"/>
<path d="M14997 2343 c-3 -5 -7 -60 -11 -123 -13 -221 -17 -248 -37 -253 -21
-6 -26 -32 -8 -42 5 -4 19 1 29 10 16 15 26 15 94 4 72 -12 78 -12 104 7 28
22 72 80 72 97 0 5 -7 4 -15 -3 -8 -7 -15 -18 -15 -24 0 -7 -13 -25 -30 -41
l-30 -29 -77 12 c-42 7 -78 14 -80 16 -5 4 16 323 22 354 5 20 -8 31 -18 15z"/>
<path d="M6633 2183 c48 -2 125 -2 170 0 45 1 6 3 -88 3 -93 0 -130 -2 -82 -3z"/>
<path d="M4635 2170 c-3 -5 -5 -10 -3 -10 44 -6 348 -7 348 -1 0 4 -57 11
-127 14 -174 9 -211 9 -218 -3z"/>
<path d="M7816 2101 c-9 -15 77 -31 232 -43 172 -14 466 1 528 27 42 17 42 31
-1 15 -87 -33 -535 -37 -680 -5 -83 18 -73 17 -79 6z"/>
<path d="M6615 2070 c-4 -7 48 -10 149 -10 92 0 157 4 161 10 4 7 -48 10 -149
10 -92 0 -157 -4 -161 -10z"/>
<path d="M16482 2050 c-39 -109 -218 -270 -301 -270 -39 0 -21 -18 25 -25 76
-11 77 -15 13 -47 -166 -83 -282 -313 -239 -470 16 -57 53 -93 135 -132 148
-70 258 -85 460 -61 77 9 158 20 180 25 22 5 41 7 43 6 2 -2 36 12 75 31 50
24 94 56 145 106 73 73 87 102 57 127 -9 7 -32 44 -52 83 -78 148 -180 216
-337 226 l-90 6 -8 32 c-13 49 -49 63 -162 63 -52 0 -117 5 -144 12 l-50 11
56 37 c31 21 76 57 99 81 50 53 123 157 123 176 0 24 -18 14 -28 -17z m51
-329 c14 -6 29 -23 35 -40 10 -29 9 -31 -16 -37 -91 -21 -136 -34 -146 -45 -8
-8 -6 -10 9 -5 110 32 155 38 254 34 91 -3 113 -8 159 -31 29 -15 70 -45 92
-67 35 -35 100 -134 100 -153 0 -4 -30 -4 -67 -1 -84 8 -145 -7 -172 -43 -32
-40 -24 -52 8 -13 16 19 32 32 36 28 9 -9 -15 -230 -26 -244 -11 -13 -129 -35
-184 -34 -22 0 -87 -2 -145 -6 -169 -9 -300 26 -341 92 -20 34 -47 48 -35 19
20 -51 21 -48 -11 -31 -17 8 -42 29 -56 46 -74 87 -26 307 92 429 87 90 185
119 293 87 68 -20 69 -20 94 -1 18 14 17 14 -11 9 -16 -3 -41 -1 -55 5 -22 9
-20 10 22 10 26 1 58 -3 71 -8z m457 -367 c40 -9 58 -43 42 -79 -11 -24 -16
-25 -97 -25 l-85 0 0 48 c0 27 3 52 7 55 8 9 91 9 133 1z m72 -76 c-6 -6 -7 0
-4 19 5 21 7 23 10 9 2 -10 0 -22 -6 -28z m-58 -62 c-7 -18 -56 -56 -101 -80
-38 -19 -47 -20 -37 -3 4 6 -2 3 -14 -7 -22 -19 -22 -19 -22 11 0 17 3 45 6
62 l7 31 83 0 c69 0 82 -3 78 -14z"/>
<path d="M16615 1524 c-71 -14 -146 -29 -165 -34 -24 -7 -36 -6 -39 1 -2 6 -9
5 -20 -4 -9 -8 -81 -24 -161 -37 -80 -12 -151 -24 -158 -26 -25 -7 -7 -28 74
-87 102 -74 194 -121 208 -107 6 6 20 61 32 123 l20 112 160 32 c87 17 171 32
186 32 15 1 30 6 33 11 9 15 -24 11 -170 -16z m-235 -81 c0 -46 -33 -193 -44
-193 -28 0 -257 151 -239 157 7 3 209 40 276 52 4 0 7 -7 7 -16z"/>
<path d="M16492 1352 c4 -11 102 -97 134 -118 l25 -17 -48 -49 c-26 -27 -60
-56 -75 -64 -16 -8 -28 -19 -28 -25 0 -17 42 12 105 72 33 31 65 59 70 61 6 2
9 7 7 11 -1 5 12 27 30 50 17 23 36 48 41 55 6 7 6 12 0 12 -6 0 -25 -22 -44
-50 -19 -27 -39 -50 -45 -50 -13 0 -52 29 -111 82 -39 35 -69 50 -61 30z"/>
<path d="M5585 2041 c-39 -10 -72 -28 -115 -63 -32 -26 -41 -28 -122 -28 -48
0 -90 -4 -93 -10 -4 -6 25 -10 80 -10 l85 0 -27 -52 c-39 -77 -39 -169 0 -220
62 -80 173 -130 292 -131 95 -1 152 21 208 77 l37 37 33 -25 c98 -75 239 -74
268 1 14 37 3 40 -15 4 -19 -36 -48 -46 -121 -38 -56 6 -127 43 -145 76 -16
31 -12 113 7 141 16 24 16 24 0 11 -10 -8 -19 -12 -21 -10 -4 6 -56 121 -56
125 0 2 63 4 139 4 83 0 142 4 146 10 4 7 -48 10 -148 10 -125 0 -157 3 -167
15 -13 15 -35 11 -25 -6 4 -5 -68 -9 -181 -9 -208 0 -215 4 -108 56 56 27 79
28 217 7 23 -3 37 -2 37 5 0 6 -26 13 -57 17 -32 3 -71 7 -88 9 -16 2 -43 1
-60 -3z m297 -178 c28 -59 32 -76 30 -143 -3 -89 -17 -114 -88 -150 -41 -21
-62 -25 -134 -25 -77 0 -92 3 -154 34 -83 40 -143 99 -152 148 -8 43 10 127
36 171 l20 32 205 0 206 0 31 -67z"/>
<path d="M5621 1835 c-27 -25 -48 -35 -72 -36 l-34 -1 27 -12 27 -12 -18 -30
c-12 -20 -18 -48 -17 -84 1 -50 3 -56 31 -69 32 -16 188 -27 230 -17 54 14 21
23 -67 19 -63 -3 -106 0 -133 9 -39 13 -40 15 -40 58 l0 45 138 3 c159 3 192
22 38 22 -54 0 -112 3 -129 6 -27 6 -30 9 -21 25 9 17 22 19 129 19 73 0 120
4 120 10 0 6 -44 10 -112 10 -110 0 -111 0 -93 20 10 11 24 20 32 20 7 0 13 7
13 15 0 21 -5 19 -49 -20z"/>
<path d="M4645 2030 c4 -6 75 -10 180 -10 105 0 176 4 180 10 4 7 -58 10 -180
10 -122 0 -184 -3 -180 -10z"/>
<path d="M7695 1955 c-5 -2 -31 -6 -57 -10 -65 -9 -108 -45 -108 -91 0 -21 4
-33 10 -29 6 3 10 19 10 34 0 39 25 58 98 71 83 15 102 8 102 -35 0 -60 -103
-133 -220 -155 -43 -8 -54 -7 -68 6 -23 24 -119 15 -160 -15 -28 -19 -33 -20
-37 -7 -17 53 -15 50 -28 33 -11 -15 -19 -12 -82 28 -38 25 -74 46 -79 48 -8
3 -3 25 19 80 4 9 3 17 -2 17 -6 0 -17 -18 -26 -40 l-15 -40 -44 20 c-48 22
-74 25 -83 10 -11 -17 5 -32 20 -20 10 8 24 6 54 -10 l42 -21 -30 -42 c-38
-54 -126 -146 -216 -225 -38 -34 -64 -62 -57 -62 15 0 264 246 297 293 l20 28
93 -56 92 -56 0 -85 c0 -54 4 -83 10 -79 6 3 10 30 10 58 0 86 6 88 109 23 50
-32 93 -62 97 -67 7 -11 71 -39 90 -39 8 0 14 5 14 10 0 6 -9 10 -20 10 -29 0
-47 37 -53 108 l-5 64 46 -6 c179 -21 264 -15 271 19 3 19 3 19 -16 3 -21 -19
-56 -22 -166 -11 l-67 6 68 33 c87 42 142 100 142 149 0 29 -5 37 -26 45 -26
10 -32 11 -49 5z m-241 -234 c18 -19 35 -131 21 -131 -9 0 -185 110 -185 116
0 2 12 10 28 18 40 22 115 20 136 -3z"/>
<path d="M6428 1894 c-5 -4 -8 -79 -8 -167 0 -143 2 -158 16 -147 8 8 20 22
26 33 8 17 8 19 -6 14 -14 -5 -16 11 -18 134 -2 78 -6 137 -10 133z"/>
<path d="M6563 1745 l2 -135 25 29 c31 37 67 51 130 51 67 0 80 -7 80 -42 0
-44 -48 -61 -180 -62 -100 -1 -105 0 -102 19 3 19 3 19 -14 3 -15 -15 -15 -19
-3 -34 12 -14 28 -16 118 -11 134 8 194 34 199 87 3 24 -2 38 -14 47 -27 19
-122 16 -171 -7 l-43 -19 0 37 c0 67 -13 172 -21 172 -4 0 -7 -61 -6 -135z"/>
<path d="M7088 1747 c-5 -10 -8 -63 -8 -118 0 -92 1 -99 18 -90 9 5 26 24 36
43 l19 33 -26 -24 -26 -24 -3 99 c-2 56 -6 91 -10 81z"/>
<path d="M11088 1709 c-30 -12 -68 -65 -68 -97 0 -11 -3 -27 -6 -36 -5 -14 -8
-14 -30 1 -20 13 -41 15 -112 10 -48 -4 -100 -9 -115 -13 -24 -6 -28 -4 -25
11 3 15 17 17 135 16 82 -1 134 2 138 9 4 7 -33 10 -115 10 -101 0 -121 2
-117 14 8 20 -18 27 -40 11 -10 -8 -36 -15 -58 -15 -69 -2 -88 -18 -22 -19
l57 -1 0 -31 c0 -30 1 -31 33 -25 17 4 71 9 119 13 111 7 138 -6 138 -67 0
-39 -1 -39 -52 -55 -30 -8 -90 -15 -141 -15 -80 0 -89 2 -94 20 -7 25 -23 26
-23 1 0 -37 24 -44 133 -39 119 6 184 27 193 64 l6 23 34 -26 c45 -34 122 -43
159 -19 20 13 25 25 25 57 0 51 -20 89 -67 128 -27 23 -40 28 -50 20 -16 -14
-8 -29 17 -29 10 0 33 -17 50 -37 26 -32 30 -45 28 -83 l-3 -45 -42 -3 c-49
-4 -108 21 -124 50 -16 29 -16 99 0 136 18 44 49 54 131 46 46 -4 70 -3 74 5
5 7 -3 11 -22 11 -16 0 -49 2 -73 5 -24 2 -56 0 -71 -6z"/>
<path d="M21922 1690 c-304 -9 -431 -17 -453 -31 -9 -5 24 -7 88 -3 l101 7
-29 -84 c-28 -79 -102 -344 -168 -599 l-29 -115 -1 140 c-1 77 -6 169 -11 205
-19 121 -52 252 -61 243 -5 -5 2 -54 17 -118 21 -91 27 -143 31 -300 l5 -190
-31 -84 c-17 -46 -29 -86 -27 -89 3 -2 18 16 33 41 15 26 33 47 40 47 12 0 73
82 73 97 -1 4 -12 -5 -25 -22 l-25 -30 0 26 c0 51 143 597 197 750 l27 77 50
7 c27 3 275 8 550 10 319 3 503 8 510 15 11 11 -418 11 -862 0z"/>
<path d="M10128 1674 c-5 -4 -8 -58 -8 -120 0 -62 -5 -124 -11 -137 -10 -21
-15 -23 -49 -17 -38 7 -71 -2 -58 -16 9 -9 132 -24 253 -31 93 -5 101 -4 119
16 11 11 14 21 8 21 -6 0 -14 -5 -18 -11 -8 -14 -220 -7 -235 8 -6 6 -5 21 1
39 12 34 9 260 -2 248z"/>
<path d="M11488 1640 c-4 -8 -9 -40 -12 -70 -4 -30 -9 -74 -12 -97 -4 -26 -2
-43 4 -43 13 0 22 25 22 59 0 52 89 145 120 126 21 -13 11 -123 -20 -215 -42
-125 -38 -130 85 -130 71 0 108 5 150 21 30 11 55 24 55 29 0 4 -23 0 -50 -11
-61 -23 -239 -28 -241 -6 -3 27 4 55 27 120 23 66 32 164 18 201 -10 25 -39
19 -88 -19 l-45 -34 -3 42 c-2 24 -6 36 -10 27z"/>
<path d="M20555 1638 c-3 -7 -6 -53 -7 -103 l-3 -90 -80 -5 c-115 -8 -182 -52
-192 -127 -4 -31 -1 -42 19 -60 32 -29 89 -43 181 -43 60 0 79 -3 83 -15 4 -8
10 -15 15 -15 12 0 41 71 35 84 -3 6 -8 1 -11 -11 -15 -47 -25 -20 -25 61 0
77 2 84 21 89 23 6 17 27 -7 27 -15 0 -19 42 -14 158 2 58 -4 79 -15 50z m-7
-317 l3 -93 -100 4 c-82 3 -106 8 -128 24 -37 27 -41 71 -12 108 33 43 74 56
159 53 l75 -2 3 -94z"/>
<path d="M11389 1594 c-6 -16 -13 -54 -16 -84 l-6 -55 22 19 c21 19 30 43 11
31 -13 -8 -13 20 1 68 13 47 4 62 -12 21z"/>
<path d="M21907 1586 c-142 -51 -259 -167 -302 -301 -28 -85 -26 -205 4 -268
51 -105 166 -161 333 -162 l87 0 3 -40 4 -40 23 48 c16 34 27 47 38 43 8 -3
39 -6 68 -6 48 0 54 -2 57 -22 l3 -23 26 25 c14 15 53 33 88 43 144 40 242
112 292 212 l32 65 63 0 c86 0 92 18 7 22 l-68 3 3 50 c2 33 9 53 20 60 9 6
27 20 40 33 22 21 23 25 9 45 -8 12 -37 30 -66 39 -28 9 -65 28 -81 42 -53 44
-229 96 -328 96 -25 0 -44 8 -64 27 -26 25 -36 28 -126 31 -83 2 -107 -1 -165
-22z m250 -7 c28 -11 28 -12 -24 -24 -69 -16 -83 -29 -83 -76 l0 -39 -45 0
c-55 0 -115 -23 -115 -44 0 -18 30 -36 59 -36 31 0 26 18 -6 22 -14 2 -28 8
-30 15 -6 16 47 25 132 21 62 -3 70 -5 70 -23 0 -16 -20 -27 -105 -58 -65 -24
-121 -38 -147 -37 -69 2 -57 -17 15 -24 84 -7 342 -10 348 -3 3 3 -4 15 -15
26 -16 16 -21 17 -21 6 0 -13 -21 -15 -125 -15 -69 0 -125 2 -125 4 0 2 35 16
78 30 43 15 88 33 100 42 39 27 22 74 -28 74 -24 0 -25 3 -22 41 5 45 25 59
87 59 27 0 35 -5 43 -27 10 -27 11 -28 17 -5 6 18 14 22 49 22 85 -1 251 -46
297 -81 l24 -19 -37 0 c-20 0 -43 -3 -52 -6 -32 -12 -14 -19 42 -16 44 3 63 0
75 -13 20 -19 33 -83 20 -96 -16 -16 -155 -22 -216 -9 -76 15 -111 45 -111 95
0 49 23 65 90 65 29 0 56 5 59 10 10 16 -92 12 -124 -5 -51 -26 -63 -93 -24
-137 40 -45 192 -67 306 -45 l37 8 0 -38 c0 -74 52 -70 -702 -47 -144 5 -198
3 -198 -5 0 -7 38 -11 123 -11 176 0 168 4 165 -94 l-3 -81 -38 -9 c-25 -7
-48 -6 -66 0 -18 7 -34 7 -49 1 -30 -14 -28 -27 4 -27 16 0 43 -15 71 -40 25
-22 50 -40 55 -40 5 0 6 -4 3 -10 -17 -27 -215 2 -288 42 -94 52 -139 162
-119 291 27 174 143 308 317 363 50 16 195 18 232 3z m561 -227 c2 -15 -4 -25
-22 -34 -32 -14 -32 -13 -41 40 l-7 43 34 -14 c21 -8 34 -21 36 -35z m-510
-191 c9 -5 12 -29 10 -82 l-3 -74 -37 -3 c-31 -3 -38 0 -38 15 -1 17 -1 17
-14 1 -18 -24 -81 -25 -72 -2 3 9 6 47 6 85 l0 69 68 0 c37 0 73 -4 80 -9z
m374 -1 l57 0 -15 -44 c-21 -61 -81 -126 -151 -163 -71 -38 -166 -68 -171 -53
-2 6 -12 4 -25 -5 -33 -23 -37 -19 -37 39 l0 54 145 7 c112 5 147 10 157 23
12 14 9 15 -22 8 -19 -3 -90 -9 -157 -13 l-123 -6 0 83 0 83 143 -6 c78 -4
168 -7 199 -7z m-552 -215 c0 -19 -3 -35 -7 -35 -15 0 -73 52 -68 61 4 5 22 9
41 9 32 0 34 -2 34 -35z m63 -5 c-9 -22 -22 -40 -30 -40 -9 0 -13 13 -13 40 0
38 2 40 29 40 l29 0 -15 -40z m127 -10 l0 -50 -58 0 c-32 0 -61 3 -65 6 -3 3
2 26 11 50 16 44 17 44 64 44 l48 0 0 -50z"/>
<path d="M24388 1545 c-37 -8 -75 -18 -85 -24 -25 -14 -12 -14 78 5 43 9 84
14 89 12 6 -2 -18 -27 -54 -55 -72 -58 -114 -108 -125 -149 -4 -17 -15 -28
-29 -31 -19 -2 -22 2 -22 28 0 44 -52 94 -107 103 -38 7 -118 -7 -175 -29 -16
-6 -18 -1 -18 45 l0 53 130 -6 c71 -3 132 -2 135 3 8 14 -34 18 -187 20 -99 1
-148 -2 -148 -9 0 -6 11 -11 25 -11 24 0 25 -3 25 -61 0 -54 2 -61 18 -56 108
32 151 40 186 33 54 -10 96 -54 96 -100 0 -43 -17 -54 -97 -62 -73 -8 -138 9
-175 46 -31 31 -51 21 -22 -12 57 -62 212 -74 291 -23 24 16 51 19 198 19 168
1 170 1 173 24 2 12 -1 22 -7 22 -6 0 -11 -7 -11 -15 0 -13 -21 -15 -130 -15
l-130 0 0 29 c0 34 54 98 134 160 89 69 76 82 -56 56z"/>
<path d="M10440 1530 c-10 -7 23 -10 102 -10 67 0 119 4 123 10 8 13 -205 13
-225 0z"/>
<path d="M23475 1511 c-45 -11 -75 -30 -70 -44 7 -18 95 -71 103 -62 4 4 -1
12 -12 19 -84 51 -79 69 21 70 l68 1 3 -32 c4 -43 -40 -91 -129 -138 -43 -22
-67 -41 -62 -46 12 -12 115 -29 179 -29 38 0 55 5 69 20 10 11 13 20 7 20 -6
0 -14 -4 -17 -10 -10 -17 -195 -8 -195 10 0 3 19 17 42 30 23 13 61 43 85 67
33 33 43 50 43 76 0 18 -5 38 -12 45 -13 13 -75 14 -123 3z"/>
<path d="M24893 1501 c-17 -11 -36 -28 -42 -38 -9 -16 -10 -15 -11 10 0 15 -4
27 -9 27 -8 0 -24 -181 -16 -188 12 -13 25 16 25 56 0 52 26 104 61 122 31 17
89 17 100 0 14 -23 11 -111 -6 -166 -8 -27 -15 -66 -15 -86 l0 -38 68 0 c78 0
137 23 170 65 12 16 20 30 17 33 -2 3 -15 -7 -27 -23 -29 -38 -76 -55 -148
-55 -59 0 -60 1 -60 28 0 15 7 52 15 82 17 64 19 143 5 171 -14 26 -84 26
-127 0z"/>
<path d="M24705 1408 c4 -46 8 -84 10 -86 5 -6 35 11 35 20 0 5 -4 7 -9 4 -5
-3 -12 28 -16 69 -4 41 -11 75 -17 75 -7 0 -8 -28 -3 -82z"/>
<path d="M10430 1461 c0 -12 195 -35 217 -26 12 5 -18 13 -82 21 -123 16 -135
16 -135 5z"/>
<path d="M20750 1370 c-10 -6 40 -10 152 -10 101 0 169 4 173 10 8 13 -305 13
-325 0z"/>
<path d="M6401 1324 c-14 -17 -21 -41 -21 -68 0 -34 -6 -47 -30 -68 -19 -17
-28 -32 -24 -42 9 -23 27 -20 19 3 -7 25 30 50 48 32 15 -15 92 -14 106 2 16
20 3 27 -51 27 l-48 0 0 43 c0 43 24 92 40 82 5 -3 11 -1 15 5 14 23 -35 8
-54 -16z"/>
<path d="M23015 1321 c11 -5 49 -10 85 -11 36 0 84 -5 107 -9 39 -8 75 0 62
14 -4 3 -66 8 -140 10 -88 4 -127 2 -114 -4z"/>
<path d="M21020 1303 c-25 -14 -87 -13 -185 3 -28 5 -37 3 -30 -4 15 -16 131
-32 181 -25 24 3 49 12 55 20 17 19 8 22 -21 6z"/>
<path d="M23753 1288 c-2 -5 12 -8 31 -8 20 0 36 4 36 10 0 11 -59 9 -67 -2z"/>
<path d="M6890 1236 c-19 -51 -38 -326 -22 -326 4 0 15 14 25 31 15 28 15 31
1 25 -14 -5 -15 4 -9 91 4 54 11 120 16 147 10 55 5 72 -11 32z"/>
<path d="M6966 1245 c-3 -8 -8 -70 -12 -138 -5 -101 -10 -126 -26 -144 -11
-11 -18 -29 -16 -40 3 -16 14 -18 100 -18 82 0 101 3 125 21 55 41 56 111 2
140 -32 16 -115 16 -152 -1 -18 -7 -18 -3 -12 94 7 95 5 120 -9 86z m157 -196
c29 -16 37 -28 37 -60 0 -47 -31 -63 -136 -67 -80 -4 -94 -2 -94 11 0 9 5 19
10 22 6 3 10 1 10 -4 0 -6 5 -11 10 -11 6 0 10 22 10 50 0 36 5 52 18 59 23
14 108 14 135 0z"/>
<path d="M7405 1194 c-27 -37 -76 -107 -108 -158 -32 -50 -75 -108 -95 -130
-22 -22 -29 -34 -17 -28 31 16 56 47 139 172 42 63 92 136 112 163 20 26 32
47 27 47 -4 0 -30 -30 -58 -66z"/>
<path d="M7892 1244 c-26 -18 -58 -74 -42 -74 6 0 13 8 17 18 19 53 85 74 96
30 12 -47 -21 -129 -68 -168 -8 -7 -29 -15 -47 -19 -31 -7 -58 -34 -45 -47 4
-4 22 1 41 11 32 17 42 18 148 6 139 -16 190 -6 213 39 9 17 11 30 6 30 -5 0
-13 -9 -16 -21 -13 -40 -62 -46 -207 -28 l-88 12 32 39 c53 68 70 156 34 180
-18 12 -50 9 -74 -8z"/>
<path d="M22996 1232 c-11 -18 191 -41 219 -25 12 7 -8 12 -76 17 -52 4 -104
9 -115 12 -12 3 -25 1 -28 -4z"/>
<path d="M6021 1145 c-30 -35 -31 -38 -31 -135 0 -99 0 -101 33 -136 27 -30
40 -36 89 -41 45 -4 65 -1 101 16 50 24 67 53 67 117 0 104 -83 181 -199 185
-24 1 -28 3 -13 6 12 2 20 9 17 14 -11 18 -33 9 -64 -26z m167 -47 c48 -32 72
-81 72 -147 0 -60 -20 -86 -75 -97 -63 -11 -117 1 -147 36 -26 28 -28 37 -28
110 0 43 5 91 10 106 10 25 13 26 69 22 42 -3 71 -12 99 -30z"/>
<path d="M4902 1095 c-30 -7 -60 -19 -69 -27 -13 -13 -11 -18 17 -42 17 -14
39 -26 48 -26 12 0 6 9 -18 29 -19 16 -33 31 -30 34 10 8 99 27 129 27 49 0
61 -9 61 -46 0 -37 -22 -57 -77 -69 -54 -11 -37 -25 31 -25 64 0 76 -7 76 -45
0 -21 -57 -35 -146 -35 -91 0 -100 7 -62 47 12 13 17 23 11 23 -18 0 -55 -48
-51 -67 3 -16 14 -18 98 -18 103 0 155 15 165 46 11 32 -5 59 -36 66 l-30 6
21 21 c13 14 20 36 20 59 0 31 -4 39 -26 47 -32 13 -66 11 -132 -5z"/>
<path d="M5878 1090 c-4 -14 -9 -73 -10 -132 -4 -112 0 -118 36 -56 16 27 17
30 3 20 -15 -13 -17 -5 -19 90 -2 62 -6 93 -10 78z"/>
<path d="M5183 1086 c-59 -33 -89 -115 -59 -161 65 -99 196 -79 196 28 0 52
-23 87 -75 111 -19 10 -33 21 -30 27 8 12 -5 10 -32 -5z m53 -42 c45 -21 64
-50 64 -94 0 -57 -19 -74 -71 -67 -83 11 -125 92 -78 151 24 30 38 32 85 10z"/>
<path d="M3866 1064 c-31 -10 -67 -33 -97 -61 -79 -75 -89 -131 -32 -169 38
-26 133 -44 226 -44 109 0 85 17 -32 22 -88 4 -117 9 -157 29 -42 20 -49 29
-52 56 -3 26 5 41 39 77 24 27 56 50 78 56 20 6 101 13 181 16 80 2 149 9 154
14 7 7 -6 10 -35 10 -25 0 -86 2 -135 5 -65 4 -102 1 -138 -11z"/>
<path d="M7470 944 c0 -81 4 -123 10 -119 6 3 10 18 10 33 1 62 77 172 119
172 31 0 41 -36 41 -141 0 -61 5 -99 15 -119 37 -71 137 -78 200 -13 19 20 33
39 30 42 -3 3 -16 -7 -28 -21 -28 -33 -58 -48 -97 -48 -75 0 -100 42 -100 169
0 95 -10 138 -35 147 -27 11 -75 -17 -108 -64 l-32 -44 -3 66 c-5 117 -22 72
-22 -60z"/>
<path d="M7405 1033 c-3 -10 -9 -55 -12 -100 -6 -83 1 -100 26 -69 9 11 9 15
-1 18 -9 3 -10 23 -2 86 9 77 5 104 -11 65z"/>
<path d="M4385 1010 c-4 -6 25 -10 80 -10 55 0 84 4 80 10 -3 6 -39 10 -80 10
-41 0 -77 -4 -80 -10z"/>
<path d="M5436 1012 c-3 -6 15 -33 39 -60 l46 -51 -26 -17 c-14 -9 -23 -19
-21 -22 3 -2 17 3 31 12 25 16 27 16 85 -20 55 -34 80 -38 80 -12 0 6 -3 9 -6
5 -10 -10 -114 50 -114 66 0 3 23 22 50 42 28 21 49 40 46 43 -3 3 -29 -14
-58 -37 l-53 -41 -46 51 c-26 28 -50 46 -53 41z"/>
<path d="M14729 943 c-51 -70 -90 -113 -102 -113 -5 0 -2 12 8 26 24 37 11 41
-15 5 l-21 -31 -119 0 c-68 0 -121 -4 -125 -10 -4 -6 35 -10 109 -10 64 0 116
-2 116 -6 0 -3 -10 -23 -22 -44 -28 -48 -16 -65 17 -25 26 32 32 51 13 39 -7
-4 -8 -3 -4 5 4 6 11 9 16 6 4 -3 13 2 20 10 10 12 47 15 206 15 118 0 195 4
199 10 4 7 -58 10 -180 10 l-186 0 51 65 c27 36 54 75 60 85 20 38 0 20 -41
-37z"/>
<path d="M24409 951 l-17 -28 -85 19 c-48 11 -94 17 -104 13 -12 -5 11 -13 69
-25 48 -10 93 -21 100 -23 7 -3 -184 -6 -424 -6 -285 -1 -438 -4 -438 -11 0
-7 148 -10 425 -10 234 0 425 -3 425 -7 0 -13 -82 -112 -106 -128 -40 -26 -27
-37 18 -14 22 11 36 24 31 27 -6 4 9 30 38 62 46 52 51 55 95 55 29 0 49 5 51
13 3 6 -2 12 -11 12 -8 0 -27 5 -41 10 -26 10 -27 11 -11 35 18 27 20 35 9 35
-5 0 -15 -13 -24 -29z"/>
<path d="M24557 891 c-48 -49 -119 -111 -157 -137 -39 -26 -68 -50 -65 -52 10
-10 122 75 208 158 74 71 117 120 105 120 -2 0 -42 -40 -91 -89z"/>
<path d="M3915 952 c-88 -1 -164 -7 -169 -12 -7 -7 48 -10 156 -10 107 0 169
4 173 11 4 6 5 11 4 12 -2 1 -76 1 -164 -1z"/>
<path d="M13665 950 c11 -5 38 -12 59 -15 24 -4 50 -18 68 -36 25 -24 29 -35
26 -71 l-3 -43 -245 -5 c-272 -6 -269 -6 -298 60 -15 36 -28 26 -18 -14 10
-41 66 -85 136 -107 78 -25 250 -36 330 -21 30 6 56 9 57 8 1 -1 -16 -29 -37
-63 -98 -154 -60 -223 141 -254 117 -18 520 -6 635 19 84 18 141 39 132 47 -2
2 -34 -5 -71 -15 -115 -32 -250 -42 -489 -37 -308 6 -378 28 -378 121 0 32 10
58 40 107 54 87 49 82 101 112 47 26 68 64 52 90 -5 8 -10 1 -13 -18 -4 -21
-12 -31 -26 -33 -19 -3 -22 3 -26 52 -7 84 -58 127 -150 125 -33 0 -39 -2 -23
-9z m139 -205 c-9 -22 -66 -30 -214 -29 -111 1 -145 5 -190 22 l-55 21 232 0
c201 1 232 -1 227 -14z m46 11 c0 -2 -7 -7 -16 -10 -8 -3 -12 -2 -9 4 6 10 25
14 25 6z"/>
<path d="M4365 890 c-4 -6 27 -10 85 -10 58 0 89 4 85 10 -3 6 -42 10 -85 10
-43 0 -82 -4 -85 -10z"/>
<path d="M15963 735 c-33 -7 -74 -21 -90 -30 -27 -15 -27 -16 -3 -10 111 26
164 35 222 35 83 0 98 -6 98 -37 0 -32 -35 -62 -153 -135 -81 -50 -119 -88
-88 -88 6 0 11 6 11 14 0 8 37 36 83 62 110 65 167 118 167 156 0 21 -6 31
-26 38 -35 14 -147 11 -221 -5z"/>
<path d="M15293 708 c-4 -7 -10 -44 -13 -83 l-5 -70 -66 -6 c-112 -9 -193 -69
-173 -126 12 -37 58 -52 157 -52 72 -1 77 -2 77 -22 0 -18 2 -19 15 -9 8 7 15
20 15 29 0 9 9 27 20 41 11 14 20 38 20 55 0 34 -16 23 -22 -14 -1 -14 -9 -26
-16 -29 -10 -3 -12 9 -10 49 3 52 4 54 33 57 47 5 55 22 11 22 l-38 0 3 85 c2
47 3 85 2 85 -1 0 -5 -6 -10 -12z m-45 -184 c20 -6 22 -12 22 -70 l0 -64 -75
0 c-94 0 -145 19 -145 53 0 57 113 103 198 81z"/>
<path d="M15415 530 c-4 -6 41 -9 125 -8 72 0 133 5 136 10 3 4 -53 8 -125 8
-75 0 -132 -4 -136 -10z"/>
<path d="M15485 460 c-4 -7 48 -10 149 -10 97 0 156 4 156 10 0 6 -56 10 -149
10 -89 0 -152 -4 -156 -10z"/>
<path d="M15966 352 c-3 -6 1 -15 8 -21 8 -7 17 -8 20 -3 3 6 -1 15 -8 21 -8
7 -17 8 -20 3z"/>
</g>
</svg>
