<?xml version="1.0" standalone="no"?>
<!DOCTYPE svg PUBLIC "-//W3C//DTD SVG 20010904//EN"
 "http://www.w3.org/TR/2001/REC-SVG-20010904/DTD/svg10.dtd">
<svg version="1.0" xmlns="http://www.w3.org/2000/svg"
 width="2560.000000pt" height="989.000000pt" viewBox="0 0 2560.000000 989.000000"
 preserveAspectRatio="xMidYMid meet">

<g transform="translate(0.000000,989.000000) scale(0.100000,-0.100000)"
fill="#000000" stroke="none">
<path d="M19615 9225 c-22 -8 -50 -15 -61 -15 -12 0 -44 -16 -72 -35 -45 -30
-54 -33 -84 -25 -91 27 -193 -4 -230 -70 l-20 -35 34 36 c18 20 43 42 55 48
27 14 123 14 157 1 l25 -9 -22 -40 -22 -40 -85 -3 c-47 -2 -88 1 -91 6 -4 4
-10 3 -13 -3 -4 -6 -23 -18 -42 -26 -37 -15 -107 -65 -100 -72 2 -2 23 9 47
26 24 16 54 32 67 36 22 6 22 5 22 -79 0 -70 -3 -87 -17 -95 -17 -10 -17 -10
0 -11 14 0 17 -10 17 -65 0 -75 -13 -83 -53 -35 -14 17 -28 30 -31 30 -15 0
-3 -24 23 -51 22 -22 39 -29 68 -29 36 -1 37 -2 19 -15 -26 -20 -126 -19 -174
1 -43 18 -88 58 -108 96 -31 60 -11 177 52 298 61 118 90 137 175 114 63 -16
69 -17 69 -6 0 13 -71 32 -117 32 -35 0 -46 -6 -83 -46 -71 -77 -130 -226
-130 -330 0 -40 6 -59 29 -91 58 -81 116 -108 216 -101 44 3 70 10 85 23 14
13 44 21 92 27 42 4 92 17 123 33 59 29 111 34 101 10 -5 -13 13 -15 122 -15
149 0 214 15 256 59 28 29 28 33 24 110 -4 69 -11 93 -46 163 -50 101 -102
165 -156 189 -49 22 -68 23 -121 4z m108 -19 c91 -39 197 -232 197 -360 0 -52
-4 -66 -22 -83 -38 -34 -84 -43 -212 -41 l-121 2 105 3 c152 5 153 23 1 23
l-123 0 5 33 c3 17 10 52 17 77 9 34 9 59 0 104 -13 64 -16 70 -77 132 l-43
43 37 26 c48 32 74 34 47 3 -20 -23 -8 -18 37 15 22 16 32 17 67 8 37 -10 55
-27 109 -100 2 -2 6 -1 9 2 11 11 -45 86 -79 107 -29 18 -30 20 -9 20 12 0 37
-6 55 -14z m-231 -136 l38 -41 0 -118 c0 -107 -2 -120 -21 -137 -20 -18 -21
-18 -56 2 -19 11 -42 32 -51 47 -16 26 -16 27 26 63 39 33 43 40 40 77 -2 34
-8 44 -33 57 -16 8 -32 16 -34 18 -9 5 29 72 40 72 7 0 29 -18 51 -40z m-126
-72 c-3 -13 -6 -48 -6 -79 l0 -57 -44 -11 c-25 -6 -61 -11 -80 -11 l-36 0 0
83 c0 46 3 87 7 90 3 4 42 7 86 7 77 0 79 -1 73 -22z m72 0 c20 -20 14 -75
-10 -98 -37 -35 -48 -26 -48 38 0 32 3 62 7 65 10 11 38 8 51 -5z m119 -115
c-3 -10 -5 -4 -5 12 0 17 2 24 5 18 2 -7 2 -21 0 -30z m-174 -67 c8 -19 30
-42 46 -52 17 -10 30 -23 28 -29 -8 -22 -93 -44 -177 -44 l-85 -1 5 62 5 63
51 7 c28 4 61 12 75 17 35 14 34 14 52 -23z m147 -56 c0 -5 -5 -10 -11 -10 -5
0 -7 5 -4 10 3 6 8 10 11 10 2 0 4 -4 4 -10z"/>
<path d="M18125 8921 c-69 -29 -74 -119 -13 -218 l36 -58 -39 -42 c-34 -38
-39 -48 -39 -92 0 -40 4 -53 22 -65 26 -18 119 -22 149 -6 32 18 24 69 -21
139 -34 53 -39 65 -28 78 11 14 10 15 -7 9 -31 -9 -87 87 -93 159 -6 73 13 85
128 85 96 0 110 -7 110 -58 0 -19 4 -31 10 -27 17 10 11 71 -8 88 -14 13 -38
17 -103 16 -46 0 -93 -4 -104 -8z m86 -366 c16 -27 29 -62 29 -77 0 -27 -2
-28 -56 -28 -78 0 -94 11 -94 65 0 35 6 51 31 80 37 42 45 38 90 -40z"/>
<path d="M18493 8683 c-18 -2 -33 -9 -33 -15 0 -5 7 -7 16 -4 9 3 54 6 100 6
49 0 84 4 84 10 0 10 -98 11 -167 3z"/>
<path d="M18434 8589 c-6 -10 52 -19 122 -19 103 0 85 18 -22 22 -53 2 -98 0
-100 -3z"/>
<path d="M18825 8590 c-4 -7 143 -10 434 -10 282 0 442 4 446 10 4 7 -143 10
-434 10 -282 0 -442 -4 -446 -10z"/>
<path d="M19676 8514 c-64 -17 -189 -19 -249 -4 -80 21 -340 -3 -384 -36 -70
-51 -113 -170 -113 -310 0 -86 10 -117 53 -163 41 -43 84 -61 146 -61 42 0 56
5 86 31 19 17 35 36 35 42 0 6 -15 -3 -33 -21 -29 -28 -40 -32 -86 -32 -58 0
-82 9 -124 49 -47 43 -57 73 -57 163 0 174 57 290 153 313 21 6 26 4 22 -7 -5
-13 0 -14 37 -4 24 6 48 15 55 19 27 17 233 6 233 -12 0 -11 -55 -50 -87 -62
-19 -7 -23 -13 -15 -18 10 -6 9 -11 -3 -21 -9 -8 -23 -27 -32 -44 l-16 -31
-16 25 c-26 41 -59 70 -78 70 -14 -1 -12 -5 10 -21 34 -26 81 -104 74 -123 -4
-10 -27 -15 -76 -18 -39 -1 -71 -2 -71 -1 0 1 7 37 15 80 17 89 19 121 6 108
-7 -8 -51 -230 -51 -258 0 -4 -7 -7 -15 -7 -17 0 -20 -26 -4 -36 6 -3 8 -17 5
-30 -6 -23 3 -32 18 -17 14 15 256 2 294 -15 30 -13 70 -17 197 -17 145 0 165
2 210 23 60 28 98 62 133 121 21 36 25 56 26 120 1 55 -4 85 -17 108 -52 97
-153 132 -281 97z m167 -18 c62 -26 117 -111 117 -183 0 -60 -23 -124 -61
-166 -46 -54 -99 -77 -193 -84 l-70 -6 35 32 c35 33 25 32 -23 -2 -26 -19 -49
-20 -106 -2 -18 6 -21 4 -16 -9 7 -19 1 -19 -66 -5 -46 10 -70 29 -36 29 8 0
39 13 69 29 49 26 61 28 126 23 59 -4 75 -2 91 13 11 10 20 25 19 34 0 12 -4
10 -16 -6 -13 -19 -25 -23 -73 -23 -31 0 -60 3 -63 6 -4 4 2 19 12 33 11 14
21 37 22 51 4 23 10 26 73 35 38 6 71 15 73 22 3 8 -6 9 -34 2 -21 -5 -52 -9
-69 -9 -29 0 -33 4 -43 43 -7 23 -15 48 -17 55 -3 6 1 12 10 12 9 0 16 5 16
10 0 6 -12 10 -26 10 -27 0 -78 33 -67 44 11 10 81 7 85 -5 2 -7 12 -7 31 0
24 10 32 7 67 -26 49 -44 66 -36 22 10 -18 18 -29 36 -26 40 12 12 103 8 137
-7z m-331 -40 c25 -19 12 -26 -46 -26 l-51 0 25 20 c29 23 48 24 72 6z m46
-45 c15 -9 43 -82 35 -93 -2 -5 -24 -8 -48 -8 -24 0 -47 -4 -50 -10 -4 -6 15
-10 50 -10 55 0 55 0 49 -27 -10 -42 -32 -73 -53 -73 -11 0 -31 14 -45 31 -43
50 -30 158 21 188 22 13 25 13 41 2z m-68 -7 c0 -3 -9 -17 -20 -31 -11 -14
-20 -36 -20 -48 0 -13 -7 -25 -15 -29 -8 -3 -15 -12 -15 -19 0 -14 -40 -27
-81 -27 -42 0 -28 77 24 133 22 22 34 27 77 27 27 0 50 -3 50 -6z m5 -210 l36
-32 -47 -23 c-26 -12 -66 -23 -88 -23 -34 -1 -43 4 -63 33 -13 19 -23 43 -23
55 0 16 6 12 27 -19 14 -22 27 -42 29 -44 1 -1 7 0 13 4 7 4 2 18 -14 39 -14
18 -25 35 -25 38 0 3 21 11 46 17 34 9 48 18 52 34 5 19 7 17 13 -13 5 -22 21
-47 44 -66z m-205 2 c0 -13 11 -40 25 -60 l24 -36 -92 0 c-81 0 -95 3 -110 20
-16 19 -16 39 -1 88 2 8 27 12 79 12 72 0 75 -1 75 -24z"/>
<path d="M13300 7496 c0 -261 -3 -345 -12 -348 -10 -4 -10 -13 0 -45 7 -23 12
-98 12 -172 l0 -131 -25 0 c-14 0 -42 -7 -62 -15 -48 -20 -577 -22 -590 -2 -4
6 -7 88 -6 181 2 108 -1 166 -7 160 -6 -6 -10 -84 -11 -174 -1 -111 -5 -167
-13 -172 -13 -9 -577 -11 -599 -2 -10 3 -24 41 -38 100 -13 52 -27 94 -31 94
-12 0 -9 -28 12 -110 15 -57 16 -76 7 -82 -14 -9 -6898 -11 -6921 -2 -13 5
-16 25 -16 112 0 58 -3 102 -8 98 -4 -4 -9 -53 -12 -109 l-5 -102 -260 -3
c-237 -2 -266 -1 -327 18 -36 11 -94 20 -129 20 -34 0 -78 6 -97 12 -31 12
-39 10 -95 -20 -58 -30 -69 -33 -158 -32 -65 0 -100 4 -106 13 -5 6 -17 41
-27 77 -9 36 -29 91 -43 123 -20 44 -29 55 -39 46 -10 -8 -8 -17 10 -43 26
-39 69 -168 64 -194 -3 -15 -25 -17 -248 -20 -135 -2 -264 0 -288 3 l-42 6 2
302 3 302 2473 3 2472 2 0 -215 c0 -134 4 -215 10 -215 6 0 11 82 12 213 l3
212 2340 0 2340 0 3 -35 c6 -65 84 -120 172 -120 27 0 50 5 50 10 0 6 -20 10
-44 10 -86 0 -156 48 -156 107 l0 33 167 2 c157 3 166 4 169 23 4 27 -33 83
-66 100 -18 9 -56 15 -97 15 -82 0 -135 -26 -172 -83 l-24 -37 -2344 0 -2343
0 0 91 c0 57 -4 88 -10 84 -5 -3 -10 -44 -10 -91 l0 -84 -2475 0 -2475 0 0
160 c0 100 -4 160 -10 160 -6 0 -10 -59 -10 -158 0 -110 -4 -162 -12 -170 -9
-9 -9 -12 0 -12 9 0 12 -74 12 -305 0 -204 -3 -305 -10 -305 -6 0 -22 7 -36
16 -24 16 -26 16 -40 -5 -9 -12 -27 -22 -42 -22 -27 -1 -27 -1 3 -8 20 -5 28
-12 26 -22 -3 -8 -5 -32 -5 -54 -1 -42 16 -57 77 -70 l27 -5 0 -456 c0 -301 3
-453 10 -449 6 4 10 167 10 455 0 443 0 449 21 460 17 10 26 6 62 -26 103 -92
427 -407 427 -416 0 -5 -13 -28 -28 -51 -55 -81 -38 -75 25 9 l21 29 199 -195
c109 -107 312 -308 451 -445 l252 -250 -48 -86 c-27 -47 -59 -104 -72 -125
-16 -26 -19 -35 -7 -26 9 8 44 61 78 119 l61 105 91 -89 c250 -241 927 -910
927 -915 0 -4 -16 -2 -36 4 -23 6 -40 6 -46 0 -6 -6 8 -14 37 -21 26 -6 57
-22 70 -35 51 -51 42 -189 -16 -271 -60 -83 -192 -167 -286 -181 -24 -3 -43
-10 -43 -16 0 -11 61 -1 115 20 64 25 136 75 191 134 77 81 88 108 89 209 l0
86 196 -191 c108 -105 663 -650 1233 -1211 l1036 -1020 0 -167 c0 -106 -4
-168 -10 -168 -6 0 -10 60 -10 160 0 100 -4 160 -10 160 -6 0 -10 -60 -10
-160 l0 -160 -93 0 c-59 0 -97 4 -105 12 -9 9 -12 9 -12 0 0 -8 -18 -12 -52
-12 -45 0 -57 4 -84 31 -17 17 -34 26 -38 21 -3 -5 3 -17 14 -27 11 -10 20
-27 20 -37 0 -11 4 -17 8 -14 11 7 41 -26 127 -139 38 -49 98 -121 134 -158
l66 -68 -18 -31 c-22 -38 -14 -49 12 -17 l20 24 1 -207 0 -208 -44 0 c-33 0
-52 -7 -74 -25 -25 -21 -40 -25 -95 -25 -36 0 -69 -4 -72 -10 -3 -5 3 -10 14
-10 28 0 121 -89 202 -194 97 -125 106 -128 129 -54 31 104 113 228 149 228
10 0 45 -13 77 -30 32 -16 69 -30 82 -30 22 0 22 -2 22 -121 0 -92 3 -120 13
-116 9 3 12 36 12 118 l0 113 55 8 c76 11 119 26 158 55 26 20 32 31 32 63 0
29 -6 43 -25 58 -36 28 -127 36 -193 17 -49 -15 -157 -73 -150 -80 2 -2 37 13
78 33 65 33 83 37 145 37 95 -1 127 -20 123 -73 -3 -33 -8 -40 -49 -60 -26
-13 -74 -25 -112 -29 l-67 -6 0 37 c0 21 5 46 10 57 8 13 7 19 0 19 -14 0 -30
-44 -30 -81 0 -37 -17 -38 -92 -2 -62 31 -68 38 -38 46 25 6 27 36 3 36 -10 0
-69 6 -130 12 l-113 13 0 210 c0 119 5 218 10 226 8 12 10 9 10 -13 0 -19 4
-27 13 -24 8 3 11 22 9 64 -3 48 1 70 20 107 l24 48 31 -64 c18 -35 35 -78 38
-96 4 -18 15 -37 25 -42 10 -6 62 -10 114 -10 l96 0 0 -26 c0 -14 4 -23 10
-19 6 3 10 17 10 30 0 19 9 26 53 40 104 34 191 104 223 181 17 39 19 151 3
191 -26 70 -126 122 -208 109 -25 -4 -54 1 -91 15 -37 14 -65 18 -90 14 -49
-9 -115 -49 -146 -90 -20 -27 -34 -35 -58 -35 -56 0 -57 3 -54 161 3 128 5
144 20 141 9 -1 18 5 20 15 2 10 476 486 1053 1058 578 572 1515 1501 2083
2063 l1033 1024 122 -124 c116 -117 322 -298 340 -298 19 0 -2 22 -83 90 -47
39 -147 133 -223 208 l-137 137 152 152 153 153 33 -65 c18 -36 37 -65 42 -65
14 0 13 4 -20 70 -16 33 -30 65 -30 72 0 7 96 109 213 227 116 117 205 210
197 206 -9 -5 -12 -4 -7 1 5 5 12 9 15 10 40 7 74 19 83 30 6 8 15 14 20 14 5
0 9 -73 9 -162 l0 -161 -25 23 c-38 35 -42 16 -6 -28 l31 -40 0 -312 c0 -205
3 -309 10 -305 6 4 10 116 10 302 l0 296 48 -44 c26 -25 80 -71 120 -103 40
-32 77 -66 82 -75 8 -14 9 -14 16 2 3 10 5 19 3 21 -40 29 -177 143 -216 180
l-53 49 0 166 0 166 121 -120 c134 -134 146 -149 128 -171 -9 -11 -8 -14 3
-14 26 0 38 21 26 44 -6 12 -71 82 -145 158 -107 108 -134 141 -131 160 3 22
6 23 103 23 l100 0 22 -44 c16 -32 24 -40 28 -28 4 8 2 24 -4 36 -18 33 -13
41 27 42 l37 2 -44 7 c-26 4 -51 15 -60 27 -9 11 -46 58 -82 105 -37 46 -81
106 -98 133 l-31 49 0 378 c0 245 -4 378 -10 378 -6 0 -10 -121 -10 -344z
m-163 -3 c21 -14 53 -61 53 -78 0 -3 -72 -5 -160 -5 -88 0 -160 4 -160 9 0 14
40 60 63 73 58 31 157 31 204 1z m293 -602 c60 -77 78 -106 68 -112 -20 -13
-152 -11 -166 3 -8 8 -12 51 -11 133 0 106 2 118 14 100 8 -11 51 -67 95 -124z
m-9280 -89 c0 -5 -11 -14 -25 -20 -51 -23 -91 -8 -42 16 27 13 67 15 67 4z
m168 -12 c13 0 20 -4 17 -10 -7 -11 -84 -14 -109 -4 -29 11 -4 26 33 20 20 -3
46 -6 59 -6z m-537 -51 c8 -15 10 -72 7 -183 -4 -129 -10 -174 -27 -228 -12
-38 -24 -68 -27 -68 -7 0 -290 227 -391 314 -79 68 -81 70 -66 93 13 19 13 29
5 48 -7 14 -16 25 -22 25 -5 0 -10 5 -10 10 0 6 93 10 260 10 255 0 259 0 271
-21z m219 12 c0 -5 -6 -14 -14 -20 -55 -46 -85 -264 -52 -389 21 -81 36 -103
96 -136 42 -23 66 -28 152 -33 90 -4 110 -2 160 16 71 27 145 93 178 157 22
42 25 62 25 144 -1 82 -5 103 -29 157 -16 34 -37 70 -47 79 -11 9 -19 21 -19
26 0 4 120 8 266 8 l267 0 -7 -122 c-16 -281 -57 -546 -122 -772 -44 -157
-128 -386 -141 -386 -4 0 -861 680 -940 746 l-23 19 27 80 c25 73 27 95 30
255 1 96 3 176 3 178 0 7 190 1 190 -7z m75 -11 c-10 -11 -14 -20 -8 -20 5 0
18 9 28 20 27 30 90 27 111 -5 19 -29 35 -25 27 6 -6 21 -3 21 87 18 l92 -4
39 -43 c53 -61 74 -127 74 -237 -1 -101 -13 -135 -74 -198 -57 -60 -104 -81
-186 -81 -194 1 -258 23 -297 103 -20 41 -23 61 -23 176 0 98 4 142 18 180 23
67 59 105 99 105 30 0 31 0 13 -20z m4105 -94 c0 -155 19 -162 22 -9 l3 118
1875 0 1875 0 41 -121 c23 -67 60 -162 81 -211 43 -96 156 -291 225 -386 24
-34 38 -61 32 -66 -70 -64 -2186 -1811 -2193 -1811 -6 0 -33 14 -61 31 -27 17
-55 27 -61 24 -6 -4 10 -19 39 -36 58 -33 70 -47 47 -55 -11 -5 -29 6 -53 29
-30 29 -40 34 -56 25 -16 -9 -17 -7 -11 13 7 21 6 22 -7 11 -17 -13 -34 -72
-41 -139 -5 -44 7 -59 18 -23 7 23 18 25 33 7 9 -10 -172 -165 -814 -698
l-825 -684 -47 3 c-26 2 -59 8 -74 14 l-28 10 0 1812 c0 1173 -4 1806 -10
1796 -6 -10 -10 -664 -10 -1797 0 -981 -2 -1783 -5 -1783 -3 0 -326 256 -718
568 -391 312 -1157 923 -1702 1356 -544 434 -998 796 -1008 805 -16 16 -15 22
23 116 121 297 194 634 220 1010 6 88 13 166 15 173 4 9 330 12 1590 12 l1585
0 0 -114z m4436 -1 c12 -60 40 -165 62 -233 l40 -122 -169 -141 c-94 -77 -175
-142 -182 -144 -26 -10 -193 255 -269 427 -55 123 -119 308 -112 320 3 5 141
7 307 6 l301 -3 22 -110z m550 89 c-10 -14 -16 -38 -14 -53 3 -26 -16 -44
-205 -201 -115 -95 -210 -171 -211 -169 -2 2 -22 60 -44 129 -43 131 -77 293
-67 310 4 6 108 10 282 10 l275 0 -16 -26z m-9896 -44 c0 -10 -4 -22 -10 -25
-6 -4 -10 7 -10 25 0 18 4 29 10 25 6 -3 10 -15 10 -25z m-137 13 c-7 -2 -19
-2 -25 0 -7 3 -2 5 12 5 14 0 19 -2 13 -5z m10137 3 c0 -3 -4 -8 -10 -11 -5
-3 -10 -1 -10 4 0 6 5 11 10 11 6 0 10 -2 10 -4z m-10107 -33 c-7 -2 -21 -2
-30 0 -10 3 -4 5 12 5 17 0 24 -2 18 -5z m9805 -232 c-111 -110 -206 -196
-210 -193 -28 28 -10 49 192 219 113 94 209 172 213 172 5 1 -83 -89 -195
-198z m-9254 -204 c6 -9 7 -19 3 -24 -4 -4 -47 33 -95 82 l-87 88 84 -65 c47
-35 89 -72 95 -81z m9021 6 c6 -24 -8 -41 -147 -180 l-153 -154 -33 37 c-18
21 -29 41 -25 45 29 27 339 279 344 279 4 0 10 -12 14 -27z m-8502 -412 c257
-205 467 -376 467 -381 0 -14 -58 -137 -67 -143 -4 -2 -210 194 -457 438 -350
344 -448 446 -442 460 4 12 10 14 19 8 6 -6 222 -178 480 -382z m8174 62 c-1
-6 -294 -301 -652 -654 -357 -354 -1293 -1280 -2079 -2059 -786 -778 -1434
-1416 -1441 -1418 -20 -5 -25 34 -25 218 l0 174 26 21 c36 28 36 72 0 100
l-27 21 3 129 3 129 32 8 c20 5 56 32 90 67 48 49 1621 1360 1661 1385 8 4 25
-3 45 -20 62 -52 149 -78 185 -55 18 11 42 59 42 82 0 19 -85 109 -102 109 -4
0 -8 6 -7 13 0 6 494 421 1096 920 l1096 908 28 -33 c16 -18 27 -38 26 -45z
m-5931 -1850 c1134 -905 1684 -1349 1672 -1351 -23 -4 -44 -36 -53 -81 -9 -40
3 -51 58 -51 l37 0 -1 -137 c-1 -76 -4 -129 -6 -118 -8 33 -25 46 -55 43 -17
-2 -33 3 -38 12 -9 13 -11 13 -20 0 -5 -8 -10 -21 -10 -28 0 -7 -4 -10 -10 -7
-15 9 -12 75 3 75 7 0 22 7 33 16 18 14 18 15 1 10 -60 -19 -60 -19 -109 47
-96 131 -89 165 31 141 40 -8 39 -22 -3 -39 -63 -27 -52 -45 27 -45 31 0 38 3
27 10 -8 5 -26 10 -40 10 -24 0 -24 1 8 20 43 26 41 47 -5 59 -55 16 -88 13
-113 -7 -31 -25 -21 -62 41 -147 27 -38 46 -71 42 -75 -4 -4 -28 -15 -53 -24
-66 -26 -112 -63 -108 -89 3 -20 10 -22 71 -25 47 -2 78 2 99 13 17 8 33 15
35 15 1 0 3 -30 3 -67 l0 -68 75 3 75 4 0 -184 0 -183 -167 166 c-157 154
-498 490 -2038 2004 -336 329 -752 739 -925 910 -173 172 -336 331 -362 355
-27 24 -48 49 -48 57 0 7 16 45 35 84 l36 70 32 -25 c18 -14 793 -632 1723
-1373z m3563 24 c-16 -13 -25 -15 -35 -6 -8 6 -14 16 -14 21 0 6 6 5 15 -2 8
-6 19 -9 25 -5 8 5 4 12 -9 22 -12 8 -21 21 -21 30 0 13 8 9 31 -13 l30 -29
-22 -18z m163 0 c28 -36 38 -60 25 -64 -18 -7 -26 -2 -20 13 3 10 -10 30 -40
59 -25 24 -43 46 -40 49 8 8 45 -20 75 -57z m-109 -20 c14 -21 76 -58 120 -71
29 -9 19 -26 -16 -26 -38 0 -125 41 -153 71 -18 20 -18 21 1 35 25 19 30 18
48 -9z m-1773 -1401 c0 -3 -4 -8 -10 -11 -5 -3 -10 -1 -10 4 0 6 5 11 10 11 6
0 10 -2 10 -4z m-74 -34 c-22 -5 -30 3 -21 18 5 8 11 7 22 -2 15 -12 14 -13
-1 -16z m-129 -24 c-3 -8 -6 -5 -6 6 -1 11 2 17 5 13 3 -3 4 -12 1 -19z m64
-6 c-7 -2 -18 1 -23 6 -8 8 -4 9 13 5 13 -4 18 -8 10 -11z m66 2 c-3 -3 -12
-4 -19 -1 -8 3 -5 6 6 6 11 1 17 -2 13 -5z m-227 -218 c0 -8 3 -21 6 -29 3 -9
-4 -25 -15 -36 -17 -17 -33 -21 -92 -21 -62 0 -70 2 -67 18 3 18 119 82 150
82 10 0 18 -6 18 -14z m138 -57 c4 -21 -35 -32 -42 -12 -11 27 -6 34 16 31 13
-2 24 -10 26 -19z m-58 -29 c9 -21 19 -30 36 -30 12 0 26 5 29 10 14 23 25 7
25 -35 l0 -45 -49 0 c-69 0 -81 7 -81 45 0 46 11 96 20 90 4 -2 13 -18 20 -35z
m140 -61 c0 -19 -5 -29 -15 -29 -15 0 -22 50 -9 63 12 12 24 -4 24 -34z m313
-708 c5 -5 -13 -16 -42 -26 -28 -9 -53 -21 -56 -26 -8 -12 -7 -12 61 12 35 12
71 18 88 15 16 -4 35 -1 42 5 19 15 91 4 132 -21 53 -32 72 -74 72 -158 0 -89
-20 -132 -85 -190 -39 -34 -142 -82 -177 -82 -4 0 -8 35 -8 79 l0 78 54 6 c62
6 134 35 165 66 45 45 19 131 -52 168 -38 19 -177 21 -231 3 -46 -15 -56 -33
-43 -81 14 -56 29 -48 21 10 l-6 50 38 7 c22 4 71 8 109 8 112 0 170 -43 163
-121 -3 -34 -8 -40 -50 -61 -26 -13 -75 -26 -108 -29 l-60 -6 0 50 c0 28 -3
66 -7 84 -7 27 -9 18 -13 -51 l-5 -85 -41 -3 c-49 -4 -94 12 -94 33 0 8 -4 15
-10 15 -15 0 -12 -36 5 -50 8 -7 44 -15 80 -18 l65 -5 0 -67 c0 -87 -10 -97
-81 -80 -56 14 -130 64 -139 95 -3 11 -12 20 -20 20 -9 0 -21 18 -29 44 -14
43 -13 47 14 98 23 44 33 54 61 59 34 6 62 29 51 41 -4 3 -27 11 -53 18 l-46
11 28 34 c40 47 98 72 154 65 24 -3 48 -9 53 -14z m-610 -125 c18 -27 86 -46
162 -46 l45 0 0 -142 0 -142 -41 39 c-40 39 -101 112 -208 248 l-53 67 40 0
c31 0 43 -5 55 -24z m207 -1 c0 -24 -3 -25 -52 -24 -62 1 -130 19 -136 37 -3
9 20 12 92 12 96 0 96 0 96 -25z m40 0 c0 -14 -4 -25 -10 -25 -5 0 -10 11 -10
25 0 14 5 25 10 25 6 0 10 -11 10 -25z m89 9 c11 -10 -12 -34 -33 -34 -28 0
-40 14 -32 36 4 10 13 13 33 8 16 -4 30 -8 32 -10z m59 -6 c-7 -19 -38 -22
-38 -4 0 10 9 16 21 16 12 0 19 -5 17 -12z m42 -8 c-19 -13 -30 -13 -30 0 0 6
10 10 23 10 18 0 19 -2 7 -10z m-118 -76 c-3 -43 -30 -114 -44 -114 -4 0 -8
33 -8 74 0 63 3 75 18 79 31 8 37 1 34 -39z m48 38 c0 -5 -7 -17 -15 -28 -15
-19 -20 -8 -9 20 6 17 24 22 24 8z m-120 -104 c0 -57 -5 -110 -10 -118 -7 -10
-10 23 -10 103 0 71 4 117 10 117 6 0 10 -41 10 -102z m201 -183 l44 -25 -32
0 c-30 0 -63 21 -63 41 0 13 3 12 51 -16z m-241 -490 c0 -12 -13 -15 -61 -15
-54 0 -60 2 -49 15 8 10 30 15 61 15 37 0 49 -4 49 -15z m213 -5 c15 -6 -13
-9 -85 -9 -94 -1 -108 1 -108 15 0 15 10 16 86 10 47 -4 95 -11 107 -16z
m-213 -152 c0 -67 -4 -118 -8 -113 -5 6 -26 33 -47 60 -21 28 -66 78 -99 113
l-60 62 107 0 107 0 0 -122z m152 77 c-22 -25 -59 -82 -82 -125 -22 -44 -43
-80 -46 -80 -2 0 -4 56 -4 125 l0 125 86 0 86 0 -40 -45z"/>
<path d="M4224 6658 c-4 -6 -10 -50 -13 -97 -6 -79 -8 -86 -28 -89 -13 -2 -23
-7 -23 -12 0 -5 10 -10 23 -12 20 -3 23 -10 28 -70 3 -42 12 -75 22 -86 15
-17 15 -20 -9 -55 -13 -20 -21 -37 -17 -37 4 0 19 17 33 38 13 20 37 50 53 66
16 17 37 47 48 68 26 51 26 155 0 207 -23 43 -46 65 -60 57 -6 -4 -15 3 -21
14 -12 23 -25 26 -36 8z m46 -103 c5 3 7 20 3 37 -5 24 -3 30 8 26 22 -7 59
-79 59 -115 l0 -33 -55 0 -55 0 0 73 c0 85 11 108 23 48 5 -23 12 -39 17 -36z
m67 -141 c-7 -45 -52 -114 -72 -114 -21 0 -35 41 -35 101 l0 49 56 0 57 0 -6
-36z"/>
<path d="M5170 6414 c-104 -45 -170 -173 -170 -331 0 -67 2 -74 35 -113 97
-116 250 -166 386 -127 132 39 193 136 174 282 -8 66 -66 160 -117 189 -18 11
-50 34 -70 52 -38 34 -120 64 -172 64 -17 -1 -47 -8 -66 -16z m173 -31 l37
-18 -76 3 c-100 5 -120 -13 -24 -21 80 -7 120 -26 120 -59 0 -11 7 -26 15 -32
19 -14 45 -107 45 -164 0 -36 -5 -49 -31 -72 -16 -16 -39 -32 -50 -35 -10 -4
-19 -11 -19 -16 0 -15 79 32 101 60 22 27 24 80 8 147 -6 25 -9 48 -5 51 3 4
22 -1 42 -10 102 -49 97 -261 -9 -326 -40 -24 -93 -39 -83 -22 5 8 0 8 -19 1
-37 -14 -38 -13 -18 18 l17 27 -30 -28 c-19 -17 -37 -25 -47 -22 -8 4 -38 33
-66 65 l-51 58 90 78 c50 43 90 82 90 87 0 5 -35 -21 -77 -59 -43 -37 -86 -75
-96 -83 -16 -13 -20 -12 -47 17 -22 24 -37 32 -63 32 -36 0 -47 -12 -47 -53
-1 -22 -1 -22 -15 -3 -22 29 -19 150 5 228 22 71 76 142 124 164 40 19 131 12
179 -13z m132 -93 c36 -22 58 -57 29 -46 -8 3 -22 6 -29 6 -18 0 -45 28 -45
46 0 19 7 18 45 -6z m-331 -279 l29 -30 -34 -20 c-41 -25 -56 -15 -66 42 -5
34 -4 37 19 37 14 0 36 -13 52 -29z m94 -99 c37 -43 41 -52 25 -52 -20 0 -46
23 -56 50 -3 11 -7 10 -14 -7 l-8 -23 -35 21 -34 21 29 24 c17 13 34 23 39 21
5 -2 29 -26 54 -55z"/>
<path d="M11778 6272 c-31 -65 -111 -160 -165 -193 l-36 -23 -38 43 c-21 23
-43 40 -49 36 -13 -8 -13 -56 0 -91 9 -23 14 -26 41 -20 26 5 40 -2 97 -48 95
-76 169 -119 190 -111 14 5 11 9 -15 20 -74 31 -223 150 -206 165 4 3 29 23
55 44 26 21 64 60 84 87 21 27 39 47 41 45 2 -1 -4 -22 -12 -45 -10 -31 -11
-41 -3 -39 19 7 68 188 51 188 -4 0 -20 -26 -35 -58z m-228 -224 c0 -4 -9 -8
-19 -8 -19 0 -31 18 -31 48 0 12 5 11 25 -8 14 -13 25 -27 25 -32z"/>
<path d="M10870 5143 c0 -16 -11 -59 -24 -96 -16 -44 -20 -64 -11 -57 16 13
55 124 55 157 0 13 -4 23 -10 23 -5 0 -10 -12 -10 -27z"/>
<path d="M6611 5067 c-17 -87 -20 -91 -60 -71 -25 13 -50 15 -105 11 -39 -2
-79 -8 -88 -12 -13 -5 -15 -2 -11 15 8 31 38 42 103 38 32 -1 62 0 66 5 4 4
-25 7 -63 7 -48 0 -73 4 -76 13 -4 10 -7 10 -18 0 -7 -7 -30 -13 -51 -13 -21
0 -38 -4 -38 -10 0 -5 16 -10 36 -10 29 0 35 -3 30 -16 -22 -56 -16 -80 12
-52 6 6 49 13 94 16 73 4 86 1 109 -17 20 -16 26 -28 25 -58 -1 -35 -4 -39
-46 -55 -27 -10 -74 -17 -117 -17 -79 -1 -103 12 -103 55 0 14 -4 22 -10 19
-17 -11 -11 -54 11 -76 19 -19 30 -21 103 -17 98 5 173 34 180 70 2 13 14 67
25 120 23 108 25 118 13 118 -5 0 -14 -28 -21 -63z"/>
<path d="M6227 5104 c-4 -4 -7 -53 -7 -108 0 -56 -5 -121 -11 -145 -5 -24 -7
-46 -4 -49 15 -16 25 25 33 142 9 122 6 176 -11 160z"/>
<path d="M10313 5098 c-6 -7 -13 -51 -16 -98 -3 -47 -13 -107 -22 -133 -17
-47 -14 -70 5 -51 16 16 61 294 47 294 -2 0 -9 -6 -14 -12z"/>
<path d="M8373 5068 c-12 -13 -37 -54 -57 -93 l-37 -70 7 59 c3 33 10 71 15
84 11 28 3 44 -11 22 -14 -23 -32 -143 -28 -191 l4 -44 52 107 c57 116 77 141
88 113 4 -9 4 -100 0 -201 l-7 -184 28 -11 c33 -13 242 -4 258 12 6 6 -27 7
-101 3 -61 -4 -123 -4 -138 0 l-27 7 7 178 c9 230 0 266 -53 209z"/>
<path d="M10440 5063 c-12 -15 -34 -31 -48 -34 -26 -7 -27 -7 -4 -14 12 -4 22
-11 22 -16 0 -5 45 -9 99 -9 135 0 181 -20 181 -79 0 -40 -36 -54 -158 -59
-116 -5 -152 8 -152 54 0 14 -4 22 -10 19 -19 -12 -10 -53 16 -74 23 -18 40
-21 118 -21 135 1 206 33 206 92 0 55 -47 82 -155 91 -35 3 -33 4 12 5 53 2
83 9 83 21 0 4 -45 3 -101 -2 -55 -5 -103 -7 -106 -3 -3 3 2 15 12 26 10 11
16 23 13 26 -3 3 -16 -8 -28 -23z"/>
<path d="M8540 2681 c-71 -18 -140 -50 -140 -63 0 -5 9 -4 19 2 36 19 40 12
40 -69 0 -76 -1 -79 -31 -101 -30 -22 -30 -24 -13 -36 13 -10 50 -14 119 -14
169 0 256 36 256 106 0 42 -47 91 -97 100 l-37 7 27 21 c15 12 27 32 27 44 0
20 -5 22 -52 21 -29 0 -82 -8 -118 -18z m150 -15 c0 -18 -70 -46 -115 -46 -18
0 -37 -4 -40 -10 -4 -6 16 -10 52 -10 114 0 187 -42 181 -104 -5 -50 -51 -69
-179 -74 -100 -4 -108 -3 -109 14 -2 53 0 207 3 210 10 10 119 33 160 33 34 1
47 -3 47 -13z m-234 -231 c-3 -9 -11 -13 -16 -10 -8 5 -7 11 1 21 14 18 24 11
15 -11z"/>
<path d="M5858 7773 c-14 -16 -40 -48 -57 -72 l-31 -44 0 44 c0 78 -14 81 -72
19 -46 -50 -50 -52 -44 -26 17 70 18 86 7 86 -11 0 -13 -7 -30 -105 -6 -33
-14 -72 -17 -87 -4 -18 -2 -28 5 -28 12 0 15 7 25 52 6 29 81 128 96 128 6 0
10 -31 10 -70 0 -38 4 -70 9 -70 5 0 21 24 34 53 14 28 39 68 55 87 l31 35 1
-61 c0 -33 -5 -86 -11 -118 -13 -64 -9 -74 23 -58 20 9 20 11 4 11 -15 1 -17
6 -11 29 11 47 18 222 8 222 -5 0 -21 -12 -35 -27z"/>
<path d="M10557 7724 c-19 -20 -43 -52 -53 -70 -10 -19 -22 -34 -26 -34 -4 0
-8 26 -10 57 -2 31 -8 58 -14 60 -6 2 -28 -21 -49 -52 -21 -30 -40 -55 -42
-55 -4 0 -1 19 14 90 4 19 3 22 -6 14 -14 -13 -51 -184 -39 -184 4 0 16 17 27
38 10 20 34 57 52 82 l33 45 8 -40 c4 -22 4 -66 1 -97 -4 -39 -2 -58 6 -58 6
0 13 12 16 28 8 38 52 121 86 162 l28 35 1 -55 c1 -133 29 -224 62 -204 5 3 2
11 -7 17 -18 14 -35 106 -35 195 0 34 -4 62 -9 62 -5 0 -25 -16 -44 -36z"/>
<path d="M18150 7693 c-55 -11 -151 -64 -192 -105 -60 -60 -99 -137 -105 -206
-5 -52 -2 -61 26 -100 39 -53 136 -117 209 -138 39 -12 82 -15 146 -12 105 5
158 27 203 83 20 25 43 39 83 51 75 22 144 58 168 89 19 23 25 25 110 25 122
0 130 18 10 22 l-93 3 -5 41 c-7 52 -38 94 -97 133 -44 30 -128 61 -162 61 -8
0 -33 12 -55 28 -35 24 -49 27 -130 29 -50 0 -102 -1 -116 -4z m210 -28 c23
-13 20 -14 -55 -15 -126 -2 -138 -18 -13 -19 120 -1 128 -5 149 -85 7 -24 14
-35 20 -29 6 6 4 25 -6 53 -8 24 -13 45 -10 48 15 15 168 -53 201 -89 15 -16
12 -18 -43 -24 -32 -4 -97 -20 -146 -36 -99 -33 -122 -36 -114 -15 3 8 9 31
13 52 10 55 -11 34 -26 -24 l-11 -49 -77 -17 c-103 -24 -178 -58 -187 -86 -15
-46 16 -106 80 -153 l40 -29 -40 6 c-91 16 -219 96 -250 156 -30 59 -11 149
50 232 68 93 169 137 310 137 60 0 98 -5 115 -14z m330 -227 c0 -23 -4 -28
-24 -28 -14 0 -28 -4 -31 -10 -3 -6 5 -10 19 -10 37 0 40 -15 6 -43 -50 -43
-170 -79 -334 -101 -35 -5 -38 -4 -32 17 4 12 14 53 23 90 15 58 20 68 38 65
11 -1 34 3 50 9 17 7 79 23 138 37 60 13 112 27 115 31 11 10 32 -27 32 -57z
m-380 -35 c0 -5 -4 -24 -9 -43 -6 -19 -15 -54 -21 -77 l-11 -43 -49 0 c-27 0
-60 4 -74 10 -16 6 -27 6 -31 0 -9 -15 40 -30 96 -30 53 0 58 -6 31 -40 -22
-27 -41 -23 -102 21 -45 33 -75 89 -66 125 6 24 51 45 147 69 65 15 89 18 89
8z m104 -193 c-42 -39 -105 -64 -148 -58 l-23 3 23 38 c22 33 29 37 67 38 23
1 56 5 72 9 51 13 51 11 9 -30z"/>
<path d="M19673 7671 c-33 -8 -118 -55 -127 -70 -3 -4 -33 6 -67 23 -50 25
-77 31 -148 34 -49 2 -105 -1 -131 -8 -63 -17 -145 -103 -196 -205 -38 -77
-39 -82 -39 -187 0 -73 -4 -108 -11 -108 -35 0 -41 -53 -10 -95 21 -29 30 -12
12 24 -9 16 -16 35 -16 41 0 17 40 11 70 -10 16 -12 54 -32 85 -45 49 -22 55
-28 55 -55 0 -69 -61 -180 -165 -298 -74 -85 -97 -132 -103 -213 -4 -59 -2
-68 19 -88 23 -21 77 -41 112 -41 29 0 10 17 -27 24 -19 4 -46 16 -60 27 -21
17 -26 29 -26 68 0 78 25 130 110 232 90 106 147 206 156 271 l6 45 104 10
c80 9 119 18 173 43 39 18 78 41 87 51 15 17 33 19 145 19 189 0 281 26 357
101 50 49 65 85 65 155 0 147 -131 255 -313 261 -47 1 -99 -2 -117 -6z m256
-45 c109 -56 154 -121 155 -224 0 -85 -34 -134 -126 -181 -58 -30 -78 -34
-165 -39 -94 -5 -97 -4 -83 13 14 17 13 18 -5 11 -38 -16 -63 -18 -84 -6 -12
6 -19 15 -17 19 3 4 70 11 149 14 79 3 151 9 161 13 20 8 18 35 -3 42 -9 3
-12 0 -8 -10 6 -18 -65 -28 -201 -28 -70 0 -83 2 -78 15 3 8 8 37 12 65 l7 50
97 0 c72 0 101 4 109 14 10 12 8 16 -11 21 -13 5 -24 3 -26 -4 -2 -7 -34 -11
-86 -11 l-83 0 -13 69 c-17 94 -13 101 56 101 49 0 55 -2 44 -15 -7 -8 -8 -15
-2 -15 5 0 15 7 22 15 7 8 21 15 31 15 10 0 21 5 24 10 3 6 0 10 -7 10 -10 0
-13 10 -10 36 l4 36 44 -6 c24 -3 66 -17 93 -30z m-570 14 c35 -6 85 -22 112
-35 l49 -25 -37 -67 c-33 -59 -37 -77 -41 -153 -5 -102 9 -140 64 -172 32 -19
34 -22 19 -38 -19 -21 -115 -65 -165 -75 -32 -7 -34 -6 -20 10 14 17 14 17
-17 2 -19 -10 -56 -17 -92 -17 -54 0 -62 3 -77 26 -22 32 -64 54 -106 54 -45
0 -58 11 -68 54 -25 112 41 288 145 386 37 35 38 35 19 5 l-19 -30 39 33 c39
34 69 39 74 12 1 -9 -10 -21 -27 -28 -32 -14 -74 -78 -94 -144 -11 -35 -15
-38 -49 -38 -20 0 -40 -4 -43 -10 -4 -6 10 -10 34 -10 38 0 40 -2 47 -37 12
-70 66 -109 162 -119 67 -7 120 6 148 38 l19 20 -40 -21 c-98 -52 -259 -1
-267 84 l-3 30 110 6 c61 4 120 7 131 8 12 0 32 10 45 22 l24 20 -25 -12 c-14
-7 -82 -14 -152 -17 -150 -5 -149 -7 -95 99 l32 64 60 -3 59 -3 -32 32 c-35
34 -39 45 -19 52 18 8 27 8 96 -3z m406 -20 c0 -24 -3 -25 -67 -28 -61 -3 -68
-1 -68 16 0 26 36 42 90 39 41 -2 45 -4 45 -27z m-164 -3 c-6 -8 -7 -18 -3
-22 4 -5 2 -5 -5 -1 -6 3 -14 2 -18 -4 -3 -5 -12 -10 -18 -10 -7 0 1 12 16 25
30 27 46 33 28 12z m-5 -244 c-3 -68 -11 -134 -18 -146 -6 -12 -10 -24 -9 -27
1 -3 -7 -6 -18 -8 -32 -5 -87 58 -94 108 -10 74 12 169 55 239 l21 34 35 -37
34 -38 -6 -125z m4 181 c0 -8 -4 -12 -10 -9 -5 3 -10 10 -10 16 0 5 5 9 10 9
6 0 10 -7 10 -16z m-490 -444 c14 -11 19 -20 12 -20 -15 0 -72 28 -72 35 0 12
37 3 60 -15z"/>
<path d="M3429 7354 c-34 -39 -86 -156 -103 -236 -4 -16 -15 -30 -29 -34 -21
-7 -21 -7 -2 -14 11 -4 22 -17 25 -29 l5 -21 37 25 c29 20 49 25 96 25 l60 0
7 -37 c8 -45 13 -55 25 -48 5 3 4 22 -2 42 -7 27 -7 38 1 41 16 5 14 22 -3 22
-9 0 -22 27 -36 73 -12 39 -29 86 -38 102 -9 17 -18 47 -21 69 -6 36 -7 37
-22 20z m56 -181 c8 -29 18 -59 21 -68 5 -13 -7 -15 -80 -15 -47 0 -86 4 -86
9 0 20 43 148 63 186 l20 40 23 -50 c13 -27 30 -73 39 -102z m-120 -113 c-3
-5 -10 -10 -16 -10 -5 0 -9 5 -9 10 0 6 7 10 16 10 8 0 12 -4 9 -10z"/>
<path d="M18670 7300 c0 -6 50 -10 129 -10 76 0 132 4 136 10 4 6 -42 10 -129
10 -84 0 -136 -4 -136 -10z"/>
<path d="M2657 7273 c-4 -6 44 -72 105 -149 126 -158 208 -278 208 -305 0 -22
18 -35 31 -22 18 18 -43 110 -245 369 -89 114 -92 118 -99 107z"/>
<path d="M16443 7260 c-96 -14 -146 -48 -167 -113 -10 -31 13 -8 28 27 20 47
79 66 234 73 l122 6 0 -25 c0 -35 -29 -69 -121 -139 -87 -66 -99 -82 -99 -130
0 -43 17 -26 22 21 3 29 13 42 68 85 36 27 84 69 108 92 37 35 43 47 40 75
l-3 33 -90 1 c-49 1 -113 -2 -142 -6z"/>
<path d="M18452 7094 c-90 -90 -171 -183 -206 -236 -33 -48 -61 -86 -63 -85
-12 13 -63 156 -63 178 0 29 -13 38 -25 19 -11 -17 68 -230 85 -230 5 0 25 27
46 61 68 113 207 272 337 388 27 24 46 46 42 49 -3 3 -72 -61 -153 -144z"/>
<path d="M19991 7107 c-90 -105 -254 -268 -262 -260 -16 18 -38 117 -28 129
11 14 -9 66 -22 58 -15 -9 -10 -72 13 -149 12 -41 25 -75 29 -75 9 0 244 243
297 308 24 28 40 52 35 52 -4 0 -32 -28 -62 -63z"/>
<path d="M15631 7046 c-60 -93 -62 -95 -95 -89 -20 3 -36 1 -40 -6 -5 -7 5
-11 28 -11 40 0 41 -3 25 -48 -17 -50 -6 -58 26 -16 17 22 21 33 10 24 -17
-14 -18 -13 -12 3 4 10 7 21 7 23 0 2 24 4 54 4 30 0 58 5 61 10 4 6 -13 10
-44 10 -34 0 -51 4 -51 13 0 6 21 43 47 80 l46 69 18 -24 c25 -31 69 -143 69
-173 0 -13 5 -27 10 -30 17 -11 11 61 -9 113 -21 52 -72 142 -82 142 -3 0 -33
-42 -68 -94z"/>
<path d="M16110 7033 c-76 -2 -139 -8 -145 -14 -7 -7 38 -9 145 -5 180 6 160
4 160 16 0 6 -6 9 -12 8 -7 -1 -74 -4 -148 -5z"/>
<path d="M16010 6910 c20 -13 237 -13 245 0 4 6 -41 10 -127 10 -90 0 -128 -3
-118 -10z"/>
<path d="M2760 6883 c0 -12 53 -77 161 -198 139 -156 166 -182 180 -168 7 7 2
15 -15 26 -24 16 -244 258 -288 317 -20 28 -38 39 -38 23z"/>
<path d="M16448 6725 c-6 -28 6 -34 16 -9 8 22 7 34 -3 34 -5 0 -11 -11 -13
-25z"/>
<path d="M2740 6652 c0 -4 55 -52 121 -107 127 -105 249 -228 249 -251 0 -8 4
-14 9 -14 57 0 -59 132 -263 299 -94 77 -116 91 -116 73z"/>
<path d="M2679 6361 c24 -44 127 -123 216 -166 52 -24 98 -52 104 -62 5 -10
13 -14 17 -10 17 17 -16 44 -108 88 -66 32 -115 66 -160 108 -68 63 -86 74
-69 42z"/>
<path d="M19340 6291 c-112 -35 -215 -123 -267 -228 -33 -67 -38 -86 -41 -167
-4 -80 -1 -98 17 -135 12 -23 19 -46 16 -51 -3 -6 -1 -10 6 -10 7 0 29 -11 48
-25 58 -39 150 -58 291 -59 157 -1 209 14 280 84 28 27 50 55 50 62 -1 7 -12
0 -25 -17 l-24 -30 -298 5 -298 5 -23 43 c-43 77 -29 223 31 325 58 98 177
176 283 185 86 7 126 -3 180 -44 25 -19 48 -33 51 -30 10 10 -20 37 -72 67
-42 24 -61 29 -115 28 -36 0 -76 -4 -90 -8z m316 -606 c-47 -38 -109 -50 -246
-49 -89 0 -142 6 -185 18 -128 38 -118 41 175 46 151 3 277 6 280 7 3 1 -8 -8
-24 -22z"/>
<path d="M19355 6168 c-56 -30 -59 -78 -10 -142 41 -54 41 -57 16 -80 -39 -36
-35 -100 8 -133 24 -18 130 -17 137 2 10 26 -4 60 -46 107 -43 50 -48 65 -25
74 8 4 15 10 15 15 0 5 -10 3 -23 -6 -22 -14 -25 -13 -49 13 -52 55 -64 113
-28 132 11 6 53 10 93 8 65 -3 72 -5 75 -25 2 -12 -9 -45 -23 -73 -15 -29 -21
-49 -15 -45 15 9 60 101 60 123 0 10 -5 23 -12 30 -15 15 -146 15 -173 0z m79
-249 c72 -79 70 -116 -4 -103 -39 7 -66 27 -75 55 -7 20 19 89 33 89 5 0 26
-18 46 -41z"/>
<path d="M17657 5983 c-12 -11 -8 -533 3 -533 6 0 10 97 10 270 0 149 -1 270
-3 270 -2 0 -7 -3 -10 -7z"/>
<path d="M17064 5845 c-6 -23 -11 -25 -59 -25 -30 0 -57 -4 -60 -10 -4 -6 16
-10 54 -10 33 0 62 -4 66 -9 3 -5 0 -64 -6 -132 -8 -93 -8 -123 1 -129 6 -4
10 -13 8 -21 -1 -8 2 -16 7 -19 6 -3 12 29 15 80 6 95 20 126 79 166 33 22 36
23 42 7 4 -10 4 -58 1 -108 -5 -83 -4 -89 11 -76 10 7 17 23 17 36 0 43 116
195 150 195 24 0 34 -38 37 -144 2 -61 6 -117 8 -123 5 -15 45 -18 45 -3 0 6
-7 10 -15 10 -20 0 -26 31 -23 130 2 47 0 97 -5 113 l-7 27 54 0 c30 0 58 5
61 10 4 7 -73 10 -224 10 l-231 0 0 25 c0 14 -4 25 -10 25 -5 0 -12 -11 -16
-25z m280 -70 c-17 -13 -48 -50 -70 -81 l-39 -57 -3 72 c-2 39 -7 71 -11 71
-15 0 -85 -51 -108 -79 l-22 -26 -1 63 0 62 143 0 142 0 -31 -25z"/>
<path d="M16341 5639 l-44 -81 -32 53 c-51 83 -60 93 -78 86 -23 -9 -24 -134
-1 -180 37 -73 65 -84 92 -37 9 16 19 30 22 30 3 0 18 -18 33 -40 20 -28 36
-40 53 -40 13 0 24 5 24 11 0 6 -6 9 -14 6 -15 -6 -86 76 -86 97 0 6 20 47 45
90 49 86 49 86 37 86 -5 0 -28 -37 -51 -81z m-101 -30 c41 -69 45 -91 21 -128
-24 -37 -71 55 -71 139 0 33 2 60 4 60 2 0 23 -32 46 -71z"/>
<path d="M15460 5674 c-44 -38 -60 -75 -60 -141 0 -61 15 -91 57 -112 29 -15
98 -14 111 2 8 9 -1 11 -42 9 -44 -3 -55 0 -80 23 -27 25 -28 30 -24 96 3 61
7 73 34 99 22 23 39 30 73 32 44 1 61 -10 61 -44 0 -10 5 -18 10 -18 13 0 13
36 0 61 -17 31 -99 27 -140 -7z"/>
<path d="M15915 5669 c-55 -13 -67 -29 -16 -22 36 5 42 3 50 -19 5 -13 23 -45
40 -70 17 -25 32 -56 33 -69 3 -23 0 -24 -66 -27 -66 -3 -126 11 -126 29 0 4
10 15 22 23 12 9 19 18 16 21 -3 3 -17 -4 -31 -16 l-27 -20 0 40 c0 31 -7 49
-31 76 -17 19 -40 35 -50 35 -16 0 -12 -8 21 -38 36 -35 40 -43 40 -89 0 -71
-38 -101 -91 -73 -47 26 -56 86 -22 153 19 37 10 46 -12 13 -29 -44 -37 -102
-20 -136 32 -62 85 -76 134 -35 29 25 31 25 60 10 19 -9 56 -15 101 -15 57 0
74 4 91 21 24 24 20 44 -27 114 -42 61 -43 75 -5 75 16 0 34 7 41 15 11 13 6
15 -36 14 -27 -1 -67 -5 -89 -10z"/>
<path d="M16670 5623 c-25 -3 -49 -9 -55 -15 -7 -7 9 -9 54 -4 35 3 79 6 97 6
19 0 34 5 34 10 0 10 -38 11 -130 3z"/>
<path d="M16599 5569 c-18 -11 30 -18 167 -25 94 -5 133 -4 138 5 5 8 -16 11
-76 12 -46 0 -113 3 -151 8 -37 4 -72 4 -78 0z"/>
<path d="M19338 5553 c-9 -23 -14 -109 -18 -320 0 -17 -6 -23 -22 -23 -50 0
-60 -28 -18 -50 15 -8 24 -6 38 8 14 14 46 22 137 31 66 6 121 14 124 16 12
13 -12 14 -90 5 -46 -5 -99 -10 -117 -10 l-33 0 4 163 c2 100 8 171 16 185 8
14 8 22 1 22 -6 0 -16 -12 -22 -27z m-28 -373 c0 -5 -2 -10 -4 -10 -3 0 -8 5
-11 10 -3 6 -1 10 4 10 6 0 11 -4 11 -10z"/>
<path d="M17118 5443 c72 -2 192 -2 265 0 72 1 13 3 -133 3 -146 0 -205 -2
-132 -3z"/>
<path d="M17270 5420 l-585 -5 578 -5 c504 -4 618 -2 597 12 -3 2 -268 1 -590
-2z"/>
<path d="M17827 5333 c-20 -19 -5 -79 33 -139 12 -20 10 -25 -29 -62 -34 -32
-42 -46 -39 -69 3 -28 4 -28 79 -31 58 -2 79 1 89 12 16 21 6 57 -26 96 l-27
31 27 28 c36 37 33 51 -4 16 -28 -27 -30 -28 -49 -11 -29 27 -47 76 -32 86 8
4 11 16 6 29 -6 21 -16 26 -28 14z m123 -264 c0 -13 -12 -18 -53 -23 -29 -4
-61 -4 -70 0 -27 10 -20 43 19 82 l37 37 33 -39 c19 -22 34 -47 34 -57z"/>
<path d="M17519 5238 c0 -7 0 -36 1 -64 l1 -51 -38 -6 c-21 -4 -54 -7 -73 -7
-19 0 -42 -5 -50 -11 -11 -7 11 -9 75 -7 l90 3 3 -57 c4 -76 22 -75 22 1 l0
58 46 7 c26 3 61 6 79 6 18 0 37 6 43 13 9 11 2 12 -41 6 -29 -4 -71 -8 -94
-8 l-43 -1 0 65 c0 37 -4 65 -10 65 -5 0 -10 -6 -11 -12z"/>
<path d="M16960 5200 c-14 -11 -19 -20 -12 -20 8 0 11 -7 8 -17 -3 -10 -8 -30
-12 -45 l-6 -28 38 16 c53 22 182 29 214 12 21 -11 25 -21 25 -58 0 -43 -1
-45 -39 -58 -25 -8 -78 -12 -140 -10 -93 3 -101 5 -112 25 -6 13 -14 20 -17
16 -11 -11 -8 -22 13 -43 17 -17 33 -20 113 -20 148 0 207 26 207 93 0 52 -22
75 -83 82 -48 6 -137 -4 -179 -20 -16 -6 -16 -4 -7 24 l11 31 93 0 c52 0 97 4
100 10 4 6 -28 10 -89 10 -52 0 -96 4 -98 10 -1 5 -14 0 -28 -10z"/>
<path d="M16802 5198 c-8 -8 -12 -48 -12 -115 0 -102 8 -124 30 -83 8 15 8 20
-1 20 -7 0 -10 29 -7 95 1 52 3 95 3 95 -1 0 -6 -5 -13 -12z"/>
<path d="M17958 4674 c-5 -4 -8 -111 -8 -238 0 -156 3 -227 10 -220 7 7 9 93
8 238 -2 125 -6 224 -10 220z"/>
<path d="M21396 4630 c-32 -10 -64 -24 -70 -31 -8 -9 -7 -10 7 -6 59 21 130
38 147 35 20 -3 20 -3 1 -35 -11 -17 -67 -69 -125 -116 -59 -46 -115 -96 -126
-110 -21 -27 -18 -66 4 -48 7 6 76 10 160 10 102 -1 151 3 162 12 20 17 26 7
14 -25 -7 -21 -7 -27 1 -24 15 5 37 77 45 152 5 39 3 57 -3 53 -6 -4 -13 -30
-16 -58 -8 -63 -18 -76 -70 -90 -45 -12 -287 -2 -287 12 0 4 53 50 118 103
118 94 147 125 154 162 4 27 -41 28 -116 4z"/>
<path d="M19964 4604 c-32 -91 -67 -175 -75 -179 -5 -4 -9 16 -9 45 0 34 -4
49 -11 45 -6 -4 -10 -36 -9 -73 1 -37 -1 -85 -6 -106 -5 -29 -4 -37 4 -32 7 4
12 15 13 24 1 26 29 -79 29 -110 0 -34 15 -36 31 -6 8 16 9 23 1 26 -6 2 -18
36 -27 76 l-16 74 29 58 c35 70 66 163 58 171 -3 3 -9 -3 -12 -13z"/>
<path d="M20176 4612 c-3 -5 -8 -60 -12 -124 l-7 -115 -86 -7 c-47 -3 -90 -11
-95 -16 -6 -6 25 -7 85 -3 l96 6 13 -77 c7 -42 16 -79 21 -81 17 -11 19 17 4
67 -25 85 -25 84 62 92 50 4 83 12 93 22 14 14 12 15 -15 7 -16 -4 -57 -8 -90
-8 l-60 0 3 123 c3 114 1 134 -12 114z"/>
<path d="M20450 4535 l-5 -90 -52 -10 c-73 -14 -77 -26 -7 -23 l59 3 6 -75 5
-75 2 72 c1 43 7 75 14 79 6 4 47 10 90 12 115 7 112 25 -3 21 l-94 -4 -5 90
-6 90 -4 -90z"/>
<path d="M21138 4584 c-5 -4 -8 -70 -8 -146 0 -104 3 -138 13 -138 9 0 11 28
9 112 -4 155 -6 181 -14 172z"/>
<path d="M17145 4532 c-86 -5 -95 -22 -12 -22 l67 0 0 -120 0 -120 -39 0 c-22
0 -43 -4 -46 -10 -4 -6 12 -10 40 -10 l47 0 -7 -50 c-5 -34 -3 -50 4 -50 6 0
11 -7 11 -15 0 -8 5 -15 10 -15 6 0 10 28 10 64 0 37 5 68 11 72 8 5 6 10 -5
16 -13 7 -16 28 -16 123 l0 115 334 0 c213 0 337 4 341 10 4 7 -108 10 -329
10 -184 0 -340 1 -348 3 -7 2 -40 1 -73 -1z"/>
<path d="M21718 4520 c-12 -28 -15 -241 -4 -237 6 2 14 26 18 53 6 43 14 56
61 100 52 49 95 68 124 57 20 -8 16 -111 -7 -178 -29 -84 -27 -138 6 -164 36
-28 116 -51 178 -51 87 0 87 17 0 21 -59 3 -92 11 -129 29 -48 24 -50 27 -53
71 -2 29 5 65 18 98 26 66 28 175 4 189 -36 20 -107 -12 -169 -78 l-30 -32 -5
69 c-3 37 -9 61 -12 53z"/>
<path d="M17560 4387 c-14 -7 -46 -41 -72 -75 l-47 -62 -7 38 c-10 58 -22 74
-52 70 -17 -2 -35 -15 -49 -37 -23 -34 -23 -34 -23 -7 0 14 -4 26 -9 26 -10 0
-21 -75 -21 -144 1 -47 2 -49 15 -32 8 11 15 34 15 50 0 35 30 105 51 123 8 7
20 8 28 4 15 -10 30 -72 31 -128 0 -24 3 -43 8 -43 4 0 15 22 24 48 31 87 107
172 142 159 28 -11 47 -55 60 -137 7 -47 19 -86 27 -91 16 -10 99 -12 123 -3
33 13 14 19 -45 16 -72 -5 -75 -2 -84 82 -10 81 -31 131 -61 145 -30 13 -24
13 -54 -2z"/>
<path d="M20755 4390 c-4 -6 45 -10 139 -10 86 0 147 4 151 10 4 6 -45 10
-139 10 -86 0 -147 -4 -151 -10z"/>
<path d="M16274 4373 c-68 -13 -90 -107 -41 -181 50 -76 167 -114 220 -72 22
18 27 29 27 66 l0 44 79 0 c44 0 83 5 86 10 4 6 -26 10 -83 10 l-88 0 -47 45
c-49 47 -85 62 -114 50 -14 -6 -12 -9 14 -15 35 -8 103 -55 103 -71 0 -5 -43
-9 -99 -9 l-99 0 -4 32 c-6 39 27 78 66 78 14 0 28 5 31 10 6 10 -11 11 -51 3z
m184 -186 c5 -64 -25 -80 -111 -56 -36 10 -107 69 -107 90 0 6 41 9 108 7
l107 -3 3 -38z"/>
<path d="M20845 4340 c-4 -6 31 -10 99 -10 59 0 108 4 111 10 4 6 -31 10 -99
10 -59 0 -108 -4 -111 -10z"/>
<path d="M12050 4294 c-11 -29 -12 -136 -1 -174 6 -21 0 -32 -36 -66 -32 -30
-43 -48 -43 -70 0 -42 16 -54 75 -54 78 0 88 18 58 109 l-16 52 34 29 c19 16
29 29 23 30 -6 0 -19 -9 -29 -20 -39 -43 -55 -18 -55 85 0 33 5 67 10 75 8 13
13 13 41 -3 40 -22 60 -10 22 14 -40 27 -71 24 -83 -7z m34 -264 c9 -22 16
-50 16 -61 0 -18 -5 -20 -52 -17 -51 3 -53 4 -56 34 -2 25 3 37 28 58 17 14
35 26 40 26 4 0 15 -18 24 -40z"/>
<path d="M15970 4313 c-56 -5 -79 -23 -29 -23 24 0 42 -7 55 -21 10 -12 37
-30 59 -41 50 -25 105 -66 105 -78 0 -13 -63 -28 -156 -36 -87 -7 -108 2 -83
34 11 13 8 12 -9 -2 -12 -11 -22 -26 -22 -34 0 -12 19 -13 113 -10 111 4 161
17 171 44 10 25 -4 40 -72 79 -105 60 -105 59 -17 65 50 3 80 10 83 18 4 12
-85 14 -198 5z"/>
<path d="M15536 4289 c-62 -48 -75 -137 -28 -181 15 -15 40 -32 55 -37 40 -15
137 -13 167 4 14 8 44 14 67 15 77 0 106 65 62 136 -11 19 -25 34 -30 34 -5 0
-9 7 -9 15 0 16 -27 20 -48 6 -9 -5 -33 -1 -63 10 -67 26 -139 25 -173 -2z
m149 -11 c43 -12 57 -29 34 -44 -12 -7 -4 -87 13 -118 14 -26 -5 -36 -74 -36
-104 0 -158 36 -158 106 0 64 37 104 96 104 24 0 64 -5 89 -12z m139 -45 c30
-30 41 -62 32 -98 -5 -21 -12 -25 -41 -25 -29 0 -33 3 -28 18 6 15 5 15 -10 4
-9 -8 -20 -11 -25 -8 -14 9 -23 96 -12 117 15 27 53 24 84 -8z"/>
<path d="M16835 4270 c-4 -6 32 -10 99 -10 64 0 106 4 106 10 0 6 -40 10 -99
10 -56 0 -103 -4 -106 -10z"/>
<path d="M11392 4183 c-39 -85 -63 -155 -47 -141 6 6 27 51 91 196 8 17 10 32
6 32 -5 0 -27 -39 -50 -87z"/>
<path d="M16716 4192 c-9 -14 34 -22 170 -29 77 -3 123 -2 127 4 4 6 -40 12
-121 16 -70 3 -137 9 -148 12 -12 4 -24 2 -28 -3z"/>
<path d="M11568 4134 c-5 -4 -8 -34 -8 -66 0 -57 0 -58 -29 -58 -39 0 -91 -11
-91 -19 0 -4 27 -5 60 -3 l60 4 0 -40 c0 -23 -5 -44 -10 -47 -8 -5 -7 -11 1
-21 19 -24 29 -5 29 55 l0 58 85 5 c47 2 90 9 95 14 7 7 -23 8 -85 6 l-94 -4
-3 62 c-2 34 -6 58 -10 54z"/>
<path d="M17015 4090 c-4 -7 178 -10 539 -10 357 0 546 3 546 10 0 7 -186 10
-539 10 -349 0 -542 -4 -546 -10z"/>
<path d="M10796 4028 c-2 -7 -11 -49 -19 -93 -9 -44 -19 -93 -23 -109 -5 -21
-3 -27 6 -24 7 2 21 44 32 94 10 49 21 101 24 117 6 27 -13 41 -20 15z"/>
<path d="M10925 4031 c-16 -3 -28 -8 -26 -11 2 -3 -6 -24 -18 -47 -35 -69 -32
-73 47 -56 85 18 181 14 195 -8 5 -9 7 -28 3 -42 -15 -63 -207 -63 -222 0 -4
15 -10 21 -16 15 -5 -5 -5 -19 1 -35 21 -54 171 -61 231 -10 34 28 40 72 13
99 -14 14 -30 16 -102 10 -48 -3 -101 -9 -120 -12 l-34 -7 24 44 24 44 113 3
c63 1 112 7 112 12 0 11 -176 12 -225 1z"/>
<path d="M17445 3951 c-3 -6 49 -11 132 -13 141 -3 171 0 137 13 -28 11 -262
11 -269 0z"/>
<path d="M17338 3934 c-5 -4 -8 -71 -8 -148 l1 -141 20 24 c12 15 16 27 10 31
-6 3 -12 58 -13 124 -2 65 -6 114 -10 110z"/>
<path d="M17486 3902 c-3 -5 -8 -28 -12 -50 -4 -23 -13 -47 -20 -53 -19 -16
-18 -74 3 -94 27 -27 60 -35 152 -35 74 0 93 3 115 21 36 29 37 89 0 126 -25
25 -29 26 -112 20 -48 -3 -95 -9 -106 -13 -17 -7 -18 -4 -12 39 7 44 4 58 -8
39z m224 -102 c23 -23 27 -82 8 -97 -22 -18 -80 -23 -151 -14 -80 11 -107 30
-107 77 0 30 3 34 38 39 20 4 42 8 47 10 6 2 40 4 78 4 54 1 71 -3 87 -19z"/>
<path d="M13676 3877 c-10 -21 -4 -323 7 -333 12 -13 24 9 30 54 4 36 3 41 -9
32 -11 -10 -14 10 -16 127 -2 87 -6 131 -12 120z"/>
<path d="M13797 3725 c-3 -99 -10 -161 -17 -170 -10 -12 -10 -18 0 -30 9 -11
31 -13 100 -10 133 6 170 31 170 119 0 35 -5 48 -22 60 -29 20 -127 21 -173 2
l-35 -15 0 100 c0 156 -16 116 -23 -56z m221 -47 c7 -7 12 -33 12 -60 0 -64
-22 -79 -127 -81 l-78 -2 0 65 c0 59 2 66 25 77 32 16 152 17 168 1z"/>
<path d="M5077 3730 c-3 -8 -11 -35 -17 -59 -7 -24 -23 -69 -36 -99 -13 -30
-22 -57 -19 -60 7 -7 7 -6 37 63 36 83 50 132 45 152 -3 15 -5 15 -10 3z"/>
<path d="M5579 3701 c-53 -54 -36 -135 41 -200 l33 -27 -36 -23 c-44 -27 -77
-67 -77 -92 0 -41 35 -59 114 -59 64 0 79 3 102 24 26 21 27 25 15 53 -7 17
-28 45 -46 63 l-34 33 42 38 c23 21 37 38 30 39 -7 0 -17 -8 -22 -19 -6 -10
-25 -24 -42 -31 -31 -13 -32 -13 -80 37 -42 44 -49 57 -49 91 0 24 7 49 19 63
l19 24 29 -27 c26 -25 53 -37 53 -23 0 8 -64 64 -73 65 -5 0 -22 -13 -38 -29z
m121 -267 c17 -15 38 -40 46 -56 24 -46 6 -58 -82 -58 -76 0 -104 13 -104 49
0 24 73 89 102 91 3 0 20 -12 38 -26z"/>
<path d="M13249 3721 c-55 -8 -77 -24 -96 -68 l-13 -32 -36 24 c-48 33 -128
37 -150 9 -6 -8 -16 -14 -21 -14 -5 0 -18 -9 -28 -20 -17 -19 -18 -19 -37 6
-29 36 -94 65 -158 71 -86 8 -125 -23 -84 -68 14 -15 13 -20 -5 -55 -27 -50
-26 -80 2 -98 58 -39 163 -27 230 25 24 20 37 25 37 16 0 -22 35 -48 77 -58
60 -14 131 0 168 32 32 29 33 29 71 13 27 -12 61 -15 125 -12 76 3 91 6 113
27 33 31 37 105 6 143 -37 48 -116 71 -201 59z m149 -43 c40 -25 52 -46 52
-97 0 -58 -23 -71 -130 -71 -105 0 -145 19 -156 75 -7 38 8 86 34 107 13 11
15 10 9 -4 -5 -15 -4 -16 13 -6 15 10 27 10 49 1 34 -12 46 -6 29 14 -10 12
-6 14 28 8 21 -4 54 -16 72 -27z m-607 -25 c95 -49 103 -117 19 -161 -37 -19
-56 -23 -103 -19 -32 3 -65 11 -73 18 -22 18 -11 64 27 117 17 23 26 42 20 42
-5 0 -13 -5 -16 -10 -5 -8 -11 -7 -21 1 -56 46 60 56 147 12z m291 -19 c58
-30 78 -103 37 -140 -29 -26 -143 -27 -181 -2 -54 36 -46 128 12 128 16 0 32
5 35 10 3 6 1 10 -5 10 -6 0 -8 5 -4 11 8 13 66 4 106 -17z"/>
<path d="M4626 3632 c-5 -8 -49 -198 -60 -262 -6 -32 -5 -34 10 -18 9 9 18 37
20 65 2 26 14 87 27 136 13 48 20 87 16 87 -4 0 -10 -4 -13 -8z"/>
<path d="M5278 3630 c-4 -8 -9 -40 -10 -70 l-3 -55 -47 -5 c-69 -8 -73 -23 -5
-18 l57 5 0 -65 c0 -46 3 -63 13 -59 8 2 12 24 12 63 l0 59 65 3 c95 4 101 22
7 22 l-76 0 -3 68 c-2 37 -6 60 -10 52z"/>
<path d="M12130 3620 c-7 -13 -21 -20 -39 -20 -16 0 -34 -6 -40 -14 -9 -11 -4
-12 29 -6 45 8 50 6 50 -25 0 -21 6 -22 102 -28 110 -7 150 -23 156 -65 5 -32
-34 -43 -168 -49 -120 -6 -138 -1 -153 39 -2 7 -8 10 -12 6 -5 -5 -3 -19 3
-32 15 -33 59 -41 178 -33 138 9 184 34 170 91 -9 38 -61 56 -163 56 -49 0
-93 3 -96 6 -3 4 -2 15 4 25 8 17 22 19 114 19 75 0 105 -3 105 -12 0 -9 3 -9
11 -1 25 25 -4 33 -112 33 -90 0 -109 3 -109 15 0 21 -17 19 -30 -5z"/>
<path d="M4724 3615 c-14 -26 -36 -116 -30 -122 2 -2 21 0 43 6 53 15 196 14
211 -1 7 -7 12 -29 12 -50 0 -50 -24 -60 -142 -61 -106 0 -143 17 -136 64 4
23 2 26 -9 18 -21 -18 -15 -56 13 -78 23 -18 41 -21 123 -21 71 0 105 5 131
18 32 15 35 22 38 64 4 69 -19 82 -141 76 -50 -3 -100 -8 -109 -12 -15 -7 -16
-4 -8 23 15 54 16 54 111 48 49 -3 89 -2 89 3 0 11 -113 23 -149 15 -23 -5
-30 -3 -33 12 -4 17 -5 17 -14 -2z"/>
<path d="M11233 3606 c-27 -12 -63 -59 -63 -81 0 -14 22 9 30 31 14 37 53 47
155 40 65 -4 97 -11 115 -25 60 -44 8 -81 -113 -79 -43 1 -72 -4 -80 -12 -10
-10 6 -11 78 -8 156 7 209 58 124 120 -34 24 -201 34 -246 14z"/>
<path d="M11254 3556 c-11 -29 -19 -236 -9 -233 5 2 13 46 16 98 3 52 10 106
14 122 7 28 -11 40 -21 13z"/>
<path d="M11808 3541 c-42 -3 -80 -10 -85 -15 -5 -5 31 -6 86 -2 52 3 119 7
150 7 l56 2 -45 8 c-49 8 -51 8 -162 0z"/>
<path d="M12470 3438 c0 -35 -3 -74 -6 -88 -5 -24 -5 -24 10 -6 18 23 23 156
6 156 -6 0 -10 -28 -10 -62z"/>
<path d="M11718 3438 c-16 -9 132 -21 207 -16 36 2 69 8 74 13 11 11 -264 14
-281 3z"/>
<path d="M14810 3299 c0 -131 -1 -141 -17 -134 -56 24 -175 14 -260 -21 -9 -4
-13 3 -13 20 0 24 3 26 44 26 25 0 48 5 51 10 4 6 -13 10 -43 10 l-50 0 -7 65
c-4 40 -11 63 -17 59 -6 -4 -7 -29 -3 -65 l7 -59 -64 0 -64 0 4 38 c5 42 -14
35 -20 -8 l-3 -25 -1710 -3 c-1119 -1 -1712 -5 -1719 -12 -7 -7 565 -10 1705
-10 l1716 0 -5 -79 c-7 -128 9 -158 58 -106 13 14 19 25 13 25 -6 0 -16 -7
-23 -15 -21 -25 -30 -6 -30 63 0 110 2 112 77 112 l64 0 -7 -99 -7 -99 57 -7
c81 -10 186 -2 225 18 19 9 36 17 38 17 2 0 3 -52 1 -115 -2 -74 1 -114 7
-112 14 5 19 647 5 647 -6 0 -10 -52 -10 -141z m-32 -155 c18 -12 22 -25 22
-63 0 -48 -1 -49 -40 -65 -26 -10 -71 -16 -128 -16 -92 0 -122 11 -101 37 9 9
8 13 0 13 -8 0 -11 14 -9 38 3 35 6 38 53 54 65 22 173 23 203 2z"/>
<path d="M13305 3290 c-11 -5 -183 -9 -382 -9 -230 -1 -364 -5 -368 -11 -7
-11 698 -12 749 -1 16 3 31 12 34 19 4 14 -4 14 -33 2z"/>
<path d="M10818 2935 c-2 -160 0 -244 7 -242 14 5 19 487 6 487 -7 0 -11 -93
-13 -245z"/>
<path d="M12685 3094 c-59 -22 -85 -51 -85 -95 0 -68 85 -110 193 -96 114 15
117 161 3 182 -38 8 -86 -13 -86 -37 0 -6 9 -3 20 7 14 13 28 16 55 11 49 -9
75 -38 75 -81 0 -51 -32 -68 -115 -63 -97 6 -138 44 -121 114 4 16 18 27 46
35 22 7 45 18 51 26 13 15 15 16 -36 -3z"/>
<path d="M13743 3090 c-28 -17 -33 -26 -33 -57 l0 -37 -32 32 c-108 104 -269
68 -256 -58 4 -48 40 -70 123 -77 82 -6 138 12 156 51 l12 25 26 -20 c57 -42
185 -45 229 -6 92 84 -111 217 -225 147z m175 -30 c65 -40 70 -113 7 -124 -48
-9 -128 3 -164 25 -27 16 -31 24 -31 64 0 47 9 56 30 30 7 -8 16 -12 22 -9 5
3 4 12 -3 20 -20 24 98 19 139 -6z m-287 -23 c70 -47 72 -110 3 -123 -51 -9
-141 2 -171 21 -23 15 -25 22 -20 62 3 25 11 49 18 54 8 5 41 9 75 9 47 0 69
-5 95 -23z"/>
<path d="M12490 3005 c0 -78 3 -97 16 -102 17 -6 90 24 81 33 -3 3 -14 1 -25
-5 -47 -25 -52 -17 -52 79 0 53 -4 90 -10 90 -6 0 -10 -38 -10 -95z"/>
<path d="M13222 3088 c-22 -28 -52 -99 -52 -123 0 -73 206 -91 234 -20 19 52
-8 111 -64 140 -35 18 -104 20 -118 3z m108 -23 c39 -20 60 -53 60 -92 0 -22
-6 -36 -19 -43 -27 -14 -121 -12 -151 3 -33 16 -39 67 -12 94 10 10 22 26 25
36 8 21 57 23 97 2z"/>
<path d="M11341 3056 c-7 -8 -47 -15 -116 -20 -105 -7 -155 -18 -155 -34 0 -5
26 -25 58 -45 31 -19 78 -54 104 -76 25 -23 48 -41 51 -41 2 0 7 22 10 48 3
26 13 68 23 91 l17 44 75 -7 c41 -3 108 -6 148 -6 l72 0 -35 -87 c-19 -49 -39
-92 -44 -97 -12 -13 -47 70 -55 128 -7 51 -20 59 -34 20 -13 -33 -13 -34 4
-34 9 0 17 -15 21 -38 7 -43 39 -102 55 -102 14 0 45 52 71 122 12 32 24 58
28 58 3 0 24 -26 46 -57 22 -31 52 -70 66 -86 l26 -31 17 26 c9 13 22 59 28
101 11 70 15 77 35 77 13 0 23 5 23 11 0 16 -52 6 -60 -11 -5 -8 -13 -46 -18
-84 -6 -38 -15 -73 -20 -78 -11 -11 -128 148 -124 168 2 11 -21 14 -115 15
-98 0 -237 14 -181 18 9 0 20 6 23 11 9 15 -31 12 -44 -4z m-36 -53 c-3 -10
-14 -41 -22 -69 l-16 -52 -50 40 c-28 21 -63 46 -79 54 -56 29 -30 39 106 42
61 2 67 0 61 -15z"/>
<path d="M17263 3051 c-81 -21 -178 -105 -215 -187 -10 -24 -23 -77 -28 -117
-4 -39 -15 -89 -24 -109 -23 -53 -22 -154 2 -166 21 -11 75 2 92 23 13 16 0
21 -15 6 -6 -5 -23 -11 -40 -13 l-30 -3 -3 60 c-2 34 1 72 6 84 8 24 9 23 31
-13 26 -42 117 -114 193 -154 58 -30 102 -32 288 -15 113 11 141 24 219 103
32 33 63 60 68 60 7 0 9 -25 6 -67 -6 -81 9 -107 84 -144 46 -23 57 -24 222
-22 262 4 311 17 413 111 76 71 88 95 88 181 0 118 -56 230 -146 294 -52 36
-222 69 -292 55 -124 -23 -261 -158 -333 -328 -15 -35 -32 -66 -37 -68 -5 -1
-7 38 -4 95 5 117 -7 170 -51 220 -49 56 -96 73 -204 73 -72 0 -99 4 -125 19
-39 22 -119 33 -165 22z m140 -32 c26 -12 37 -29 18 -29 -5 0 -22 -5 -37 -10
-42 -16 -21 -23 26 -9 41 12 44 12 65 -13 13 -15 25 -33 28 -40 2 -7 8 -9 13
-5 4 4 0 21 -10 38 -10 17 -15 33 -11 37 11 11 118 7 158 -7 94 -32 136 -102
137 -226 0 -110 -12 -146 -70 -205 -54 -55 -101 -80 -152 -80 l-33 0 30 15
c43 22 65 52 65 91 0 23 -7 38 -22 48 -32 23 -135 21 -200 -4 -29 -11 -55 -20
-57 -20 -3 0 4 61 16 128 l5 32 107 0 c58 0 123 -4 144 -9 37 -9 59 1 35 15
-7 4 -76 10 -155 12 -141 4 -191 -1 -165 -17 11 -6 11 -24 1 -94 -7 -48 -10
-89 -7 -92 3 -3 29 6 59 20 41 19 70 25 124 25 42 0 76 -5 83 -12 13 -13 16
-47 6 -73 -8 -20 -56 -45 -89 -45 -27 0 -32 9 -13 28 6 6 9 14 6 18 -4 3 -14
-6 -23 -20 -21 -32 -54 -34 -106 -4 -21 12 -42 19 -45 15 -11 -11 18 -39 61
-58 l40 -19 -62 0 c-39 0 -78 7 -107 20 l-46 19 3 141 c1 77 -1 140 -4 140
-12 0 -19 -62 -19 -161 0 -55 -3 -99 -7 -99 -16 0 -115 85 -133 115 -27 44
-25 68 11 123 l31 47 -31 -33 -31 -32 0 29 c0 48 39 140 77 182 38 42 87 76
131 90 34 11 119 5 155 -12z m824 -15 c-3 -3 -12 -4 -19 -1 -8 3 -5 6 6 6 11
1 17 -2 13 -5z m-44 -11 c-7 -2 -19 -2 -25 0 -7 3 -2 5 12 5 14 0 19 -2 13 -5z
m-48 -13 c-8 -13 4 -13 84 1 l65 12 33 -39 c48 -55 51 -79 20 -136 -15 -27
-24 -48 -19 -48 10 0 52 63 52 78 0 36 21 -2 63 -110 55 -147 68 -195 64 -239
-3 -30 -10 -37 -59 -62 -42 -21 -75 -30 -134 -34 l-79 -5 40 26 c49 31 39 34
-17 5 -36 -18 -53 -21 -108 -15 -36 3 -77 9 -92 12 -16 4 -28 2 -28 -3 0 -6
19 -15 43 -20 l42 -11 -56 -1 c-73 -1 -150 22 -188 58 -26 24 -31 37 -31 73 0
57 9 88 26 88 9 0 14 -11 14 -29 0 -37 11 -45 36 -26 17 13 18 14 2 15 -11 0
-18 8 -18 20 0 15 7 20 29 20 15 0 48 3 72 6 l44 6 0 -37 c0 -60 32 -77 152
-82 184 -9 216 23 142 137 -69 106 -89 161 -89 240 0 46 -4 70 -12 70 -8 0 -9
-29 -5 -104 l6 -103 -52 -24 c-28 -13 -68 -37 -89 -52 -32 -23 -53 -29 -120
-34 l-81 -6 7 49 c13 88 35 139 88 198 28 32 72 71 97 87 48 30 67 36 56 19z
m310 -25 c96 -55 148 -153 153 -286 l4 -87 -38 -42 -39 -43 -12 61 c-7 34 -31
110 -54 169 -22 59 -48 131 -56 158 -24 82 -22 80 -35 67 -8 -8 -15 -7 -24 6
-8 9 -14 21 -14 25 0 14 73 -4 115 -28z m-127 -339 c44 -69 42 -83 -14 -92
-72 -10 -199 0 -228 20 -57 37 -23 94 94 155 l74 39 21 -36 c12 -20 36 -59 53
-86z m-445 51 c-3 -20 -10 -37 -14 -37 -12 0 -11 10 2 49 14 41 20 35 12 -12z"/>
<path d="M12096 3001 c-6 -10 204 -22 219 -13 5 4 -12 10 -40 14 -73 9 -173 9
-179 -1z"/>
<path d="M20577 2999 c-22 -13 -53 -74 -62 -121 -6 -34 -9 -36 -58 -42 -29 -3
-78 -6 -109 -6 -50 0 -60 -3 -74 -25 -9 -14 -15 -27 -13 -28 56 -31 229 -150
229 -157 0 -34 -193 -19 -207 17 -3 8 0 26 7 41 12 26 12 26 -9 8 -20 -18 -21
-18 -61 18 -23 20 -52 42 -66 48 -22 10 -29 8 -61 -24 -29 -30 -36 -44 -37
-78 -1 -61 30 -82 119 -83 59 -1 70 2 86 22 14 17 22 20 36 13 27 -15 144 -24
178 -14 20 5 31 16 33 30 3 18 -15 33 -97 87 -56 35 -101 69 -101 74 0 13 89
31 150 31 28 0 50 -4 50 -10 0 -6 -26 -10 -59 -10 -81 0 -88 -18 -10 -22 l63
-3 11 -50 c22 -97 63 -141 132 -139 41 1 51 6 84 41 45 49 59 94 59 191 0 64
-3 76 -25 97 -25 25 -95 36 -95 15 0 -5 15 -10 34 -10 50 0 66 -28 66 -114 0
-92 -16 -140 -58 -178 -29 -25 -41 -29 -70 -24 -19 3 -44 13 -55 23 -26 23
-57 91 -57 126 l0 27 90 0 c53 0 90 4 90 10 0 6 -37 10 -91 10 l-92 0 6 60 c3
33 13 76 24 97 20 41 33 44 121 28 60 -11 53 9 -9 23 -61 14 -69 14 -92 1z
m-260 -195 c-3 -3 -12 -4 -19 -1 -8 3 -5 6 6 6 11 1 17 -2 13 -5z m-117 -112
c82 -79 63 -125 -43 -108 -57 9 -87 31 -87 62 0 43 36 93 68 94 6 0 35 -22 62
-48z"/>
<path d="M12982 2921 c-39 -90 -40 -162 -1 -114 10 11 10 14 2 9 -20 -11 -16
16 12 89 28 75 18 89 -13 16z"/>
<path d="M12124 2939 c-13 -21 201 -27 229 -6 14 10 -4 12 -104 12 -66 0 -123
-3 -125 -6z"/>
<path d="M19330 2790 c-11 -20 -10 -260 1 -260 3 0 10 5 17 12 9 9 18 5 39
-16 27 -27 28 -28 144 -24 101 3 122 6 146 24 21 16 28 30 28 54 0 49 -32 67
-143 81 -99 13 -109 19 -98 65 l7 26 104 -4 c99 -3 126 2 89 16 -27 10 -292 7
-299 -4 -4 -6 11 -10 38 -10 l45 0 -5 -44 c-6 -52 -12 -48 122 -66 95 -12 127
-30 123 -68 -5 -41 -39 -52 -159 -52 -101 0 -108 1 -130 25 -13 13 -32 25 -43
25 -17 0 -18 9 -15 120 2 66 3 120 2 120 -1 0 -7 -9 -13 -20z"/>
<path d="M16764 2703 c-37 -48 -76 -98 -87 -110 l-20 -22 -47 34 c-79 58 -138
56 -164 -5 l-12 -29 -52 31 c-29 16 -52 34 -52 39 0 5 24 9 54 9 47 0 77 12
64 25 -2 3 -36 7 -75 11 -64 6 -74 4 -99 -15 -14 -11 -33 -21 -40 -21 -8 0
-14 -4 -14 -8 0 -5 12 -7 28 -5 31 5 187 -81 195 -107 3 -8 8 -23 12 -32 6
-16 -1 -18 -74 -18 -45 0 -81 4 -81 9 0 5 12 19 28 30 15 11 22 21 15 21 -22
0 -72 -50 -66 -66 5 -13 21 -15 97 -11 187 11 204 15 252 59 l22 20 45 -46
c50 -50 80 -61 132 -52 54 11 52 26 -3 19 -55 -6 -90 12 -131 68 l-21 28 86
112 c47 61 83 113 81 116 -3 2 -35 -35 -73 -84z m-211 -84 c12 -7 36 -24 54
-39 l31 -28 -21 -20 c-44 -41 -117 -56 -117 -24 0 11 -9 27 -20 37 -55 49 5
109 73 74z"/>
<path d="M19890 2748 c-106 -30 -130 -145 -40 -190 44 -23 148 -24 176 -3 23
17 19 18 -26 5 -49 -14 -136 5 -168 37 -48 48 -5 124 77 138 23 4 43 11 47 16
7 11 -20 10 -66 -3z"/>
<path d="M15792 2619 c-62 -40 -83 -129 -40 -169 26 -24 83 -27 132 -6 24 10
38 11 51 3 11 -6 46 -10 79 -10 55 1 63 4 89 33 22 25 27 38 22 59 -9 37 -22
50 -77 76 l-48 23 -45 -34 c-47 -36 -61 -67 -51 -108 7 -27 -12 -36 -80 -36
-51 0 -74 23 -74 74 0 30 7 44 31 67 17 16 37 29 45 29 22 0 17 -8 -17 -25
-17 -9 -28 -19 -25 -22 7 -7 96 45 96 57 0 17 -54 10 -88 -11z m255 -38 c48
-22 66 -50 57 -86 -11 -45 -130 -58 -169 -18 -26 25 -18 69 16 97 36 31 42 31
96 7z"/>
<path d="M10935 2600 c-4 -7 668 -10 2009 -10 1332 0 2017 3 2021 10 4 7 -668
10 -2009 10 -1332 0 -2017 -3 -2021 -10z"/>
<path d="M18770 2590 c0 -6 47 -10 120 -10 73 0 120 4 120 10 0 6 -47 10 -120
10 -73 0 -120 -4 -120 -10z"/>
<path d="M13025 2560 c-29 -7 -28 -8 10 -9 54 -2 74 -15 59 -38 -13 -21 -88
-30 -109 -13 -7 6 -10 20 -7 32 3 14 1 19 -6 14 -16 -9 -15 -49 0 -64 20 -20
92 -15 122 9 25 19 35 53 19 62 -19 10 -60 14 -88 7z"/>
<path d="M11590 2504 c-11 -25 -20 -48 -20 -51 0 -3 -8 -12 -17 -19 -10 -7
-13 -14 -7 -14 6 0 14 -22 18 -49 5 -39 13 -55 37 -75 17 -14 42 -26 56 -26
41 0 90 37 113 85 21 44 23 45 70 45 27 0 52 5 55 10 4 6 -15 10 -48 10 -56 0
-67 8 -67 49 0 23 -48 68 -82 76 -14 4 -36 2 -47 -5 -14 -7 -21 -7 -21 0 0 26
-23 6 -40 -36z m139 0 c22 -18 31 -35 31 -55 0 -26 -3 -29 -32 -29 -18 0 -50
3 -70 6 -35 6 -38 9 -38 40 0 64 55 84 109 38z m-132 -56 c-3 -8 -6 -5 -6 6
-1 11 2 17 5 13 3 -3 4 -12 1 -19z m116 -46 c42 -2 47 -4 47 -26 0 -36 -52
-86 -88 -86 -41 0 -80 36 -87 81 l-7 36 44 -2 c24 -1 64 -2 91 -3z"/>
<path d="M18855 2530 c-77 -3 -114 -8 -102 -14 26 -12 224 -3 239 12 9 9 9 12
-2 10 -8 -1 -69 -5 -135 -8z"/>
<path d="M20970 2442 c-58 -53 -130 -117 -160 -141 -30 -25 -73 -62 -96 -83
l-41 -39 -8 58 c-4 32 -8 75 -9 95 0 21 -5 37 -11 35 -11 -2 -11 -34 0 -150
l8 -78 61 59 c34 32 97 88 141 125 74 60 236 217 225 217 -3 0 -52 -44 -110
-98z"/>
<path d="M12750 2521 c-41 -9 -72 -24 -90 -45 -7 -9 -28 -16 -50 -16 -34 0
-37 2 -33 24 5 22 1 26 -32 32 -20 3 -70 4 -112 2 -81 -5 -119 -28 -111 -64 4
-16 7 -15 16 8 13 32 46 41 147 36 53 -2 70 -7 70 -17 0 -10 -22 -18 -72 -27
-75 -12 -93 -19 -93 -35 0 -14 50 -11 106 6 27 8 68 15 91 15 l41 0 4 -51 c4
-66 -6 -72 -144 -77 -93 -4 -109 -2 -114 12 -4 9 1 25 10 35 25 28 19 37 -9
11 -27 -26 -32 -49 -13 -68 17 -17 174 -15 235 3 45 13 54 13 79 0 17 -9 56
-15 96 -15 58 0 71 4 98 27 28 23 31 31 26 61 -9 56 -86 122 -124 107 -12 -5
-6 -11 24 -24 71 -32 105 -99 68 -135 -21 -21 -152 -22 -180 -2 -15 12 -17 17
-6 27 17 18 15 69 -4 90 -14 15 -13 18 10 37 14 10 43 22 66 26 22 3 40 11 40
16 0 6 -1 9 -2 9 -2 -1 -19 -4 -38 -8z m-80 -131 c0 -16 -4 -30 -10 -30 -5 0
-10 14 -10 30 0 17 5 30 10 30 6 0 10 -13 10 -30z"/>
<path d="M12028 2429 c-19 -12 158 -22 178 -11 14 8 -4 11 -75 14 -51 2 -98 0
-103 -3z"/>
<path d="M18445 2349 c-68 -73 -131 -161 -155 -219 l-13 -31 -34 48 c-44 61
-71 115 -66 130 2 6 -1 14 -7 18 -19 12 -23 -26 -6 -62 22 -46 105 -163 116
-163 5 0 16 22 25 49 21 63 80 149 158 228 33 34 58 65 55 68 -3 3 -36 -27
-73 -66z"/>
<path d="M16823 2331 c-56 -46 -120 -111 -192 -199 l-51 -63 -42 88 c-48 103
-46 99 -58 87 -6 -6 -4 -18 5 -34 8 -14 30 -59 50 -100 l36 -75 20 25 c91 116
183 218 232 256 52 41 64 54 53 54 -2 0 -26 -17 -53 -39z"/>
<path d="M11975 2350 c-4 -6 36 -10 114 -10 69 0 122 4 126 10 4 6 -36 10
-114 10 -69 0 -122 -4 -126 -10z"/>
<path d="M21100 1888 c54 -82 71 -133 68 -210 -3 -64 -6 -74 -26 -84 -32 -16
-38 -24 -18 -24 9 0 28 11 41 25 22 21 25 33 25 94 0 38 -5 82 -11 98 -18 50
-73 133 -87 133 -10 0 -8 -9 8 -32z"/>
<path d="M18866 1892 c-19 -31 -69 -402 -54 -402 4 0 15 17 25 38 9 20 19 42
22 47 2 6 -3 4 -12 -4 -15 -12 -17 -11 -17 7 0 11 11 87 25 168 24 135 26 170
11 146z"/>
<path d="M18962 1849 c-5 -13 -13 -43 -17 -67 -4 -24 -13 -46 -21 -49 -9 -3
-11 -14 -7 -34 3 -16 -3 -63 -12 -104 -10 -41 -15 -78 -12 -81 12 -12 27 8 27
37 0 35 31 69 63 69 14 0 41 -19 71 -49 47 -48 48 -50 25 -55 -49 -10 -129
-17 -129 -10 0 3 10 14 23 25 l22 19 -30 -12 c-37 -15 -55 -28 -55 -39 0 -12
140 -11 176 1 27 9 38 5 127 -54 87 -57 229 -126 293 -142 13 -3 24 -10 24
-15 0 -5 -370 -10 -862 -12 -475 -1 -107 -2 817 -2 1109 -1 1420 1 915 5
l-765 5 -90 28 c-109 34 -270 111 -347 167 -57 41 -57 41 -52 83 5 33 2 48
-14 67 -17 21 -29 25 -76 25 -47 0 -60 4 -82 26 l-26 26 16 78 c16 78 15 110
-2 64z m2 -216 c-32 -24 -39 -17 -28 25 6 22 7 22 26 5 18 -16 18 -18 2 -30z
m146 -13 c20 -20 27 -60 13 -74 -7 -7 -93 72 -93 86 0 16 61 7 80 -12z"/>
<path d="M20491 1774 c-24 -25 -49 -61 -57 -79 -16 -40 -19 -148 -4 -176 13
-23 49 -25 76 -4 18 15 18 15 -9 9 -44 -10 -57 9 -57 83 0 43 6 76 19 101 21
41 81 103 81 84 0 -7 5 -12 10 -12 6 0 10 9 10 20 0 32 -24 23 -69 -26z"/>
<path d="M20687 1783 c-11 -11 -8 -273 3 -273 6 0 10 3 10 8 4 80 3 272 -1
272 -3 0 -9 -3 -12 -7z"/>
<path d="M20838 1779 c-21 -12 -23 -47 -4 -72 10 -13 16 -15 21 -7 4 7 2 17
-4 23 -6 6 -11 19 -11 29 0 15 9 18 60 18 57 0 60 -1 50 -19 -5 -11 -47 -42
-93 -70 -89 -53 -121 -83 -115 -102 7 -20 89 -39 174 -39 67 0 86 4 108 21 14
11 26 28 26 37 -1 13 -6 10 -21 -10 -20 -26 -25 -28 -100 -28 -84 0 -169 17
-169 35 0 5 21 23 48 39 115 72 149 97 160 120 6 13 8 27 5 30 -10 10 -117 6
-135 -5z"/>
<path d="M20184 1772 l-132 -3 -6 -31 c-7 -33 -8 -108 -2 -108 2 0 20 7 39 15
22 9 68 15 116 15 89 0 111 -12 111 -60 0 -43 -32 -60 -110 -60 -73 0 -104 15
-122 59 -9 21 -12 23 -15 8 -6 -25 23 -66 55 -78 43 -17 147 -6 179 17 37 28
43 84 14 113 -18 18 -34 21 -101 21 -48 0 -95 -6 -115 -14 l-35 -15 0 34 c0
65 0 65 130 65 74 0 121 4 125 11 4 6 5 11 4 12 -2 1 -63 1 -135 -1z"/>
<path d="M19930 1650 c0 -60 4 -110 8 -110 11 0 42 33 42 45 0 4 -7 2 -15 -5
-13 -11 -15 -1 -15 84 0 57 -4 96 -10 96 -6 0 -10 -43 -10 -110z"/>
<path d="M18446 1716 c-66 -18 -107 -61 -113 -120 -11 -98 34 -136 162 -136
98 0 146 14 197 60 34 30 41 42 42 76 1 53 -25 91 -77 115 -49 22 -138 24
-211 5z m202 -27 c68 -29 89 -101 43 -153 -63 -72 -269 -84 -321 -19 -29 37
-27 103 5 141 25 30 100 57 128 46 8 -3 18 -1 21 5 8 13 70 3 124 -20z"/>
<path d="M15325 1704 c-93 -6 -207 -12 -252 -13 -45 -1 -85 -5 -88 -11 -4 -6
6 -10 22 -10 27 0 28 -2 25 -40 -6 -59 42 -153 120 -235 36 -39 69 -65 75 -62
8 5 10 32 6 81 -5 65 -3 80 20 130 14 30 42 72 61 92 19 20 36 40 38 45 2 5
46 10 98 10 104 2 130 5 130 20 0 11 -31 10 -255 -7z m-1 -26 c-4 -7 -22 -31
-40 -53 -51 -64 -67 -105 -72 -183 l-5 -73 -34 33 c-80 77 -146 217 -113 239
13 8 13 10 1 18 -9 6 25 11 95 15 111 7 167 12 172 14 2 1 0 -4 -4 -10z"/>
<path d="M21689 1692 c-25 -16 -61 -48 -82 -72 l-37 -44 0 63 c0 39 -4 60 -10
56 -5 -3 -10 -15 -10 -26 0 -10 -7 -19 -15 -19 -26 0 -28 -28 -6 -56 12 -16
21 -42 21 -63 1 -33 2 -35 15 -17 13 17 17 17 31 5 35 -29 205 -222 200 -227
-3 -3 -32 2 -63 11 -127 35 -229 50 -326 45 -87 -4 -101 -7 -138 -33 -41 -29
-57 -54 -114 -175 -14 -30 -34 -66 -45 -80 l-18 -24 -47 47 c-26 26 -52 47
-56 47 -20 0 -6 -21 45 -67 l53 -49 -23 -52 c-13 -29 -33 -66 -44 -82 -12 -17
-18 -30 -13 -30 14 0 69 49 55 50 -8 0 -4 16 13 50 22 43 28 49 44 41 26 -14
36 -30 53 -83 10 -30 12 -50 5 -57 -11 -11 78 -58 161 -85 86 -29 278 -4 385
50 117 59 165 121 174 225 8 79 -12 152 -52 195 -21 21 -31 41 -28 53 3 12
-25 50 -90 122 -52 57 -104 113 -116 123 -11 11 -21 25 -21 33 0 18 78 101
111 119 54 27 59 22 59 -65 0 -43 5 -92 11 -110 28 -79 223 -108 284 -41 17
18 16 18 -21 -1 -69 -35 -186 -18 -229 33 -23 27 -25 38 -25 124 0 91 -1 94
-23 94 -13 0 -43 -13 -68 -28z m-139 -68 c0 -8 -5 -12 -10 -9 -6 4 -8 11 -5
16 9 14 15 11 15 -7z m5 -303 c16 -6 13 -9 -15 -13 -40 -7 -156 -56 -148 -63
2 -3 32 6 66 20 76 31 166 43 187 25 17 -14 20 -56 5 -65 -6 -4 -29 -8 -51
-10 -56 -4 -62 -15 -8 -15 54 0 89 27 89 69 0 25 3 28 25 23 31 -5 32 -18 4
-33 -17 -9 -19 -13 -8 -20 7 -4 18 -4 24 0 20 16 55 20 55 6 0 -19 -37 -46
-129 -94 -72 -37 -111 -70 -111 -93 0 -12 278 -10 285 2 7 12 10 12 -144 10
-147 -2 -149 4 -17 73 44 23 96 55 115 71 l33 30 24 -29 c34 -42 47 -99 41
-177 -7 -77 -23 -115 -68 -152 -34 -29 -107 -68 -149 -81 l-25 -7 24 26 c37
40 19 41 -19 1 -24 -25 -43 -35 -65 -35 -46 0 -55 16 -55 94 -1 87 -13 146
-35 162 -26 19 -72 -3 -106 -49 l-29 -40 0 61 c0 35 -4 62 -10 62 -6 0 -10
-37 -10 -90 0 -49 -3 -90 -7 -90 -5 1 -24 9 -43 19 l-35 19 3 67 c3 47 1 65
-7 61 -6 -4 -11 -29 -11 -57 0 -49 -4 -54 -34 -43 -13 5 -16 23 -16 89 0 75 2
85 30 123 35 49 39 63 10 37 -20 -18 -21 -18 -14 1 13 36 52 81 86 97 24 12
60 16 138 16 58 0 114 -4 125 -8z m-399 -318 c-2 -2 -14 0 -25 7 l-21 11 22
42 23 42 3 -49 c2 -26 1 -50 -2 -53z m313 28 c30 -19 44 -218 16 -241 -42 -35
-277 36 -245 74 5 8 9 20 7 27 -2 8 -2 11 0 6 3 -4 9 -5 14 -2 11 7 51 -13 62
-32 5 -7 13 -11 18 -7 6 3 23 0 40 -6 34 -14 62 0 52 27 -5 14 -7 14 -14 0
-10 -17 -42 -12 -59 8 -15 18 24 109 58 135 28 22 31 23 51 11z m-251 -132 c2
-32 1 -33 -13 -15 -18 24 -20 59 -2 54 6 -3 13 -20 15 -39z"/>
<path d="M13804 1681 c-79 -48 -85 -113 -18 -194 l24 -28 -43 -33 c-95 -73
-37 -176 100 -176 26 0 59 6 73 13 42 21 36 49 -24 121 -60 71 -63 76 -42 76
8 0 18 5 21 11 5 7 -4 8 -27 4 -31 -6 -38 -3 -71 34 -29 33 -37 49 -37 80 0
56 43 91 110 91 27 0 55 -3 64 -6 23 -9 20 -31 -6 -45 -15 -8 -18 -14 -10 -17
18 -6 52 27 52 49 0 10 -9 23 -19 29 -32 17 -113 12 -147 -9z m93 -309 c66
-78 66 -96 -2 -100 -98 -7 -160 32 -153 95 3 30 60 76 87 71 8 -2 39 -31 68
-66z"/>
<path d="M19486 1659 l-58 -41 -29 28 c-38 36 -51 23 -14 -16 33 -35 28 -46
-42 -87 -24 -14 -42 -27 -39 -30 7 -8 49 17 83 50 l32 30 38 -26 c21 -14 56
-33 77 -42 34 -15 41 -15 54 -2 8 9 11 20 7 28 -6 9 -11 8 -20 -4 -11 -15 -15
-14 -51 5 -21 11 -49 29 -62 38 l-22 18 52 38 c68 48 75 54 62 54 -6 0 -37
-19 -68 -41z"/>
<path d="M18066 1675 c-8 -8 -18 -15 -22 -15 -17 0 -74 -52 -74 -67 0 -13 -9
-8 -33 15 -38 37 -98 52 -122 32 -8 -7 -12 -17 -9 -22 3 -5 -5 -22 -19 -36
-14 -15 -28 -37 -32 -50 -16 -54 47 -122 113 -122 37 0 87 40 96 76 7 27 7 27
22 6 43 -61 199 -50 264 20 31 34 27 97 -8 131 -47 45 -145 63 -176 32z m114
-15 c5 0 22 -12 39 -26 25 -21 31 -33 31 -65 0 -48 -23 -74 -82 -90 -53 -14
-134 -5 -159 17 -14 12 -19 31 -19 66 0 44 3 50 33 69 23 15 42 18 70 14 28
-4 39 -2 44 10 3 9 12 14 20 11 8 -3 18 -6 23 -6z m-257 -71 c20 -21 27 -40
27 -68 0 -78 -63 -114 -130 -74 -62 36 -63 94 -3 150 41 39 63 37 106 -8z"/>
<path d="M15732 1648 c-20 -25 -62 -167 -62 -212 0 -35 5 -48 20 -56 25 -13
212 -9 217 5 2 6 -29 9 -83 7 -48 -2 -98 -1 -112 3 -24 6 -24 8 -20 68 3 34
17 91 32 126 26 64 29 83 8 59z"/>
<path d="M21472 1648 c-6 -7 -15 -44 -20 -81 -8 -61 -7 -67 9 -67 10 0 21 5
24 10 3 6 1 10 -4 10 -14 0 -14 44 0 93 11 42 8 55 -9 35z"/>
<path d="M17208 1603 c-24 -28 -36 -80 -41 -181 -3 -66 -1 -92 7 -89 7 2 13
45 16 113 4 77 11 119 23 142 20 36 18 41 -5 15z"/>
<path d="M17283 1578 c-12 -12 -26 -43 -32 -68 -24 -99 22 -144 142 -138 57 3
71 8 94 30 29 30 35 73 13 112 -16 31 -96 75 -151 82 -38 5 -47 2 -66 -18z
m109 -13 c59 -21 101 -65 101 -106 0 -48 -32 -69 -105 -69 -103 0 -138 36
-118 124 11 49 24 63 45 46 14 -11 19 -7 16 13 -2 10 10 9 61 -8z"/>
<path d="M15496 1542 c-3 -5 8 -27 23 -48 l29 -39 -44 -55 c-24 -30 -41 -56
-38 -59 3 -3 16 8 28 24 13 17 32 41 43 54 l19 23 43 -56 c41 -55 60 -65 69
-37 2 7 -4 15 -15 17 -10 3 -33 26 -50 51 -31 44 -32 48 -16 65 9 10 14 20 11
23 -3 3 -11 -1 -18 -10 -18 -22 -26 -19 -44 20 -17 34 -30 43 -40 27z"/>
<path d="M17605 1479 c-19 -41 -25 -71 -25 -121 0 -38 4 -68 9 -68 11 0 51 53
51 67 -1 4 -10 -3 -20 -16 l-20 -23 0 51 c0 28 9 74 20 103 26 70 17 74 -15 7z"/>
<path d="M16568 1503 c-43 -2 -78 -8 -78 -13 0 -12 351 -1 365 11 9 9 -115 9
-287 2z"/>
<path d="M14380 1493 c-36 -2 -69 -9 -75 -14 -13 -13 236 -1 250 12 9 9 -37 9
-175 2z"/>
<path d="M14345 1402 c22 -22 206 -41 233 -23 8 5 -19 10 -70 14 -46 4 -103 9
-128 13 -30 4 -42 3 -35 -4z"/>
<path d="M16560 1391 c0 -31 269 -44 306 -15 18 15 18 15 -4 9 -37 -10 -203
-7 -242 5 -43 12 -60 13 -60 1z"/>
<path d="M20608 1234 c-5 -4 -8 -65 -8 -136 0 -70 -4 -128 -9 -128 -5 0 -42
22 -82 48 -70 46 -102 75 -141 132 -16 24 -17 24 -17 4 -1 -32 66 -103 149
-155 97 -62 110 -74 110 -103 0 -34 15 -40 38 -15 l20 21 77 -27 c84 -29 132
-30 127 -4 -2 12 8 18 36 23 75 12 124 73 101 127 -20 51 -108 50 -179 -2 -55
-40 -63 -38 -56 14 14 106 18 190 9 184 -6 -4 -16 -62 -23 -129 -7 -73 -19
-133 -28 -148 -9 -14 -17 -26 -18 -28 0 -1 -8 0 -17 4 -13 5 -14 10 -6 26 6
11 8 22 6 25 -3 2 -10 -5 -16 -16 -9 -16 -16 -18 -34 -12 -21 8 -22 14 -27
155 -3 81 -8 144 -12 140z m376 -216 c22 -35 10 -74 -29 -92 -39 -19 -96 -21
-113 -4 -9 9 -12 9 -12 0 0 -7 -11 -12 -25 -12 -30 0 -31 12 -5 55 31 51 70
71 137 74 24 1 37 -5 47 -21z m-334 -107 c0 -6 -4 -13 -10 -16 -5 -3 -10 1
-10 9 0 9 5 16 10 16 6 0 10 -4 10 -9z m195 -31 c7 -12 -22 -12 -50 0 -17 7
-15 9 12 9 17 1 35 -3 38 -9z"/>
<path d="M20030 1201 c-27 -27 -31 -37 -29 -77 2 -35 -1 -48 -14 -55 -9 -6
-17 -16 -17 -24 0 -14 29 -35 49 -35 19 0 12 17 -9 23 -11 3 -20 10 -20 16 0
7 20 10 56 9 39 -2 58 1 61 10 3 8 -6 12 -29 12 -44 0 -58 15 -58 61 0 36 15
62 42 72 7 2 10 8 6 12 -4 4 -21 -7 -38 -24z"/>
<path d="M14780 1200 c0 -7 241 -10 704 -10 459 0 707 3 711 10 4 7 -233 10
-704 10 -467 0 -711 -3 -711 -10z"/>
<path d="M18869 1113 c-1 -5 -1 -11 0 -15 0 -4 -9 -13 -22 -19 -12 -6 -34 -23
-49 -37 -17 -15 -33 -22 -44 -18 -9 3 -24 1 -33 -6 -13 -10 -12 -8 2 8 22 27
22 51 -1 58 -30 10 -214 -13 -239 -29 -13 -9 -23 -24 -23 -35 0 -27 18 -25 22
2 4 27 27 33 147 43 79 6 91 5 91 -8 0 -18 -37 -47 -60 -47 -9 0 -25 -7 -36
-14 -17 -14 -13 -15 41 -13 55 2 60 0 73 -25 29 -61 -19 -82 -168 -76 l-75 3
43 29 c46 31 50 50 5 21 -43 -27 -73 -57 -67 -66 7 -13 181 -11 227 2 51 14
73 48 58 90 -13 39 -13 39 -2 39 6 0 13 -20 17 -45 9 -65 38 -85 124 -85 53 0
73 4 94 21 47 37 26 118 -43 170 -17 12 -33 31 -37 41 -5 17 -43 26 -45 11z
m111 -114 c22 -30 26 -79 8 -97 -7 -7 -40 -12 -79 -12 -87 0 -110 17 -112 82
-2 54 19 84 67 96 25 7 37 4 64 -16 18 -14 42 -37 52 -53z"/>
<path d="M19755 1081 c-68 -39 -89 -77 -80 -146 9 -72 29 -88 113 -93 85 -5
112 15 112 82 0 37 -5 48 -34 73 -18 17 -54 35 -80 42 -25 6 -46 13 -46 16 0
2 18 14 40 25 38 19 50 30 33 30 -5 0 -30 -13 -58 -29z m27 -61 c21 -6 51 -22
68 -37 28 -23 31 -31 28 -72 l-3 -46 -63 -3 c-85 -4 -108 11 -117 77 -7 55 6
91 33 91 9 0 34 -5 54 -10z"/>
<path d="M19580 1037 c0 -62 24 -157 40 -157 4 0 10 7 14 15 3 8 1 15 -4 15
-14 0 -30 69 -30 133 0 31 -4 57 -10 57 -6 0 -10 -28 -10 -63z"/>
<path d="M15495 1060 c-66 -4 -135 -8 -152 -9 -18 0 -33 -4 -33 -9 0 -4 37 -6
83 -4 l82 4 -34 -24 c-58 -39 -76 -81 -76 -173 1 -121 32 -156 150 -169 112
-13 233 21 218 60 -8 21 -23 17 -23 -6 0 -27 -35 -35 -145 -35 -129 1 -164 22
-179 108 l-7 37 174 0 c145 0 177 3 187 16 11 12 10 18 -3 32 -16 15 -17 15
-17 -6 0 -22 -1 -22 -170 -22 l-171 0 7 38 c11 65 33 100 70 112 19 6 34 16
34 21 0 5 24 9 53 9 31 0 61 6 73 15 10 8 15 14 9 13 -5 -1 -64 -5 -130 -8z"/>
<path d="M19377 1013 c-81 -106 -75 -104 -173 -55 -85 43 -126 54 -89 26 11
-9 47 -29 80 -46 33 -17 62 -32 65 -35 3 -2 -6 -13 -20 -25 -18 -14 -20 -18
-7 -14 52 17 70 16 121 -3 67 -25 156 -38 156 -23 0 17 -20 25 -57 24 -31 -1
-143 33 -143 44 0 3 22 32 50 65 48 58 76 99 66 99 -3 0 -25 -26 -49 -57z"/>
<path d="M16017 790 c-21 -4 -45 -14 -54 -23 -15 -14 -15 -18 1 -41 9 -14 21
-26 26 -26 14 0 13 7 -6 34 -22 34 -10 39 130 44 95 3 125 1 140 -11 28 -21
14 -44 -36 -58 -75 -20 -75 -23 7 -29 44 -3 86 -9 93 -13 23 -15 12 -36 -25
-46 -48 -14 -204 -15 -183 -1 23 14 7 20 -19 7 -46 -23 -22 -32 87 -32 118 0
165 15 170 52 2 16 -5 26 -27 37 -16 9 -38 16 -47 16 -16 0 -16 1 0 19 23 25
17 52 -14 68 -27 14 -179 16 -243 3z"/>
<path d="M14060 749 c-64 -26 -87 -84 -61 -152 9 -23 7 -25 -27 -32 -80 -14
-104 -56 -56 -94 29 -22 72 -36 146 -45 70 -8 77 9 27 75 l-40 54 40 3 c58 4
51 22 -9 22 -57 0 -70 15 -70 77 0 64 27 83 119 83 51 0 61 -3 61 -17 0 -13 3
-14 11 -6 7 7 9 19 6 27 -7 19 -105 22 -147 5z m3 -249 c20 -27 33 -51 29 -53
-14 -9 -114 12 -145 31 -59 34 -35 68 48 71 26 1 37 -7 68 -49z"/>
<path d="M16560 693 c-19 -14 -80 -70 -135 -124 -55 -53 -110 -100 -122 -103
-26 -8 -83 -71 -83 -92 0 -26 33 0 132 107 93 99 96 101 142 103 l48 2 -7 -46
c-3 -25 -9 -53 -12 -64 -3 -12 -1 -17 8 -14 8 3 15 14 17 26 8 53 133 72 177
27 32 -31 35 -105 6 -134 -53 -53 -191 -30 -191 31 0 11 -4 16 -10 13 -17 -10
-11 -43 11 -64 46 -43 153 -35 203 15 35 36 37 110 3 150 -30 34 -109 45 -158
20 -39 -19 -43 -17 -30 18 l11 26 120 0 c83 0 120 3 120 11 0 9 -46 10 -167 7
l-168 -5 54 48 c30 27 60 49 67 49 7 0 16 5 19 10 12 19 -20 10 -55 -17z
m-260 -246 c0 -2 -13 -16 -30 -32 -16 -16 -30 -25 -30 -21 0 4 12 18 26 31 25
24 34 29 34 22z"/>
<path d="M17781 709 c-19 -6 -50 -22 -69 -37 -35 -26 -35 -27 -30 -4 7 25 -7
30 -16 6 -3 -9 -6 -47 -6 -86 0 -88 22 -91 30 -4 6 65 25 88 90 107 82 25 129
-24 138 -142 2 -38 10 -73 17 -79 33 -28 213 -18 231 12 5 8 -1 9 -17 4 -47
-13 -154 -18 -180 -8 -24 9 -26 17 -32 80 -6 69 -23 118 -49 139 -21 17 -70
22 -107 12z"/>
<path d="M17548 694 c-5 -4 -8 -43 -8 -86 0 -77 0 -78 21 -67 14 7 18 14 11
18 -6 4 -12 37 -14 75 -2 37 -6 64 -10 60z"/>
<path d="M16940 650 c-73 -25 -110 -66 -110 -123 0 -62 27 -108 80 -134 111
-57 225 4 223 118 -1 43 -6 56 -34 86 -19 19 -50 43 -69 53 -35 18 -38 18 -90
0z m144 -69 c23 -24 29 -40 29 -75 0 -76 -41 -116 -120 -116 -81 0 -143 59
-143 136 0 55 29 90 88 108 42 12 51 12 82 -4 19 -10 48 -32 64 -49z"/>
<path d="M14535 560 c-18 -4 41 -8 143 -9 109 -1 172 3 172 9 0 12 -269 12
-315 0z"/>
<path d="M14630 493 c-19 -8 -37 -17 -40 -20 -9 -9 33 -33 58 -33 15 0 21 -4
16 -12 -5 -8 2 -9 27 -3 19 4 70 9 114 11 44 1 82 4 85 4 14 4 -39 19 -67 19
-23 1 -33 6 -33 16 0 34 -97 45 -160 18z m124 -9 c47 -18 -18 -37 -91 -27 -41
6 -44 7 -28 20 19 13 91 18 119 7z"/>
</g>
</svg>
