<?xml version="1.0" encoding="utf-8" standalone="no"?>
<!DOCTYPE svg PUBLIC "-//W3C//DTD SVG 1.1//EN" "http://www.w3.org/Graphics/SVG/1.1/DTD/svg11.dtd">
<svg version="1.1" width="595.2pt" height="841.68pt" viewBox="0 0 595.2 841.68" overflow="visible" xmlns="http://www.w3.org/2000/svg">
  <text x="425.6191539090999" y="714.031312322126" font-family="Bradley Hand ITC" text-anchor="middle" fill="#FF00F8" font-size="44.52007293701172">dx</text>
  <polygon fill="#FF00F8" fill-opacity="1" points="454.7751,619.96936 461.00043,595.068 448.54974,595.068" xmlns="" />
  <polygon fill="#FF00F8" fill-opacity="1" points="454.7751,655.40094 448.54974,680.30225 461.00043,680.30225" xmlns="" />
  <path d="M358.2401,619.9693 L467.22574,619.9693" stroke="#FF00F8" stroke-width="1.44" stroke-linecap="round" stroke-linejoin="round" fill="none" />
  <path d="M358.2401,655.4009 L467.22574,655.4009" stroke="#FF00F8" stroke-width="1.44" stroke-linecap="round" stroke-linejoin="round" fill="none" />
  <g id="Dimensiones">
    <path d="M454.7751,582.6173 L454.7751,677.31085" stroke="#FF00F8" stroke-width="1.44" stroke-linecap="round" stroke-linejoin="round" fill="none" />
    <path d="M454.7751,88.75962 L454.7751,619.9693" stroke="#FF00F8" stroke-width="1.44" stroke-linecap="round" stroke-linejoin="round" fill="none" />
  </g>
  <text x="427.2114030762327" y="381.7731263962644" font-family="Bradley Hand ITC" text-anchor="middle" fill="#FF00F8" font-size="44.52007293701172">L</text>
  <polygon fill="#FF00F8" fill-opacity="1" points="454.7751,88.7596 448.54974,113.66093 461.00043,113.66093" xmlns="" />
  <polygon fill="#FF00F8" fill-opacity="1" points="454.7751,619.96936 461.00043,595.068 448.54974,595.068" xmlns="" />
  <path d="M358.2401,88.75962 L467.22574,88.75962" stroke="#FF00F8" stroke-width="1.44" stroke-linecap="round" stroke-linejoin="round" fill="none" />
  <path d="M358.2401,619.9693 L467.22574,619.9693" stroke="#FF00F8" stroke-width="1.44" stroke-linecap="round" stroke-linejoin="round" fill="none" />
  <text x="285.21046640067715" y="560.2162086043903" font-family="Bradley Hand ITC" text-anchor="middle" fill="#FF00F8" font-size="44.52007293701172">D</text>
  <polygon fill="#FF00F8" fill-opacity="1" points="225.91803,572.9767 250.81935,579.20197 250.81935,566.75134" xmlns="" />
  <polygon fill="#FF00F8" fill-opacity="1" points="345.78946,572.9767 320.88815,566.75134 320.88815,579.20197" xmlns="" />
  <path d="M225.91805,607.5187 L225.91805,560.526" stroke="#FF00F8" stroke-width="1.44" stroke-linecap="round" stroke-linejoin="round" fill="none" />
  <path d="M345.78946,607.5187 L345.78946,560.526" stroke="#FF00F8" stroke-width="1.44" stroke-linecap="round" stroke-linejoin="round" fill="none" />
  <g id="Default">
    <path d="M225.91805,572.9766 L345.78946,572.9766" stroke="#000000" stroke-width="1.4173229" stroke-linecap="round" stroke-linejoin="round" fill="none" />
    <path d="M443.73315,43.63659 C443.7755,48.27661 440.32858,53.313725 432.6635,58.16004 C428.83102,60.5832 423.94397,62.958664 417.9981,65.234886 C412.05222,67.5111 405.04755,69.68809 397.32648,71.61842 C366.4422,79.33975 324.096,83.11461 285.18216,83.149635 C265.72525,83.167145 247.12643,82.249695 227.96475,80.336044 C218.3839,79.37923 208.66234,78.17335 199.46057,76.67268 C190.25879,75.17202 181.5768,73.376564 173.87624,71.4389 C143.07397,63.68828 127.974304,53.662434 127.974304,43.63659 C127.974304,33.61075 143.07397,23.584904 173.87624,15.834274 C181.5768,13.896618 190.25879,12.101161 199.46057,10.600496 C208.66234,9.099832 218.3839,7.8939586 227.96475,6.937135 C247.12643,5.023488 265.72525,4.106038 285.18216,4.1235485 C324.096,4.158569 366.4422,7.9334307 397.32648,15.654759 C405.04755,17.58509 412.05222,19.762077 417.9981,22.0383 C423.94397,24.314522 428.83102,26.689981 432.6635,29.11314 C440.32858,33.959457 443.7755,38.996567 443.73315,43.63659 z" stroke="#000000" stroke-width="1.4173229" stroke-linecap="round" stroke-linejoin="round" fill="none" />
    <path d="M443.73315,43.63659 L443.73315,58.620197" stroke="#000000" stroke-width="1.4173229" stroke-linecap="round" stroke-linejoin="round" fill="none" />
    <path d="M285.85373,620.70026 L285.85373,837.5133" stroke="#000000" stroke-width="1.4173229" stroke-linecap="round" stroke-linejoin="round" fill="none" />
    <path d="M225.91801,95.135284 L225.91801,652.17303" stroke="#000000" stroke-width="1.4173229" stroke-linecap="round" stroke-linejoin="round" fill="none" />
    <path d="M256.48395,4.8556905 L382.35175,74.875626" stroke="#000000" stroke-width="1.4173229" stroke-linecap="round" stroke-linejoin="round" fill="none" />
    <path d="M131.97197,34.810783 L210.08315,78.26383" stroke="#000000" stroke-width="1.4173229" stroke-linecap="round" stroke-linejoin="round" fill="none" />
    <path d="M300.98776,4.348491 L413.4171,66.89264" stroke="#000000" stroke-width="1.4173229" stroke-linecap="round" stroke-linejoin="round" fill="none" />
    <path d="M443.73315,58.620197 C443.7755,63.260223 440.32858,68.29733 432.6635,73.14365 C428.83102,75.5668 423.94397,77.94226 417.9981,80.21849 C412.05222,82.49471 405.04755,84.6717 397.32648,86.60203 C366.4422,94.32336 324.096,98.09822 285.18216,98.13324 C265.72525,98.15075 247.12643,97.23331 227.96475,95.31966 C218.3839,94.36283 208.66234,93.15696 199.46057,91.65629 C190.25879,90.155624 181.5768,88.360176 173.87624,86.422516 C143.07397,78.67189 127.974304,68.64604 127.974304,58.620197 C127.974304,48.594353 143.07397,38.568512 173.87624,30.81788 C181.5768,28.880224 190.25879,27.084768 199.46057,25.584105 C208.66234,24.083439 218.3839,22.877565 227.96475,21.920742 C247.12643,20.007093 265.72525,19.089643 285.18216,19.107155 C324.096,19.142176 366.4422,22.917038 397.32648,30.638367 C405.04755,32.5687 412.05222,34.74568 417.9981,37.021908 C423.94397,39.29813 428.83102,41.673588 432.6635,44.09675 C440.32858,48.94306 443.7755,53.98018 443.73315,58.620197 z" stroke="#000000" stroke-width="1.4173229" stroke-linecap="round" stroke-linejoin="round" fill="none" />
    <path d="M351.20087,7.706393 L436.71216,55.2761" stroke="#000000" stroke-width="1.4173229" stroke-linecap="round" stroke-linejoin="round" fill="none" />
    <path d="M127.974304,43.63659 L127.974304,58.620197" stroke="#000000" stroke-width="1.4173229" stroke-linecap="round" stroke-linejoin="round" fill="none" />
    <path d="M211.56856,8.808774 L340.70615,80.647675" stroke="#000000" stroke-width="1.4173229" stroke-linecap="round" stroke-linejoin="round" fill="none" />
    <path d="M345.78943,655.4009 C345.8005,657.2191 344.35864,659.1935 341.06647,661.0888" stroke="#000000" stroke-width="1.4173229" stroke-linecap="round" stroke-linejoin="round" fill="none" />
    <path d="M327.7871,665.8457 A134.93285,134.93285 0 0 1 313.82227,668.33014 A240.5273,240.5273 0 0 1 285.53616,670.0191 A200.95221,200.95221 0 0 1 257.2583,668.2483 A47.703094,47.703094 0 0 1 230.0942,660.7621 A47.680313,47.680313 0 0 1 243.31548,645.10254 A200.89449,200.89449 0 0 1 271.35873,641.2164 A240.5328,240.5328 0 0 1 299.6842,641.17694 A135.02904,135.02904 0 0 1 327.7669,644.95123" stroke="#000000" stroke-width="1.4173229" stroke-linecap="round" stroke-linejoin="round" fill="none" />
    <path d="M341.08682,649.72473 C344.36472,651.61646 345.80038,653.5863 345.78943,655.4009" stroke="#000000" stroke-width="1.4173229" stroke-linecap="round" stroke-linejoin="round" fill="none" />
    <path d="M345.78943,619.9693 L345.78943,630.59845" stroke="#000000" stroke-width="1.4173229" stroke-linecap="round" stroke-linejoin="round" fill="none" />
    <path d="M345.78943,644.7717 L345.78943,655.4009" stroke="#000000" stroke-width="1.4173229" stroke-linecap="round" stroke-linejoin="round" fill="none" />
    <path d="M225.91801,619.9693 L225.91801,630.59845" stroke="#000000" stroke-width="1.4173229" stroke-linecap="round" stroke-linejoin="round" fill="none" />
    <path d="M225.91801,644.7717 L225.91801,655.4009" stroke="#000000" stroke-width="1.4173229" stroke-linecap="round" stroke-linejoin="round" fill="none" />
    <path d="M149.34787,23.805958 L254.53653,82.322136" stroke="#000000" stroke-width="1.4173229" stroke-linecap="round" stroke-linejoin="round" fill="none" />
    <path d="M285.85373,837.5133 L309.12515,776.3368" stroke="#000000" stroke-width="1.4173229" stroke-linecap="round" stroke-linejoin="round" fill="none" />
    <path d="M262.58234,776.3368 C262.36743,774.4707 265.0426,772.21014 269.39835,770.6685 C273.7541,769.12695 279.7905,768.30426 285.85373,768.3207 C291.91696,768.33716 298.00705,769.1927 302.30908,770.6685 C306.61115,772.1444 309.12515,774.2406 309.12515,776.3368 C309.12515,778.433 306.61115,780.5291 302.30908,782.005 C298.00705,783.4809 291.91696,784.3364 285.85373,784.35284 C279.7905,784.36926 273.7541,783.54663 269.39835,782.005 C265.0426,780.46344 262.36743,778.2029 262.58234,776.3368 z" stroke="#000000" stroke-width="1.4173229" stroke-linecap="round" stroke-linejoin="round" fill="none" />
    <path d="M285.85373,837.5133 L262.58234,776.3368" stroke="#000000" stroke-width="1.4173229" stroke-linecap="round" stroke-linejoin="round" fill="none" />
    <path d="M345.78943,619.9693 C346.34283,623.3724 339.45297,627.49475 328.23468,630.3061 C317.0164,633.11743 301.46964,634.61774 285.85373,634.58777 C270.2378,634.5578 254.55272,632.99756 243.47278,630.3061 C232.39284,627.6146 225.91801,623.792 225.91801,619.9693 C225.91801,616.1466 232.39284,612.3239 243.47278,609.63245 C254.55272,606.94104 270.2378,605.3808 285.85373,605.3508 C301.46964,605.32086 317.0164,606.8211 328.23468,609.63245 C339.45297,612.4438 346.34283,616.56616 345.78943,619.9693 z" stroke="#000000" stroke-width="1.4173229" stroke-linecap="round" stroke-linejoin="round" fill="none" />
    <path d="M181.35477,14.049979 L304.9687,82.81609" stroke="#000000" stroke-width="1.4173229" stroke-linecap="round" stroke-linejoin="round" fill="none" />
    <path d="M345.78943,95.135284 L345.78943,651.57056" stroke="#000000" stroke-width="1.4173229" stroke-linecap="round" stroke-linejoin="round" fill="none" />
    <path d="M345.78943,58.620197 C346.34283,62.023308 339.45297,66.14568 328.23468,68.957016 C317.0164,71.76834 301.46964,73.26864 285.85373,73.23866 C270.2378,73.208694 254.55272,71.64847 243.47278,68.957016 C232.39284,66.265564 225.91801,62.442875 225.91801,58.620197 C225.91801,54.797516 232.39284,50.974834 243.47278,48.283382 C254.55272,45.59193 270.2378,44.0317 285.85373,44.00173 C301.46964,43.971764 317.0164,45.47205 328.23468,48.283382 C339.45297,51.09471 346.34283,55.217087 345.78943,58.620197 z" stroke="#000000" stroke-width="1.4173229" stroke-linecap="round" stroke-linejoin="round" fill="none" />
  </g>
  <text x="344.4128555805047" y="793.8907063230761" font-family="Bradley Hand ITC" text-anchor="middle" fill="#000000" font-size="44.52007293701172">P</text>
</svg>