<?xml version="1.0" standalone="no"?>
<!DOCTYPE svg PUBLIC "-//W3C//DTD SVG 20010904//EN"
 "http://www.w3.org/TR/2001/REC-SVG-20010904/DTD/svg10.dtd">
<svg version="1.0" xmlns="http://www.w3.org/2000/svg"
 width="2560.000000pt" height="989.000000pt" viewBox="0 0 2560.000000 989.000000"
 preserveAspectRatio="xMidYMid meet">

<g transform="translate(0.000000,989.000000) scale(0.100000,-0.100000)"
fill="#000000" stroke="none">
<path d="M14510 9295 c-83 -15 -360 -45 -415 -45 -59 0 -50 -19 29 -56 104
-47 191 -100 237 -141 27 -24 40 -31 43 -22 2 8 14 61 27 118 22 99 25 104 56
117 18 8 50 14 71 14 23 0 45 6 52 15 15 18 6 18 -100 0z m-74 -52 c-3 -10
-13 -49 -22 -88 -9 -38 -20 -74 -25 -79 -4 -4 -24 5 -45 20 -20 16 -83 52
-138 81 -56 29 -94 53 -86 54 8 0 65 7 125 13 169 20 197 20 191 -1z"/>
<path d="M13059 9286 c-3 -4 -62 -13 -130 -22 -68 -9 -134 -22 -147 -31 l-24
-14 49 -52 c27 -29 71 -87 97 -129 26 -43 50 -78 53 -78 18 0 46 27 68 65 19
31 29 70 37 133 l12 89 130 7 c160 9 193 26 49 26 -55 0 -120 3 -144 6 -24 3
-47 3 -50 0z m-24 -36 c-3 -5 -1 -10 6 -10 13 0 5 -112 -13 -170 -11 -37 -45
-90 -56 -90 -4 0 -27 31 -50 70 -24 38 -64 92 -89 120 -25 28 -44 53 -41 55 4
4 190 31 231 34 10 0 15 -3 12 -9z"/>
<path d="M13575 9217 c-66 -26 -94 -49 -131 -106 -21 -34 -44 -61 -51 -61 -6
0 -34 22 -62 49 -29 28 -54 45 -57 39 -4 -5 19 -34 50 -63 l57 -53 -32 -51
c-17 -29 -29 -55 -25 -58 3 -3 13 9 23 28 10 18 29 44 43 58 13 14 25 31 26
37 1 6 15 31 30 55 l29 43 3 -38 c2 -27 -2 -42 -15 -52 -17 -12 -17 -13 0 -14
14 0 17 -10 17 -61 0 -44 3 -60 13 -56 8 2 11 21 9 60 l-4 57 59 0 c75 1 139
15 175 41 24 17 28 27 28 65 0 64 -34 94 -104 93 -28 0 -64 -6 -81 -12z m137
-21 c23 -17 36 -56 28 -86 -9 -36 -53 -53 -152 -58 l-88 -4 0 59 0 59 43 21
c48 25 142 30 169 9z"/>
<path d="M6393 9143 c2 -32 17 -84 31 -117 14 -32 26 -60 26 -61 0 -1 -39 -17
-87 -35 -114 -43 -143 -63 -143 -100 0 -48 44 -64 166 -65 86 0 105 3 123 19
26 24 27 61 1 121 -11 26 -20 48 -20 50 0 1 13 8 29 15 34 14 77 57 67 67 -3
4 -14 -4 -23 -16 -14 -21 -80 -57 -89 -49 -10 11 -54 121 -59 152 -6 32 -5 36
14 36 26 0 27 8 4 26 -37 28 -46 18 -40 -43z m98 -250 c27 -64 25 -91 -8 -104
-35 -14 -179 -6 -215 11 -35 17 -38 54 -5 72 42 23 192 76 200 71 5 -3 17 -25
28 -50z"/>
<path d="M14770 9143 c-25 -130 -45 -151 -110 -118 -39 20 -78 98 -60 120 16
20 3 40 -16 24 -50 -42 39 -179 117 -179 39 0 59 30 80 117 22 92 22 93 10 93
-5 0 -15 -26 -21 -57z"/>
<path d="M6690 9173 c0 -5 11 -42 25 -84 31 -98 68 -293 63 -330 -3 -19 -1
-28 6 -26 15 6 11 110 -8 204 -21 100 -66 243 -77 243 -5 0 -9 -3 -9 -7z"/>
<path d="M9434 9156 c-49 -21 -72 -59 -79 -130 l-7 -63 -39 7 c-22 4 -42 4
-44 -1 -5 -8 8 -13 62 -24 22 -4 35 -15 43 -36 18 -43 85 -79 147 -79 53 0 74
14 87 57 23 74 -93 223 -174 223 -31 0 -24 -17 11 -24 47 -9 124 -90 139 -145
18 -67 3 -91 -54 -91 -25 0 -56 4 -71 10 -26 10 -75 56 -75 71 0 5 29 9 64 9
66 0 96 6 96 20 0 4 -17 4 -37 -1 -42 -9 -120 -1 -129 13 -4 5 -3 35 1 65 9
74 45 113 104 113 22 0 43 5 46 10 9 15 -54 12 -91 -4z"/>
<path d="M11547 9147 c-3 -9 -29 -16 -65 -20 -135 -14 -282 -54 -282 -76 0 -5
28 -31 63 -58 34 -26 88 -71 119 -101 31 -30 62 -51 68 -47 22 14 77 141 100
233 l11 44 175 -4 c96 -2 174 0 174 3 0 14 -51 19 -192 19 -92 0 -148 4 -148
10 0 15 -17 12 -23 -3z m-7 -34 c0 -42 -78 -243 -94 -243 -7 0 -25 14 -42 31
-16 17 -62 56 -101 86 -40 31 -73 59 -73 64 0 14 132 45 265 62 17 2 33 5 38
6 4 0 7 -2 7 -6z"/>
<path d="M5220 9073 c0 -11 383 -53 393 -43 9 8 -20 13 -208 35 -146 17 -185
18 -185 8z"/>
<path d="M7898 9033 c-4 -106 -3 -263 3 -263 3 0 14 7 25 15 17 13 18 14 1 15
-16 0 -17 10 -15 113 l3 112 72 3 71 3 -14 -47 c-24 -79 -34 -75 160 -74 107
1 182 -3 195 -9 38 -21 39 -81 0 -102 -11 -5 -50 -13 -87 -16 -64 -5 -103 3
-204 42 -10 4 -18 3 -18 -3 0 -5 24 -20 53 -33 67 -30 203 -33 255 -5 54 28
67 82 27 121 -24 25 -27 25 -199 25 l-175 0 6 33 c3 17 10 43 15 56 l9 24 121
-7 c92 -4 119 -3 111 5 -13 13 -363 16 -383 4 -5 -3 -10 3 -10 14 0 43 -20 19
-22 -26z"/>
<path d="M11702 9057 c-15 -17 -27 -107 -14 -107 5 0 15 -29 22 -65 13 -69 33
-86 45 -37 10 40 57 142 65 142 10 0 35 -63 50 -130 18 -80 24 -88 44 -58 18
27 45 144 46 193 0 36 14 62 24 46 8 -12 36 -15 36 -3 0 4 -10 13 -21 20 -32
20 -48 -1 -59 -79 -6 -35 -15 -86 -21 -113 l-12 -49 -31 96 c-17 52 -35 99
-40 104 -11 11 -44 -32 -74 -97 l-26 -55 -9 40 c-4 22 -6 65 -2 97 6 56 -4 79
-23 55z"/>
<path d="M5930 9036 c-5 -15 -10 -42 -10 -61 0 -62 -4 -65 -91 -65 -105 0
-102 -18 4 -22 l82 -3 5 -55 c6 -66 25 -51 21 16 l-2 42 100 4 c57 2 106 9
112 15 9 9 -15 10 -98 6 -61 -3 -112 -2 -115 3 -3 5 -2 38 2 74 9 72 6 87 -10
46z"/>
<path d="M12200 9053 c-84 -10 -38 -18 88 -16 79 2 138 7 140 13 4 10 -152 12
-228 3z"/>
<path d="M9043 9030 c-50 -20 -19 -54 121 -131 74 -42 77 -44 50 -50 -46 -10
-164 -10 -164 1 0 5 8 13 17 19 10 5 15 12 12 15 -3 4 -17 -3 -31 -14 l-25
-19 0 25 c0 37 -19 66 -59 93 -26 18 -38 21 -46 13 -9 -9 -9 -12 0 -12 6 0 27
-14 47 -31 31 -27 36 -37 33 -68 -3 -35 -4 -36 -51 -39 -59 -4 -136 21 -166
52 -32 34 -24 67 21 91 46 24 51 42 6 19 -96 -48 -91 -107 12 -159 47 -24 149
-31 174 -12 15 11 28 12 55 5 37 -11 188 -2 210 12 21 12 8 24 -97 84 -140 79
-142 83 -38 87 50 3 90 9 98 17 10 9 -5 12 -72 11 -47 0 -95 -4 -107 -9z"/>
<path d="M5098 9024 c-5 -4 -8 -73 -8 -153 0 -99 3 -142 10 -135 7 7 10 65 8
153 -2 79 -6 139 -10 135z"/>
<path d="M5250 8989 c-34 -76 -35 -76 93 -81 96 -3 119 -8 157 -29 34 -18 46
-31 48 -52 5 -37 -25 -47 -147 -47 -107 0 -122 7 -136 62 -4 16 -11 25 -16 22
-15 -9 1 -58 28 -81 21 -21 34 -23 121 -23 117 0 165 18 170 63 7 61 -63 96
-213 104 -58 3 -105 7 -105 8 0 1 7 22 15 45 20 58 10 64 -15 9z"/>
<path d="M13961 8976 c-17 -24 -35 -56 -41 -70 -5 -14 -16 -26 -25 -26 -8 0
-15 -4 -15 -10 0 -19 29 -10 43 13 7 12 28 46 46 76 39 66 34 79 -8 17z"/>
<path d="M8591 9000 c-59 -14 -86 -41 -89 -92 -3 -40 1 -49 24 -67 56 -44 163
-52 210 -15 18 13 17 14 -11 7 -16 -5 -56 -8 -87 -8 -76 0 -112 25 -116 83 -3
34 1 43 22 57 14 9 53 19 86 22 33 3 63 10 66 14 6 11 -58 10 -105 -1z"/>
<path d="M4323 8894 c-51 -52 -97 -94 -102 -94 -6 0 -28 15 -48 34 -71 63
-101 69 -138 31 -21 -20 -25 -34 -25 -83 0 -59 13 -89 40 -92 37 -5 59 3 108
40 l52 40 68 -55 c37 -31 77 -58 90 -62 22 -5 52 11 52 29 0 6 -7 5 -15 -2
-20 -17 -44 -6 -119 56 l-60 48 66 60 c74 69 145 146 132 145 -5 0 -50 -43
-101 -95z m-175 -68 l52 -44 -36 -32 c-48 -41 -82 -54 -111 -41 -20 9 -23 18
-23 66 0 107 35 122 118 51z"/>
<path d="M4770 8971 c-37 -70 -55 -287 -27 -326 17 -22 53 -16 88 15 l24 21
-32 -16 c-65 -31 -73 -21 -73 98 0 91 21 186 45 203 19 14 19 24 0 24 -8 0
-19 -9 -25 -19z"/>
<path d="M12160 8940 c0 -21 55 -32 138 -28 120 6 123 24 4 23 -53 0 -107 4
-119 8 -15 5 -23 5 -23 -3z"/>
<path d="M3745 8920 c-61 -8 -129 -32 -140 -50 -4 -7 3 -6 21 0 24 9 45 3 165
-51 151 -67 171 -81 148 -105 -29 -29 -279 -44 -319 -19 -8 5 -4 15 12 32 l23
26 -22 -12 c-31 -16 -46 -46 -30 -59 36 -29 284 -19 335 14 60 39 35 68 -112
130 -61 26 -115 49 -121 52 -16 10 35 20 101 21 42 1 66 6 74 16 11 13 7 15
-31 14 -24 -1 -71 -5 -104 -9z"/>
<path d="M7145 8920 c-4 -7 62 -10 189 -10 124 0 196 4 196 10 0 6 -70 10
-189 10 -116 0 -192 -4 -196 -10z"/>
<path d="M3144 8841 c-43 -26 -68 -93 -62 -166 7 -86 59 -126 143 -111 34 7
121 63 112 73 -3 3 -22 -7 -42 -22 -51 -40 -122 -46 -159 -14 -47 42 -48 168
-1 215 46 46 135 22 135 -37 0 -16 5 -29 10 -29 6 0 10 15 10 34 0 66 -80 97
-146 57z"/>
<path d="M3383 8853 c-12 -2 -27 -10 -33 -18 -14 -17 -25 -115 -16 -150 17
-66 103 -98 146 -55 16 16 20 33 20 85 0 61 -2 68 -36 105 -20 22 -41 39 -48
39 -6 -1 -21 -4 -33 -6z m66 -48 c26 -31 31 -44 31 -90 0 -29 -3 -60 -6 -69
-6 -16 -48 -21 -79 -10 -50 20 -64 185 -16 197 33 9 40 6 70 -28z"/>
<path d="M17862 8848 c-12 -6 -25 -22 -28 -35 -9 -35 2 -39 18 -6 12 26 18 28
81 31 l68 3 -3 -33 c-3 -31 -6 -33 -53 -41 -27 -4 -57 -15 -65 -24 -13 -13
-11 -14 25 -10 147 20 139 20 158 -1 26 -28 19 -73 -13 -89 -14 -7 -63 -13
-114 -13 l-90 0 30 31 c22 24 24 29 8 21 -11 -6 -26 -18 -33 -26 -11 -13 -15
-12 -35 5 -13 11 -56 39 -96 62 -40 23 -73 47 -72 52 0 6 24 14 52 19 65 11
64 26 -2 26 -40 0 -61 -6 -90 -26 -43 -30 -48 -38 -17 -29 14 5 28 0 42 -12
12 -11 49 -34 82 -52 68 -38 107 -70 99 -82 -3 -5 -40 -9 -83 -9 -104 0 -175
25 -125 44 9 4 15 9 12 12 -10 9 -58 -16 -58 -30 0 -28 80 -48 166 -42 43 3
132 9 196 13 137 9 171 26 176 85 2 29 -2 40 -24 57 -15 11 -34 21 -43 21 -12
0 -16 10 -16 42 l0 43 -65 2 c-36 1 -75 -3 -88 -9z"/>
<path d="M18190 8834 c-48 -20 -70 -51 -70 -99 0 -81 58 -141 147 -151 74 -9
114 41 99 121 -8 40 -81 129 -98 119 -5 -4 6 -23 25 -43 45 -46 57 -71 57
-115 0 -51 -23 -70 -78 -62 -85 11 -132 60 -132 135 0 51 25 78 80 87 22 4 43
11 46 15 8 14 -38 10 -76 -7z"/>
<path d="M7245 8829 c27 -17 511 -27 528 -10 8 8 -39 11 -184 11 -106 0 -232
3 -279 6 -71 4 -82 3 -65 -7z"/>
<path d="M13642 8816 c-49 -16 -85 -38 -124 -74 l-27 -25 -323 6 c-178 4 -329
3 -336 -1 -13 -9 314 -22 531 -22 l108 0 -32 -46 c-63 -92 -95 -233 -65 -295
30 -63 179 -141 312 -162 l74 -12 0 -130 c0 -159 -15 -234 -74 -367 -49 -113
-42 -108 -133 -87 -39 10 -60 10 -90 1 -123 -37 -213 -223 -213 -440 l0 -95
42 -40 c23 -22 32 -35 20 -28 -25 13 -42 14 -42 2 0 -4 28 -21 63 -37 60 -28
68 -29 212 -29 159 0 200 8 265 51 65 44 85 86 88 190 8 202 -45 308 -180 360
-37 14 -68 27 -68 28 0 1 23 54 51 116 64 143 79 212 79 371 l0 126 133 7
c347 17 477 107 477 333 0 61 -23 143 -41 143 -13 0 -11 -12 7 -56 40 -95 -4
-271 -80 -322 -73 -50 -270 -87 -421 -80 l-70 3 0 77 c0 60 -3 74 -12 66 -8
-6 -13 -35 -13 -74 0 -62 -1 -64 -26 -64 -86 0 -273 78 -323 135 -34 39 -38
70 -21 152 15 67 20 73 77 80 l51 6 4 -54 c3 -37 0 -57 -9 -65 -17 -15 -16
-24 3 -24 13 0 14 -8 8 -47 -5 -39 -4 -46 6 -36 7 7 15 27 17 44 2 18 4 34 6
35 1 1 63 5 138 9 129 7 138 6 165 -14 42 -31 133 -44 262 -38 97 4 117 7 134
25 43 43 -4 81 -157 127 -49 15 -96 34 -104 41 -15 13 -18 12 94 29 19 3 37
10 40 15 4 6 -36 10 -105 10 -150 0 -188 -20 -107 -56 23 -10 44 -21 47 -24 3
-3 16 -6 29 -8 48 -5 190 -53 222 -75 75 -51 23 -71 -161 -65 -136 5 -185 19
-184 53 0 15 -7 20 -30 21 -17 1 -34 -2 -37 -7 -3 -5 -60 -12 -127 -16 l-122
-6 0 66 0 67 139 0 c135 0 171 4 171 20 0 6 -116 5 -257 -4 -42 -2 -53 1 -53
12 0 13 -2 13 -17 -1 -10 -8 -40 -18 -67 -22 l-49 -8 24 42 c13 23 29 47 35
52 14 11 914 19 914 8 0 -10 112 19 124 32 8 9 3 10 -24 5 -19 -3 -75 -8 -125
-12 -90 -6 -90 -6 -176 35 -127 60 -183 72 -354 77 -111 3 -161 0 -193 -10z
m423 -40 c44 -15 96 -35 115 -46 l35 -19 -352 -1 c-194 0 -353 4 -353 8 0 13
60 54 109 74 40 16 67 18 206 14 140 -3 170 -7 240 -30z m-101 -171 c-7 -18
-12 -18 -44 0 l-25 14 37 1 c29 0 36 -3 32 -15z m-374 -1036 c25 -12 39 -23
33 -26 -30 -11 -9 -21 52 -25 80 -5 126 -38 170 -123 29 -56 30 -64 30 -189 0
-122 -2 -133 -24 -165 -14 -20 -47 -44 -80 -60 -53 -25 -65 -26 -211 -26 -122
0 -162 3 -190 16 l-35 17 62 -6 c34 -2 83 1 109 7 47 12 154 75 154 91 0 5
-23 -7 -51 -25 -60 -41 -105 -55 -177 -55 -59 0 -121 26 -146 62 -22 30 -21
181 0 267 55 221 163 305 304 240z"/>
<path d="M13510 7461 c-88 -28 -120 -48 -120 -75 0 -26 25 -53 34 -37 4 5 2
12 -4 16 -5 3 -10 15 -10 25 0 20 70 52 143 65 34 7 37 5 37 -16 0 -30 -27
-75 -95 -159 -57 -70 -81 -110 -67 -110 5 0 13 10 19 23 6 12 38 56 72 96 67
83 91 126 91 165 0 32 -20 33 -100 7z"/>
<path d="M13710 7213 c0 -5 7 -17 15 -27 8 -10 12 -23 9 -27 -3 -5 -81 -9
-174 -9 -102 0 -171 -4 -175 -10 -4 -7 55 -10 169 -10 145 0 177 3 190 16 20
19 20 24 0 52 -15 21 -34 30 -34 15z"/>
<path d="M16727 8764 c-10 -10 -9 -274 1 -274 11 0 32 22 32 33 0 4 -5 5 -10
2 -7 -5 -10 27 -8 97 l3 103 42 3 42 3 -14 -35 c-8 -19 -15 -47 -15 -61 0 -14
-4 -25 -10 -25 -17 0 -11 -29 10 -50 17 -17 33 -20 106 -20 81 0 120 10 136
34 14 20 8 53 -13 80 -17 22 -28 26 -72 26 -30 0 -70 -9 -95 -20 l-44 -20 7
33 c13 61 27 67 141 67 58 0 106 4 109 10 7 12 -128 12 -247 2 -59 -6 -78 -4
-85 6 -4 8 -11 10 -16 6z m287 -126 c9 -12 16 -33 16 -45 0 -29 -30 -37 -129
-37 -60 1 -76 4 -88 19 -19 27 -13 37 37 63 61 31 143 31 164 0z"/>
<path d="M17430 8750 c0 -5 4 -10 10 -10 5 0 25 -14 45 -31 25 -22 35 -39 35
-60 0 -28 -2 -29 -44 -29 -35 0 -48 5 -60 22 -18 26 -20 61 -6 89 8 13 7 19 0
19 -13 0 -30 -43 -30 -74 0 -13 9 -35 21 -50 17 -21 29 -26 68 -26 55 0 71 12
71 56 0 24 -9 40 -40 68 -39 35 -70 47 -70 26z"/>
<path d="M17240 8733 c-32 -17 -35 -22 -38 -70 -3 -50 -1 -54 30 -73 35 -21
102 -27 113 -10 4 6 -8 10 -30 10 -20 0 -49 7 -65 15 -26 14 -30 21 -30 60 0
52 18 67 80 63 22 -1 43 1 46 5 4 4 -1 7 -12 7 -10 0 -28 3 -39 5 -11 3 -36
-2 -55 -12z"/>
<path d="M19318 8684 c-5 -4 -8 -209 -8 -456 l0 -448 -1105 0 c-608 0 -1105 2
-1105 5 0 2 14 84 30 181 29 166 32 218 12 163 -5 -13 -12 -46 -16 -74 -4 -27
-16 -101 -27 -162 l-21 -113 -897 0 -896 0 3 72 c4 87 -11 83 -18 -5 l-5 -62
-180 -3 c-132 -2 -186 1 -204 10 -19 10 -25 10 -28 1 -4 -10 -39 -13 -133 -13
-75 0 -131 -4 -135 -10 -4 -6 44 -10 137 -10 l143 -1 128 -184 c70 -101 127
-189 127 -195 0 -34 -126 -171 -169 -185 -12 -3 -21 -11 -21 -16 0 -6 18 0 41
13 40 22 89 70 140 138 15 19 29 33 31 30 24 -27 948 -1360 948 -1368 0 -6
-35 -42 -77 -81 -98 -89 -89 -93 12 -6 41 36 78 65 82 65 10 -1 1035 -1471
1029 -1477 -2 -3 -29 1 -59 7 -37 9 -110 11 -228 7 -207 -6 -321 -31 -465
-101 -113 -56 -185 -124 -227 -215 -26 -55 -31 -77 -31 -146 0 -66 4 -90 26
-135 58 -123 191 -214 387 -263 72 -18 114 -21 261 -21 157 0 185 3 272 27
143 38 209 71 268 133 27 29 50 59 50 66 0 7 -10 0 -23 -17 -60 -83 -119 -117
-282 -162 -94 -26 -112 -28 -285 -27 -157 1 -197 4 -265 23 -281 76 -427 245
-385 447 26 123 97 207 233 274 159 78 429 121 623 99 129 -14 161 -32 228
-125 30 -44 56 -82 56 -85 0 -3 -19 -6 -42 -7 -79 -3 -109 -68 -68 -145 l21
-38 -51 -48 c-27 -26 -50 -54 -50 -62 0 -31 36 -50 106 -56 79 -6 133 5 148
31 9 15 1 27 -54 78 l-64 60 24 19 c30 23 19 25 -15 3 -23 -15 -25 -15 -45 18
-22 37 -26 90 -7 105 18 15 63 24 81 17 9 -3 16 -16 16 -28 1 -20 1 -20 14 -3
13 16 16 14 48 -30 136 -187 1518 -2175 1518 -2183 0 -7 -665 -10 -1957 -10
-1077 0 -1980 -1 -2008 -1 l-50 -2 40 -6 40 -6 0 -648 c0 -427 3 -646 10 -644
6 2 11 139 13 376 2 285 5 373 15 376 6 2 45 6 85 9 l72 6 0 -74 c0 -80 6
-109 21 -100 6 3 7 40 3 90 l-7 84 105 0 106 0 5 -30 c8 -37 50 -60 111 -60
36 0 48 5 65 26 12 16 21 42 21 63 0 50 18 22 26 -42 5 -36 10 -47 21 -43 8 4
16 6 18 6 3 0 9 10 16 23 11 21 11 21 -7 5 -17 -17 -18 -14 -36 54 -19 77 -27
90 -55 94 -126 20 -148 14 -173 -45 l-12 -31 -104 0 -104 0 -2 78 c-1 42 -2
112 -2 154 -1 46 -6 82 -13 89 -22 22 -26 -15 -14 -115 6 -52 11 -119 11 -150
0 -63 3 -61 -107 -69 l-63 -5 0 264 0 264 1956 0 c1226 0 1962 -4 1973 -10 25
-13 104 -137 96 -150 -3 -5 1 -10 9 -10 8 0 37 -32 65 -72 50 -70 51 -73 30
-83 -11 -6 -34 -9 -51 -7 -25 4 -34 13 -50 49 -11 25 -18 54 -15 64 3 11 0 33
-6 49 -14 38 -64 51 -102 26 -36 -23 -75 -97 -88 -165 -9 -46 -16 -61 -32 -65
-31 -9 -93 -7 -99 3 -3 4 0 31 8 60 10 40 10 49 0 41 -7 -6 -18 -33 -24 -60
-12 -50 -12 -50 -53 -50 -23 0 -66 -3 -94 -6 l-53 -7 0 31 c0 54 -73 117 -95
82 -4 -6 9 -17 28 -25 41 -17 47 -30 47 -100 0 -43 -5 -60 -26 -84 -24 -28
-31 -31 -87 -31 -82 0 -127 26 -127 72 0 17 -5 46 -12 64 -16 45 6 75 76 105
67 27 75 44 11 22 -44 -15 -92 -52 -111 -85 -6 -12 -17 -15 -32 -12 l-22 6 25
30 c28 33 31 50 11 67 -20 17 -119 18 -149 2 -26 -14 -55 -66 -43 -78 3 -4 12
7 18 25 7 18 24 36 39 42 29 12 115 4 125 -11 10 -17 -7 -47 -34 -58 -95 -37
-93 -35 -23 -41 l65 -5 13 -50 c17 -65 18 -61 -19 -76 -31 -13 -200 -20 -211
-9 -13 13 8 63 29 72 13 6 24 15 24 20 0 5 -9 4 -19 -2 -29 -15 -41 -12 -41
11 0 12 -16 37 -35 56 -35 35 -36 36 -106 31 -39 -3 -75 -10 -80 -15 -6 -6
-46 -8 -98 -5 -86 4 -88 4 -109 -22 -26 -34 -15 -72 34 -116 45 -39 77 -47
109 -26 25 16 25 16 25 -15 0 -20 4 -29 13 -27 8 3 14 36 18 93 7 104 16 115
94 115 60 0 91 -19 112 -67 13 -31 12 -37 -1 -52 -44 -49 -3 -75 119 -75 72 0
98 4 130 20 l40 21 28 -21 c20 -15 47 -21 97 -24 69 -4 70 -4 105 31 19 19 38
49 41 65 7 34 33 42 137 42 54 0 57 -1 57 -24 0 -44 23 -127 34 -122 6 2 9 10
8 17 -14 56 -25 119 -21 123 2 2 32 7 67 11 60 7 62 6 62 -17 0 -40 37 -88 85
-109 35 -15 69 -20 167 -21 68 0 134 2 148 7 18 5 22 4 15 -4 -6 -6 -33 -13
-60 -16 -89 -10 -115 -16 -115 -24 0 -4 35 -3 77 1 72 8 123 27 123 47 0 5 6
11 14 14 11 4 11 -1 -1 -35 -24 -70 -6 -88 88 -88 53 0 76 19 89 74 6 28 5 36
-6 36 -7 0 -25 5 -39 12 -35 16 -34 60 5 104 52 60 52 137 -1 217 -27 42 -30
51 -27 119 l3 73 55 0 55 0 2 -336 2 -337 -22 -7 -22 -8 23 -4 23 -5 -3 -284
c-2 -186 0 -283 7 -281 6 2 11 109 13 285 l2 282 114 0 114 0 6 -31 c3 -17 6
-78 6 -135 0 -57 4 -104 9 -104 16 0 18 22 13 109 -3 48 -1 82 4 79 128 -61
215 -84 375 -99 133 -12 245 -3 369 31 100 27 281 118 355 177 60 49 125 125
124 146 0 7 -8 1 -17 -13 -40 -59 -112 -125 -186 -171 -208 -127 -419 -176
-658 -150 -216 24 -368 82 -368 142 0 18 9 19 225 19 143 0 225 4 225 10 0 6
-81 10 -222 10 -219 1 -223 1 -200 19 30 26 28 35 -3 15 l-25 -16 0 71 c0 54
4 73 15 77 8 4 15 10 15 15 0 5 -7 9 -15 9 -13 0 -15 33 -15 240 0 205 2 241
15 246 20 8 19 24 0 24 -14 0 -15 74 -13 653 l3 652 29 42 29 43 72 0 c56 0
76 4 86 17 13 15 8 16 -65 10 -72 -6 -78 -6 -71 11 16 40 23 72 15 72 -5 0
-15 -19 -22 -42 -16 -48 -52 -64 -75 -32 -11 16 -13 16 -19 1 -5 -15 -27 -17
-170 -17 -103 0 -164 -4 -164 -10 0 -6 62 -10 165 -10 l165 0 0 -58 c0 -32 -5
-63 -12 -70 -9 -9 -9 -12 0 -12 9 0 12 -145 12 -624 l0 -623 -112 -5 c-62 -3
-116 -3 -120 -1 -5 2 -8 45 -8 96 0 116 -18 106 -22 -13 l-3 -85 -55 0 -55 0
-3 728 c-2 709 -2 727 17 727 27 0 81 51 81 76 0 26 -53 74 -81 74 -19 0 -19
34 -19 2075 l0 2075 1125 0 c743 0 1125 3 1125 10 0 7 -382 10 -1125 10
l-1125 0 -2 456 c-2 251 -6 452 -10 448z m-4063 -956 c-11 -51 -55 -200 -63
-215 -6 -9 -47 25 -142 117 l-135 129 173 0 174 1 -7 -32z m1815 19 c0 -7 -13
-67 -30 -134 -105 -430 -292 -837 -540 -1172 -45 -62 -86 -111 -90 -109 -5 2
-241 226 -527 499 -285 272 -556 531 -601 575 l-84 79 16 40 c14 37 30 92 56
193 l11 42 894 0 c719 0 895 -3 895 -13z m2240 -2062 l0 -2075 -29 0 c-25 0
-181 145 -1098 1022 -589 563 -1225 1171 -1415 1353 l-345 329 83 111 c262
352 450 759 554 1198 l33 137 1109 0 1108 0 0 -2075z m-4141 1780 c0 -27 -27
-62 -38 -49 -18 19 -191 272 -191 279 0 3 52 -42 115 -102 72 -68 115 -115
114 -128z m714 -664 c279 -266 507 -490 507 -496 0 -11 -203 -239 -249 -279
-19 -17 -23 -18 -35 -5 -11 11 -330 468 -938 1341 -18 26 -18 27 3 62 l21 36
92 -87 c50 -47 319 -305 599 -572z m1060 -1013 c289 -277 921 -881 1405 -1343
l879 -840 -1 -50 c-1 -49 0 -50 41 -70 l42 -20 -2 -730 -2 -730 -190 -3 c-142
-2 -195 1 -207 10 -28 22 -1569 2238 -1563 2248 8 13 -31 91 -63 125 -15 17
-44 44 -64 60 -39 31 -1088 1528 -1088 1551 0 7 8 18 18 23 9 5 71 68 137 140
65 72 122 131 125 131 4 0 244 -226 533 -502z m348 -1450 c8 -15 8 -18 0 -14
-6 4 -16 16 -22 28 -8 15 -8 18 0 14 6 -4 16 -16 22 -28z m34 -357 c27 -31 8
-41 -75 -40 -80 1 -110 9 -124 32 -9 16 -3 25 38 63 l48 44 47 -39 c25 -21 55
-49 66 -60z m1929 -416 c-4 -8 -8 -15 -10 -15 -2 0 -4 7 -4 15 0 8 4 15 10 15
5 0 7 -7 4 -15z m83 -17 c-3 -8 -6 -5 -6 6 -1 11 2 17 5 13 3 -3 4 -12 1 -19z
m30 -10 c-3 -8 -6 -5 -6 6 -1 11 2 17 5 13 3 -3 4 -12 1 -19z m-77 -3 c0 -8
-4 -15 -10 -15 -5 0 -10 7 -10 15 0 8 5 15 10 15 6 0 10 -7 10 -15z m480 -142
c0 -5 -9 -19 -20 -33 l-20 -25 0 33 c0 25 4 32 20 32 11 0 20 -3 20 -7z m-462
-1475 c2 -38 1 -68 -1 -68 -2 0 -22 9 -45 20 -52 26 -136 26 -201 1 l-49 -18
-41 59 c-23 33 -39 64 -35 69 3 6 82 8 187 7 l182 -3 3 -67z m310 62 l92 0 0
-240 0 -240 -120 0 -120 0 0 238 c0 131 3 242 7 246 4 4 17 5 28 2 11 -3 62
-6 113 -6z m-345 -138 l37 -24 0 -138 c0 -132 -1 -140 -22 -154 -12 -9 -26
-16 -30 -16 -9 0 -83 109 -77 113 2 2 16 11 32 20 41 26 33 37 -26 37 l-53 0
-52 74 c-29 41 -52 77 -52 81 0 3 15 13 33 21 50 22 163 15 210 -14z m-343
-21 c5 -11 10 -28 10 -38 0 -10 11 -43 23 -73 l22 -55 -50 -20 c-64 -26 -81
-62 -46 -99 32 -34 101 -45 136 -22 24 16 25 15 25 -3 0 -29 -17 -36 -90 -37
-77 -3 -132 21 -155 66 -22 42 -19 57 15 69 40 13 39 24 -2 16 l-31 -7 6 47
c8 52 39 129 64 157 21 24 60 23 73 -1z m446 -118 c7 -45 -8 -104 -32 -123
-12 -11 -14 3 -14 101 l0 114 20 -25 c11 -14 22 -44 26 -67z m-172 -42 c7 -11
-34 -22 -48 -14 -5 4 -1 10 10 14 26 10 32 10 38 0z m-70 -20 c3 -4 -6 -13
-19 -19 -36 -17 -31 -40 20 -86 59 -55 58 -66 -9 -66 l-53 0 -7 78 c-5 66 -4
79 11 90 19 14 49 16 57 3z m-1524 -21 c-20 -13 -143 -13 -135 0 3 6 39 10 78
10 50 0 67 -3 57 -10z m1410 -34 c16 -58 8 -69 -47 -63 -80 9 -111 66 -50 92
17 8 44 14 58 15 23 0 28 -6 39 -44z m165 -17 c67 -94 56 -107 -24 -28 -55 54
-60 65 -33 72 9 3 18 5 19 6 0 0 18 -22 38 -50z m-1555 -10 c0 -46 -19 -68
-57 -69 -23 0 -103 68 -103 88 0 6 24 13 58 15 31 2 67 4 80 5 20 2 22 -3 22
-39z m-2121 -20 c29 -10 31 -14 31 -61 0 -73 -11 -88 -68 -88 -71 0 -115 45
-74 76 16 13 16 13 -1 14 -14 0 -17 5 -11 23 3 12 11 28 16 35 13 15 64 16
107 1z m3795 -44 c-7 -17 -20 -20 -28 -6 -7 10 3 21 20 21 8 0 11 -6 8 -15z
m406 -100 l0 -85 -120 0 -120 0 0 85 0 85 120 0 120 0 0 -85z m-422 16 c3 -8
-1 -12 -9 -9 -7 2 -15 10 -17 17 -3 8 1 12 9 9 7 -2 15 -10 17 -17z m72 -1 c0
-5 -5 -10 -11 -10 -5 0 -7 5 -4 10 3 6 8 10 11 10 2 0 4 -4 4 -10z m5 -30 c-3
-5 -12 -10 -18 -10 -7 0 -6 4 3 10 19 12 23 12 15 0z"/>
<path d="M15522 7708 c-7 -7 -12 -33 -12 -58 l0 -46 -36 4 c-43 5 -39 -12 5
-21 24 -5 30 -12 36 -44 14 -81 82 -162 124 -148 35 11 88 80 96 124 4 23 12
41 20 41 7 0 18 6 24 14 10 12 6 15 -19 21 -18 4 -30 13 -30 23 0 23 -50 92
-66 92 -21 0 -17 -14 10 -39 14 -13 29 -37 35 -53 14 -39 0 -43 -97 -32 l-77
9 -3 38 c-2 28 0 37 12 37 19 0 20 9 2 32 -10 13 -15 15 -24 6z m197 -154 c12
-11 -15 -81 -43 -112 -31 -33 -36 -35 -59 -25 -27 13 -71 80 -83 127 l-7 28
94 -7 c52 -4 96 -9 98 -11z"/>
<path d="M16177 7660 c-16 -5 -35 -14 -43 -21 -16 -13 -19 -69 -4 -69 6 0 10
14 10 30 0 39 27 50 121 50 l69 0 0 -30 c0 -25 -5 -31 -38 -39 -21 -6 -46 -17
-57 -25 -36 -26 -6 -30 50 -7 58 24 94 25 105 1 4 -8 14 -30 23 -47 21 -42 14
-46 -91 -51 -90 -5 -116 4 -92 33 11 13 10 15 -3 9 -22 -8 -32 -44 -16 -55 22
-14 145 -10 191 6 38 12 49 12 83 0 77 -27 173 -12 189 30 13 36 6 72 -21 97
-36 34 -91 61 -105 52 -6 -4 5 -15 28 -27 57 -29 84 -57 84 -88 0 -47 -25 -62
-95 -57 -82 7 -105 20 -105 60 0 19 -9 41 -21 55 -28 29 -13 51 43 59 36 6 64
24 36 24 -33 0 -87 -22 -108 -45 -13 -14 -33 -25 -45 -25 -19 0 -22 5 -21 43
l1 42 -70 2 c-38 1 -83 -2 -98 -7z m263 -141 c0 -11 -4 -17 -10 -14 -5 3 -10
15 -10 26 0 11 5 17 10 14 6 -3 10 -15 10 -26z"/>
<path d="M16820 7652 c0 -24 14 -42 32 -42 29 0 20 44 -9 48 -13 2 -23 -1 -23
-6z"/>
<path d="M15850 7550 c-10 -7 21 -10 98 -10 68 0 112 4 112 10 0 13 -190 13
-210 0z"/>
<path d="M15904 7498 c-7 -10 120 -21 165 -13 73 12 51 20 -56 20 -58 0 -107
-3 -109 -7z"/>
<path d="M18638 6904 c-11 -11 -10 -52 2 -75 7 -12 21 -19 38 -19 39 0 54 13
50 45 -3 29 -31 55 -45 41 -4 -4 0 -12 10 -17 9 -6 17 -19 17 -30 0 -16 -6
-20 -27 -17 -24 3 -29 8 -33 41 -3 22 -8 35 -12 31z"/>
<path d="M18362 6873 c-26 -3 -45 -10 -49 -19 -7 -18 14 -44 35 -44 13 0 13 3
-2 19 -16 17 -15 19 15 25 72 14 119 5 119 -25 0 -20 -36 -49 -62 -49 -33 0
-18 -17 20 -23 50 -9 82 -33 82 -62 0 -20 -7 -25 -35 -31 -45 -8 -120 3 -134
20 -6 8 -9 22 -5 32 5 18 5 18 -10 0 -20 -25 -20 -29 3 -50 14 -12 38 -17 95
-18 85 -1 106 10 106 52 0 30 -39 70 -68 70 -12 0 -11 5 6 23 43 45 15 91 -51
85 -12 -1 -41 -3 -65 -5z"/>
<path d="M17080 6797 c-25 -17 -67 -48 -94 -69 -48 -38 -49 -38 -63 -18 -40
56 -163 -29 -163 -114 0 -37 18 -33 97 20 60 40 69 44 78 29 51 -86 67 -105
91 -111 29 -7 55 4 62 27 4 11 1 10 -14 -2 -29 -25 -58 -8 -93 53 -17 29 -31
58 -31 63 0 6 39 40 88 75 48 35 89 65 91 67 2 2 2 5 0 7 -2 2 -24 -10 -49
-27z m-170 -106 c8 -17 2 -24 -44 -55 -71 -47 -86 -52 -86 -32 0 71 102 139
130 87z"/>
<path d="M17495 6807 c-30 -14 -75 -57 -60 -57 5 0 19 9 31 21 38 35 154 39
154 4 0 -18 -31 -35 -64 -35 -24 0 -43 -16 -32 -27 3 -3 25 -1 49 5 23 6 53 9
66 5 26 -7 47 -51 32 -66 -5 -5 -51 -12 -101 -15 l-92 -5 12 24 c13 24 13 24
-9 5 -11 -11 -21 -26 -21 -34 0 -12 15 -14 93 -10 51 3 103 10 115 17 17 9 26
9 44 -3 56 -34 167 -26 201 15 54 66 -40 159 -162 159 -26 0 -42 -8 -67 -35
-40 -43 -55 -45 -48 -6 3 16 1 32 -5 35 -23 15 -107 16 -136 3z m350 -40 c52
-29 73 -66 58 -100 -16 -34 -89 -46 -147 -26 -33 12 -42 20 -49 49 -4 19 -11
46 -14 59 -4 14 0 26 8 32 27 17 103 9 144 -14z"/>
<path d="M18155 6786 c-33 -78 0 -146 70 -146 102 0 85 165 -18 176 -35 4 -39
2 -52 -30z m77 3 c29 -16 50 -72 38 -104 -20 -53 -110 -19 -110 43 0 68 23 87
72 61z"/>
<path d="M17210 6710 c37 -12 180 -12 180 0 0 6 -40 10 -102 9 -67 -1 -94 -4
-78 -9z"/>
<path d="M18037 6672 c-21 -23 -21 -32 0 -32 9 0 13 3 10 7 -4 3 -2 12 5 20
17 21 3 25 -15 5z"/>
<path d="M17223 6633 c10 -16 146 -28 160 -14 8 8 4 11 -15 11 -14 0 -53 3
-88 7 -43 4 -61 3 -57 -4z"/>
<path d="M17962 5919 c-5 -13 -15 -53 -22 -89 -8 -36 -21 -70 -29 -77 -14 -11
-14 -12 1 -13 23 0 32 20 53 113 16 76 15 115 -3 66z"/>
<path d="M17517 5824 c-4 -4 -7 -61 -7 -126 0 -90 3 -118 13 -118 7 0 18 5 24
11 8 8 17 5 33 -11 21 -21 29 -22 114 -18 97 5 143 22 170 60 23 32 20 61 -10
89 -23 22 -34 24 -115 23 l-90 -1 3 31 3 31 75 5 c65 4 70 6 40 13 -38 8 -172
-1 -208 -14 -18 -7 -24 -5 -30 12 -4 11 -11 17 -15 13z m107 -50 c3 -9 6 -26
6 -38 0 -22 3 -22 94 -22 79 1 97 -2 115 -18 29 -26 24 -63 -12 -90 -22 -16
-46 -21 -124 -24 -106 -5 -123 3 -123 57 0 26 0 25 -20 -6 -11 -18 -22 -33
-25 -33 -3 0 -5 40 -5 89 0 85 1 90 23 94 46 9 65 7 71 -9z"/>
<path d="M9393 8244 c-64 -31 -97 -79 -98 -143 l0 -46 -53 -3 c-66 -4 -59 -22
9 -22 42 0 51 -3 58 -22 29 -76 152 -95 231 -36 48 35 84 117 78 178 -3 29
-13 59 -23 70 -22 24 -89 44 -122 35 -16 -4 -22 -2 -18 5 9 15 -5 12 -62 -16z
m14 -22 c-28 -31 -19 -35 14 -8 35 29 73 33 124 12 39 -17 55 -42 55 -88 0
-69 -6 -74 -73 -78 -34 -3 -93 -4 -132 -5 l-69 0 -8 39 c-11 51 14 102 62 128
43 23 47 23 27 0z m157 -207 c-35 -54 -126 -78 -183 -48 -19 10 -41 28 -48 40
-14 21 -13 21 79 27 51 3 109 7 128 9 45 3 45 3 24 -28z"/>
<path d="M14935 8200 c-4 -7 686 -10 2064 -10 1369 0 2072 3 2076 10 4 7 -686
10 -2064 10 -1369 0 -2072 -3 -2076 -10z"/>
<path d="M6202 8096 c-41 -57 -84 -114 -97 -126 l-24 -23 -38 31 c-50 39 -131
82 -155 82 -10 0 -30 -11 -43 -25 -21 -20 -25 -34 -25 -85 0 -52 4 -65 26 -87
22 -22 31 -25 70 -19 45 6 116 37 146 64 16 13 25 10 95 -36 113 -74 122 -77
168 -58 46 20 42 29 -6 15 -32 -10 -40 -8 -109 35 -121 75 -118 71 -88 103 53
58 176 233 162 233 -5 -1 -42 -48 -82 -104z m-247 -85 c72 -43 109 -76 101
-89 -12 -20 -83 -52 -130 -58 -61 -9 -86 16 -86 87 0 95 29 110 115 60z"/>
<path d="M7986 8162 c-6 -18 -15 -22 -46 -22 -21 0 -42 -4 -45 -10 -4 -6 12
-10 39 -10 l46 0 0 -44 0 -44 109 6 110 5 31 -31 c39 -40 39 -89 0 -110 -38
-20 -191 -10 -259 17 -66 27 -91 22 -36 -6 92 -48 259 -56 313 -16 41 30 42
81 3 125 l-29 33 -111 0 -111 0 0 33 0 33 107 -2 c72 -1 108 2 111 10 3 8 -28
11 -102 11 -101 0 -107 1 -115 22 l-8 23 -7 -23z"/>
<path d="M7787 8162 c-11 -16 3 -313 14 -306 4 2 18 19 30 37 18 26 18 29 3
14 -19 -18 -19 -15 -29 125 -6 82 -14 138 -18 130z"/>
<path d="M8941 8115 l-23 -25 37 0 c28 0 54 -12 111 -52 41 -28 80 -60 85 -71
22 -41 -42 -66 -166 -67 -86 0 -106 10 -86 42 14 23 14 23 -8 4 -52 -46 -5
-70 121 -63 85 6 132 21 158 52 21 25 -1 58 -77 112 l-68 48 62 5 c62 5 83 13
69 28 -4 4 -49 8 -99 10 -87 3 -93 2 -116 -23z"/>
<path d="M8462 8093 c-72 -21 -122 -69 -122 -115 0 -46 23 -65 94 -80 43 -8
70 -8 107 0 45 11 53 10 78 -9 31 -23 104 -35 145 -25 13 3 38 18 55 32 26 22
31 33 31 70 0 36 -6 51 -32 79 -18 19 -49 41 -69 49 -33 14 -39 13 -75 -5 -21
-11 -52 -34 -67 -51 -23 -24 -28 -37 -25 -70 2 -36 -1 -42 -22 -50 -34 -13
-147 -2 -176 17 -18 11 -24 25 -24 50 0 42 32 69 107 91 29 8 53 20 53 25 0 5
-1 9 -2 8 -2 0 -27 -8 -56 -16z m296 -27 c80 -41 102 -145 36 -175 -33 -15
-113 -14 -142 2 -26 15 -52 60 -52 91 0 31 27 66 64 82 40 17 61 17 94 0z"/>
<path d="M5210 8043 c-41 -51 -57 -109 -38 -143 19 -34 85 -70 129 -70 46 0
69 25 69 74 0 44 -12 70 -53 113 -23 25 -34 30 -44 22 -13 -12 -8 -33 7 -24
11 7 58 -50 66 -80 11 -45 1 -80 -26 -83 -39 -6 -97 16 -120 45 -26 33 -20 82
14 128 48 65 46 77 -4 18z"/>
<path d="M5542 8048 c-29 -17 -51 -33 -48 -35 2 -3 13 0 24 6 30 16 38 14 50
-14 6 -14 43 -48 82 -76 38 -28 70 -55 70 -59 0 -14 -32 -21 -124 -26 -112 -6
-136 4 -91 41 17 14 25 25 19 25 -7 0 -27 -14 -44 -30 -49 -45 -31 -55 94 -54
107 1 158 15 164 45 2 11 -23 35 -68 69 -62 46 -99 86 -88 95 2 1 25 6 51 11
61 11 65 28 7 31 -35 2 -57 -5 -98 -29z"/>
<path d="M6636 8001 c-8 -12 39 -18 193 -26 63 -4 119 -7 124 -8 5 -1 11 3 14
9 3 8 -38 14 -134 18 -76 4 -150 9 -165 12 -14 3 -29 1 -32 -5z"/>
<path d="M4933 7978 c-33 -37 -43 -64 -43 -117 0 -65 37 -101 103 -101 27 0
112 38 104 46 -3 3 -20 -2 -38 -11 -40 -21 -104 -15 -132 13 -39 40 -14 152
38 172 29 11 32 20 7 20 -10 0 -28 -10 -39 -22z"/>
<path d="M6684 7902 c8 -13 93 -38 160 -46 59 -7 216 4 216 15 0 5 -42 6 -92
3 -89 -6 -106 -4 -267 33 -16 4 -22 2 -17 -5z"/>
<path d="M7335 7790 c-4 -7 390 -10 1174 -10 776 0 1182 3 1186 10 4 7 -390
10 -1174 10 -776 0 -1182 -3 -1186 -10z"/>
<path d="M19630 5584 c0 -1414 3 -2123 10 -2119 14 9 14 4245 0 4245 -7 0 -10
-715 -10 -2126z"/>
<path d="M9355 7635 c-32 -41 -37 -110 -12 -149 23 -35 22 -41 -17 -65 -42
-27 -61 -67 -47 -104 18 -48 95 -80 145 -61 24 9 21 95 -4 144 -11 22 -20 41
-20 43 0 2 19 12 43 21 37 14 97 58 97 72 0 3 -15 -6 -32 -20 -32 -23 -101
-56 -120 -56 -5 0 -18 20 -29 45 -22 49 -19 80 13 133 26 42 16 41 -17 -3z
m45 -245 c11 -21 20 -57 20 -80 0 -36 -2 -40 -25 -40 -60 0 -114 55 -100 101
5 16 60 58 77 59 4 0 17 -18 28 -40z"/>
<path d="M9020 7524 c-6 -14 -10 -33 -10 -42 0 -9 -3 -27 -6 -39 -6 -22 -11
-23 -100 -23 -51 0 -96 -4 -99 -10 -4 -6 30 -10 94 -10 l101 0 0 -57 c0 -44 3
-54 12 -45 7 7 11 31 9 56 l-2 44 115 7 c83 5 119 11 128 22 11 13 4 14 -52 9
-36 -4 -93 -9 -128 -12 l-63 -6 6 39 c4 21 9 50 11 66 7 34 -3 35 -16 1z"/>
<path d="M8292 7513 c-28 -3 -42 -8 -39 -16 2 -7 -4 -34 -14 -60 -11 -26 -19
-52 -19 -57 0 -5 60 -7 148 -3 169 7 182 2 182 -66 0 -50 -18 -64 -88 -69 -49
-3 -65 1 -116 27 -87 46 -88 22 -1 -26 46 -26 155 -24 192 3 38 29 45 102 12
135 -21 21 -27 22 -164 16 l-143 -6 16 49 c12 37 21 50 40 55 13 3 97 5 185 5
201 -1 187 -2 187 10 0 10 -278 12 -378 3z"/>
<path d="M8055 7499 c-11 -18 -19 -289 -8 -289 5 0 20 14 32 31 l23 31 -23
-12 -22 -12 6 131 c4 72 5 131 2 131 -2 0 -7 -5 -10 -11z"/>
<path d="M12060 7052 c0 -5 9 -17 21 -28 33 -29 57 -86 80 -181 18 -77 20
-110 16 -268 -3 -132 -10 -210 -26 -290 -13 -60 -25 -113 -28 -118 -2 -4 -18
13 -35 38 -64 97 -162 157 -285 175 -96 13 -127 26 -118 48 6 16 5 16 -11 1
-11 -12 -27 -15 -53 -12 -79 9 -140 -71 -149 -198 l-5 -69 -118 0 c-119 0
-119 0 -119 24 0 13 7 43 15 66 8 24 13 45 11 47 -8 8 -35 -54 -42 -96 l-7
-41 -73 0 c-100 0 -106 -18 -7 -22 l78 -3 0 -30 c-1 -16 -4 -43 -8 -59 -7 -25
-6 -28 7 -17 8 6 17 34 21 62 l7 49 114 0 114 0 19 -39 c40 -77 184 -161 277
-161 53 0 74 13 87 55 5 15 2 13 -16 -7 -27 -33 -78 -37 -148 -13 -44 16 -139
74 -139 86 0 4 17 3 38 -2 51 -12 159 -11 183 1 28 15 23 43 -16 94 l-35 46
53 26 c61 31 93 58 113 97 l15 27 41 -21 c53 -27 130 -105 158 -158 21 -41 21
-44 4 -94 -13 -38 -33 -67 -77 -110 -41 -41 -51 -54 -31 -44 38 20 77 62 108
117 l26 45 0 -42 c0 -78 -59 -120 -208 -149 -87 -17 -241 -18 -295 -3 -49 13
-71 5 -32 -11 44 -19 205 -24 293 -10 106 17 176 45 223 90 l40 38 -2 88 c0
49 4 105 10 124 27 84 51 279 51 416 0 198 -26 321 -83 396 -31 41 -57 59 -57
40z m-420 -655 c0 -2 -7 -18 -16 -36 -20 -40 -13 -82 22 -128 14 -19 24 -35
23 -37 -2 -1 -36 -15 -76 -30 -39 -15 -77 -34 -85 -43 -11 -14 -14 -11 -19 20
-13 82 25 221 68 246 17 10 83 16 83 8z m41 -21 c-10 -12 3 -15 83 -18 52 -1
100 -8 105 -13 25 -25 -110 -134 -166 -135 -19 0 -73 79 -73 106 0 37 21 74
43 74 16 0 17 -3 8 -14z m46 -244 c50 -66 46 -72 -44 -71 -99 1 -158 17 -158
44 0 15 17 26 70 47 39 15 77 26 85 25 8 -1 29 -22 47 -45z"/>
<path d="M11730 7013 c-61 -35 -96 -69 -111 -107 -7 -17 -19 -39 -27 -48 -8
-10 -10 -18 -5 -18 6 0 14 -24 17 -54 9 -69 44 -106 110 -113 84 -10 149 39
162 122 5 35 10 45 25 45 11 0 19 5 19 10 0 6 -9 10 -19 10 -12 0 -22 9 -26
23 -16 50 -82 96 -142 98 -26 0 -26 1 -9 12 27 17 62 46 56 47 -3 0 -25 -12
-50 -27z m15 -56 c45 -7 85 -33 102 -68 l12 -24 -116 -3 c-63 -1 -117 -1 -120
1 -2 2 1 17 7 33 14 35 62 87 69 76 3 -5 24 -12 46 -15z m115 -142 c0 -40 -26
-92 -54 -110 -19 -13 -40 -16 -77 -13 -66 7 -96 36 -105 101 l-7 47 122 0 121
0 0 -25z"/>
<path d="M9382 6863 c-58 -129 -93 -313 -95 -508 -1 -141 10 -208 50 -290 37
-74 165 -285 173 -285 4 0 14 8 21 17 12 14 12 16 -1 11 -20 -7 -169 240 -201
332 -54 158 -9 573 82 753 11 20 15 37 11 37 -5 0 -23 -30 -40 -67z"/>
<path d="M10047 6913 c-14 -23 -37 -172 -37 -240 l1 -78 20 25 c12 14 16 26
10 28 -16 5 -14 86 5 182 14 75 14 105 1 83z"/>
<path d="M10265 6908 c-4 -10 -15 -18 -25 -18 -11 0 -22 -4 -25 -10 -4 -6 5
-10 19 -10 25 0 26 -2 26 -70 0 -38 4 -70 8 -70 5 0 15 15 23 32 19 43 51 58
127 58 102 0 142 -31 142 -109 0 -61 -29 -76 -145 -76 -88 1 -104 5 -197 53
-5 2 -8 -1 -8 -6 0 -21 73 -54 141 -64 85 -13 171 1 206 34 17 16 23 32 23 65
0 56 -11 76 -55 103 -50 31 -168 26 -214 -8 l-31 -23 0 41 0 41 160 -3 c123
-2 160 0 160 10 0 9 -39 12 -159 12 -144 0 -160 2 -164 18 -4 16 -4 16 -12 0z"/>
<path d="M11291 6902 c-6 -11 -11 -22 -11 -25 0 -2 24 -21 54 -43 103 -74 97
-94 -28 -94 -64 0 -77 3 -73 14 4 10 1 13 -9 9 -8 -3 -14 -13 -12 -22 5 -24
180 -24 205 1 14 15 15 21 3 42 -7 14 -35 40 -61 59 -27 19 -46 37 -42 40 3 4
38 4 77 0 59 -4 74 -3 85 11 12 14 8 16 -45 16 -33 0 -75 3 -96 6 -30 5 -38 3
-47 -14z"/>
<path d="M10784 6841 c-52 -24 -74 -55 -74 -104 0 -65 51 -97 154 -97 23 0 52
7 65 17 17 11 41 16 83 14 77 -3 108 16 108 63 0 19 -3 41 -6 50 -8 22 -71 59
-85 50 -8 -4 1 -14 24 -26 38 -19 51 -46 45 -89 -3 -22 -9 -24 -60 -27 -35 -2
-58 1 -58 7 0 6 -6 8 -12 6 -18 -6 -45 17 -57 48 -9 23 -7 31 9 47 11 11 33
20 49 20 17 0 33 5 37 12 9 14 -74 2 -94 -14 -38 -32 -33 -85 11 -120 19 -15
20 -19 7 -28 -20 -13 -109 -13 -149 1 -37 13 -51 35 -51 83 0 25 7 40 26 55
15 12 32 21 38 21 7 0 21 7 32 15 26 20 7 18 -42 -4z"/>
<path d="M8865 6827 c-7 -17 28 -253 39 -265 16 -15 14 16 -8 144 -15 89 -26
133 -31 121z"/>
<path d="M8305 6670 c-4 -7 60 -10 184 -10 116 0 192 4 196 10 4 7 -60 10
-184 10 -116 0 -192 -4 -196 -10z"/>
<path d="M729 6659 c-81 -12 -257 -58 -293 -76 -39 -20 -108 -74 -102 -80 2
-2 25 12 50 31 76 58 262 105 449 113 l117 6 0 -39 c0 -92 -72 -194 -301 -431
-228 -235 -259 -300 -169 -361 68 -46 122 -55 325 -58 l190 -2 17 -38 c16 -37
16 -38 -8 -67 -35 -41 -24 -44 18 -4 19 18 87 70 151 116 64 46 117 88 117 92
0 5 -49 -27 -110 -71 -60 -44 -112 -80 -115 -80 -3 0 -5 29 -5 64 0 36 -5 77
-10 92 -6 15 -9 29 -6 31 2 2 36 -6 76 -18 42 -13 75 -18 81 -12 5 5 -28 20
-81 36 -81 25 -93 31 -118 67 -15 22 -34 39 -42 37 -33 -5 -30 -118 5 -188 15
-28 14 -29 -10 -35 -51 -13 -337 2 -391 21 -77 26 -108 55 -107 98 2 55 33 97
203 272 236 243 314 355 308 444 l-3 46 -90 1 c-49 1 -115 -2 -146 -7z m284
-761 c22 -30 38 -148 20 -148 -13 0 -73 131 -73 159 0 30 27 24 53 -11z"/>
<path d="M6298 6603 c-14 -16 -53 -66 -88 -113 -62 -84 -90 -118 -76 -92 4 6
3 12 -3 12 -6 0 -13 -11 -17 -24 -5 -23 -90 -114 -97 -105 -3 2 -14 31 -26 64
-13 33 -30 68 -38 78 -56 62 -182 -54 -183 -168 0 -22 5 -47 10 -55 15 -24 96
-18 164 13 63 29 86 27 49 -3 -31 -25 -29 -34 2 -14 24 15 25 15 50 -14 14
-17 42 -36 62 -43 44 -14 131 -6 170 16 27 15 27 16 3 10 -104 -25 -178 -14
-221 31 -19 21 -21 28 -11 42 7 9 25 36 40 60 15 24 72 102 127 175 104 136
119 157 112 157 -2 0 -15 -12 -29 -27z m-359 -196 c6 -8 22 -44 36 -80 l25
-67 -32 -20 c-45 -27 -135 -47 -157 -33 -38 24 -24 118 26 174 37 41 80 52
102 26z m129 -119 c-14 -18 -31 -34 -39 -36 -8 -3 2 12 20 32 43 45 52 47 19
4z"/>
<path d="M8346 6563 c-103 -4 -126 -15 -99 -46 10 -11 56 -45 103 -77 47 -32
99 -70 115 -86 l30 -29 -77 -3 c-89 -3 -118 8 -118 44 0 14 -4 22 -10 19 -19
-12 -11 -54 14 -70 18 -12 45 -15 112 -13 76 3 89 6 92 21 5 22 -36 60 -137
128 -44 29 -78 56 -75 60 2 4 33 13 69 20 36 7 71 19 77 26 6 7 7 12 2 11 -5
-1 -49 -4 -98 -5z m-49 -34 c-14 -8 -22 -8 -30 0 -8 8 -3 11 19 11 25 -1 27
-2 11 -11z"/>
<path d="M7923 6504 c-22 -22 -24 -31 -22 -106 2 -82 2 -82 -32 -110 -25 -21
-44 -28 -76 -28 -23 0 -45 6 -50 13 -13 20 -6 141 11 180 18 44 38 54 80 39
18 -7 34 -8 39 -3 14 14 -71 37 -91 25 -42 -27 -56 -62 -60 -156 -4 -80 -2
-93 14 -105 40 -30 138 -2 164 47 10 18 12 18 47 -5 52 -36 139 -35 182 1 59
50 33 146 -51 190 -48 25 -57 10 -11 -19 53 -34 73 -63 73 -108 0 -51 -26 -72
-93 -72 -59 0 -107 24 -107 53 0 10 -5 20 -12 22 -17 6 -16 111 1 131 7 9 25
17 39 19 27 3 27 3 3 10 -17 5 -29 0 -48 -18z"/>
<path d="M1884 6476 c-112 -69 -197 -275 -198 -481 -1 -127 10 -158 75 -204
65 -48 122 -55 247 -30 59 11 149 34 201 50 92 28 97 31 172 108 56 57 81 89
88 119 l11 40 245 -1 245 -1 0 -54 c0 -40 -5 -58 -17 -68 -15 -11 -16 -13 -3
-14 23 0 40 20 40 46 0 22 1 22 28 9 32 -17 58 -11 93 22 l26 24 6 -30 c7 -35
23 -40 32 -11 4 12 0 26 -9 36 -11 11 -16 35 -16 79 0 56 2 63 23 71 18 6 16
8 -18 11 -60 6 -115 -16 -143 -57 l-24 -35 4 153 c3 128 2 151 -9 136 -9 -13
-13 -58 -13 -155 l0 -136 -116 -7 c-64 -4 -123 -10 -132 -13 -10 -5 -13 -2 -8
6 6 9 -19 12 -112 9 l-120 -3 -12 52 c-13 62 -75 161 -121 195 -75 56 -97 63
-214 63 -70 0 -118 5 -132 13 -31 18 -42 15 -53 -12 -5 -15 -20 -27 -39 -31
-45 -10 -51 -28 -7 -20 l36 7 0 -59 c0 -33 3 -80 6 -105 l6 -44 -45 -18 c-66
-25 -135 -89 -143 -133 -8 -45 10 -108 39 -128 51 -36 134 -9 167 55 24 46 25
92 5 220 -8 52 -15 123 -15 156 0 56 2 62 23 68 32 8 33 8 65 -19 17 -14 33
-21 36 -16 3 5 -1 14 -9 21 -25 21 -7 30 59 30 95 0 157 -23 215 -79 85 -83
127 -197 101 -277 -12 -35 -93 -134 -110 -134 -4 0 -11 11 -14 24 -6 26 -40
52 -94 70 l-37 13 33 17 c27 14 32 22 32 52 0 45 -20 53 -79 30 -25 -10 -57
-19 -71 -19 -24 -2 -25 -4 -28 -89 -2 -64 -6 -88 -16 -88 -7 0 -21 -9 -31 -20
-14 -15 -15 -23 -6 -34 9 -11 6 -20 -15 -45 -25 -30 -29 -31 -103 -31 -67 0
-83 3 -112 25 -19 13 -44 29 -56 34 -33 15 -47 79 -39 191 7 118 26 192 76
296 67 139 129 174 273 155 44 -6 90 -11 101 -11 21 1 21 1 1 12 -11 7 -67 13
-125 15 -98 4 -108 3 -146 -21z m101 -76 c3 -5 1 -10 -4 -10 -6 0 -11 5 -11
10 0 6 2 10 4 10 3 0 8 -4 11 -10z m1145 -260 l0 -40 -60 0 c-33 0 -60 3 -60
8 0 4 7 18 16 30 18 26 47 40 82 41 19 1 22 -4 22 -39z m-1169 -45 c12 -56 9
-136 -6 -165 -19 -37 -43 -50 -94 -50 -36 0 -44 4 -61 33 -44 72 -11 149 83
196 53 27 70 24 78 -14z m282 -7 c10 -32 -25 -68 -67 -68 -8 0 -19 -6 -25 -14
-9 -11 -3 -15 31 -20 56 -9 117 -45 124 -72 7 -28 0 -40 -34 -58 -46 -24 -190
-26 -175 -3 4 6 8 55 8 107 l0 95 45 23 c49 25 86 28 93 10z m880 -22 c-15
-75 -113 -89 -113 -16 0 28 2 29 53 33 28 2 55 4 58 5 3 1 4 -9 2 -22z m-1043
-191 c0 -14 -5 -25 -11 -25 -5 0 -7 5 -4 10 3 6 -2 10 -12 10 -17 1 -17 2 1
15 26 19 26 19 26 -10z m79 -61 c4 -3 -59 -20 -112 -29 l-39 -6 19 25 c17 23
22 25 73 19 30 -3 57 -7 59 -9z"/>
<path d="M9950 6490 c0 -14 1989 -14 2010 0 10 6 -340 10 -997 10 -669 0
-1013 -3 -1013 -10z"/>
<path d="M4935 6395 c-22 -8 -41 -15 -42 -15 -2 0 -3 -4 -3 -10 0 -5 19 -3 41
5 73 26 109 15 109 -31 0 -30 -36 -54 -82 -54 -20 0 -40 -4 -43 -10 -4 -6 10
-10 34 -10 58 0 101 -39 101 -90 0 -54 -34 -80 -105 -80 -48 0 -54 3 -65 28
-6 15 -41 50 -78 77 -66 50 -99 92 -83 108 4 4 32 10 62 13 l54 5 -44 -20
c-24 -12 -42 -23 -39 -26 5 -5 144 47 155 58 10 11 -118 8 -159 -3 -77 -22
-68 -66 27 -143 47 -37 60 -54 60 -75 0 -15 -4 -30 -10 -34 -12 -9 -135 -11
-135 -2 0 12 24 50 39 61 14 11 14 12 -1 13 -13 0 -18 8 -18 30 0 37 -42 80
-78 80 -21 0 -22 2 -12 15 7 8 8 15 3 15 -9 0 -47 -45 -70 -85 -18 -30 -16
-90 5 -115 25 -30 156 -46 259 -31 41 6 94 11 119 11 114 0 173 96 106 171
l-28 32 23 23 c28 28 30 65 5 87 -22 21 -54 21 -107 2z m-267 -165 c12 -12 22
-27 22 -35 0 -7 2 -20 5 -27 7 -18 -49 -78 -73 -78 -10 0 -28 7 -41 16 -20 15
-23 23 -19 65 3 27 11 55 18 64 18 21 62 19 88 -5z"/>
<path d="M5167 6379 c-20 -17 -44 -44 -52 -59 -44 -85 19 -220 101 -220 19 0
48 7 65 15 89 47 92 194 5 260 -51 39 -76 40 -119 4z m89 -10 c49 -30 74 -77
74 -138 0 -45 -4 -57 -29 -82 -80 -79 -195 8 -178 135 4 30 15 50 41 73 42 39
48 40 92 12z"/>
<path d="M6615 6370 c-4 -6 45 -10 139 -10 86 0 147 4 151 10 4 6 -45 10 -139
10 -86 0 -147 -4 -151 -10z"/>
<path d="M3757 6270 c-20 -41 -56 -97 -81 -125 l-44 -50 -44 41 c-23 22 -69
55 -102 73 -56 31 -60 32 -107 21 -27 -7 -60 -21 -73 -31 -29 -23 -36 -24 -36
-4 0 8 -4 15 -9 15 -8 0 -21 -79 -21 -132 0 -47 17 -31 24 23 8 61 36 91 100
109 49 13 96 6 77 -13 -18 -18 -13 -79 9 -115 11 -18 20 -46 20 -62 0 -32 17
-41 27 -14 4 11 14 14 33 11 18 -4 38 1 61 17 l34 23 40 -58 c22 -33 45 -59
51 -59 6 0 19 10 30 21 19 22 19 22 -3 10 -19 -10 -25 -7 -46 21 -65 88 -65
79 -4 152 55 68 111 168 104 189 -2 6 -20 -22 -40 -63z m-283 -106 c3 -9 6
-30 6 -47 -1 -30 -1 -31 -15 -13 -16 22 -20 76 -6 76 5 0 12 -7 15 -16z m93
-38 c50 -47 52 -68 9 -88 -20 -9 -30 -8 -51 6 -22 14 -25 24 -25 71 0 32 4 55
11 55 5 0 31 -20 56 -44z"/>
<path d="M4386 6290 c-55 -35 -76 -76 -69 -134 10 -76 56 -98 148 -71 75 21
70 36 -5 16 -54 -14 -63 -14 -88 -1 -20 12 -28 26 -34 60 -10 57 12 97 71 127
51 26 60 33 40 33 -8 0 -36 -14 -63 -30z"/>
<path d="M7025 6297 c-13 -8 -63 -12 -142 -11 -68 0 -123 -3 -123 -7 0 -12
143 -22 199 -14 28 4 61 15 74 26 25 21 21 24 -8 6z"/>
<path d="M4065 6273 c-16 -2 -41 -6 -55 -9 -20 -5 -22 -7 -9 -14 13 -8 15 -19
8 -62 -5 -29 -11 -64 -14 -77 -6 -23 -3 -22 34 12 57 52 135 71 165 41 21 -20
21 -102 1 -131 -22 -32 -75 -39 -136 -19 -50 17 -78 14 -49 -5 29 -18 94 -31
128 -24 19 4 48 19 64 35 24 24 28 36 28 84 0 75 -24 101 -84 92 -22 -4 -60
-18 -83 -32 l-43 -25 6 48 c4 26 11 53 16 58 5 6 51 10 103 10 73 0 91 3 83
13 -10 11 -91 14 -163 5z"/>
<path d="M10566 6255 c-4 -10 -20 -15 -50 -15 -25 0 -48 -4 -51 -10 -4 -6 13
-10 44 -10 50 0 50 0 45 -28 l-6 -29 131 -6 c173 -8 225 -31 213 -92 -6 -33
-48 -45 -151 -45 -80 0 -144 15 -235 55 -14 6 -18 5 -14 -6 2 -7 31 -25 64
-38 51 -22 75 -25 176 -25 103 -1 120 1 145 20 34 26 43 77 17 105 -24 26 -70
37 -204 45 -63 3 -117 8 -119 10 -2 2 -1 10 2 19 5 13 34 15 193 15 l187 0
-24 -27 c-13 -14 -17 -23 -9 -18 28 15 50 38 50 52 0 10 -38 13 -190 13 -162
0 -190 2 -190 15 0 8 -4 15 -9 15 -5 0 -11 -7 -15 -15z"/>
<path d="M3918 6200 c-27 -150 -32 -190 -20 -190 12 0 34 139 30 185 l-4 40
-6 -35z"/>
<path d="M10367 6209 c-4 -8 -6 -62 -5 -118 l3 -103 25 22 c17 14 19 20 8 16
-15 -5 -18 6 -20 97 -2 58 -6 95 -11 86z"/>
<path d="M21940 6071 c0 -5 7 -14 14 -21 42 -34 70 -264 37 -303 -18 -22 -56
-21 -106 2 -115 53 -147 179 -68 270 19 23 33 44 30 47 -9 9 -78 -80 -84 -108
-6 -32 -2 -31 -68 -14 -39 10 -45 15 -29 20 31 9 68 52 61 70 -11 28 -102 21
-173 -13 -34 -16 -65 -34 -68 -40 -10 -15 -9 -15 58 19 44 22 73 30 112 30 81
0 66 -35 -28 -65 -87 -27 -87 -28 4 -35 93 -7 121 -20 116 -54 -4 -31 -67 -57
-150 -63 -56 -4 -78 -1 -93 10 -17 14 -18 19 -7 37 19 32 7 37 -13 6 -35 -53
11 -82 115 -72 36 4 86 17 113 30 l48 23 14 -27 c34 -66 131 -119 190 -104 46
11 60 47 58 149 -1 92 -19 163 -50 197 -17 19 -33 24 -33 9z"/>
<path d="M2536 6012 c-3 -5 8 -12 25 -16 49 -10 157 -7 164 4 4 6 -23 10 -74
10 -43 0 -86 3 -94 6 -8 3 -18 1 -21 -4z"/>
<path d="M20365 5970 c-4 -6 8 -10 29 -10 41 0 41 1 21 -47 -21 -50 -20 -77 3
-68 63 27 95 34 160 35 81 0 112 -18 112 -65 0 -55 -140 -90 -198 -49 -32 22
-42 7 -12 -17 21 -17 36 -19 92 -16 119 7 176 80 113 142 -21 22 -33 25 -93
25 -38 0 -91 -7 -117 -15 -27 -8 -51 -13 -52 -11 -2 2 4 22 13 46 l17 42 91
-2 c106 -3 120 -1 86 10 -37 12 -258 12 -265 0z"/>
<path d="M21324 5951 c-18 -11 -34 -24 -38 -29 -3 -5 -18 -7 -33 -5 -16 3 -60
7 -99 10 -62 4 -73 3 -85 -14 -8 -11 -23 -23 -34 -28 -16 -7 -17 -9 -4 -12 9
-2 23 -19 31 -37 28 -57 130 -89 166 -51 16 16 16 17 -5 6 -41 -21 -143 22
-143 60 0 17 8 19 85 19 l85 0 0 -34 c0 -52 12 -97 24 -93 7 2 10 29 8 78 -3
68 -2 76 21 97 36 34 85 45 114 27 21 -14 23 -22 23 -116 0 -64 4 -98 10 -94
6 3 10 50 10 104 0 82 -3 101 -18 114 -25 23 -80 21 -118 -2z m-97 -55 c4 -3
-28 -6 -70 -6 -42 0 -77 4 -77 9 0 19 128 16 147 -3z"/>
<path d="M20810 5930 c-27 -17 2 -43 103 -92 54 -26 97 -52 97 -58 0 -12 -199
-13 -219 -1 -11 7 -7 12 15 25 18 9 23 15 13 16 -9 0 -27 -9 -40 -20 -24 -20
-24 -20 -5 -35 29 -22 228 -21 251 1 15 15 15 18 0 34 -9 10 -50 33 -91 51
-41 18 -73 38 -71 43 2 6 26 12 53 14 109 6 92 32 -21 32 -38 0 -77 -5 -85
-10z"/>
<path d="M20274 5909 c-12 -19 -13 -220 -2 -217 6 2 12 32 13 67 2 47 7 66 19
73 9 5 16 19 16 31 0 26 -36 62 -46 46z m23 -61 c-3 -8 -6 -5 -6 6 -1 11 2 17
5 13 3 -3 4 -12 1 -19z"/>
<path d="M4610 5704 c-90 -81 -104 -200 -35 -283 85 -101 243 24 220 175 -8
55 -36 89 -97 119 l-49 24 -39 -35z m87 -13 c73 -34 101 -112 69 -195 -23 -60
-58 -91 -105 -91 -46 0 -68 17 -92 70 -34 73 -20 144 39 208 30 32 34 32 89 8z"/>
<path d="M4351 5689 c-36 -14 -93 -51 -88 -56 3 -2 26 8 52 22 26 14 63 25 81
25 31 0 34 -3 34 -30 0 -38 -39 -77 -86 -86 -18 -3 -39 -13 -46 -22 -11 -13
-9 -15 18 -9 83 16 154 -32 154 -107 0 -73 -12 -81 -134 -81 -87 0 -108 3
-123 18 -15 15 -16 20 -4 39 10 16 10 23 2 26 -7 2 -11 33 -11 83 0 66 -3 82
-20 99 -11 11 -26 20 -33 20 -7 0 -30 -9 -52 -20 -22 -11 -41 -20 -42 -20 -2
0 -4 12 -4 28 -2 41 -17 -64 -18 -126 -1 -39 2 -53 12 -50 7 3 13 28 15 65 3
65 17 86 63 98 48 12 59 -13 59 -134 0 -135 6 -142 114 -149 95 -6 137 2 170
33 48 44 29 148 -34 180 -16 8 -35 15 -43 15 -9 0 2 17 25 39 32 33 39 46 36
73 -3 30 -6 33 -38 35 -19 1 -46 -2 -59 -8z"/>
<path d="M3130 5604 c-15 -39 -47 -195 -56 -271 -8 -73 6 -84 24 -20 7 23 16
48 19 56 4 9 1 11 -7 6 -14 -9 -9 34 21 164 20 85 19 118 -1 65z"/>
<path d="M3662 5609 c-85 -16 -82 -38 13 -94 61 -36 70 -45 70 -70 0 -23 -6
-31 -25 -36 -33 -9 -94 -11 -115 -3 -14 6 -14 9 1 33 l16 26 -28 -27 c-39 -38
-22 -53 61 -52 83 1 117 22 113 67 -3 28 -13 38 -76 76 -40 24 -71 46 -69 48
3 2 42 8 87 13 99 11 132 31 50 29 -30 -1 -74 -5 -98 -10z"/>
<path d="M3855 5610 c-11 -4 -31 -19 -44 -33 -19 -21 -22 -32 -17 -62 10 -54
62 -69 133 -40 46 20 39 27 -13 13 -50 -14 -91 -4 -99 23 -10 31 1 37 89 48
77 9 115 28 102 50 -8 13 -121 14 -151 1z m125 -19 c-8 -5 -46 -12 -85 -15
-64 -6 -68 -5 -51 9 13 10 41 15 85 15 42 0 60 -4 51 -9z"/>
<path d="M3263 5580 c-84 -7 -108 -20 -39 -20 l47 0 -30 -37 c-17 -21 -31 -41
-31 -45 0 -5 45 -8 100 -8 87 0 103 -3 120 -20 27 -27 27 -85 1 -100 -32 -17
-163 -13 -189 6 -32 22 -43 7 -12 -18 21 -17 36 -19 111 -16 68 2 91 7 108 22
30 28 29 89 -4 121 -22 23 -32 25 -115 25 -49 0 -90 4 -90 9 0 5 16 23 35 40
34 29 41 31 115 31 43 0 82 5 85 10 7 11 -94 11 -212 0z"/>
<path d="M2977 5459 c-12 -7 -78 -10 -183 -8 -90 2 -164 1 -164 -2 0 -13 65
-19 195 -19 117 0 136 2 156 20 26 21 24 25 -4 9z"/>
<path d="M8848 5304 c-5 -4 -8 -178 -8 -388 0 -256 3 -377 10 -370 7 7 9 143
8 388 -2 208 -6 374 -10 370z"/>
<path d="M7270 5180 l-1535 -5 1135 -8 c1276 -9 1914 -9 1935 0 15 5 22 25 8
21 -5 -2 -699 -5 -1543 -8z"/>
<path d="M5538 5154 c-5 -4 -8 -156 -8 -338 0 -223 3 -327 10 -320 7 7 9 126
8 338 -2 180 -6 324 -10 320z"/>
<path d="M6226 5051 c-5 -8 -22 -40 -38 -70 -45 -90 -224 -285 -235 -256 -16
42 -60 120 -71 123 -33 10 -162 -167 -162 -222 0 -27 2 -28 32 -22 18 3 69 24
113 45 44 22 80 39 80 38 0 -1 19 -40 42 -87 24 -47 58 -101 78 -120 l35 -34
23 23 c22 23 22 23 0 12 -18 -9 -25 -6 -53 26 -18 20 -49 71 -70 114 l-37 77
97 99 c53 54 110 121 126 149 l29 49 6 -35 c8 -52 21 -15 17 51 -2 37 -6 50
-12 40z m-316 -283 l28 -63 -27 -17 c-38 -26 -160 -72 -168 -65 -14 14 19 85
67 145 28 34 55 62 61 62 6 0 23 -28 39 -62z"/>
<path d="M7410 4962 c-50 -51 -61 -151 -24 -223 16 -31 72 -82 117 -105 l32
-17 -25 -8 c-194 -58 -303 -103 -387 -159 l-47 -32 -165 2 c-187 2 -203 1
-146 -11 22 -4 240 -8 484 -8 l443 -1 -16 -25 c-21 -33 -8 -32 19 0 l20 25
403 -2 403 -3 -83 -126 c-46 -69 -92 -149 -101 -178 -19 -61 -22 -156 -6 -210
24 -79 96 -156 140 -149 22 4 21 5 -12 20 -103 45 -150 215 -98 354 12 32 58
111 102 176 l80 118 76 0 c121 0 301 12 301 21 0 4 -81 5 -180 2 -120 -4 -180
-3 -180 4 0 6 7 27 15 46 8 20 15 52 15 72 l0 35 49 0 c28 0 53 5 56 10 7 11
-73 15 -235 10 l-105 -3 32 30 c54 51 57 127 8 201 -44 67 -130 114 -150 82
-3 -6 4 -10 17 -10 56 0 137 -93 145 -164 7 -59 -10 -94 -54 -112 -66 -28
-121 2 -187 100 -22 33 -26 50 -26 112 0 62 3 77 21 95 18 18 28 20 70 14 59
-8 68 9 9 19 -45 7 -93 -12 -110 -43 -15 -29 -12 -146 4 -186 8 -19 37 -57 65
-85 28 -27 46 -50 41 -50 -6 0 -10 -4 -10 -10 0 -6 46 -10 117 -10 91 0 114
-3 105 -12 -23 -23 -12 -28 16 -8 20 15 40 20 63 18 31 -3 34 -6 37 -37 2 -19
-4 -54 -13 -78 l-17 -43 -404 0 c-222 0 -404 2 -404 4 0 3 10 21 22 41 29 50
30 118 2 145 -12 12 -40 24 -62 27 -36 5 -40 8 -32 24 28 52 2 135 -65 208
-56 60 -103 88 -130 77 -18 -7 -10 -29 8 -23 35 13 149 -98 167 -161 21 -78 2
-132 -48 -132 -42 0 -124 43 -159 83 -57 65 -66 174 -20 233 21 27 36 28 135
8 53 -11 36 12 -19 24 -73 17 -87 15 -119 -16z m317 -357 c35 -25 38 -67 9
-130 l-25 -55 -300 0 c-166 0 -301 2 -301 5 0 9 127 74 202 104 69 27 231 73
298 84 55 9 97 6 117 -8z"/>
<path d="M8502 4972 c-33 -17 -83 -82 -63 -82 6 0 18 14 26 30 19 37 50 50
118 50 92 0 123 -47 72 -108 -19 -23 -37 -32 -74 -37 -52 -7 -91 -28 -78 -41
4 -4 27 -2 50 6 97 31 187 9 187 -46 0 -27 -20 -34 -164 -64 -96 -19 -114 -25
-105 -34 8 -7 225 41 257 58 60 31 37 95 -42 117 l-37 10 26 30 c25 30 32 72
17 97 -21 33 -139 42 -190 14z"/>
<path d="M7030 4918 c-40 -9 -81 -33 -69 -40 2 -2 19 -14 37 -26 42 -30 57
-18 18 13 -15 12 -24 25 -19 28 18 11 216 29 257 23 89 -14 56 -74 -51 -96
-79 -17 -83 -18 -83 -30 0 -7 8 -9 21 -5 39 13 135 7 166 -9 52 -26 60 -87 15
-110 -60 -31 -232 -47 -273 -26 -25 14 -24 28 4 58 l22 25 -23 -12 c-13 -7
-28 -23 -34 -37 -9 -20 -8 -28 6 -42 14 -14 34 -17 109 -16 109 2 165 15 207
50 32 28 39 66 17 94 -21 27 -61 50 -87 50 -25 0 -24 0 7 20 27 16 53 47 53
64 0 2 -7 12 -16 20 -12 13 -38 16 -127 15 -62 -1 -132 -6 -157 -11z"/>
<path d="M15284 4758 c-35 -55 -60 -135 -75 -242 l-12 -86 -103 0 c-58 0 -106
-4 -109 -10 -4 -6 33 -10 103 -10 l109 0 7 -37 c3 -21 6 -58 6 -82 0 -34 -3
-42 -15 -38 -22 9 -27 -8 -6 -27 16 -15 19 -15 31 -1 9 11 11 39 8 100 l-6 85
82 0 c51 1 90 6 106 15 14 8 47 14 73 15 l49 0 -7 -67 c-10 -99 -23 -146 -40
-139 -8 3 -17 1 -20 -3 -3 -5 3 -12 12 -16 26 -10 50 27 58 87 17 146 13 135
53 142 21 3 69 6 108 6 55 0 75 4 85 17 12 15 12 16 -2 11 -9 -4 -65 -10 -123
-14 l-106 -7 0 29 c0 46 29 156 50 192 22 37 25 46 10 37 -21 -13 -52 -89 -69
-169 l-18 -81 -134 -5 c-134 -5 -156 -16 -44 -23 33 -2 20 -3 -30 -3 l-90 1 3
60 c5 88 28 181 62 244 36 66 32 80 -6 19z"/>
<path d="M6450 4773 c-65 -6 -100 -14 -100 -21 0 -5 30 -5 68 -1 37 5 104 8
150 8 47 1 82 5 82 11 0 9 -119 11 -200 3z"/>
<path d="M7842 4717 c-24 -26 -29 -66 -10 -85 7 -7 36 -12 65 -12 48 0 58 4
93 38 46 43 43 59 -16 72 -68 16 -108 12 -132 -13z m38 -34 c0 -9 6 -13 15 -9
8 3 15 1 15 -4 0 -6 11 -10 25 -10 14 0 25 -5 25 -10 0 -7 -22 -10 -57 -8 -59
3 -74 16 -59 53 7 18 36 8 36 -12z"/>
<path d="M5298 4623 l-3 -68 -80 -3 c-44 -2 -84 -8 -90 -13 -7 -8 18 -10 80
-7 l90 3 -4 -105 c-1 -58 -5 -108 -7 -112 -3 -4 -11 -5 -19 -1 -8 3 -15 1 -15
-5 0 -15 32 -24 44 -12 6 6 13 61 17 123 4 61 7 113 8 115 1 1 25 2 54 2 28 0
59 5 67 10 11 7 -5 10 -52 10 l-68 0 0 65 c0 86 -18 84 -22 -2z"/>
<path d="M14070 4683 c-26 -10 -60 -46 -60 -65 0 -24 -4 -23 -55 12 -53 36
-116 40 -174 10 -84 -43 -185 -195 -197 -297 -11 -92 46 -171 153 -209 50 -17
182 -18 252 0 69 17 190 36 296 45 75 7 155 34 155 53 0 5 -17 0 -37 -10 -46
-23 -123 -37 -123 -22 0 5 4 10 10 10 16 0 90 71 106 101 8 16 14 54 14 86 0
138 -109 253 -265 282 -32 6 -59 11 -59 10 -1 0 -8 -3 -16 -6z m157 -54 c106
-51 163 -135 163 -242 0 -58 -10 -85 -46 -120 -31 -31 -83 -62 -91 -54 -3 3
-5 59 -6 124 -2 99 -5 124 -22 153 -17 29 -28 36 -58 38 -44 4 -94 -23 -132
-71 l-25 -32 0 28 c0 15 -4 27 -9 27 -11 0 -25 -181 -16 -209 3 -12 13 -21 21
-21 11 0 14 18 14 85 l0 86 43 43 c64 63 115 68 144 13 13 -24 18 -64 21 -154
l4 -123 -28 -11 c-16 -7 -68 -12 -116 -13 -63 -1 -88 -5 -88 -13 0 -7 -1 -13
-2 -13 -2 0 -30 -5 -63 -10 -115 -19 -232 15 -293 85 -38 42 -47 72 -38 131
11 83 106 232 170 266 67 37 133 26 198 -31 20 -17 38 -31 41 -31 3 0 8 15 12
33 11 57 16 66 33 71 34 9 109 -6 169 -35z"/>
<path d="M13866 4477 c-12 -25 3 -232 16 -219 6 6 7 50 1 123 -6 72 -12 107
-17 96z"/>
<path d="M2002 4658 c-11 -13 -26 -36 -32 -53 -13 -31 -16 -210 -5 -244 5 -16
-3 -22 -47 -36 -68 -23 -107 -42 -135 -68 -28 -25 -29 -41 -3 -67 30 -30 156
-29 195 2 25 20 27 25 23 80 -4 56 -3 60 24 76 36 21 37 35 1 17 -15 -8 -31
-11 -36 -6 -5 5 -9 55 -10 112 -2 125 18 182 66 187 24 3 27 0 27 -27 0 -16 5
-33 10 -36 6 -4 10 10 10 33 0 27 -5 42 -16 46 -29 11 -50 6 -72 -16z m-28
-354 c10 -27 7 -89 -6 -102 -15 -15 -142 -16 -169 -2 -43 24 -11 61 83 96 76
28 84 29 92 8z"/>
<path d="M5030 4655 c-5 -13 -14 -64 -21 -112 -18 -142 -9 -129 -90 -141 -40
-6 -77 -16 -83 -23 -8 -9 -5 -10 14 -6 14 4 52 9 83 13 l57 7 0 -76 c0 -73 -1
-75 -22 -70 -22 5 -22 5 -6 -12 33 -35 47 -13 50 77 l3 83 65 3 c62 3 90 14
90 34 0 7 -4 7 -12 0 -7 -5 -42 -12 -78 -14 l-65 -3 3 45 c4 72 23 179 33 186
12 7 11 34 -1 34 -6 0 -15 -11 -20 -25z"/>
<path d="M4810 4647 c-14 -5 -91 -12 -172 -15 -82 -2 -148 -8 -148 -13 0 -12
190 -11 264 1 33 5 61 8 63 7 1 -2 -11 -31 -27 -65 -31 -67 -25 -63 -148 -80
-69 -10 -91 -17 -81 -26 2 -2 44 3 93 10 50 7 91 12 93 10 8 -8 -36 -101 -48
-102 -8 -1 -18 -2 -23 -3 -6 0 -1 -7 10 -15 26 -19 37 -8 63 63 l21 58 82 6
c45 4 86 11 91 16 5 5 -25 7 -77 4 l-86 -6 30 68 c36 80 36 97 0 82z"/>
<path d="M6360 4652 c0 -6 30 -15 68 -21 116 -18 222 -18 222 0 0 6 -11 8 -29
4 -25 -5 -123 4 -223 21 -24 4 -38 3 -38 -4z"/>
<path d="M4045 4599 c-32 -19 -45 -40 -45 -77 0 -46 16 -71 55 -88 70 -29 166
-9 180 38 14 41 28 -11 33 -118 4 -91 2 -108 -18 -148 -28 -59 -97 -120 -169
-148 -49 -19 -76 -22 -208 -22 -139 -1 -154 1 -180 20 -22 17 -29 31 -33 70
-5 54 -20 39 -20 -20 0 -69 62 -96 215 -96 210 0 345 64 409 193 21 42 26 65
26 131 0 83 -32 229 -55 254 -17 18 -163 27 -190 11z m158 -18 c22 -9 24 -15
23 -61 -2 -63 -20 -80 -81 -80 -54 0 -103 17 -115 40 -15 28 -12 77 6 94 18
18 126 22 167 7z"/>
<path d="M4367 4599 c-41 -24 -69 -127 -47 -169 27 -50 152 -50 202 0 51 51
26 114 -57 146 -25 9 -45 21 -45 25 0 12 -31 11 -53 -2z m26 -57 c4 -14 6 -13
12 6 9 27 15 27 66 2 45 -23 65 -56 55 -93 -8 -32 -61 -51 -124 -44 -70 8 -89
48 -58 122 16 36 40 40 49 7z"/>
<path d="M3719 4517 c-28 -22 -39 -55 -39 -121 0 -60 2 -67 27 -83 18 -12 52
-19 106 -22 71 -3 81 -1 104 20 14 13 31 36 39 51 17 33 18 112 2 125 -50 38
-204 57 -239 30z m136 -21 c97 -17 98 -18 93 -83 -4 -42 -11 -60 -32 -81 -23
-24 -34 -27 -85 -25 -32 1 -74 8 -94 17 -37 15 -37 15 -37 75 0 33 4 71 10 85
11 30 34 32 145 12z"/>
<path d="M3441 4485 c-40 -46 -57 -104 -45 -153 11 -44 40 -62 102 -62 80 0
142 52 142 120 0 48 -18 62 -86 68 -52 4 -54 6 -54 33 0 39 -21 37 -59 -6z
m39 -1 c0 -9 -9 -23 -21 -32 -19 -16 -17 -17 50 -14 88 4 111 -7 111 -54 0
-26 -8 -43 -29 -65 -26 -25 -37 -29 -85 -29 -78 0 -101 23 -93 92 9 69 67 158
67 102z"/>
<path d="M2921 4474 c-29 -20 -60 -88 -61 -130 0 -17 9 -43 21 -58 51 -65 209
1 209 87 0 33 -34 73 -81 97 -46 24 -58 25 -88 4z m51 -23 c-1 -7 5 -19 15
-26 19 -14 37 -10 28 6 -11 17 8 9 32 -13 25 -23 29 -57 13 -89 -27 -49 -136
-67 -164 -27 -27 38 -16 109 22 151 18 20 59 19 54 -2z"/>
<path d="M8870 4470 c0 -5 5 -10 11 -10 5 0 7 5 4 10 -3 6 -8 10 -11 10 -2 0
-4 -4 -4 -10z"/>
<path d="M2285 4431 c-22 -10 -47 -26 -55 -36 -11 -14 -3 -12 31 8 25 15 49
27 52 27 16 0 5 -41 -18 -68 -14 -17 -25 -35 -25 -42 0 -7 18 -32 40 -56 32
-35 40 -51 40 -82 0 -57 -24 -74 -112 -79 -93 -6 -119 9 -101 56 13 35 0 42
-17 10 -28 -51 10 -89 90 -89 63 0 113 16 140 45 35 37 24 104 -24 154 -20 20
-36 40 -36 45 0 4 11 22 25 40 23 31 35 86 18 86 -5 0 -26 -9 -48 -19z"/>
<path d="M12331 4431 c-25 -25 -27 -67 -6 -119 12 -28 13 -38 4 -41 -7 -2 -23
-14 -36 -27 -31 -31 -32 -104 -2 -132 37 -35 114 -42 149 -14 29 23 23 50 -24
120 -19 28 -31 53 -28 56 3 3 18 6 34 6 15 0 28 5 28 11 0 7 -16 8 -45 3 -44
-6 -45 -6 -60 30 -20 47 -19 95 1 103 9 3 36 1 60 -4 25 -6 47 -7 49 -2 8 11
-4 16 -57 24 -39 6 -49 4 -67 -14z m66 -223 c19 -26 35 -60 36 -75 2 -27 1
-28 -50 -28 -68 1 -93 22 -93 81 0 33 5 46 23 59 32 22 46 16 84 -37z"/>
<path d="M12930 4400 c-66 -8 -86 -16 -94 -37 -7 -17 18 -63 34 -63 14 0 13 7
-7 36 -23 35 -11 41 104 49 77 6 97 5 118 -9 27 -18 32 -40 13 -52 -7 -5 -46
-13 -87 -18 -109 -16 -104 -34 6 -23 112 11 159 -1 177 -45 29 -68 -15 -98
-141 -98 -89 0 -114 10 -94 34 11 13 11 16 -2 16 -8 0 -20 -7 -27 -16 -11 -12
-10 -18 4 -32 14 -14 36 -17 121 -17 90 0 107 3 132 21 20 15 29 31 31 58 4
50 -19 82 -68 97 -34 10 -38 14 -29 31 33 61 -39 87 -191 68z"/>
<path d="M8916 4359 c-30 -45 -29 -54 5 -44 15 5 18 9 9 15 -9 6 -8 14 5 34
10 15 16 29 13 32 -3 2 -17 -14 -32 -37z"/>
<path d="M2214 4358 c-13 -21 -18 -228 -5 -228 6 0 11 8 11 18 1 9 2 63 3 120
2 56 2 102 1 102 -2 0 -6 -5 -10 -12z"/>
<path d="M2470 4360 c0 -6 40 -10 99 -10 56 0 103 4 106 10 4 6 -32 10 -99 10
-64 0 -106 -4 -106 -10z"/>
<path d="M8959 4323 c-18 -26 -52 -74 -76 -105 -24 -32 -40 -58 -35 -58 6 0
32 30 59 68 79 107 96 133 90 138 -3 3 -20 -16 -38 -43z"/>
<path d="M5735 4350 c-4 -7 198 -10 599 -10 392 0 607 4 611 10 4 7 -198 10
-599 10 -392 0 -607 -4 -611 -10z"/>
<path d="M3253 4338 c-18 -5 -33 -12 -33 -16 0 -9 69 -7 78 2 13 14 -15 23
-45 14z"/>
<path d="M12656 4291 c-4 -5 24 -11 61 -13 73 -4 93 -1 93 13 0 12 -147 12
-154 0z"/>
<path d="M2530 4280 c0 -5 24 -10 54 -10 30 0 58 5 61 10 4 6 -17 10 -54 10
-34 0 -61 -4 -61 -10z"/>
<path d="M12615 4250 c-12 -19 29 -25 198 -28 123 -3 182 -1 190 7 8 8 -31 11
-148 11 -88 0 -177 4 -198 9 -20 5 -39 5 -42 1z"/>
<path d="M16340 4160 c-17 -31 -27 -250 -11 -250 7 0 11 26 11 79 0 43 5 102
10 131 11 59 8 73 -10 40z"/>
<path d="M16948 4175 c-3 -3 -3 -28 0 -55 l5 -50 -81 0 c-109 0 -117 -18 -10
-22 l83 -3 0 -62 c0 -49 2 -59 13 -51 7 6 10 18 7 25 -3 8 -2 32 1 53 l6 39
66 3 c45 2 67 7 70 17 4 11 -8 13 -67 7 l-71 -7 0 55 c0 50 -7 66 -22 51z"/>
<path d="M14536 4152 c-5 -9 202 -21 413 -23 113 -1 115 -2 51 -11 -61 -8
-206 -65 -195 -76 2 -3 33 8 67 23 49 22 78 28 137 29 75 1 76 1 79 -26 4 -35
-34 -65 -180 -143 -86 -46 -113 -65 -113 -80 0 -11 -7 -25 -15 -32 -25 -20
370 -18 396 2 18 14 17 15 -11 8 -53 -13 -289 -8 -323 6 -18 8 -32 17 -32 22
0 4 50 34 111 65 167 85 228 156 168 195 -17 12 24 14 288 13 315 -1 463 4
463 15 0 3 -231 6 -513 7 -281 1 -573 4 -648 8 -81 5 -139 4 -143 -2z"/>
<path d="M16380 4150 c-10 -6 36 -10 138 -10 100 0 151 -4 147 -10 -9 -15 21
-12 34 3 6 8 8 17 4 20 -10 11 -306 8 -323 -3z"/>
<path d="M13437 4143 c-13 -12 -7 -19 28 -32 55 -20 154 -90 170 -122 23 -44
19 -86 -11 -114 -49 -45 -193 -57 -263 -20 -49 25 -65 52 -65 110 0 44 4 57
24 74 14 11 35 20 46 21 34 0 84 12 84 19 0 11 -102 -3 -127 -17 -19 -11 -22
-10 -17 3 5 13 -20 15 -202 15 -115 0 -260 5 -323 10 -63 5 -119 6 -125 2 -21
-13 80 -21 349 -29 l270 -8 -185 -6 c-180 -5 -227 -12 -200 -29 11 -7 11 -17
0 -54 -7 -26 -10 -49 -7 -52 3 -3 23 0 44 7 21 7 79 13 129 14 103 0 134 -15
134 -64 0 -54 -36 -71 -151 -71 -66 0 -82 3 -99 20 -11 11 -20 25 -20 30 0 6
-4 10 -10 10 -18 0 -10 -31 15 -55 22 -22 32 -25 104 -25 87 0 124 10 159 42
29 28 28 70 -2 105 -24 27 -27 28 -123 27 -54 -1 -111 -7 -127 -13 -16 -6 -31
-10 -33 -8 -2 2 5 25 16 51 l20 46 171 0 171 0 -6 -47 c-12 -111 49 -166 184
-167 95 0 141 15 181 60 68 78 29 149 -131 240 -68 38 -63 36 -72 27z"/>
<path d="M16410 4094 c-6 -14 -10 -36 -10 -48 0 -23 1 -23 38 -10 49 18 144
17 187 0 53 -23 62 -89 15 -113 -29 -15 -131 -17 -178 -4 -18 6 -51 24 -73 42
-33 26 -40 29 -37 14 1 -11 25 -33 52 -50 42 -25 61 -30 125 -33 119 -5 181
41 155 116 -15 45 -66 64 -154 59 -41 -3 -84 -8 -94 -12 -17 -7 -18 -5 -12 28
8 43 0 49 -14 11z"/>
<path d="M14697 4073 c-3 -5 -8 -64 -12 -133 -4 -68 -9 -133 -10 -142 -5 -24
18 -23 40 2 18 20 18 20 1 14 -17 -7 -18 0 -11 130 7 123 5 151 -8 129z"/>
<path d="M15480 4024 c-25 -14 -58 -37 -74 -52 l-28 -27 6 35 c7 33 6 34 -9
16 -8 -11 -15 -30 -15 -42 0 -12 -7 -41 -15 -64 -16 -46 -20 -120 -6 -120 4 0
13 30 19 66 13 77 43 122 110 165 60 38 105 39 129 2 13 -20 19 -56 23 -154 3
-70 8 -130 12 -134 12 -12 27 5 37 43 16 58 26 206 14 199 -6 -4 -13 -42 -17
-86 -11 -137 -23 -139 -27 -4 -3 104 -7 126 -25 150 -29 39 -75 41 -134 7z"/>
<path d="M15264 3999 c-11 -19 -33 -130 -34 -172 0 -40 11 -42 31 -5 8 15 8
19 0 14 -15 -9 -14 24 4 104 14 65 14 82 -1 59z"/>
<path d="M9200 3863 c-18 -15 -45 -47 -61 -72 l-29 -46 0 48 c0 26 -4 47 -10
47 -5 0 -10 -17 -10 -37 0 -21 -3 -75 -7 -120 -7 -93 10 -118 21 -32 10 78 70
184 117 209 56 31 89 -34 89 -176 0 -85 2 -95 15 -84 12 10 14 28 9 94 -8 103
-20 152 -45 177 -26 26 -52 24 -89 -8z"/>
<path d="M9037 3828 c-14 -56 -19 -188 -8 -188 6 0 11 6 11 13 2 52 12 165 16
180 3 9 1 17 -4 17 -6 0 -12 -10 -15 -22z"/>
<path d="M8698 3809 c-10 -5 -30 -31 -45 -57 l-28 -47 -6 50 c-8 73 -17 35
-22 -93 -3 -81 -1 -112 7 -109 6 2 14 30 18 63 8 59 47 152 73 174 8 7 21 10
29 7 21 -8 46 -100 46 -169 0 -32 4 -58 10 -58 6 0 10 13 10 29 0 37 36 150
55 175 8 11 18 16 22 12 5 -4 10 -57 11 -117 2 -60 7 -109 11 -109 9 0 34 27
46 50 5 10 1 8 -13 -4 l-22 -19 0 79 c0 81 -14 154 -30 154 -12 0 -45 -43 -60
-80 -16 -39 -26 -38 -34 3 -7 38 -32 77 -49 77 -7 0 -20 -5 -29 -11z"/>
<path d="M4565 3748 c-16 -6 -36 -15 -42 -21 -15 -11 -17 -83 -3 -92 7 -4 7
-12 0 -25 -18 -34 -12 -85 14 -109 52 -49 181 -35 207 22 12 27 -3 74 -26 83
-20 8 -9 23 13 17 15 -3 18 3 19 38 1 23 -2 50 -8 60 -18 34 -113 48 -174 27z
m131 -23 c30 -12 35 -19 32 -42 -3 -30 -2 -30 -89 -15 -34 6 -54 5 -74 -5 -33
-18 -40 -12 -30 24 4 15 10 22 12 16 7 -19 23 -15 23 5 0 10 3 22 7 25 12 12
83 7 119 -8z m-21 -86 c13 -5 -1 -8 -42 -8 -57 -1 -90 11 -61 22 15 5 75 -3
103 -14z m-37 -34 c52 -6 66 -11 79 -31 20 -32 5 -71 -32 -80 -40 -10 -114 2
-135 21 -31 28 -24 110 9 101 9 -3 44 -8 79 -11z"/>
<path d="M1940 3723 c-41 -16 -50 -35 -50 -108 0 -64 4 -77 35 -129 19 -32 35
-61 35 -65 0 -4 -22 -15 -49 -25 -90 -32 -126 -87 -79 -120 27 -19 108 -20
158 -3 32 11 35 15 34 52 -1 22 -5 50 -9 63 -6 19 -4 22 16 22 13 0 31 5 39
11 11 7 2 9 -34 7 l-48 -3 -39 64 c-27 45 -39 77 -40 105 -3 105 7 121 70 112
25 -3 56 -13 69 -22 22 -14 24 -21 18 -60 -7 -52 10 -60 19 -10 9 47 4 66 -25
87 -27 19 -95 32 -120 22z m54 -348 c9 -13 16 -37 16 -53 0 -25 -5 -30 -31
-36 -170 -34 -203 55 -40 105 38 11 37 11 55 -16z"/>
<path d="M4185 3696 c-36 -54 -46 -146 -20 -183 36 -51 137 -54 187 -7 23 23
28 36 28 76 0 58 -24 88 -96 118 -60 26 -80 25 -99 -4z m58 -19 c-1 -13 4 -17
15 -12 22 8 81 -14 92 -35 6 -10 10 -37 10 -59 0 -31 -6 -44 -26 -60 -50 -39
-147 -17 -160 35 -8 31 2 107 17 135 13 26 55 22 52 -4z"/>
<path d="M5237 3697 c-30 -16 -48 -20 -51 -13 -2 6 -7 2 -10 -9 -4 -11 -14
-33 -22 -50 -9 -16 -18 -54 -22 -84 -7 -75 18 -65 36 15 7 32 17 69 22 81 13
31 53 55 104 60 39 5 46 2 61 -20 24 -37 12 -95 -38 -187 -71 -131 -79 -149
-84 -190 -11 -83 50 -116 202 -108 132 7 122 23 -13 23 -96 0 -123 3 -145 18
-49 32 -36 93 48 237 24 41 49 96 55 122 29 113 -35 159 -143 105z"/>
<path d="M4074 3678 c-9 -14 -27 -104 -40 -197 -5 -40 -4 -52 4 -47 7 4 12 17
12 29 0 12 9 67 19 122 20 99 21 118 5 93z"/>
<path d="M5031 3653 c-32 -124 -42 -166 -38 -169 2 -2 12 3 23 11 10 8 14 15
8 15 -9 0 1 54 32 158 4 13 2 22 -4 22 -6 0 -16 -17 -21 -37z"/>
<path d="M3216 3599 c-46 -54 -53 -81 -31 -115 22 -34 109 -74 161 -74 94 0
122 120 44 195 -23 22 -41 29 -83 33 -53 4 -54 4 -91 -39z m153 -5 c46 -38 60
-112 28 -151 -25 -33 -197 17 -183 53 3 9 6 29 6 45 0 23 5 29 21 29 31 0 61
-20 55 -36 -3 -8 -1 -14 5 -14 5 0 12 7 16 17 8 21 -30 53 -63 53 -25 0 -33
15 -11 23 36 15 97 6 126 -19z"/>
<path d="M3769 3515 c-39 -21 -44 -44 -13 -56 34 -12 54 3 51 42 -2 33 -3 33
-38 14z m21 -29 c0 -11 -19 -15 -25 -6 -3 5 1 10 9 10 9 0 16 -2 16 -4z"/>
<path d="M2246 3495 c-38 -13 -77 -32 -85 -41 -15 -15 -14 -16 7 -9 22 6 22 5
22 -87 l0 -93 124 5 c82 4 129 10 140 19 29 24 19 56 -37 108 -53 50 -53 51
-35 73 14 17 16 26 7 36 -17 20 -65 17 -143 -11z m124 -8 c0 -7 -9 -18 -21
-25 -20 -13 -19 -15 40 -69 64 -58 77 -89 39 -97 -52 -11 -155 -15 -188 -8
l-35 8 43 27 c23 15 42 29 42 32 0 6 -31 -6 -57 -23 l-23 -14 0 75 0 75 43 15
c53 19 117 22 117 4z"/>
<path d="M15800 3502 c0 -18 -44 -19 -1177 -26 -648 -3 -1467 -6 -1821 -6
-354 0 -647 -2 -652 -5 -6 -4 -10 -209 -10 -528 0 -344 3 -518 10 -511 6 6 11
200 12 519 l3 510 1755 3 c965 2 1783 0 1818 -3 l63 -7 -3 -524 c-2 -346 0
-523 7 -521 14 5 19 1117 5 1117 -5 0 -10 -8 -10 -18z"/>
<path d="M2680 3471 c0 -10 178 -21 195 -12 18 9 -39 19 -117 20 -43 1 -78 -3
-78 -8z"/>
<path d="M15142 3433 c-3 -10 -7 -69 -7 -130 0 -68 -4 -113 -10 -113 -51 -3
-141 -13 -190 -22 -33 -5 -89 -12 -124 -15 l-64 -5 5 69 c4 50 14 85 37 131
17 34 27 62 22 62 -21 0 -73 -129 -78 -194 l-6 -66 -86 0 c-47 0 -93 -5 -101
-10 -10 -7 17 -10 86 -10 l100 0 11 -57 c6 -32 15 -71 19 -87 7 -29 7 -29 -17
-13 -25 18 -39 21 -39 10 0 -11 63 -53 78 -53 16 0 15 30 -2 71 -8 19 -17 55
-21 80 l-7 47 109 6 c59 3 133 11 163 17 118 24 116 24 124 -11 12 -60 8 -79
-14 -73 -11 3 -20 1 -20 -5 0 -14 27 -23 46 -15 14 5 16 17 11 64 l-5 58 36 6
c65 10 109 25 122 40 15 19 11 19 -26 1 -16 -8 -52 -17 -81 -21 -51 -7 -52 -6
-59 20 -4 15 -4 74 -1 131 6 102 3 121 -11 87z"/>
<path d="M8505 3430 c-4 -7 140 -10 424 -10 276 0 432 4 436 10 4 7 -140 10
-424 10 -276 0 -432 -4 -436 -10z"/>
<path d="M2780 3403 c-30 -2 -59 -9 -65 -15 -14 -14 144 -3 158 11 8 8 4 10
-13 9 -14 -1 -50 -3 -80 -5z"/>
<path d="M13720 3383 c-21 -8 -70 -55 -70 -67 1 -6 9 -2 18 10 27 32 56 44
104 44 51 0 88 -22 88 -53 0 -47 -38 -69 -106 -61 -56 7 -116 -6 -122 -26 -4
-11 13 -12 89 -7 104 6 140 -4 184 -47 14 -14 25 -36 25 -50 0 -38 -43 -55
-162 -64 -58 -4 -101 -11 -98 -16 6 -12 82 -9 169 6 133 22 151 119 32 173
l-41 18 25 25 c55 55 14 123 -74 121 -25 0 -53 -3 -61 -6z"/>
<path d="M12501 3334 c-150 -40 -191 -131 -101 -227 l38 -42 -24 -28 c-32 -38
-32 -90 1 -122 46 -47 165 -26 165 28 -1 25 -18 47 -73 95 l-38 32 35 15 c19
8 51 15 70 15 19 0 38 5 41 10 11 18 -68 10 -114 -10 l-44 -21 -30 28 c-63 59
-71 135 -17 173 32 22 45 26 34 8 -5 -8 -2 -9 12 -4 10 5 41 16 67 26 97 35
82 52 -22 24z m10 -331 c67 -62 65 -87 -8 -91 -42 -2 -56 1 -72 17 -24 24 -27
71 -9 101 19 29 34 25 89 -27z"/>
<path d="M5568 2908 l-3 -263 -73 -8 c-41 -5 -89 -5 -110 0 l-37 9 -5 125 c-6
151 -18 179 -78 179 -42 0 -97 -27 -159 -78 l-43 -34 5 31 c3 17 7 45 10 63 4
24 2 29 -6 21 -6 -6 -17 -45 -24 -86 -7 -41 -16 -89 -20 -106 -4 -20 -3 -31 5
-31 11 0 14 7 25 55 13 60 130 145 200 145 51 0 65 -37 65 -178 0 -89 3 -112
16 -123 18 -15 131 -18 198 -5 l38 7 -7 -56 c-5 -46 -4 -56 7 -53 8 3 14 25
16 61 3 55 5 58 38 72 31 13 51 33 22 22 -7 -2 -23 -7 -35 -11 l-23 -7 0 255
c0 161 -4 256 -10 256 -6 0 -11 -99 -12 -262z"/>
<path d="M12970 3160 c0 -6 56 -11 145 -11 80 -1 150 -2 157 -3 6 -1 13 5 16
12 3 9 -33 12 -157 12 -101 0 -161 -4 -161 -10z"/>
<path d="M1575 3100 c-3 -5 -3 -10 2 -10 4 0 7 -160 5 -355 l-2 -355 -25 0
c-13 0 -27 -4 -30 -10 -4 -7 623 -10 1874 -10 1242 0 1882 3 1886 10 4 7 -612
10 -1842 10 l-1848 0 3 355 2 355 1890 0 c1248 0 1891 3 1895 10 4 7 -631 10
-1899 10 -1259 0 -1907 -3 -1911 -10z"/>
<path d="M13047 3053 c-218 -4 -216 -23 2 -23 129 0 161 3 171 15 7 8 9 14 4
13 -5 -1 -85 -4 -177 -5z"/>
<path d="M1705 2976 c-23 -35 -6 -89 50 -164 25 -33 45 -62 45 -65 0 -3 -31
-18 -70 -33 -77 -30 -116 -63 -106 -90 6 -15 19 -16 107 -12 85 4 104 8 121
26 21 20 21 22 5 64 -11 28 -14 45 -7 52 16 16 11 30 -6 15 -14 -11 -20 -7
-50 27 -47 54 -87 138 -79 163 8 27 31 27 47 1 15 -23 28 -26 28 -7 0 18 -33
47 -53 47 -9 0 -24 -11 -32 -24z m132 -281 c24 -51 11 -59 -102 -63 -82 -3
-95 -2 -95 12 0 9 1 16 3 16 1 0 38 16 82 35 44 19 83 35 88 35 4 0 15 -16 24
-35z"/>
<path d="M4575 2970 c-10 -11 -23 -20 -28 -20 -5 0 -20 -10 -32 -22 -12 -13
-45 -42 -73 -66 -53 -44 -66 -67 -34 -60 9 2 16 9 15 16 -3 10 77 82 91 82 3
0 6 -40 6 -90 0 -53 4 -90 10 -90 6 0 10 41 10 102 l0 102 33 27 c17 15 29 30
26 33 -3 3 -14 -3 -24 -14z"/>
<path d="M4254 2945 c-12 -8 -24 -12 -27 -9 -3 3 -11 -5 -18 -18 -6 -12 -36
-49 -65 -80 -30 -31 -54 -62 -54 -68 0 -6 25 15 55 47 l54 58 1 -82 c0 -49 4
-83 10 -83 13 0 13 7 10 103 -2 77 -1 80 31 113 35 36 36 43 3 19z"/>
<path d="M13350 2922 c0 -5 21 -13 48 -16 70 -9 797 -19 827 -12 58 15 18 21
-87 13 -106 -7 -615 6 -735 20 -34 3 -53 2 -53 -5z"/>
<path d="M20098 2871 c-42 -37 -110 -169 -132 -256 -37 -150 -29 -280 22 -322
55 -46 129 -76 173 -70 23 3 46 10 52 16 7 7 -4 9 -39 5 -40 -5 -59 -2 -92 15
-23 12 -42 23 -42 24 0 2 40 1 90 -1 146 -7 165 7 114 82 -23 34 -25 40 -11
48 27 15 47 39 41 49 -3 5 -10 7 -15 3 -5 -3 -7 -10 -4 -15 4 -5 -6 -14 -21
-21 -29 -14 -33 -10 -80 69 -21 34 -24 52 -22 100 l3 58 18 -38 c10 -21 22
-35 27 -32 10 6 -4 50 -25 79 -12 16 -17 17 -31 5 -13 -10 -15 -28 -12 -84 3
-60 8 -79 35 -120 18 -28 29 -53 25 -57 -11 -10 -195 -58 -201 -52 -3 3 -6 49
-6 102 1 110 25 202 80 312 58 114 76 123 220 106 53 -6 67 -5 59 3 -6 7 -51
15 -101 18 l-89 6 -36 -32z m129 -520 c13 -19 23 -38 23 -42 0 -12 -154 -11
-204 0 -68 16 -62 27 31 54 48 14 97 24 108 24 10 -1 30 -17 42 -36z"/>
<path d="M4870 2861 c0 -15 -3 -50 -7 -76 -4 -36 -3 -47 6 -44 16 6 27 149 12
149 -6 0 -11 -13 -11 -29z"/>
<path d="M14239 2883 c-17 -3 -39 -22 -65 -55 -38 -50 -39 -54 -39 -134 0 -97
15 -126 85 -161 88 -45 223 -22 263 46 47 79 -11 196 -130 263 -29 16 -53 34
-53 39 0 9 -13 9 -61 2z m76 -43 c124 -60 196 -183 154 -262 -27 -50 -161 -65
-239 -25 -54 26 -80 72 -80 137 0 68 17 116 51 144 37 31 60 32 114 6z"/>
<path d="M2165 2863 c-11 -3 -27 -11 -36 -19 -9 -8 -19 -11 -23 -7 -16 16 -26
-27 -26 -119 l0 -97 56 -7 c101 -12 204 7 204 38 0 5 -29 38 -65 72 -77 74
-83 100 -28 113 59 14 54 33 -9 32 -29 -1 -62 -4 -73 -6z m43 -24 c-36 -21
-22 -59 49 -128 59 -57 64 -65 47 -72 -25 -10 -168 -11 -178 -2 -4 4 8 20 26
36 23 20 26 25 10 17 -57 -28 -62 -24 -62 44 0 52 4 66 23 83 26 24 43 31 77
32 22 0 23 -1 8 -10z"/>
<path d="M3280 2861 c-8 -6 -29 -11 -46 -11 -74 0 -100 -111 -34 -145 43 -22
137 -20 178 5 58 36 68 103 19 134 -29 20 -98 29 -117 17z m108 -37 c29 -20
28 -59 -3 -89 -20 -21 -34 -25 -84 -25 -33 0 -71 4 -85 10 -52 19 -43 110 10
110 15 0 36 -7 46 -17 11 -9 18 -11 18 -5 0 7 9 12 19 12 11 0 23 5 26 10 9
14 27 12 53 -6z"/>
<path d="M13460 2783 c-43 -49 -60 -92 -60 -153 0 -43 5 -56 28 -80 35 -35
123 -57 165 -41 40 15 38 55 -4 70 -39 13 -119 14 -139 1 -9 -6 -17 -5 -22 3
-13 20 -9 96 7 135 16 38 52 82 67 82 11 0 10 -43 -2 -75 -8 -20 -7 -26 2 -23
15 5 26 40 27 86 1 45 -27 43 -69 -5z m138 -240 c-4 -23 -36 -27 -90 -11 l-43
12 50 7 c86 10 87 10 83 -8z"/>
<path d="M20280 2792 c-35 -20 -91 -82 -72 -82 6 0 16 9 22 21 43 79 214 79
355 -1 106 -61 157 -145 159 -264 1 -90 -15 -128 -72 -172 -54 -41 -62 -42
-62 -9 0 14 -10 35 -22 47 -12 12 -22 35 -22 52 -1 31 -1 31 -62 34 -49 2 -65
-1 -87 -18 -15 -12 -27 -26 -27 -32 0 -6 9 -3 20 7 20 18 20 17 20 -68 0 -94
-2 -97 -57 -77 -15 6 -38 23 -50 37 -12 15 -25 24 -29 20 -12 -11 26 -58 59
-72 l32 -14 -31 -1 c-17 0 -52 6 -77 14 -27 8 -49 10 -53 5 -12 -19 55 -33
166 -33 104 -1 120 2 170 25 73 35 152 95 181 138 21 30 24 46 23 115 -1 92
-21 149 -73 208 -97 110 -311 173 -411 120z m268 -414 c-2 -19 -11 -24 -50
-28 -47 -6 -48 -5 -48 22 0 27 2 28 51 28 47 0 50 -2 47 -22z m26 -64 c9 -8
16 -28 16 -43 0 -34 -32 -51 -95 -51 l-45 0 0 43 c0 42 2 44 38 54 54 15 69
15 86 -3z"/>
<path d="M2595 2780 c-4 -7 50 -10 154 -10 96 0 162 4 166 10 4 7 -50 10 -154
10 -96 0 -162 -4 -166 -10z"/>
<path d="M13802 2781 c-62 -16 -102 -71 -102 -143 0 -95 56 -133 195 -132 95
0 155 25 181 76 53 103 -128 235 -274 199z m58 -51 c17 -7 34 -9 38 -5 4 4 2
10 -4 12 -6 2 -20 11 -30 19 -18 14 -16 15 21 9 114 -19 202 -108 176 -178
-17 -44 -64 -61 -166 -61 -104 0 -145 15 -165 64 -18 43 -8 116 20 145 25 27
61 36 72 19 4 -6 21 -17 38 -24z"/>
<path d="M3694 2745 c-15 -38 47 -55 106 -29 22 10 40 21 40 25 0 23 -137 28
-146 4z m56 -15 c0 -13 -11 -13 -30 0 -12 8 -11 10 8 10 12 0 22 -4 22 -10z"/>
<path d="M2650 2732 c0 -5 17 -12 38 -16 55 -9 220 -7 226 3 3 4 -25 8 -62 8
-37 0 -97 3 -134 7 -42 5 -68 4 -68 -2z"/>
<path d="M13560 2420 c0 -12 1938 -12 1985 0 17 4 -423 8 -977 9 -666 1 -1008
-2 -1008 -9z"/>
<path d="M12919 2311 c-63 -25 -133 -76 -163 -120 -43 -62 -58 -118 -59 -221
-1 -108 19 -181 61 -231 21 -26 174 -112 184 -104 2 1 45 6 95 9 90 7 93 7
118 -18 19 -19 25 -35 25 -71 0 -61 -23 -103 -114 -205 -42 -47 -85 -103 -96
-126 -41 -84 -16 -143 73 -169 65 -20 221 -31 273 -19 32 7 15 9 -91 15 -186
10 -255 39 -255 106 0 48 28 97 105 183 101 113 125 154 125 215 0 55 -19 91
-53 104 -19 7 -17 11 23 37 41 26 54 28 131 29 130 0 148 25 75 103 l-44 47
14 65 c17 79 17 94 3 144 -12 43 -49 86 -75 86 -13 0 -8 -9 18 -34 34 -33 57
-94 44 -115 -3 -5 -23 -12 -43 -16 -21 -3 -48 -9 -61 -12 -18 -4 -21 -2 -16
13 5 16 3 16 -13 -2 -10 -12 -33 -29 -51 -39 -19 -9 -32 -19 -29 -22 3 -2 14
0 25 6 38 20 40 14 34 -95 -4 -84 -2 -106 8 -102 9 3 13 32 14 105 0 56 6 106
11 112 6 5 33 12 60 16 48 6 49 5 24 -9 -38 -22 -43 -45 -19 -79 25 -33 22
-58 -14 -102 -20 -24 -25 -26 -26 -12 0 10 5 27 10 38 6 10 8 19 4 19 -15 0
-33 -37 -34 -67 0 -29 -6 -36 -52 -63 -29 -16 -67 -30 -85 -30 -18 0 -55 -5
-83 -11 -45 -10 -58 -8 -112 12 -110 41 -151 95 -168 223 -33 237 93 406 305
406 71 0 72 -1 106 -84 9 -23 19 -34 23 -28 10 16 -33 111 -55 122 -29 16
-130 11 -180 -9z m411 -353 c0 -25 -12 -58 -21 -58 -4 0 -14 10 -20 22 -10 18
-8 24 7 35 22 16 34 17 34 1z m62 -182 c7 -14 6 -21 -3 -27 -16 -10 -122 -12
-132 -3 -3 3 10 28 30 56 l36 49 29 -28 c16 -15 34 -36 40 -47z"/>
<path d="M8350 2276 c-52 -20 -143 -67 -137 -72 2 -2 34 10 71 27 37 17 89 34
114 37 l47 5 -20 -23 c-19 -21 -190 -110 -212 -110 -6 0 -16 -7 -23 -15 -11
-13 8 -15 159 -16 94 -1 176 -2 183 -3 6 -1 13 5 16 12 3 9 -32 12 -150 12
l-153 1 85 44 c79 41 130 83 130 106 0 13 -69 10 -110 -5z"/>
<path d="M5982 2224 c-29 -25 -65 -69 -79 -98 -24 -45 -27 -63 -27 -151 -1
-152 31 -217 121 -249 66 -23 253 -58 271 -51 10 5 -28 16 -98 30 -249 50
-273 75 -274 275 -1 97 1 109 26 152 16 25 51 67 80 92 29 25 48 46 43 46 -6
0 -34 -21 -63 -46z"/>
<path d="M5231 2214 c-72 -24 -131 -51 -131 -58 0 -3 44 11 98 30 189 66 205
29 36 -84 -94 -62 -91 -69 29 -77 120 -8 199 -4 204 10 2 6 -44 9 -128 7 -76
-2 -136 1 -142 7 -6 6 14 24 57 51 72 46 116 91 116 121 0 27 -47 25 -139 -7z"/>
<path d="M13925 2209 c-82 -20 -132 -47 -65 -35 32 6 31 4 -15 -17 -27 -13
-56 -31 -64 -40 -7 -10 -24 -17 -37 -17 -13 0 -24 -4 -24 -10 0 -16 332 -13
353 3 14 10 -11 12 -135 9 -152 -2 -153 -2 -130 17 12 11 76 37 142 58 66 21
120 41 120 45 0 13 -61 8 -145 -13z"/>
<path d="M9485 2193 c-133 -68 -195 -192 -195 -392 0 -93 11 -110 90 -136 92
-30 400 -60 386 -37 -3 5 -54 12 -115 15 -165 10 -279 36 -323 75 -25 22 -24
154 2 256 26 104 65 156 146 198 35 18 64 36 64 41 0 9 3 10 -55 -20z"/>
<path d="M11840 2214 c0 -4 25 -34 56 -67 31 -33 61 -71 67 -84 13 -30 31 -30
21 0 -8 26 -22 45 -83 110 -42 43 -61 56 -61 41z"/>
<path d="M12990 2191 c0 -16 4 -41 10 -55 11 -31 9 -31 -65 -6 -60 21 -107 27
-89 12 5 -5 41 -19 79 -32 39 -12 78 -27 88 -32 20 -10 14 -28 -10 -28 -9 0
-44 -25 -79 -56 -55 -48 -64 -60 -64 -90 0 -42 21 -49 130 -41 122 8 146 32
111 111 -10 24 -17 47 -13 50 3 3 20 6 38 6 54 0 47 16 -16 39 -33 12 -67 32
-74 44 -18 28 -31 78 -20 76 21 -4 26 2 14 16 -21 25 -40 18 -40 -14z m100
-141 c0 -5 -7 -7 -15 -4 -8 4 -15 8 -15 10 0 2 7 4 15 4 8 0 15 -4 15 -10z
m-17 -67 c10 -21 18 -49 20 -62 2 -21 -4 -26 -38 -33 -22 -5 -69 -7 -105 -6
-60 3 -65 5 -68 26 -7 45 77 112 139 112 32 0 38 -4 52 -37z"/>
<path d="M4708 2169 c-124 -14 -174 -70 -185 -207 -7 -93 7 -162 43 -209 59
-77 224 -116 317 -75 26 12 47 19 47 17 0 -3 -26 -44 -58 -93 -32 -48 -64
-102 -71 -120 -7 -18 -17 -32 -21 -32 -10 0 -30 71 -37 130 -6 55 -23 68 -23
19 0 -39 27 -144 46 -181 18 -35 34 -36 34 -3 0 14 6 40 14 59 22 53 176 282
176 262 0 -15 3 -16 14 -6 8 6 13 17 10 25 -3 7 4 31 14 52 30 57 36 105 22
165 -22 90 -128 178 -215 178 -26 0 -68 -28 -95 -63 -12 -15 -26 -25 -31 -21
-16 10 -39 -17 -39 -45 0 -23 11 -71 35 -157 5 -17 -1 -24 -35 -39 -23 -10
-50 -30 -61 -43 -19 -25 -20 -25 -34 -6 -24 31 -30 64 -29 164 1 154 28 190
157 211 58 10 76 15 66 22 -2 2 -30 0 -61 -4z m176 -49 c46 -17 86 -128 101
-280 6 -64 6 -66 -27 -97 -40 -38 -95 -63 -142 -63 -28 0 -33 3 -29 18 2 10
-5 45 -16 77 -12 33 -21 61 -21 62 0 2 15 9 33 16 17 8 41 25 52 37 l20 23
-24 -14 c-13 -8 -33 -20 -45 -26 -39 -23 -53 -16 -70 35 -8 26 -18 66 -22 90
-7 48 4 54 56 27 16 -8 31 -11 34 -6 3 4 -6 14 -19 21 -32 17 -31 25 4 61 31
31 68 37 115 19z m125 -104 c27 -44 34 -104 20 -160 -14 -55 -29 -45 -29 19 0
38 -20 138 -36 180 -7 18 -6 18 9 6 9 -7 25 -27 36 -45z m-259 -243 c11 -31
18 -63 15 -70 -6 -18 -52 -10 -108 19 -52 26 -48 55 13 86 24 12 47 22 51 22
4 0 17 -25 29 -57z"/>
<path d="M13617 2173 c-4 -6 9 -44 28 -85 26 -55 38 -97 47 -170 8 -64 15 -95
22 -88 20 20 -12 188 -52 274 -22 46 -41 76 -45 69z"/>
<path d="M8080 2156 c0 -2 7 -20 15 -39 8 -20 15 -57 15 -83 l0 -46 -30 26
c-34 28 -76 41 -165 51 -53 6 -65 3 -107 -20 -60 -34 -88 -72 -88 -122 0 -88
73 -142 193 -143 76 0 124 16 163 55 l27 27 -7 -34 c-16 -76 -19 -131 -8 -124
7 4 12 17 12 29 0 12 7 54 15 92 21 98 20 254 -2 300 -9 19 -20 35 -25 35 -4
0 -8 -2 -8 -4z m-105 -121 c56 -12 76 -21 99 -46 24 -27 27 -38 23 -71 -11
-85 -61 -118 -179 -118 -116 0 -178 46 -178 131 0 49 31 86 88 103 60 19 63
19 147 1z"/>
<path d="M10247 2103 c-33 -64 -40 -116 -32 -219 8 -92 22 -112 53 -79 16 16
16 17 -5 11 -20 -6 -21 -3 -28 78 -8 96 -2 140 26 205 27 61 16 64 -14 4z"/>
<path d="M3430 2114 c-64 -37 -88 -61 -121 -127 -35 -68 -54 -187 -40 -249 12
-54 42 -82 129 -125 70 -35 79 -37 190 -40 139 -3 136 2 -9 16 -113 11 -167
29 -236 80 -54 39 -67 83 -55 183 17 133 64 208 162 258 38 19 50 30 33 30 -5
0 -28 -12 -53 -26z"/>
<path d="M11227 2115 c-25 -8 -33 -17 -35 -39 -2 -18 0 -26 7 -21 6 3 11 15
11 25 0 15 10 20 43 25 65 9 172 -7 172 -25 0 -16 -37 -27 -102 -29 -44 -1
-66 -16 -36 -24 10 -3 36 -8 57 -12 22 -4 57 -13 78 -22 30 -12 38 -21 38 -40
0 -14 10 -43 22 -64 27 -48 19 -59 -46 -66 -85 -10 -184 35 -173 77 5 21 -7
27 -18 9 -14 -22 6 -56 47 -79 58 -33 162 -35 205 -4 19 15 34 19 48 13 34
-13 173 -10 208 5 44 18 87 71 87 107 0 41 -44 85 -115 114 -46 18 -63 21 -74
12 -11 -9 -7 -13 23 -19 142 -30 196 -137 95 -188 -28 -15 -58 -20 -113 -20
-97 0 -126 11 -126 47 0 16 -9 43 -20 61 -26 43 -17 56 51 72 27 7 52 17 55
22 4 6 -1 8 -12 5 -11 -3 -33 -8 -51 -12 -18 -3 -44 -15 -58 -26 -25 -20 -25
-20 -76 -1 -51 19 -51 19 -22 25 59 12 79 61 29 72 -47 10 -169 10 -199 0z
m283 -201 c0 -8 -4 -14 -10 -14 -5 0 -10 4 -10 9 0 5 -3 18 -7 28 -6 16 -5 16
10 4 9 -7 17 -20 17 -27z"/>
<path d="M12378 2124 c-5 -4 -8 -35 -8 -69 l0 -62 -67 -6 c-38 -4 -85 -7 -105
-7 -20 0 -40 -5 -44 -11 -4 -8 25 -9 105 -4 l111 8 0 -41 c0 -45 8 -74 20 -67
4 2 5 26 2 53 l-4 49 103 7 c57 4 108 11 113 16 6 6 -33 7 -102 3 l-111 -6 -3
72 c-2 40 -6 69 -10 65z"/>
<path d="M7500 2101 c-34 -11 -87 -39 -94 -50 -3 -5 21 2 55 16 71 29 132 28
137 -1 5 -26 -9 -36 -63 -44 -27 -4 -50 -13 -53 -20 -3 -10 4 -12 30 -7 44 8
101 -14 123 -48 10 -16 15 -40 13 -64 l-3 -38 -77 -3 c-93 -3 -148 15 -148 49
0 17 -3 20 -11 12 -19 -19 -5 -47 31 -65 46 -24 176 -25 208 -2 48 33 15 149
-49 169 l-21 7 21 15 c23 16 28 52 9 71 -13 13 -69 15 -108 3z"/>
<path d="M8820 2065 c-6 -15 -13 -55 -17 -87 l-6 -59 -66 6 c-36 3 -78 8 -93
11 -14 3 -29 1 -32 -5 -6 -10 14 -13 136 -26 62 -7 62 -6 70 -100 2 -22 9 -31
26 -33 12 -2 22 1 22 7 0 6 -7 11 -15 11 -10 0 -15 10 -15 33 0 17 -3 42 -6
54 l-6 23 148 -6 c132 -6 151 -5 163 10 8 9 10 20 6 24 -4 4 -10 1 -12 -5 -5
-14 -120 -17 -235 -6 -66 6 -68 7 -68 34 0 15 5 51 11 79 12 57 5 78 -11 35z"/>
<path d="M6116 2053 c-26 -125 -35 -316 -14 -295 7 7 11 35 9 69 -2 54 11 174
25 229 4 14 2 24 -4 24 -6 0 -13 -12 -16 -27z"/>
<path d="M6205 2063 c-44 -7 -56 -23 -16 -23 33 0 33 -1 27 -35 -4 -19 -6 -35
-4 -35 2 0 21 7 43 15 94 34 186 10 221 -56 16 -31 21 -109 9 -129 -8 -14 -74
-30 -121 -30 -73 0 -104 10 -120 42 -8 16 -19 26 -24 23 -6 -4 -4 -18 5 -35
31 -61 196 -68 265 -12 18 14 22 29 22 70 0 61 -23 107 -73 140 -30 21 -42 23
-101 19 -37 -3 -76 -11 -87 -17 -20 -10 -20 -9 -9 16 l12 27 98 -7 c55 -3 99
-2 102 3 4 5 -33 12 -81 16 -49 3 -99 8 -113 9 -14 2 -38 1 -55 -1z"/>
<path d="M9526 2062 c-13 -21 3 -284 18 -279 12 4 12 25 0 182 -6 69 -12 105
-18 97z"/>
<path d="M9755 2063 c-49 -2 -94 -8 -99 -13 -7 -7 -6 -10 2 -10 9 0 9 -7 -2
-29 -9 -16 -13 -30 -11 -33 3 -2 28 -1 57 3 29 4 86 8 126 8 61 1 75 -2 93
-20 17 -17 20 -29 16 -61 -3 -22 -11 -46 -17 -52 -15 -15 -162 -15 -167 0 -2
6 -10 20 -18 30 -14 18 -14 18 -15 -2 0 -40 24 -57 87 -62 79 -6 127 16 143
64 15 43 5 90 -23 109 -23 16 -114 19 -204 6 -39 -5 -53 -4 -53 5 0 31 31 37
223 41 105 2 193 5 194 7 5 5 -158 16 -202 14 -22 -1 -80 -4 -130 -5z"/>
<path d="M10454 2045 c-92 -16 -111 -23 -117 -40 -8 -20 10 -31 128 -75 59
-22 115 -46 123 -53 13 -10 11 -13 -14 -18 -51 -11 -194 -10 -194 2 0 5 -4 7
-10 4 -5 -3 -10 -13 -10 -22 0 -13 15 -15 108 -11 107 4 152 17 152 42 0 16
-38 35 -161 81 -50 19 -94 36 -97 40 -13 13 23 22 131 34 62 7 116 16 122 22
13 13 -74 10 -161 -6z"/>
<path d="M10978 2035 c-20 -13 -39 -30 -42 -37 -3 -7 -4 0 -3 16 l2 29 -75 -2
c-55 -2 -89 -9 -127 -27 -28 -13 -57 -24 -62 -24 -6 0 -11 -4 -11 -9 0 -5 9
-7 20 -4 17 5 20 0 20 -29 0 -23 8 -42 23 -56 27 -25 104 -44 146 -36 30 6 31
5 31 -30 0 -37 13 -48 24 -20 3 9 6 45 6 80 0 102 38 154 112 154 51 0 60 -20
57 -133 -2 -76 1 -93 14 -95 8 -2 18 2 22 7 3 6 0 11 -7 11 -10 0 -12 21 -10
91 4 112 -9 139 -66 139 -23 0 -51 -9 -74 -25z m-175 -22 c-7 -2 -21 -2 -30 0
-10 3 -4 5 12 5 17 0 24 -2 18 -5z m99 -70 c-3 -32 -10 -62 -16 -66 -18 -13
-109 2 -136 22 -18 13 -25 27 -25 52 0 33 2 34 45 40 25 3 66 7 91 7 l46 2 -5
-57z"/>
<path d="M7195 2034 c-102 -20 -125 -27 -125 -35 0 -6 9 -7 21 -4 13 5 25 2
29 -6 5 -7 48 -42 97 -78 58 -44 89 -74 91 -88 3 -22 0 -23 -57 -23 -77 0
-111 15 -111 49 0 18 -3 22 -11 14 -20 -20 -2 -60 32 -72 34 -12 127 -15 153
-5 22 8 20 46 -3 75 -10 13 -53 49 -95 78 -88 63 -86 71 20 71 46 0 77 5 90
15 17 13 13 14 -46 14 -36 -1 -74 -3 -85 -5z"/>
<path d="M4357 1993 c-4 -3 -7 -29 -7 -57 0 -28 -3 -68 -6 -88 l-7 -38 -68 0
c-37 0 -71 -4 -74 -10 -4 -6 22 -10 69 -10 l76 0 0 -46 c0 -27 4 -43 10 -39 6
3 10 24 10 45 l0 39 77 3 c42 2 78 8 80 13 2 6 -27 9 -77 7 l-80 -4 7 96 c6
92 4 104 -10 89z"/>
<path d="M6939 1973 c-1 -5 -1 -12 0 -16 1 -4 -5 -18 -14 -30 -24 -34 -20
-103 7 -121 62 -44 132 6 108 77 -19 56 -96 124 -101 90z m53 -50 c47 -54 48
-113 2 -113 -44 0 -64 17 -64 56 0 65 30 93 62 57z"/>
<path d="M6727 1940 c-31 -36 -56 -134 -40 -158 22 -36 167 -40 209 -6 18 15
18 15 -1 9 -39 -13 -140 -17 -169 -6 -27 11 -28 14 -23 55 4 24 14 60 24 80
16 34 20 37 57 34 33 -2 41 -7 47 -28 5 -21 7 -22 13 -8 14 31 -11 58 -53 58
-31 0 -44 -6 -64 -30z"/>
<path d="M3621 1833 c-6 -71 -16 -146 -21 -168 -5 -22 -8 -41 -6 -42 1 -2 18
14 37 33 28 30 30 34 10 24 -22 -12 -24 -11 -18 11 4 13 10 60 13 104 8 95 18
123 29 76 5 -22 10 -30 17 -23 7 7 5 27 -7 61 -28 84 -41 66 -54 -76z"/>
<path d="M3800 1923 c-60 -4 -90 -12 -90 -21 0 -5 13 -7 30 -4 l29 4 -26 -66
c-15 -36 -24 -69 -21 -72 4 -3 19 1 35 9 41 21 90 30 129 23 39 -8 67 -50 62
-94 -3 -25 -6 -27 -61 -30 -44 -2 -70 2 -103 19 -55 26 -67 20 -22 -12 48 -34
157 -40 187 -10 12 12 21 30 21 41 0 40 -28 90 -57 101 -34 13 -102 5 -143
-16 l-30 -16 20 52 c10 29 24 57 30 63 7 7 61 11 141 11 121 0 150 5 113 19
-16 6 -159 6 -244 -1z"/>
<path d="M5550 1880 c20 -13 310 -13 310 0 0 6 -61 10 -162 10 -109 0 -158 -4
-148 -10z"/>
<path d="M11855 1830 c-7 -12 36 -30 70 -30 13 0 27 5 30 10 4 6 -7 10 -25 10
-17 0 -40 5 -50 10 -13 7 -21 7 -25 0z"/>
<path d="M5585 1770 c-4 -6 43 -10 134 -10 82 0 142 4 146 10 4 6 -43 10 -134
10 -82 0 -142 -4 -146 -10z"/>
<path d="M16133 1667 c-12 -12 -37 -48 -57 -79 -20 -32 -39 -58 -41 -58 -3 0
-14 9 -25 20 -27 27 -73 25 -106 -3 l-26 -23 -28 28 c-25 24 -36 28 -89 28
-52 0 -61 -3 -66 -21 -11 -33 5 -181 19 -176 7 3 10 32 7 90 l-3 87 45 0 c34
0 53 -6 73 -23 25 -22 27 -29 28 -105 1 -45 4 -82 8 -82 12 0 82 41 93 54 6 7
22 27 37 46 l26 33 30 -60 c38 -74 78 -123 102 -123 18 0 56 47 46 57 -2 3
-11 -4 -18 -16 -7 -12 -18 -21 -25 -21 -16 0 -55 53 -91 126 l-30 60 44 69
c24 38 52 77 61 87 9 10 14 20 11 23 -2 3 -14 -5 -25 -18z m-133 -142 l23 -24
-42 -56 c-57 -75 -76 -74 -85 7 -5 49 -3 65 11 80 23 26 65 23 93 -7z"/>
<path d="M16896 1666 c-20 -16 -24 -25 -15 -28 12 -4 11 -14 -3 -56 -16 -52
-9 -71 12 -31 17 31 87 59 148 59 43 0 57 -5 77 -25 25 -24 34 -76 17 -102
-14 -22 -67 -34 -142 -32 -83 2 -105 -14 -25 -19 77 -5 132 7 166 35 28 24 31
31 26 71 -7 61 -32 84 -100 90 -41 3 -66 -1 -102 -17 -50 -22 -66 -21 -47 2 7
8 8 18 4 22 -4 5 -2 5 5 1 6 -3 14 -2 18 4 4 6 52 10 116 10 109 0 110 0 203
-45 52 -25 99 -45 104 -45 5 0 15 -7 22 -15 21 -26 -3 -39 -75 -40 -80 -2
-117 -25 -39 -25 88 0 165 36 146 67 -4 7 -47 30 -95 52 -48 22 -87 43 -87 46
0 3 22 5 50 5 43 0 49 -2 43 -17 -6 -16 -4 -16 16 1 19 17 20 21 6 29 -9 4
-107 7 -219 5 -160 -2 -202 0 -199 10 7 17 3 15 -31 -12z"/>
<path d="M16766 1643 c-3 -3 -6 -26 -6 -49 0 -24 -5 -66 -11 -94 -6 -27 -9
-55 -7 -61 4 -13 58 27 58 43 0 6 -9 3 -21 -8 -20 -18 -20 -18 -14 6 3 14 9
56 14 93 7 63 3 86 -13 70z"/>
<path d="M12771 1577 c-18 -18 -12 -23 24 -19 36 4 39 16 6 25 -11 2 -24 0
-30 -6z"/>
<path d="M16327 1503 c-16 -16 -1 -18 103 -15 60 2 110 7 110 13 0 10 -203 13
-213 2z"/>
<path d="M13712 1440 c-49 -22 -105 -60 -99 -66 3 -3 28 10 57 28 42 26 65 33
119 36 74 4 104 -11 94 -47 -7 -28 -37 -53 -133 -111 -107 -64 -130 -89 -130
-141 0 -21 5 -39 10 -39 6 0 10 19 10 43 0 52 13 66 117 126 93 53 129 84 142
121 9 26 7 34 -9 50 -27 27 -119 27 -178 0z"/>
<path d="M5918 1425 c-11 -11 6 -113 28 -162 l22 -52 -36 -12 c-106 -33 -131
-83 -70 -135 44 -36 114 -65 163 -67 40 -2 40 -2 39 34 -1 20 -15 66 -32 102
-31 67 -31 77 -1 77 10 0 21 5 25 11 5 9 -4 10 -30 5 -36 -7 -37 -7 -61 46
-14 30 -25 71 -25 96 l0 42 38 -16 c54 -23 72 -28 72 -16 0 5 -23 19 -51 31
-52 21 -72 25 -81 16z m93 -295 c36 -76 45 -120 25 -120 -28 0 -116 38 -152
65 -50 38 -46 67 14 94 68 30 83 25 113 -39z"/>
<path d="M16335 1400 c-4 -6 38 -10 119 -10 72 0 127 4 131 10 4 6 -38 10
-119 10 -72 0 -127 -4 -131 -10z"/>
<path d="M16930 1290 c0 -14 2226 -14 2235 0 4 7 -370 10 -1114 10 -741 0
-1121 -3 -1121 -10z"/>
<path d="M6325 1242 c-16 -11 -37 -27 -45 -36 -15 -19 -16 -24 -26 -96 -4 -28
-16 -55 -32 -72 l-26 -28 24 -25 c20 -22 32 -25 84 -24 137 2 154 28 80 129
-21 29 -25 43 -21 80 3 25 9 55 12 68 9 28 -8 29 -50 4z m25 -28 c-18 -45 -12
-99 15 -135 35 -48 49 -78 42 -86 -4 -3 -32 -8 -63 -11 l-57 -5 5 36 c3 28 0
37 -13 40 -11 3 -16 12 -14 23 22 105 29 126 52 144 34 27 44 25 33 -6z m-79
-201 c-8 -15 -10 -15 -11 -2 0 17 10 32 18 25 2 -3 -1 -13 -7 -23z m-31 1 c0
-8 -5 -12 -10 -9 -6 4 -8 11 -5 16 9 14 15 11 15 -7z"/>
<path d="M6800 1193 c-68 -2 -129 -8 -135 -14 -6 -6 37 -9 129 -7 101 2 141 6
144 16 2 6 0 11 -5 10 -4 -1 -64 -4 -133 -5z"/>
<path d="M8338 1077 l-42 -64 -221 -8 c-121 -4 -413 -6 -650 -4 -276 3 -435 0
-445 -6 -10 -7 199 -12 638 -15 l653 -5 -70 -95 c-73 -97 -80 -110 -59 -110
14 0 132 76 149 96 6 8 16 14 22 14 6 0 -16 -28 -50 -62 -57 -58 -95 -118 -74
-118 5 0 13 12 19 28 5 15 78 97 161 182 142 145 181 190 165 190 -11 0 -164
-153 -159 -160 2 -4 -10 -20 -28 -36 l-32 -29 29 33 c41 44 23 40 -31 -8 -45
-39 -146 -110 -157 -110 -4 0 26 43 65 95 44 59 78 95 90 95 22 0 36 20 19 30
-8 5 -1 23 25 64 20 32 34 60 32 63 -3 3 -25 -24 -49 -60z"/>
<path d="M18940 1121 c0 -6 10 -11 21 -11 12 0 41 -19 64 -43 35 -34 45 -52
50 -91 16 -107 -18 -151 -111 -142 -102 9 -174 70 -174 146 0 45 6 53 58 79
24 12 42 25 39 27 -9 9 -85 -35 -101 -58 -9 -12 -16 -41 -17 -63 0 -22 -3 -34
-6 -27 -3 8 -19 22 -35 32 -30 18 -30 18 -9 29 42 23 19 71 -34 71 -36 0 -116
-39 -123 -59 -2 -7 13 -2 34 13 45 30 111 36 121 11 8 -23 -1 -28 -62 -33 -59
-5 -87 -22 -36 -22 42 0 109 -28 121 -51 6 -10 10 -31 10 -48 0 -37 -18 -44
-105 -39 -50 2 -60 6 -59 20 1 10 -2 16 -6 13 -8 -5 -255 126 -273 144 -5 5
30 9 87 10 98 1 126 6 126 22 0 21 -229 3 -237 -19 -8 -20 21 -41 150 -108
126 -66 126 -81 -2 -68 -42 4 -67 9 -56 12 41 8 41 25 0 17 -50 -9 -80 -24
-69 -35 8 -8 140 -17 345 -23 90 -2 119 14 119 67 l0 31 26 -33 c40 -50 97
-75 176 -76 60 -1 70 2 94 26 41 41 45 120 10 192 -15 30 -38 61 -51 70 -33
22 -85 32 -85 17z"/>
<path d="M6680 1110 c-10 -7 33 -10 132 -10 87 0 149 4 153 10 8 13 -265 13
-285 0z"/>
<path d="M17388 1034 c-9 -9 -11 -284 -2 -284 8 0 43 43 44 54 0 5 -7 3 -15
-4 -12 -10 -15 5 -17 115 -2 70 -6 123 -10 119z"/>
<path d="M17450 1030 c-9 -6 34 -10 125 -12 148 -3 159 -2 150 13 -8 12 -255
12 -275 -1z"/>
<path d="M18146 1021 c-7 -11 20 -22 38 -15 21 8 38 -30 34 -79 l-3 -42 -61
-3 c-74 -4 -86 11 -52 67 18 28 18 33 4 22 -15 -13 -46 -62 -46 -75 0 -20 38
-36 86 -36 70 0 94 21 94 85 0 32 -6 51 -20 65 -21 21 -64 27 -74 11z"/>
<path d="M17905 1001 c-16 -4 -40 -13 -52 -20 -52 -28 -72 -128 -30 -155 29
-19 120 -31 142 -19 13 8 3 11 -43 15 -83 8 -102 20 -102 66 0 21 7 47 15 59
17 24 71 43 122 43 17 0 35 5 38 10 7 11 -44 12 -90 1z"/>
<path d="M17506 960 c-45 -50 -48 -75 -8 -66 15 4 55 9 89 13 69 6 106 -8 118
-48 10 -31 -9 -39 -92 -39 -63 0 -75 3 -103 26 -42 36 -50 23 -11 -17 31 -31
32 -31 117 -28 71 3 88 7 100 23 20 28 18 43 -10 71 -34 33 -70 40 -145 27
-36 -6 -67 -9 -70 -6 -3 2 11 20 29 39 18 19 31 37 28 40 -3 3 -22 -13 -42
-35z"/>
<path d="M13590 928 c-27 -29 -28 -93 -1 -108 27 -14 94 -13 109 2 20 20 14
63 -13 88 -13 12 -22 27 -19 31 12 20 -56 8 -76 -13z m69 -24 c19 -16 31 -35
31 -50 0 -21 -5 -24 -34 -24 -47 0 -66 9 -66 31 0 17 3 17 20 7 10 -7 22 -9
26 -5 9 9 -27 37 -38 31 -10 -6 -10 -1 -2 20 9 23 28 20 63 -10z"/>
<path d="M14855 640 c-4 -7 628 -10 1889 -10 1252 0 1897 3 1901 10 4 7 -628
10 -1889 10 -1252 0 -1897 -3 -1901 -10z"/>
</g>
</svg>
