<?xml version="1.0" encoding="UTF-8"?>
<!-- Generator: Blender, SVG Export for Grease Pencil - v1.0 -->
<!DOCTYPE svg PUBLIC "-//W3C//DTD SVG 1.1//EN" "http://www.w3.org/Graphics/SVG/1.1/DTD/svg11.dtd">
<svg version="1.0" x="0px" y="0px" xmlns="http://www.w3.org/2000/svg" width="1920px" height="1080px" viewBox="0 0 1920 1080">
	<g id="blender_frame_1">
		<g id="blender_object_Stroke">
			<!--Layer: Lines-->
			<g id="Lines">
				<polyline stroke="#000000" stroke-opacity="0.599999487" fill="none" stroke-linecap="round" stroke-width="4.29284668" points="335.324524,345.324524 335.226471,349.672791 335.421234,353.171448 335.970825,358.130310 336.892029,363.036133 339.218689,368.330383 345.955933,374.438293 355.935120,380.471069 369.096558,386.282410 386.057617,391.638672 406.222870,396.461609 431.086121,400.500854 456.270630,403.984253 481.503418,406.833740 505.490753,409.239807 528.129028,411.115845 549.528931,412.360840 569.519348,413.000366 588.098267,413.106506 605.367065,412.693176 621.332275,411.864868 636.105469,410.664673 649.779846,408.934692 662.208557,406.934021 673.465088,404.856628 683.609314,402.592590 692.674255,400.237427 700.676331,397.665771 707.625244,394.800049 713.707153,391.882263 718.759460,388.656616 722.384521,384.780457 724.464050,380.393738 724.722046,375.475037 723.622192,370.372742 721.266479,365.143005 717.943359,360.060730 713.883850,355.211487 709.261658,350.626953 704.199951,346.303101 698.889038,342.235413 693.297485,338.454712 687.638367,334.942444 681.226929,331.640076 673.275269,328.365479 664.868652,325.280701 655.394226,322.354004 645.271545,319.525757 635.057251,316.924561 624.476196,314.536133 614.096375,312.322021 603.562439,310.311829 593.040833,308.490601 582.810059,306.847778 572.536194,305.367676 562.464661,304.046265 552.201050,302.911011 542.021362,301.933899 531.472900,301.222473 521.033264,300.641296 510.449585,300.265747 500.150574,300.034912 489.922150,299.990417 480.155762,300.107544 470.906921,300.347656 462.063721,300.772949 453.833557,301.296387 445.976257,301.999756 438.552887,302.883667 431.083374,304.185730 423.829468,305.674500 416.646942,307.578369 409.757080,309.611877 403.163391,311.755554 396.752350,314.134033 390.831360,316.422180 385.327026,318.715637 380.163818,321.063110 375.404999,323.395508 371.058899,325.774048 367.016663,328.294373 363.095154,331.122864 359.474030,333.856689 356.057098,336.604736 352.920166,339.318542 349.952271,342.160889 347.186005,344.964294 344.597626,348.022827 342.190308,351.081299 340.032074,354.145264 338.268707,357.408386 336.812958,360.998840 335.828064,365.031189 335.407776,369.456299" />
				<polyline stroke="#000000" stroke-opacity="0.599999964" fill="none" stroke-linecap="round" stroke-width="4.29284668" points="342.551422,355.261536 340.232971,366.743347 334.064941,399.616333 310.284393,530.210205 275.404236,724.945007 262.237305,797.335083 260.326721,807.493896" />
				<polyline stroke="#000000" stroke-opacity="0.600000262" fill="none" stroke-linecap="round" stroke-width="4.29284668" points="266.668976,813.268311 271.072540,816.599609 274.950897,819.269897 281.807556,823.411987 291.399139,828.195190 305.164307,833.774719 321.436829,839.368469 341.411407,844.926392 363.630005,850.063965 388.940338,854.486023 420.107849,857.227905 452.108856,858.645874 483.630585,858.998413 513.899170,858.032837 541.945862,856.394409 567.420959,854.031311 590.178589,851.234863 610.036133,847.842163 626.636475,843.617615 639.914185,838.785889 648.942810,833.099548 653.001160,826.907532 652.243896,820.466187 646.222473,813.925049 635.478027,807.565552 621.653931,801.515259 601.823303,795.751404 578.931030,790.466187 553.667053,785.664795 527.898926,781.437012 501.267700,777.986694 474.300842,775.406372 448.614929,773.444031 424.764404,771.900330 402.825348,770.773438 382.774384,769.990723 364.440765,769.627197 347.726685,769.477417 331.450470,769.587708 315.572021,769.907837 300.155914,770.392212" />
				<polyline stroke="#000000" stroke-opacity="0.600000024" fill="none" stroke-linecap="round" stroke-width="4.29296875" points="738.224365,372.425537 736.641418,378.478516 732.133972,394.746948 728.367126,409.042725 723.851501,426.563904 718.583191,447.842407 713.041077,471.024048 707.305115,495.634216 701.456787,521.753479 695.715393,547.921082 690.117737,574.099121 684.897095,598.954834 679.908081,623.240112 671.110535,667.294006 651.139282,769.571350" />
			</g>
		</g>
	</g>
</svg>
